<?xml version="1.0" encoding="UTF-8" standalone="no"?>
<svg
   xmlns:dc="http://purl.org/dc/elements/1.1/"
   xmlns:cc="http://creativecommons.org/ns#"
   xmlns:rdf="http://www.w3.org/1999/02/22-rdf-syntax-ns#"
   xmlns:svg="http://www.w3.org/2000/svg"
   xmlns="http://www.w3.org/2000/svg"
   viewBox="0 0 289.62668 134.8"
   height="134.8"
   width="289.62668"
   xml:space="preserve"
   version="1.1"
   id="svg2"><metadata
     id="metadata8"><rdf:RDF><cc:Work
         rdf:about=""><dc:format>image/svg+xml</dc:format><dc:type
           rdf:resource="http://purl.org/dc/dcmitype/StillImage" /></cc:Work></rdf:RDF></metadata><defs
     id="defs6"><clipPath
       id="clipPath18"
       clipPathUnits="userSpaceOnUse"><path
         id="path20"
         d="m 0,0.0703125 2172,0 0,1010.9299875 -2172,0 L 0,0.0703125 Z" /></clipPath></defs><g
     transform="matrix(1.3333333,0,0,-1.3333333,0,134.8)"
     id="g10"><g
       transform="scale(0.1)"
       id="g12"><g
         id="g14"><g
           clip-path="url(#clipPath18)"
           id="g16"><path
             id="path22"
             style="fill:#b3b8bf;fill-opacity:1;fill-rule:nonzero;stroke:none"
             d="m 1083.33,431.891 -2.61,0.808 -0.09,0 C 941.762,480.129 848.34,588.129 847.98,661.84 l 5.942,0 c -0.453,-69.121 91.527,-177.121 228.688,-223.469 l -0.01,-0.027 1.66,-0.555 1.6,0.555 -0.01,0.027 c 137.16,46.348 229.14,154.348 228.78,223.469 l 0,343.26 -460.708,0 0,-343.26 -5.942,0 0,349.2 469.62,0 0,-2.97 0,2.97 2.97,0 0,-349.2 c -0.36,-73.711 -93.87,-181.711 -232.74,-229.141 l -2.61,-0.808 -0.95,2.789 -0.02,-0.067 0.97,-2.722 -0.99,-0.36 -0.9,0.36 m -2.61,0.808 0.9,2.836 -0.13,-0.383 -0.77,-2.453" /><path
             id="path24"
             style="fill:#e22c2a;fill-opacity:1;fill-rule:nonzero;stroke:none"
             d="m 965.383,551.031 c 33.371,-29.082 74.547,-52.91 118.827,-68.281 44.26,15.359 85.42,39.168 118.78,68.223 L 1084.15,635.93 965.383,551.031" /><path
             id="path26"
             style="fill:#e22c2a;fill-opacity:1;fill-rule:nonzero;stroke:none"
             d="m 1274.2,964.59 c -13.44,0 -366.544,0 -379.989,0 0,-13.547 0,-298.086 0,-298.086 0,-18.176 8.699,-40.508 24.133,-63.375 L 1084.15,721.672 1250.04,603.07 c 15.46,22.875 24.16,45.231 24.16,63.434 0,0 0,284.539 0,298.086" /><path
             id="path28"
             style="fill:#285c9e;fill-opacity:1;fill-rule:nonzero;stroke:none"
             d="m 1223.72,570.57 c 10.17,10.684 18.99,21.672 26.32,32.5 L 1084.15,721.672 918.344,603.129 c 7.332,-10.867 16.168,-21.844 26.351,-32.559 4.516,-4.765 9.243,-9.402 14.153,-13.914 l 0.023,-0.031 c 2.086,-1.914 4.344,-3.719 6.512,-5.594 l 118.767,84.899 118.84,-84.957 c 7.26,6.316 14.28,12.8 20.73,19.597" /><path
             id="path30"
             style="fill:#231f20;fill-opacity:1;fill-rule:nonzero;stroke:none"
             d="m 7.73828,157.031 c -1.96875,0 -3.44922,-0.898 -4.98437,-2.617 l -1.69141,0.981 12.1719,25.917 2.2968,-1.253 c -0.371,-1.071 -0.5898,-1.899 -0.5898,-2.868 l 0.4492,0 -0.4492,0 c 0.2695,-9.179 24.1172,-19.98 46.9805,-20.07 l 0,0.449 0,-0.449 c 14.6679,0 25.1093,2.43 32.039,6.57 6.8401,4.137 10.0781,10.168 10.0781,17.008 0.09,9.27 -6.4804,13.5 -15.7499,15.301 -9.3594,1.801 -21.6875,1.352 -34.0196,1.621 -24.75,0.629 -48.87106,3.777 -48.87106,31.949 0,10.801 6.30076,19.981 16.92186,26.551 10.6211,6.481 25.5586,10.348 42.3906,10.348 l 0,0.453 0,-0.453 c 26.3672,0 38.1601,-8.731 44.4611,-8.821 l 0,0.454 0,-0.454 c 3.258,0 4.797,1.391 6.18,2.922 l 2.058,-0.863 -12.34,-25.809 -1.886,1.282 c 0.132,1.027 0.136,1.855 0.136,2.761 -0.179,5.039 -16.0192,13.95 -38.6091,14.039 -25.1093,0 -41.1328,-9.179 -41.2226,-22.14 l 0.4531,0 -0.4531,0 c 0,-8.192 6.4805,-11.61 15.75,-13.051 9.3633,-1.348 21.6914,-0.898 34.0234,-1.348 24.75,-0.902 48.8673,-5.222 48.9573,-34.742 l 0.453,0 -0.453,0 c 0,-9.539 -5.129,-19.078 -15.207,-26.187 -9.9925,-7.114 -25.0237,-11.793 -44.6409,-11.793 -33.3008,0 -47.3399,14.222 -54.63282,14.312 m 94.95272,77.848 c 0,0.016 0.004,0.031 0.008,0.047 l 0.035,-0.004 -0.031,-0.051 -0.012,0.008" /><path
             id="path32"
             style="fill:#231f20;fill-opacity:1;fill-rule:nonzero;stroke:none"
             d="m 7.73828,156.219 0,0.359 0,-0.359 C 6.03125,156.129 4.76953,155.41 3.14844,153.52 l -0.3125,0.316 0.3125,-0.316 -0.26953,-0.27 -0.26953,0.18 -2.339849,1.441 L 0,155.051 0.0898438,155.41 12.6016,182.051 l 0.2695,0.449 0.3594,-0.27 3.0586,-1.621 0.2695,-0.179 -0.0898,-0.36 C 16.0195,178.898 15.75,178.09 15.75,177.191 l -0.8086,0 c 0,0.969 0.2188,1.797 0.5898,2.868 l -2.2968,1.253 -12.1719,-25.917 1.69141,-0.981 c 1.53515,1.719 3.01562,2.617 4.98437,2.617 7.29292,-0.09 21.33202,-14.312 54.63282,-14.312 19.6172,0 34.6484,4.679 44.6409,11.793 10.078,7.109 15.207,16.648 15.207,26.187 l 0.812,0 c 0,-9.898 -5.312,-19.621 -15.48,-26.91 C 97.2891,146.59 82.1719,141.82 62.3711,141.82 l 0,0.45 0,-0.45 c -33.3906,0 -48.0625,14.489 -54.63282,14.399 m 5.30472,25.636 0.0078,0.016 -0.4492,0.18 0.4414,-0.196 m -5.30472,-25.636 0,0 m 54.18362,1.711 c 14.5781,0 24.9297,2.429 31.5898,6.48 6.6603,4.051 9.7183,9.719 9.7183,16.289 -0.089,8.731 -5.8511,12.602 -15.1206,14.403 -9.1797,1.796 -21.5078,1.437 -33.8399,1.707 C 29.6094,197.352 4.5,200.59 4.5,229.57 c 0,22.41 26.2812,37.711 60.2109,37.711 l 0,-0.812 c -16.832,0 -31.7695,-3.867 -42.3906,-10.348 -10.6211,-6.57 -16.92186,-15.75 -16.92186,-26.551 0,-28.172 24.12106,-31.32 48.87106,-31.949 12.3321,-0.269 24.6602,0.18 34.0196,-1.621 9.2695,-1.801 15.8399,-6.031 15.7499,-15.301 0,-6.84 -3.238,-12.871 -10.0781,-17.008 -6.9297,-4.14 -17.3711,-6.57 -32.039,-6.57 l 0,0.809 m 0,-0.36 0,0.36 0,-0.36 m -46.9805,19.621 0.8086,0 c -0.0898,-3.871 5.7617,-8.82 14.5781,-12.601 8.7305,-3.871 20.3438,-6.66 31.5938,-6.66 l 0,-0.809 c -22.8633,0.09 -46.711,10.891 -46.9805,20.07 m 107.2776,3.508 c -0.09,29.52 -24.2073,33.84 -48.9573,34.742 -12.332,0.45 -24.6601,0 -34.0234,1.348 -9.2695,1.441 -15.75,4.859 -15.75,13.051 l 0.9023,0 c 0,-7.559 5.7578,-10.711 15.0313,-12.149 9.1797,-1.441 21.5078,-0.992 33.8398,-1.351 24.6602,-0.899 49.8593,-5.399 49.7693,-35.641 l -0.812,0 M 23.4883,229.84 c 0.0898,12.961 16.1133,22.14 41.2226,22.14 22.5899,-0.089 38.4301,-9 38.6091,-14.039 0,-0.906 -0.004,-1.734 -0.136,-2.761 l 1.886,-1.282 12.34,25.809 -2.058,0.863 c -1.383,-1.531 -2.922,-2.922 -6.18,-2.922 l 0,0.903 c 3.148,0 4.316,1.258 5.758,2.789 l 0.179,0.269 0.27,-0.089 2.793,-1.168 0.449,-0.18 -0.269,-0.453 -12.692,-26.641 -0.406,0.184 -0.008,-0.016 0.414,-0.168 -0.269,-0.449 -0.36,0.269 -2.519,1.622 -0.274,0.179 0,0.27 0.453,-0.09 -0.179,-0.359 0.222,0.402 -0.496,0.047 c 0.274,1.082 0.274,1.98 0.274,2.972 0.09,1.707 -3.7815,5.309 -10.4417,8.098 -6.6601,2.789 -16.1992,5.133 -27.3594,5.133 l 0,0.449 0,-0.449 c -12.5117,0 -22.5898,-2.344 -29.6093,-6.121 -6.9297,-3.871 -10.711,-9.18 -10.711,-15.211 l -0.9023,0 m 85.6837,28.262 0,0.449 0,-0.449 m 9.18,1.617 -0.348,0.261 -0.016,-0.035 0.364,-0.226 m -53.6411,6.75 0,0.812 c 26.461,0 38.7891,-8.82 44.4611,-8.73 l 0,-0.903 c -6.301,0.09 -18.0939,8.821 -44.4611,8.821 m 0,0.453 0,0.359 0,-0.359" /><path
             id="path34"
             style="fill:#231f20;fill-opacity:1;fill-rule:nonzero;stroke:none"
             d="m 214.289,144.07 0,1.907 c 2.016,0.078 3.484,0.687 4.32,1.695 0.993,1.078 1.262,2.609 1.262,4.316 l 0,105.121 c 0,1.711 -0.269,3.243 -1.262,4.321 -0.836,1.004 -2.304,1.613 -4.32,1.695 l 0,1.906 29.699,0 0,-1.906 c -2,-0.082 -3.398,-0.691 -4.316,-1.695 -0.902,-1.078 -1.262,-2.61 -1.262,-4.321 l 0.449,0 -0.449,0 0,-105.121 0.449,0 -0.449,0 c 0,-1.707 0.36,-3.238 1.262,-4.316 0.918,-1.008 2.316,-1.613 4.316,-1.695 l 0,-1.907 -29.699,0" /><path
             id="path36"
             style="fill:#231f20;fill-opacity:1;fill-rule:nonzero;stroke:none"
             d="m 244.441,143.172 0,0.449 0.45,0 0,-0.449 -0.45,0 m -30.601,0 -0.449,0 0,0.449 0.449,0 -0.449,0 0,3.238 0.449,0 c 4.23,0.09 5.039,1.891 5.129,5.129 l 0,105.121 c -0.09,3.243 -0.899,5.039 -5.129,5.129 l -0.449,0 0,0.453 0.449,0 -0.449,0 0,3.239 31.05,0 0,-0.45 0,0.45 0.45,0 0,-3.239 -0.45,0 0,-0.453 c -4.23,-0.09 -5.043,-1.886 -5.132,-5.129 l -0.899,0 c 0,1.711 0.36,3.243 1.262,4.321 0.918,1.004 2.316,1.613 4.316,1.695 l 0,1.906 -29.699,0 0,-1.906 c 2.016,-0.082 3.484,-0.691 4.32,-1.695 0.993,-1.078 1.262,-2.61 1.262,-4.321 l 0,-105.121 c 0,-1.707 -0.269,-3.238 -1.262,-4.316 -0.836,-1.008 -2.304,-1.617 -4.32,-1.695 l 0,-1.907 29.699,0 0,1.907 c -2,0.082 -3.398,0.687 -4.316,1.695 -0.902,1.078 -1.262,2.609 -1.262,4.316 l 0.899,0 c 0.089,-3.238 0.902,-5.039 5.132,-5.129 l 0,-0.449 0,0.449 0.45,0 0,-3.238 -0.45,0 0,-0.449 -30.601,0 m 24.57,8.816 0,105.121 0.899,0 0,-105.121 -0.899,0 m 6.031,110.25 0,0.453 0.45,0 0,-0.453 -0.45,0" /><path
             id="path38"
             style="fill:#231f20;fill-opacity:1;fill-rule:nonzero;stroke:none"
             d="m 473.113,138.941 c -0.078,1.719 -0.707,3.114 -2.054,3.868 -1.438,0.902 -3.508,1.261 -6.481,1.261 l -102.418,0 0,1.907 c 2.012,0.078 3.481,0.687 4.32,1.695 0.989,1.078 1.258,2.609 1.258,4.316 l 0,105.121 c 0,1.711 -0.269,3.243 -1.258,4.321 -0.839,1.004 -2.308,1.613 -4.32,1.695 l 0,1.906 29.699,0 0,-1.906 c -2.011,-0.082 -3.48,-0.695 -4.32,-1.785 -0.898,-1.262 -1.258,-2.969 -1.258,-5.129 l 0.449,0 -0.449,0 0,-97.289 0.449,0 -0.449,0 0,-0.453 78.297,0 0,0.453 0,-0.453 c 2.703,0 4.863,0.543 6.391,1.801 1.371,1.113 2.082,2.882 2.148,5.218 l 1.903,0 0,-26.547 -1.907,0" /><path
             id="path40"
             style="fill:#231f20;fill-opacity:1;fill-rule:nonzero;stroke:none"
             d="m 475.469,138.129 0,0.449 0.453,0 0,-0.449 -0.453,0 m -2.789,0 -0.36,0 0,0.449 0.36,0 -0.36,0 c -0.09,3.332 -1.89,4.5 -7.742,4.594 l 0,0.449 0,-0.449 -103.316,0 0,0.449 0.449,0 -0.449,0 0,3.238 0.449,0 c 4.23,0.09 5.039,1.891 5.129,5.129 l 0,105.121 c -0.09,3.243 -0.899,5.039 -5.129,5.129 l -0.449,0 0,0.453 0.449,0 -0.449,0 0,3.239 31.047,0 0,-0.45 0,0.45 0.453,0 0,-3.239 -0.453,0 0,-0.453 c -4.231,-0.09 -5.039,-1.797 -5.129,-6.027 l -0.899,0 c 0,2.16 0.36,3.867 1.258,5.129 0.84,1.09 2.309,1.703 4.32,1.785 l 0,1.906 -29.699,0 0,-1.906 c 2.012,-0.082 3.481,-0.691 4.32,-1.695 0.989,-1.078 1.258,-2.61 1.258,-4.321 l 0,-105.121 c 0,-1.707 -0.269,-3.238 -1.258,-4.316 -0.839,-1.008 -2.308,-1.617 -4.32,-1.695 l 0,-1.907 102.418,0 c 2.973,0 5.043,-0.359 6.481,-1.261 1.347,-0.754 1.976,-2.149 2.054,-3.868 l 1.907,0 0,26.547 -1.903,0 c -0.066,-2.336 -0.777,-4.105 -2.148,-5.218 -1.528,-1.258 -3.688,-1.801 -6.391,-1.801 l 0,0.902 c 5.313,0.09 7.652,1.801 7.742,6.481 l 0,0.449 3.149,0 0,-0.449 0,0.449 0.453,0 0,-27.723 -0.453,0 0,-0.449 -2.789,0 m -8.102,20.793 0,0.449 0,-0.449 m -77.848,-0.453 -0.449,0 0,0.453 0.449,0 -0.449,0 0,97.289 0.899,0 0,-96.84 77.398,0 0,-0.902 -77.848,0 m 5.579,103.769 0,0.453 0.453,0 0,-0.453 -0.453,0" /><path
             id="path42"
             style="fill:#231f20;fill-opacity:1;fill-rule:nonzero;stroke:none"
             d="m 577.801,144.07 0,1.899 c 1.828,0.035 3.133,0.301 4.051,0.801 0.988,0.539 1.437,1.531 1.437,2.429 0,2.071 -0.269,2.973 -1.437,5.313 l -0.036,-0.024 -45.328,100.551 c -2.883,6.559 -5.258,8.106 -9.269,8.106 l 0,1.886 32.492,0 0,-1.898 c -1.773,-0.039 -3.234,-0.321 -4.231,-0.985 -1.171,-0.628 -1.8,-1.707 -1.8,-3.148 l 0.449,0 -0.449,0 c 0.09,-1.352 0.992,-2.969 1.711,-4.32 l 0.367,0.164 -0.367,-0.164 40.05,-89.008 0.403,0.18 0.023,-0.012 -0.426,-0.168 0.45,-0.902 0.359,0.902 37.98,89.008 c 0.719,1.351 1.442,2.789 1.442,4.14 0,1.168 -0.363,2.34 -1.442,3.149 -1.011,0.758 -2.425,1.117 -4.589,1.164 l 0,1.898 32.039,0 0,-1.894 c -4.305,-0.078 -6.746,-2.532 -9.27,-8.098 l -43.469,-100.617 0.133,-0.07 -0.133,0.07 -0.089,0 c -0.18,-0.633 -1.801,-3.602 -1.801,-5.223 l 0.359,0 -0.359,0 1.078,-2.25 c 0.844,-0.59 2.082,-0.941 4.23,-0.984 l 0,-1.895 -34.558,0 m 56.062,110.774 0.008,0.015 0.359,-0.179 -0.367,0.164" /><path
             id="path44"
             style="fill:#231f20;fill-opacity:1;fill-rule:nonzero;stroke:none"
             d="m 612.809,143.172 0,0.449 0.363,0 0,-0.449 -0.363,0 m -35.457,0 -0.454,0 0,0.449 0.454,0 -0.454,0 0,3.238 0.454,0 c 4.136,0 5.039,1.082 5.128,2.34 -0.089,2.071 -0.179,2.52 -1.351,4.86 l 0.359,0.179 -0.359,-0.179 -45.449,100.621 c -3.059,6.66 -4.77,7.558 -8.821,7.558 l -0.449,0 0,0.453 0.449,0 -0.449,0 0,3.239 33.75,0 0,-0.45 0,0.45 0.449,0 0,-3.239 -0.449,0 0,-0.453 c -3.871,0 -5.582,-1.078 -5.582,-3.238 l -0.898,0 c 0,1.441 0.629,2.52 1.8,3.148 0.997,0.664 2.458,0.946 4.231,0.985 l 0,1.898 -32.492,0 0,-1.886 c 4.011,0 6.386,-1.547 9.269,-8.106 l 45.328,-100.551 0.036,0.024 c 1.168,-2.34 1.437,-3.242 1.437,-5.313 0,-0.898 -0.449,-1.89 -1.437,-2.429 -0.918,-0.5 -2.223,-0.766 -4.051,-0.801 l 0,-1.899 34.558,0 0,1.895 c -2.148,0.043 -3.386,0.394 -4.23,0.984 l -1.078,2.25 0.808,0 c 0.09,-1.168 0.27,-2.25 4.95,-2.34 l 0,-0.449 0,0.449 0.363,0 0,-3.238 -0.363,0 0,-0.449 -35.457,0 m -41.672,111.508 0.359,0.179 -0.359,-0.179 m 71.371,-105.481 c 0,1.621 1.621,4.59 1.801,5.223 l 0.089,0 0.133,-0.07 -0.133,0.07 43.469,100.617 c 2.524,5.566 4.965,8.02 9.27,8.098 l 0,1.894 -32.039,0 0,-1.898 c 2.164,-0.047 3.578,-0.406 4.589,-1.164 1.079,-0.809 1.442,-1.981 1.442,-3.149 0,-1.351 -0.723,-2.789 -1.442,-4.14 l -37.98,-89.008 -0.359,-0.902 -0.45,0.902 0.426,0.168 -0.023,0.012 -0.403,-0.18 -40.05,89.008 0.808,0.359 39.637,-88.086 37.586,88.086 0.09,0 0.359,-0.18 -0.449,0.18 0.808,-0.359 -0.718,0.359 c 0.629,1.352 1.347,2.789 1.258,3.781 0,1.981 -0.989,3.418 -5.579,3.418 l -0.363,0 0,0.453 0.363,0 -0.363,0 0,3.239 33.301,0 0,-0.45 0,0.45 0.449,0 0,-3.239 -0.449,0 0,-0.453 c -4.231,0 -6.301,-1.797 -8.91,-7.558 l -0.809,0.359 0.809,-0.359 -43.516,-100.516 0.047,-0.016 c -0.27,-0.808 -1.891,-3.777 -1.891,-4.949 l -0.808,0 M 553.68,259 l 0.898,0 c 0,-0.898 0.902,-2.609 1.621,-3.961 l -0.449,-0.18 0.449,0.18 -0.808,-0.359 c -0.719,1.351 -1.621,2.968 -1.711,4.32 m 108.449,3.238 0,0.453 0.449,0 0,-0.453 -0.449,0 m -101.969,0 0,0.453 0.449,0 0,-0.453 -0.449,0" /><path
             id="path46"
             style="fill:#231f20;fill-opacity:1;fill-rule:nonzero;stroke:none"
             d="m 870.465,138.941 c -0.078,1.719 -0.707,3.114 -2.055,3.868 -1.441,0.902 -3.512,1.261 -6.48,1.261 l -103.321,0 0,1.907 c 2.004,0.082 3.399,0.687 4.321,1.695 0.898,1.078 1.261,2.609 1.261,4.316 l 0,105.121 -0.453,0 0.453,0 c 0,1.711 -0.363,3.243 -1.261,4.321 -0.922,1.004 -2.317,1.613 -4.321,1.695 l 0,1.906 96.661,0 0,0.449 0,-0.449 c 3.96,0 6.3,0.27 7.742,1.078 1.398,0.743 1.89,2.012 1.965,3.602 l 1.902,0 0,-25.563 -1.906,0 c -0.086,1.879 -0.727,3.508 -2.145,4.59 -1.437,1.262 -3.867,1.891 -7.379,1.891 l -72.719,0 0,-37.078 0.45,0 -0.45,0 0,-0.36 47.52,0 0,0.36 0,-0.36 c 2.789,0 5.219,0.36 7.02,1.438 1.695,1.019 2.75,2.672 2.867,5.043 l 1.902,0 0,-27.184 -1.906,0 c -0.086,2.192 -0.801,3.762 -2.235,4.774 -1.617,1.078 -3.957,1.437 -7.199,1.437 l -47.969,0 0,-39.777 0.45,0 -0.45,0 0,-0.453 77.848,0 0,0.453 0,-0.453 c 3.242,0 5.762,0.543 7.473,1.89 1.621,1.282 2.351,3.293 2.422,6.032 l 1.898,0 0,-27.45 -1.906,0" /><path
             id="path48"
             style="fill:#231f20;fill-opacity:1;fill-rule:nonzero;stroke:none"
             d="m 872.82,138.129 0,0.449 0.45,0 0,-0.449 -0.45,0 m -2.789,0 -0.359,0 0,0.449 0.359,0 -0.359,0 c -0.094,3.332 -1.891,4.5 -7.742,4.594 l 0,0.449 0,-0.449 -104.219,0 0,0.449 0.449,0 -0.449,0 0,3.238 0.449,0 c 4.231,0.09 5.039,1.891 5.129,5.129 l 0,105.121 0.902,0 0,-105.121 c 0,-1.707 -0.363,-3.238 -1.261,-4.316 -0.922,-1.008 -2.317,-1.613 -4.321,-1.695 l 0,-1.907 103.321,0 c 2.968,0 5.039,-0.359 6.48,-1.261 1.348,-0.754 1.977,-2.149 2.055,-3.868 l 1.906,0 0,27.45 -1.898,0 c -0.071,-2.739 -0.801,-4.75 -2.422,-6.032 -1.711,-1.347 -4.231,-1.89 -7.473,-1.89 l 0,0.902 c 6.481,0.09 9,1.801 9.094,7.469 l 0,0.359 3.148,0 0,-0.359 0,0.359 0.45,0 0,-28.621 -0.45,0 0,-0.449 -2.789,0 m -9.453,20.793 0,0.449 0,-0.449 m -77.398,-0.453 -0.45,0 0,0.453 0.45,0 -0.45,0 0,39.777 47.969,0 c 3.242,0 5.582,-0.359 7.199,-1.437 1.434,-1.012 2.149,-2.582 2.235,-4.774 l 1.906,0 0,27.184 -1.902,0 c -0.117,-2.371 -1.172,-4.024 -2.867,-5.043 -1.801,-1.078 -4.231,-1.438 -7.02,-1.438 l 0,0.809 c 5.488,0.09 9,1.531 9,6.121 l 0,0.359 3.238,0 0,-0.359 0,0.359 0.453,0 0,-28.441 -0.453,0 0,-0.449 -3.238,0 0,0.449 0.449,0 -0.449,0 c -0.09,4.41 -2.07,5.762 -8.551,5.852 l 0,0.359 0,-0.359 -47.07,0 0,-38.52 76.949,0 0,-0.902 -77.398,0 m 47.07,55.082 0,0.449 0,-0.449 m 12.238,-21.961 0,0.449 0.453,0 0,-0.449 -0.453,0 m -59.308,21.601 -0.45,0 0,0.36 0.45,0 -0.45,0 0,37.078 72.719,0 c 3.512,0 5.942,-0.629 7.379,-1.891 1.418,-1.082 2.059,-2.711 2.145,-4.59 l 1.906,0 0,25.563 -1.902,0 c -0.075,-1.59 -0.567,-2.859 -1.965,-3.602 -1.442,-0.808 -3.782,-1.078 -7.742,-1.078 l 0,0.899 c 7.921,0.09 8.73,0.992 8.82,4.23 l 0,0.36 3.238,0 0,-0.36 0,0.36 0.363,0 0,-26.821 -0.363,0 0,-0.449 -3.238,0 0,0.449 0.449,0 -0.449,0 c -0.09,3.781 -1.711,6.031 -8.641,6.121 l 0,0.36 0,-0.36 -71.82,0 0,-35.82 46.621,0 0,-0.809 -47.07,0 m 72.09,52.289 0,0.45 0,-0.45 m 12.058,-22.23 0,0.449 0.363,0 0,-0.449 -0.363,0 m -104.039,13.859 c -0.09,3.243 -0.898,5.039 -5.129,5.129 l -0.449,0 0,0.453 0.449,0 -0.449,0 0,3.239 97.559,0 0,-0.899 -96.661,0 0,-1.906 c 2.004,-0.082 3.399,-0.691 4.321,-1.695 0.898,-1.078 1.261,-2.61 1.261,-4.321 l -0.902,0" /><path
             id="path50"
             style="fill:#231f20;fill-opacity:1;fill-rule:nonzero;stroke:none"
             d="m 1067.76,144.07 0,1.895 c 1.71,0.027 2.76,0.203 3.51,0.535 l 1.08,1.98 0,0.18 -1.17,2.52 0,0.09 -28.53,45.359 -0.09,0.269 -0.27,0 0,-0.449 0,0.449 -43.11,0 0,-44.91 c 0,-1.707 0.359,-3.238 1.26,-4.316 0.92,-1.008 2.32,-1.613 4.32,-1.695 l 0,-1.907 -29.701,0 0,1.907 c 2.015,0.078 3.484,0.687 4.32,1.695 0.992,1.078 1.262,2.609 1.262,4.316 l 0,105.121 c 0,1.711 -0.27,3.243 -1.262,4.321 -0.836,1.004 -2.305,1.613 -4.32,1.695 l 0,1.906 77.221,0 0,0.449 0,-0.449 c 30.51,-0.09 42.3,-11.519 42.39,-33.39 l 0.45,0 -0.45,0 c -0.09,-18.813 -9.45,-30.512 -32.31,-33.571 l 0.09,-0.449 -0.09,0.449 -0.63,-0.09 0.36,-0.628 29.16,-45.18 c 3.05,-4.703 4.58,-6.203 9,-6.215 l 0,-1.887 -32.49,0 m -17.37,67.68 c 9.45,0 15.93,1.98 20.16,5.488 4.23,3.512 6.03,8.641 6.03,14.852 0,6.121 -1.35,10.711 -5.58,13.769 -4.14,2.969 -10.98,4.321 -21.78,4.321 l -50.04,0 0,-37.981 0.449,0 -0.449,0 0,-0.449 51.21,0 0,0.449 0,-0.449 m 20.44,-60.676 0.06,0.031 0.29,0.075 -0.35,-0.118 0,0.012 m -28.54,45.375 0.36,0.18 -0.34,-0.211 -0.02,0.031" /><path
             id="path52"
             style="fill:#231f20;fill-opacity:1;fill-rule:nonzero;stroke:none"
             d="m 1100.7,143.172 0,0.449 0.36,0 0,-0.449 -0.36,0 m -33.39,0 -0.45,0 0,0.449 0.45,0 -0.45,0 0,3.238 0.45,0 c 3.86,0 4.12,0.493 4.22,1.469 l -1.13,2.512 -0.03,-0.02 -28.33,45.18 -41.96,0 0,-44.012 c 0.09,-3.238 0.9,-5.039 5.13,-5.129 l 0,-0.449 0,0.449 0.45,0 0,-3.238 -0.45,0 0,-0.449 -31.05,0 0,0.449 0.449,0 -0.449,0 0,3.238 0.449,0 c 4.231,0.09 5.039,1.891 5.129,5.129 l 0,105.121 c -0.09,3.243 -0.898,5.039 -5.129,5.129 l -0.449,0 0,0.453 0.449,0 -0.449,0 0,3.239 78.12,0 0,-0.899 -77.221,0 0,-1.906 c 2.015,-0.082 3.484,-0.691 4.32,-1.695 0.992,-1.078 1.262,-2.61 1.262,-4.321 l 0,-105.121 c 0,-1.707 -0.27,-3.238 -1.262,-4.316 -0.836,-1.008 -2.305,-1.617 -4.32,-1.695 l 0,-1.907 29.701,0 0,1.907 c -2,0.082 -3.4,0.687 -4.32,1.695 -0.901,1.078 -1.26,2.609 -1.26,4.316 l 0,44.91 43.11,0 0,-0.492 0.36,0.223 -0.36,-0.18 0,0.449 0.27,0 0.09,-0.269 28.53,-45.359 0,-0.09 1.17,-2.52 0,-0.18 -1.08,-1.98 c -0.75,-0.332 -1.8,-0.508 -3.51,-0.535 l 0,-1.895 32.49,0 0,1.887 c -4.42,0.012 -5.95,1.512 -9,6.215 l 0.72,0.449 c 3.33,-4.859 4.14,-5.762 8.73,-5.762 l 0,-0.449 0,0.449 0.36,0 0,-3.238 -0.36,0 0,-0.449 -33.39,0 m 3.46,7.875 0.41,0.133 -0.29,-0.075 -0.06,-0.031 -0.06,-0.027 m -65.56,-7.875 0,0.449 0.45,0 0,-0.449 -0.45,0 m 56.88,54.18 -0.36,0.628 0.63,0.09 0.09,-0.449 -0.09,0.449 c 22.86,3.059 32.22,14.758 32.31,33.571 l 0.9,0 c 0,-18.891 -9.8,-31.25 -32.36,-34.375 l 28.76,-44.645 -0.72,-0.449 0.36,0.269 -0.36,-0.269 -29.16,45.18 m 29.16,-45.18 0,0 m -40.86,60.476 c 18.72,0.09 25.2,7.383 25.29,19.442 -0.09,11.879 -4.86,17.101 -26.46,17.191 l 0,0.449 0,-0.449 -49.14,0 0,-36.633 50.31,0 0,-0.898 -51.21,0 0,0.449 0.449,0 -0.449,0 0,37.981 50.04,0 c 10.8,0 17.64,-1.352 21.78,-4.321 4.23,-3.058 5.58,-7.648 5.58,-13.769 0,-6.211 -1.8,-11.34 -6.03,-14.852 -4.23,-3.508 -10.71,-5.488 -20.16,-5.488 l 0,0.898 m 0,-0.449 0,0.449 0,-0.449 m 44.28,19.442 c -0.09,21.871 -11.88,33.3 -42.39,33.39 l 0,0.899 c 15.3,0 26.1,-2.969 33.12,-8.731 7.02,-5.847 10.17,-14.488 10.17,-25.558 l -0.9,0 m -42.39,33.839 0,0.45 0,-0.45" /><path
             id="path54"
             style="fill:#231f20;fill-opacity:1;fill-rule:nonzero;stroke:none"
             d="m 1193.22,207.609 c 0,30.961 27.54,58.86 71.64,58.86 l 0,0.453 0,-0.453 c 15.03,0 27.27,-3.239 36.27,-6.297 9,-2.973 14.22,-6.211 17.01,-6.211 l 0,0.449 0,-0.449 c 2.25,-0.082 2.92,0.918 3.62,1.902 l 2.08,-1.414 -13.96,-24.086 -2.17,1.055 c 0.42,0.648 0.89,1.59 0.89,2.832 -0.27,5.672 -20.16,17.191 -44.91,17.281 -12.51,0 -25.65,-3.422 -35.55,-10.98 -9.99,-7.563 -16.74,-19.172 -16.74,-35.281 l 0.45,0 -0.45,0 c 0,-28.348 27.81,-47.7 56.52,-47.7 l 0,0.45 0,-0.45 c 22.14,0.09 42.12,14.942 42.3,21.782 0,1.066 -0.52,2.257 -0.95,3.035 l 2.28,1.41 16.65,-21.539 -2.3,-1.61 c -0.97,1.051 -2.21,1.512 -3.53,1.512 -3.78,-0.269 -17.91,-19.441 -56.61,-19.441 -43.11,0 -72.45,27.812 -72.54,64.89 m 132.6,-47.496 0,-0.004 -0.03,-0.019 0.03,0.023" /><path
             id="path56"
             style="fill:#231f20;fill-opacity:1;fill-rule:nonzero;stroke:none"
             d="m 1265.76,141.82 0,0.45 0,-0.45 c -21.69,0 -40.05,7.02 -53.01,18.809 -12.87,11.699 -20.34,28.172 -20.34,46.98 0,15.75 7.02,30.692 19.53,41.672 12.6,10.981 30.69,18 52.92,18 l 0,-0.812 c -44.1,0 -71.64,-27.899 -71.64,-58.86 0.09,-37.078 29.43,-64.89 72.54,-64.89 38.7,0 52.83,19.172 56.61,19.441 1.32,0 2.56,-0.461 3.53,-1.512 l 2.3,1.61 -16.65,21.539 -2.28,-1.41 c 0.43,-0.778 0.95,-1.969 0.95,-3.035 -0.18,-6.84 -20.16,-21.692 -42.3,-21.782 l 0,0.809 c 10.89,0 21.33,3.781 28.98,8.281 7.65,4.5 12.6,9.899 12.51,12.692 0,0.898 -0.63,2.339 -1.08,2.968 l -0.27,0.36 0.36,0.269 3.06,1.801 0.27,0.27 0.27,-0.36 17.19,-22.23 -0.39,-0.293 0.21,-0.336 -0.18,0.359 0.36,0.27 0.27,-0.36 -0.45,-0.269 -2.97,-2.071 -0.24,0.383 -0.39,-0.293 c -0.81,1.078 -1.8,1.442 -3.06,1.442 l 0,0.449 0,-0.449 c -2.69,0.179 -17.75,-19.442 -56.35,-19.442 -0.08,0 -0.17,0 -0.26,0 m 2.16,16.2 0,0.359 0,-0.359 m 40.41,24.3 0.33,0.203 -0.02,0.032 -0.31,-0.235 m -96.93,22.95 0.9,0 c 0,-13.86 6.75,-25.559 17.1,-33.84 10.44,-8.282 24.3,-13.051 38.52,-13.051 l 0,-0.809 c -28.71,0 -56.52,19.352 -56.52,47.7 m 114.03,-45.45 0.36,0.27 0.27,-0.36 -0.36,-0.269 -0.27,0.359 m -114.03,45.45 c 0,16.109 6.75,27.718 16.74,35.281 9.9,7.558 23.04,10.98 35.55,10.98 24.75,-0.09 44.64,-11.609 44.91,-17.281 0,-1.242 -0.47,-2.184 -0.89,-2.832 l 2.17,-1.055 13.96,24.086 -2.08,1.414 c -0.7,-0.984 -1.37,-1.984 -3.62,-1.902 l 0,0.809 c 1.17,0 1.62,0.269 1.98,0.539 l 1.17,1.441 0.27,0.27 0.36,-0.18 2.79,-1.891 -0.25,-0.328 0.25,0.328 0.27,-0.179 -0.18,-0.36 -14.4,-24.84 -0.18,-0.269 -0.36,0.09 -2.97,1.437 -0.45,0.184 0.27,0.449 0.34,-0.262 0.02,0.035 -0.36,0.227 c 0.45,0.719 1.08,1.527 1.08,2.789 0.09,2.07 -4.77,6.391 -12.78,9.898 -8.01,3.602 -19.08,6.571 -31.32,6.571 l 0,0.453 0,-0.453 c -24.84,0 -51.39,-13.77 -51.39,-45.449 l -0.9,0 m 106.74,49.14 0,0.36 0,-0.36 m -17.01,5.762 0.27,0.898 c 9,-3.058 14.49,-6.3 16.74,-6.3 l 0,-0.809 c -2.79,0 -8.01,3.238 -17.01,6.211 m -36.27,6.297 0,0.812 c 15.12,0 27.45,-3.242 36.54,-6.211 l -0.27,-0.898 0.09,0.449 -0.09,-0.449 c -9,3.058 -21.24,6.297 -36.27,6.297 m 0,0.453 0,0.359 0,-0.359 m 36.27,-6.75 0,0" /><path
             id="path58"
             style="fill:#231f20;fill-opacity:1;fill-rule:nonzero;stroke:none"
             d="m 1524.24,144.07 0,1.895 c 1.72,0.027 2.85,0.203 3.51,0.535 l 1.08,1.98 0,0.18 -0.36,-0.18 -0.01,0.016 0.37,0.164 -1.17,2.61 -28.53,45.359 -0.09,0.269 -0.27,0 0,-0.449 0,0.449 -43.02,0 0,-44.91 c 0,-1.707 0.27,-3.238 1.17,-4.316 0.92,-1.008 2.32,-1.613 4.32,-1.695 l 0,-1.907 -29.7,0 0,1.907 c 2.08,0.078 3.48,0.683 4.32,1.695 0.99,1.078 1.26,2.609 1.26,4.316 l 0,105.121 c 0,1.711 -0.27,3.243 -1.26,4.321 -0.84,1.008 -2.24,1.617 -4.32,1.695 l 0,1.906 77.22,0 0,0.449 0,-0.449 c 30.51,-0.09 42.3,-11.519 42.39,-33.39 l 0.45,0 -0.45,0 c 0,-18.813 -9.45,-30.512 -32.31,-33.571 l 0.09,-0.449 -0.09,0.449 -0.63,-0.09 0.36,-0.628 29.16,-45.18 c 3.14,-4.703 4.59,-6.203 9,-6.215 l 0,-1.887 -32.49,0 m -17.37,67.68 c 9.45,0 16.02,1.98 20.16,5.488 4.23,3.512 6.03,8.641 6.03,14.852 0,6.121 -1.35,10.711 -5.58,13.769 -4.14,2.969 -10.98,4.321 -21.78,4.321 l -49.95,0 0,-37.981 0.36,0 -0.36,0 0,-0.449 51.12,0 0,0.449 0,-0.449 m -8.1,-15.301 0.36,0.18 -0.34,-0.211 -0.02,0.031" /><path
             id="path60"
             style="fill:#231f20;fill-opacity:1;fill-rule:nonzero;stroke:none"
             d="m 1557.18,143.172 0,0.449 0.45,0 0,-0.449 -0.45,0 m -33.39,0 -0.45,0 0,0.449 0.45,0 -0.45,0 0,3.238 0.45,0 c 3.86,0 4.12,0.493 4.22,1.469 l -1.16,2.582 0.03,0.012 -28.36,45.078 -41.96,0 0,-44.012 c 0.09,-3.238 0.9,-5.039 5.13,-5.129 l 0,-0.449 0,0.449 0.45,0 0,-3.238 -0.45,0 0,-0.449 -30.96,0 0,0.449 0.36,0 -0.36,0 0,3.238 0.36,0 c 4.23,0.09 5.04,1.891 5.13,5.129 l 0,105.121 c -0.09,3.243 -0.9,5.039 -5.13,5.129 l -0.36,0 0,0.453 0.36,0 -0.36,0 0,3.239 78.03,0 0,-0.899 -77.22,0 0,-1.906 c 2.08,-0.078 3.48,-0.687 4.32,-1.695 0.99,-1.078 1.26,-2.61 1.26,-4.321 l 0,-105.121 c 0,-1.707 -0.27,-3.238 -1.26,-4.316 -0.84,-1.012 -2.24,-1.617 -4.32,-1.695 l 0,-1.907 29.7,0 0,1.907 c -2,0.082 -3.4,0.687 -4.32,1.695 -0.9,1.078 -1.17,2.609 -1.17,4.316 l 0,44.91 43.02,0 0,-0.492 0.36,0.223 -0.36,-0.18 0,0.449 0.27,0 0.09,-0.269 28.53,-45.359 1.17,-2.61 -0.41,-0.18 0.05,0 0.36,0.18 0,-0.18 -1.08,-1.98 c -0.66,-0.332 -1.79,-0.508 -3.51,-0.535 l 0,-1.895 32.49,0 0,1.887 c -4.41,0.012 -5.86,1.512 -9,6.215 l 0.72,0.449 c 3.33,-4.859 4.14,-5.762 8.73,-5.762 l 0,-0.449 0,0.449 0.45,0 0,-3.238 -0.45,0 0,-0.449 -33.39,0 m 3.87,8.098 0,0 m -65.97,-8.098 0,0.449 0.45,0 0,-0.449 -0.45,0 m 56.88,54.18 -0.36,0.628 0.63,0.09 0.09,-0.449 -0.09,0.449 c 22.86,3.059 32.31,14.758 32.31,33.571 l 0.9,0 c 0.09,-18.891 -9.8,-31.25 -32.36,-34.375 l 28.76,-44.645 -0.72,-0.449 0.36,0.269 -0.36,-0.269 -29.16,45.18 m 29.16,-45.18 0,0 m -40.86,60.476 c 18.72,0.09 25.2,7.383 25.29,19.442 -0.09,11.879 -4.86,17.101 -26.46,17.191 l 0,0.449 0,-0.449 -49.14,0 0,-36.633 50.31,0 0,-0.898 -51.12,0 0,0.449 0.36,0 -0.36,0 0,37.981 49.95,0 c 10.8,0 17.64,-1.352 21.78,-4.321 4.23,-3.058 5.58,-7.648 5.58,-13.769 0,-6.211 -1.8,-11.34 -6.03,-14.852 -4.14,-3.508 -10.71,-5.488 -20.16,-5.488 l 0,0.898 m 0,-0.449 0,0.449 0,-0.449 m 44.28,19.442 c -0.09,21.871 -11.88,33.3 -42.39,33.39 l 0,0.899 c 15.3,0 26.1,-2.969 33.12,-8.731 7.02,-5.847 10.17,-14.488 10.17,-25.558 l -0.9,0 m -42.39,33.839 0,0.45 0,-0.45" /><path
             id="path62"
             style="fill:#231f20;fill-opacity:1;fill-rule:nonzero;stroke:none"
             d="m 1773.61,138.941 c -0.07,1.719 -0.7,3.114 -2.05,3.868 -1.44,0.902 -3.51,1.261 -6.48,1.261 l -103.32,0 0,1.907 c 2,0.082 3.4,0.687 4.32,1.695 0.9,1.078 1.26,2.609 1.26,4.316 l 0,105.121 -0.45,0 0.45,0 c 0,1.711 -0.36,3.243 -1.26,4.321 -0.92,1.004 -2.32,1.613 -4.32,1.695 l 0,1.906 96.66,0 0,0.449 0,-0.449 c 3.96,0 6.3,0.27 7.74,1.078 1.4,0.743 1.89,2.012 1.9,3.602 l 1.97,0 0,-25.563 -1.98,0 c -0.02,1.879 -0.65,3.508 -1.98,4.59 -1.53,1.262 -3.96,1.891 -7.47,1.891 l -72.72,0 0,-37.078 0.45,0 -0.45,0 0,-0.36 47.52,0 0,0.36 0,-0.36 c 2.79,0 5.22,0.36 7.02,1.438 1.69,1.019 2.75,2.672 2.87,5.043 l 1.9,0 0,-27.184 -1.91,0 c -0.08,2.192 -0.8,3.762 -2.23,4.774 -1.62,1.078 -3.96,1.437 -7.2,1.437 l -47.97,0 0,-39.777 0.45,0 -0.45,0 0,-0.453 77.85,0 0,0.453 0,-0.453 c 3.24,0 5.76,0.543 7.47,1.89 1.62,1.282 2.35,3.293 2.42,6.032 l 1.99,0 0,-27.45 -2,0" /><path
             id="path64"
             style="fill:#231f20;fill-opacity:1;fill-rule:nonzero;stroke:none"
             d="m 1775.97,138.129 0,0.449 0.45,0 0,-0.449 -0.45,0 m -2.79,0 -0.36,0 0,0.449 0.36,0 -0.36,0 c -0.09,3.332 -1.89,4.5 -7.74,4.594 l 0,0.449 0,-0.449 -104.22,0 0,0.449 0.45,0 -0.45,0 0,3.238 0.45,0 c 4.23,0.09 5.04,1.891 5.13,5.129 l 0,105.121 0.9,0 0,-105.121 c 0,-1.707 -0.36,-3.238 -1.26,-4.316 -0.92,-1.008 -2.32,-1.613 -4.32,-1.695 l 0,-1.907 103.32,0 c 2.97,0 5.04,-0.359 6.48,-1.261 1.35,-0.754 1.98,-2.149 2.05,-3.868 l 2,0 0,27.45 -1.99,0 c -0.07,-2.739 -0.8,-4.75 -2.42,-6.032 -1.71,-1.347 -4.23,-1.89 -7.47,-1.89 l 0,0.902 c 6.48,0.09 8.91,1.801 9.09,7.469 l 0,0.359 3.15,0 0,-0.359 0,0.359 0.45,0 0,-28.621 -0.45,0 0,-0.449 -2.79,0 m -9.45,20.793 0,0.449 0,-0.449 m -77.4,-0.453 -0.45,0 0,0.453 0.45,0 -0.45,0 0,39.777 47.97,0 c 3.24,0 5.58,-0.359 7.2,-1.437 1.43,-1.012 2.15,-2.582 2.23,-4.774 l 1.91,0 0,27.184 -1.9,0 c -0.12,-2.371 -1.18,-4.024 -2.87,-5.043 -1.8,-1.078 -4.23,-1.438 -7.02,-1.438 l 0,0.809 c 5.49,0.09 9,1.531 9,6.121 l 0,0.359 3.24,0 0,-0.359 0,0.359 0.45,0 0,-28.441 -0.45,0 0,-0.449 -3.24,0 0,0.449 0.45,0 -0.45,0 c -0.09,4.41 -2.07,5.762 -8.55,5.852 l 0,0.359 0,-0.359 -47.07,0 0,-38.52 76.95,0 0,-0.902 -77.4,0 m 47.07,55.082 0,0.449 0,-0.449 m 12.24,-21.961 0,0.449 0.45,0 0,-0.449 -0.45,0 m -59.31,21.601 -0.45,0 0,0.36 0.45,0 -0.45,0 0,37.078 72.72,0 c 3.51,0 5.94,-0.629 7.47,-1.891 1.33,-1.082 1.96,-2.711 1.98,-4.59 l 1.98,0 0,25.563 -1.97,0 c -0.01,-1.59 -0.5,-2.859 -1.9,-3.602 -1.44,-0.808 -3.78,-1.078 -7.74,-1.078 l 0,0.899 c 7.92,0.09 8.73,0.992 8.82,4.23 l 0,0.36 3.24,0 0,-0.36 0,0.36 0.36,0 0,-26.821 -0.36,0 0,-0.449 -3.24,0 0,0.449 0.45,0 -0.45,0 c -0.09,3.781 -1.71,6.031 -8.64,6.121 l 0,0.36 0,-0.36 -71.82,0 0,-35.82 46.62,0 0,-0.809 -47.07,0 m 72.09,52.289 0,0.45 0,-0.45 m 12.06,-22.23 0,0.449 0.36,0 0,-0.449 -0.36,0 m -104.04,13.859 c -0.09,3.243 -0.9,5.039 -5.13,5.129 l -0.45,0 0,0.453 0.45,0 -0.45,0 0,3.239 97.56,0 0,-0.899 -96.66,0 0,-1.906 c 2,-0.082 3.4,-0.691 4.32,-1.695 0.9,-1.078 1.26,-2.61 1.26,-4.321 l -0.9,0" /><path
             id="path66"
             style="fill:#231f20;fill-opacity:1;fill-rule:nonzero;stroke:none"
             d="m 1871.01,157.031 c -1.97,0 -3.45,-0.898 -4.99,-2.617 l -1.69,0.981 12.17,25.917 2.3,-1.253 c -0.37,-1.071 -0.59,-1.899 -0.59,-2.868 l 0.45,0 -0.45,0 c 0.27,-9.179 24.12,-19.98 46.98,-20.07 l 0,0.449 0,-0.449 c 14.67,0 25.11,2.43 32.04,6.57 6.84,4.137 10.08,10.168 10.08,17.008 0.09,9.27 -6.48,13.5 -15.75,15.301 -9.36,1.801 -21.69,1.352 -34.02,1.621 -24.75,0.629 -48.87,3.777 -48.87,31.949 0,10.801 6.3,19.981 17.01,26.551 10.62,6.481 25.47,10.348 42.3,10.348 l 0,0.453 0,-0.453 c 26.37,0 38.16,-8.731 44.46,-8.821 l 0,0.454 0,-0.454 c 3.26,0 4.88,1.387 6.19,2.918 l 2.05,-0.859 -12.34,-25.809 -1.86,1.262 c 0.2,1.07 0.2,1.891 0.2,2.781 -0.27,5.039 -16.11,13.95 -38.7,14.039 -25.11,0 -41.13,-9.179 -41.22,-22.14 l 0.45,0 -0.45,0 c 0,-8.192 6.57,-11.61 15.84,-13.051 9.27,-1.348 21.6,-0.898 33.93,-1.348 24.75,-0.902 48.96,-5.222 48.96,-34.742 l 0.45,0 -0.45,0 c 0,-9.539 -5.13,-19.078 -15.21,-26.187 -9.99,-7.114 -25.02,-11.793 -44.64,-11.793 -33.21,0 -47.34,14.222 -54.63,14.312 m 94.95,77.848 c 0,0.004 0,0.008 0,0.012 l 0.02,-0.004 -0.01,-0.016 -0.01,0.008" /><path
             id="path68"
             style="fill:#231f20;fill-opacity:1;fill-rule:nonzero;stroke:none"
             d="m 1871.01,156.219 0,0.359 0,-0.359 c -1.71,-0.09 -2.97,-0.809 -4.59,-2.699 l -0.18,-0.27 -0.36,0.18 0.24,0.394 -0.02,0.012 -0.22,-0.406 -2.34,1.441 -0.27,0.18 0.18,0.359 0.33,-0.164 -0.33,0.164 12.51,26.641 0.18,0.449 0.36,-0.27 3.06,-1.621 0.36,-0.179 -0.18,-0.36 c -0.45,-1.172 -0.63,-1.98 -0.63,-2.879 l -0.9,0 c 0,0.969 0.22,1.797 0.59,2.868 l -2.3,1.253 -12.17,-25.917 1.69,-0.981 c 1.54,1.719 3.02,2.617 4.99,2.617 7.29,-0.09 21.42,-14.312 54.63,-14.312 19.62,0 34.65,4.679 44.64,11.793 10.08,7.109 15.21,16.648 15.21,26.187 l 0.81,0 c 0,-9.898 -5.31,-19.621 -15.48,-26.91 -10.26,-7.199 -25.38,-11.969 -45.18,-11.969 l 0,0.45 0,-0.45 c -33.39,0 -48.06,14.489 -54.63,14.399 m 0,0 0,0 m 54.18,1.711 c 14.58,0 24.93,2.429 31.59,6.48 6.66,4.051 9.72,9.719 9.72,16.289 -0.09,8.731 -5.85,12.602 -15.12,14.403 -9.18,1.796 -21.51,1.437 -33.84,1.707 -24.57,0.543 -49.77,3.781 -49.77,32.761 0.09,22.41 26.28,37.711 60.21,37.711 l 0,-0.812 c -16.83,0 -31.68,-3.867 -42.3,-10.348 -10.71,-6.57 -17.01,-15.75 -17.01,-26.551 0,-28.172 24.12,-31.32 48.87,-31.949 12.33,-0.269 24.66,0.18 34.02,-1.621 9.27,-1.801 15.84,-6.031 15.75,-15.301 0,-6.84 -3.24,-12.871 -10.08,-17.008 -6.93,-4.14 -17.37,-6.57 -32.04,-6.57 l 0,0.809 m 0,-0.36 0,0.36 0,-0.36 m -46.98,19.621 0.9,0 c -0.09,-3.871 5.67,-8.82 14.49,-12.601 8.73,-3.871 20.34,-6.66 31.59,-6.66 l 0,-0.809 c -22.86,0.09 -46.71,10.891 -46.98,20.07 m 107.28,3.508 c 0,29.52 -24.21,33.84 -48.96,34.742 -12.33,0.45 -24.66,0 -33.93,1.348 -9.27,1.441 -15.84,4.859 -15.84,13.051 l 0.9,0 c 0,-7.559 5.76,-10.711 15.03,-12.149 9.18,-1.441 21.51,-0.992 33.84,-1.351 24.66,-0.899 49.86,-5.399 49.77,-35.641 l -0.81,0 m -98.73,49.141 c 0.09,12.961 16.11,22.14 41.22,22.14 22.59,-0.089 38.43,-9 38.7,-14.039 0,-0.89 0,-1.711 -0.2,-2.781 l 1.86,-1.262 12.34,25.809 -2.05,0.859 c -1.31,-1.531 -2.93,-2.918 -6.19,-2.918 l 0,0.903 c 3.15,0 4.32,1.258 5.67,2.789 l 0.27,0.269 0.27,-0.089 2.79,-1.168 0.45,-0.18 -0.18,-0.453 -12.78,-26.641 -0.18,-0.449 -0.45,0.269 0.26,0.348 -0.04,0.016 -0.22,-0.364 -2.52,1.622 -0.27,0.179 0.09,0.27 0.36,-0.09 -0.18,-0.359 0.2,0.367 -0.38,0.082 c 0.18,1.172 0.18,1.98 0.18,2.972 0.09,1.707 -3.69,5.309 -10.44,8.098 -6.66,2.789 -16.2,5.133 -27.36,5.133 l 0,0.449 0,-0.449 c -12.42,0 -22.59,-2.344 -29.61,-6.121 -6.93,-3.871 -10.71,-9.18 -10.71,-15.211 l -0.9,0 m 85.68,28.262 0,0.449 0,-0.449 m 9.27,1.617 -0.43,0.261 -0.01,-0.015 0.44,-0.246 m -53.73,6.75 0,0.812 c 26.46,0 38.79,-8.82 44.46,-8.73 l 0,-0.903 c -6.3,0.09 -18.09,8.821 -44.46,8.821 m 0,0.453 0,0.359 0,-0.359" /><path
             id="path70"
             style="fill:#231f20;fill-opacity:1;fill-rule:nonzero;stroke:none"
             d="m 2097.27,144.07 0,1.903 c 2.05,0.066 3.47,0.675 4.41,1.699 0.9,1.078 1.17,2.609 1.17,4.316 l 0,98.641 -0.36,0 0,-0.449 0,0.449 -38.97,0 c -2.97,0 -5.04,-0.359 -6.48,-1.348 -1.36,-0.937 -1.99,-2.527 -2.06,-4.679 l -1.9,0 0,26.457 1.91,0 c 0.1,-1.852 0.81,-3.325 2.23,-4.411 1.44,-1.078 3.6,-1.617 6.3,-1.617 l 0,0.449 0,-0.449 97.29,0 0,0.449 0,-0.449 c 2.7,0 4.86,0.539 6.3,1.617 1.42,1.086 2.13,2.559 2.23,4.411 l 1.91,0 0,-26.457 -1.9,0 c -0.07,2.152 -0.7,3.742 -2.06,4.679 -1.44,0.989 -3.51,1.348 -6.48,1.348 l -39.33,0 0,-98.641 0.45,0 -0.45,0 c 0,-1.707 0.27,-3.238 1.26,-4.316 0.85,-1.024 2.27,-1.633 4.32,-1.699 l 0,-1.903 -29.79,0" /><path
             id="path72"
             style="fill:#231f20;fill-opacity:1;fill-rule:nonzero;stroke:none"
             d="m 2127.42,143.172 0,0.449 0.45,0 0,-0.449 -0.45,0 m -30.51,0 -0.45,0 0,0.449 0.45,0 -0.45,0 0,3.238 0.45,0 c 4.23,0.09 5.04,1.891 5.13,5.129 l 0,97.832 -38.52,0 0,0.36 0,-0.36 c -5.85,-0.179 -7.56,-1.172 -7.65,-5.582 l -0.45,0 0,-0.449 -3.24,0 0,0.449 0.45,0 -0.45,0 0,27.723 3.24,0 0,-0.449 0,0.449 0.45,0 0,-0.449 c 0,-3.692 2.43,-5.582 7.65,-5.582 l 0,-0.899 c -2.7,0 -4.86,0.539 -6.3,1.617 -1.42,1.086 -2.13,2.559 -2.23,4.411 l -1.91,0 0,-26.457 1.9,0 c 0.07,2.152 0.7,3.742 2.06,4.679 1.44,0.989 3.51,1.348 6.48,1.348 l 38.97,0 0,-0.449 0,0.449 0.36,0 0,-98.641 c 0,-1.707 -0.27,-3.238 -1.17,-4.316 -0.94,-1.024 -2.36,-1.633 -4.41,-1.699 l 0,-1.903 29.79,0 0,1.903 c -2.05,0.066 -3.47,0.675 -4.32,1.699 -0.99,1.078 -1.26,2.609 -1.26,4.316 l 0.9,0 c 0.09,-3.238 0.9,-5.039 5.04,-5.129 l 0,-0.449 0,0.449 0.45,0 0,-3.238 -0.45,0 0,-0.449 -30.51,0 m 24.57,8.816 0,98.641 39.33,0 c 2.97,0 5.04,-0.359 6.48,-1.348 1.36,-0.937 1.99,-2.527 2.06,-4.679 l 1.9,0 0,26.457 -1.91,0 c -0.1,-1.852 -0.81,-3.325 -2.23,-4.411 -1.44,-1.078 -3.6,-1.617 -6.3,-1.617 l 0,0.899 c 5.31,0 7.65,1.89 7.65,5.582 l 0,0.449 3.24,0 0,-0.449 0,0.449 0.45,0 0,-27.723 -0.45,0 0,-0.449 -3.24,0 0,0.449 0.45,0 -0.45,0 c -0.09,4.41 -1.8,5.403 -7.65,5.582 l 0,0.36 0,-0.36 -38.43,0 0,-97.832 -0.9,0 m 39.33,113.492 0,0.45 0,-0.45 m 10.89,-21.691 0,0.449 0.45,0 0,-0.449 -0.45,0 m -116.28,0 0,0.449 0.45,0 0,-0.449 -0.45,0 m 8.1,21.242 0,0.899 97.29,0 0,-0.899 -97.29,0 m 0,0.449 0,0.45 0,-0.45" /><path
             id="path74"
             style="fill:#b3b8bf;fill-opacity:1;fill-rule:nonzero;stroke:none"
             d="m 1103.69,894.102 c 9.3,2.402 16.85,0.937 23.91,-1.59 5.64,16.66 11.13,33.258 1.57,48.582 0,-17.356 -27.37,-16.145 -25.48,-46.992" /><path
             id="path76"
             style="fill:#b3b8bf;fill-opacity:1;fill-rule:nonzero;stroke:none"
             d="m 1025.61,810.078 c 21.7,-8.586 34.73,22.461 15.55,39.774 5.39,-21.297 -2.89,-38.258 -15.55,-39.774" /><path
             id="path78"
             style="fill:#b3b8bf;fill-opacity:1;fill-rule:nonzero;stroke:none"
             d="m 1196.8,776.465 c 20.08,-5.957 39.92,17.578 40.89,20.93 0.96,3.281 0.45,3.796 -2.37,2.031 -28.95,-23.11 -21.32,28.797 -48.3,31.863 27.83,7.481 11.92,66.172 44.39,55.742 -5.63,13.699 -21.41,11.531 -35.93,-3.429 5.77,10.793 6.2,35.46 -8.76,37.96 13.3,-46.628 -39.41,-61.652 -41.27,-78.066 -2.91,2.656 -8.48,15.051 3.57,23.75 36.57,26.543 17.17,51.477 23.36,69.609 -48.68,-24.726 -15.11,-64.167 -58.34,-70.363 8.04,1.137 11.4,9.133 11.77,16.262 -33.33,6.914 -64.17,-9.5 -69.64,-16.652 -27.86,11.41 -46.81,10.265 -62.393,0.312 -4.886,4.465 -6.215,5.063 -14.617,11.274 -2.098,-20.559 -3.285,-33.157 3.395,-45.051 0,0 -10.809,0.82 -14.125,13.066 -1.735,6.067 -0.563,17.051 -0.149,21.387 0.828,8.722 0.289,24.637 -9.683,25.312 -25.825,1.758 -23.715,-66.867 25.804,-73.562 l 13.547,-2.824 c -1.64,21.523 17.251,34.074 28.941,35.91 -1.4,-9.719 -1.87,-23.313 0.08,-29.574 8.41,3.031 10.36,28.996 3.86,39.511 29.64,-10.269 36.11,-37.019 21.49,-52.207 43.24,-2.781 53.6,-23.113 42.67,-40.359 -8.19,-12.942 -36.09,-7.266 -60.82,-2.149 -3.47,5.86 -5.74,10.672 -8.08,18.235 12.75,-2.016 27.12,-1.914 42.99,-10.461 11.27,-4.324 16.61,8.406 6.47,15.539 -14.32,7.012 -33.47,8.941 -53.26,9.219 -2.31,6.453 -7.94,26.687 -3.85,40.449 -13.3,-12.563 -11.03,-19.238 -8.3,-41.113 -1.87,-0.2 -9,-0.461 -10.867,-0.774 -0.132,3.36 -0.929,7.766 -1.019,11.465 -4.313,0.398 -6.414,0.664 -10.192,1.719 -0.371,-4.949 0.36,-10.149 0.743,-15.965 -10.02,-2.949 -17.981,-6.762 -27.129,-13.488 -8.434,-6.172 -1.68,-11.243 6.172,-6.184 2.964,1.887 10.312,6.328 22.738,8.879 0.726,-3.816 2.32,-9.863 4.312,-15.188 -10.75,0.665 -18.668,-6.082 -11.832,-15.398 5.086,-5.144 31.614,-10.566 58.384,-6.223 3.97,0.762 3.35,2.161 1.45,3.586 l 0.26,0.41 c 85.56,-8.781 111.17,-6.55 103.36,-0.332 l 0.14,0.672 c 6.15,-0.945 26.48,-6.023 51.48,-6.629 13.1,-0.324 31.16,2.161 37.7,11.289 0.92,1.282 0.43,1.512 -1.17,0.977 -1.39,-0.469 -7.7,-2.461 -10.55,-1.562 -5.6,1.726 -19.92,10.3 -27.92,18.25 -1.1,1.093 -1.14,2.46 0.6,1.945 z M 946.453,873.84 c 1.84,5.164 7.871,5.691 6.606,-0.879 -1.871,-9.68 -1.536,-24.484 3.914,-32.844 -9.676,9.071 -12.368,28.606 -10.52,33.723 z m 10.598,-2.387 c 0.961,5.617 7.515,4.887 6.457,-1.543 -2.988,-18.047 -0.309,-26.961 2.371,-32.461 -8.219,9.731 -10.637,23.457 -8.828,34.004 z M 1006.96,769.48 c -2.03,4.719 -4.28,11.399 -5.35,16.868 2.2,0.168 9.63,0.234 12,0.234 2.27,-6.105 4.14,-12.402 6.5,-18.406 -2.67,0.64 -10.32,0.613 -13.15,1.304 z m 107.14,79.79 c -5.87,-0.708 -7.13,-8.149 -1.94,-11.372 -13.59,2.579 -19.03,-6.66 -28.27,-4.628 -10.22,2.257 -12.12,4.066 -19.24,-0.465 0,4.851 2.34,6.699 7.53,8.64 -3.27,4.532 -0.92,7.825 -0.92,7.825 -6.29,0.957 -10.42,8.082 -5.9,12.617 0.32,-2.59 1.3,-3.235 2.76,-4.055 3.8,-2.109 14.29,2.129 19.13,6.504 4.51,4.055 9.87,6.277 23.47,2.402 -11.65,0 -12.83,-3.965 -14.76,-7.851 5.81,0.949 14.25,-4.434 18.14,-9.617" /><path
             id="path80"
             style="fill:#b3b8bf;fill-opacity:1;fill-rule:nonzero;stroke:none"
             d="m 1082.7,854.473 c 3.51,1.504 2.73,-0.918 2.57,-1.641 -1.36,-2.051 -3.79,-6.941 -1.08,-9.492 3.42,-2.735 4.37,0.066 3.85,1.406 -0.43,1.543 -2.29,5.156 1.48,8.652 3.05,1.829 4.43,0.149 5.03,-1.113 4.69,-15.859 -11.86,-16.648 -15.65,-10.769 -1.93,3.086 -1.15,10.984 3.8,12.957" /><path
             id="path82"
             style="fill:#231f20;fill-opacity:1;fill-rule:nonzero;stroke:none"
             d="m 59.1289,1.42188 -5.9375,13.04692 -32.7617,0 -6.0313,-13.04692 -11.78902,0 27.99222,56.87892 12.5976,0 27.6289,-56.87892 -11.6992,0 m -34.1094,22.58982 23.7617,0 L 36.8984,49.3906 25.0195,24.0117" /><path
             id="path84"
             style="fill:#231f20;fill-opacity:1;fill-rule:nonzero;stroke:none"
             d="m 131.309,0.0703125 c -24.387,0 -30.329,11.9687875 -31.6801,16.2890875 l 10.7111,3.4218 c 1.98,-4.2304 6.211,-10.17182 21.238,-10.17182 9.094,0 16.563,2.96872 16.563,7.83202 0,3.6875 -4.231,6.1172 -12.332,7.1094 l -13.59,1.8906 c -13.141,1.7969 -20.52,7.5586 -20.52,16.1992 0,17.0977 22.141,17.0977 26.551,17.0977 24.48,0 28.711,-11.3399 30.059,-15.2969 l -10.438,-3.4219 c -1.801,5.0391 -6.391,9.4493 -19.98,9.4493 -7.469,0 -15.032,-1.8907 -15.032,-7.1094 0,-2.4297 1.352,-4.9492 12.692,-6.3906 l 13.5,-2.0704 c 12.687,-1.9765 20.25,-6.9296 20.25,-16.3789 0,-13.49997 -12.871,-18.4491875 -27.992,-18.4491875" /><path
             id="path86"
             style="fill:#231f20;fill-opacity:1;fill-rule:nonzero;stroke:none"
             d="M 229.68,0.0703125 C 205.289,0.0703125 199.352,12.0391 198,16.3594 l 10.711,3.4218 c 1.98,-4.2304 6.211,-10.17182 21.238,-10.17182 9.09,0 16.563,2.96872 16.563,7.83202 0,3.6875 -4.231,6.1172 -12.332,7.1094 l -13.59,1.8906 C 207.449,28.2383 200.07,34 200.07,42.6406 c 0,17.0977 22.141,17.0977 26.551,17.0977 24.481,0 28.707,-11.3399 30.059,-15.2969 l -10.442,-3.4219 c -1.797,5.0391 -6.386,9.4493 -19.976,9.4493 -7.473,0 -15.032,-1.8907 -15.032,-7.1094 0,-2.4297 1.348,-4.9492 12.692,-6.3906 l 13.5,-2.0704 c 12.687,-1.9765 20.25,-6.9296 20.25,-16.3789 0,-13.49997 -12.871,-18.4491875 -27.992,-18.4491875" /><path
             id="path88"
             style="fill:#231f20;fill-opacity:1;fill-rule:nonzero;stroke:none"
             d="m 305.012,1.42188 0,56.87892 51.027,0 0,-9.5391 -39.867,0 0,-13.2305 34.289,0 0,-9.5429 -34.289,0 0,-15.0274 40.769,0 0,-9.53902 -51.929,0" /><path
             id="path90"
             style="fill:#231f20;fill-opacity:1;fill-rule:nonzero;stroke:none"
             d="m 420.93,1.42188 0,47.33982 -25.379,0 0,9.5391 61.918,0 0,-9.5391 -25.469,0 0,-47.33982 -11.07,0" /><path
             id="path92"
             style="fill:#231f20;fill-opacity:1;fill-rule:nonzero;stroke:none"
             d="m 619.02,1.42188 0,43.10932 -0.09,0 -18.27,-43.10932 -8.82,0 -18.27,43.10932 -0.179,0 0,-43.10932 -9.903,0 0,56.87892 14.942,0 17.82,-42.211 18,42.211 14.672,0 0,-56.87892 -9.902,0" /><path
             id="path94"
             style="fill:#231f20;fill-opacity:1;fill-rule:nonzero;stroke:none"
             d="m 727.02,1.42188 -5.942,13.04692 -32.848,0 -5.941,-13.04692 -11.879,0 28.078,56.87892 12.602,0 27.629,-56.87892 -11.699,0 m -34.11,22.58982 23.762,0 -11.883,25.3789 -11.879,-25.3789" /><path
             id="path96"
             style="fill:#231f20;fill-opacity:1;fill-rule:nonzero;stroke:none"
             d="m 831.328,1.42188 -39.508,42.56642 0,-42.56642 -10.711,0 0,56.87892 11.789,0 37.981,-41.0391 0,41.0391 10.621,0 0,-56.87892 -10.172,0" /><path
             id="path98"
             style="fill:#231f20;fill-opacity:1;fill-rule:nonzero;stroke:none"
             d="m 941.762,1.42188 -5.942,13.04692 -32.761,0 -6.028,-13.04692 -11.793,0 27.992,56.87892 12.692,0 27.539,-56.87892 -11.699,0 m -34.114,22.58982 23.762,0 -11.879,25.3789 -11.883,-25.3789" /><path
             id="path100"
             style="fill:#231f20;fill-opacity:1;fill-rule:nonzero;stroke:none"
             d="m 1018.17,0.0703125 c -14.58,0 -32.131,7.1093775 -32.131,29.6991875 0,15.1211 9.09,29.9688 31.771,29.9688 13.05,0 27.36,-4.8594 30.15,-19.168 l -11.34,0 c -1.35,2.8789 -4.41,9.6289 -17.46,9.6289 -17.82,0 -22.051,-12.0586 -22.051,-19.9804 0,-13.4102 9.091,-20.33989 21.151,-20.33989 10.89,0 17.01,3.87109 19.71,11.79299 l -19.98,0 0,9 30.33,0 0,-29.882838 -6.75,0 -2.16,5.851558 c -4.32,-2.78906 -10.26,-6.5703075 -21.24,-6.5703075" /><path
             id="path102"
             style="fill:#231f20;fill-opacity:1;fill-rule:nonzero;stroke:none"
             d="m 1095.84,1.42188 0,56.87892 51.03,0 0,-9.5391 -39.96,0 0,-13.2305 34.38,0 0,-9.5429 -34.38,0 0,-15.0274 40.86,0 0,-9.53902 -51.93,0" /><path
             id="path104"
             style="fill:#231f20;fill-opacity:1;fill-rule:nonzero;stroke:none"
             d="m 1248.84,1.42188 0,43.10932 -0.18,0 -18.18,-43.10932 -8.82,0 -18.36,43.10932 -0.18,0 0,-43.10932 -9.81,0 0,56.87892 14.94,0 17.73,-42.211 18.09,42.211 14.58,0 0,-56.87892 -9.81,0" /><path
             id="path106"
             style="fill:#231f20;fill-opacity:1;fill-rule:nonzero;stroke:none"
             d="m 1310.04,1.42188 0,56.87892 50.94,0 0,-9.5391 -39.87,0 0,-13.2305 34.38,0 0,-9.5429 -34.38,0 0,-15.0274 40.86,0 0,-9.53902 -51.93,0" /><path
             id="path108"
             style="fill:#231f20;fill-opacity:1;fill-rule:nonzero;stroke:none"
             d="m 1459.26,1.42188 -39.51,42.56642 0,-42.56642 -10.62,0 0,56.87892 11.7,0 37.98,-41.0391 0,41.0391 10.62,0 0,-56.87892 -10.17,0" /><path
             id="path110"
             style="fill:#231f20;fill-opacity:1;fill-rule:nonzero;stroke:none"
             d="m 1537.92,1.42188 0,47.33982 -25.38,0 0,9.5391 61.92,0 0,-9.5391 -25.38,0 0,-47.33982 -11.16,0" /><path
             id="path112"
             style="fill:#231f20;fill-opacity:1;fill-rule:nonzero;stroke:none"
             d="m 1698.66,0.0703125 c -14.49,0 -32.13,7.1093775 -32.13,29.6991875 0,15.1211 9.18,29.9688 31.86,29.9688 13.05,0 27.36,-4.8594 30.06,-19.168 l -11.34,0 c -1.35,2.8789 -4.32,9.6289 -17.37,9.6289 -17.91,0 -22.14,-12.0586 -22.14,-19.9804 0,-13.4102 9.09,-20.33989 21.15,-20.33989 10.98,0 17.01,3.87109 19.71,11.79299 l -19.98,0 0,9 30.42,0 0,-29.882838 -6.75,0 -2.16,5.851558 c -4.32,-2.78906 -10.26,-6.5703075 -21.33,-6.5703075" /><path
             id="path114"
             style="fill:#231f20;fill-opacity:1;fill-rule:nonzero;stroke:none"
             d="m 1826.28,1.42188 -16.56,22.40622 -17.55,0 0,-22.40622 -11.07,0 0,56.87892 34.11,0 c 13.5,0 23.13,-3.0625 23.13,-17.0117 0,-10.4375 -7.47,-16.1993 -15.84,-16.7383 l 17.46,-23.12892 -13.68,0 m -34.11,31.58982 21.42,0 c 9.09,0 13.68,1.3477 13.68,8.0977 0,6.6601 -4.59,8.0117 -13.68,8.0117 l -21.42,0 0,-16.1094" /><path
             id="path116"
             style="fill:#231f20;fill-opacity:1;fill-rule:nonzero;stroke:none"
             d="m 1915.56,0.0703125 c -26.91,0 -33.84,17.5507875 -33.84,29.3398875 0,15.5703 8.82,30.3281 33.84,30.3281 25.02,0 33.84,-14.7578 33.84,-30.3281 0,-11.7891 -6.93,-29.3398875 -33.84,-29.3398875 M 1892.79,30.0391 c 0,-16.1094 12.15,-20.42972 22.77,-20.42972 10.62,0 22.77,4.32032 22.77,20.42972 0,13.6797 -9.81,20.1601 -22.77,20.1601 -12.96,0 -22.77,-6.4804 -22.77,-20.1601" /><path
             id="path118"
             style="fill:#231f20;fill-opacity:1;fill-rule:nonzero;stroke:none"
             d="m 2025.72,0.0703125 c -18.54,0 -30.15,7.4687475 -30.15,25.7382875 l 0,32.4922 11.07,0 0,-31.6797 c 0,-9.3594 3.42,-17.01172 19.08,-17.01172 15.75,0 19.08,7.65232 19.08,17.01172 l 0,31.6797 11.16,0 0,-32.4922 c 0,-18.26954 -11.7,-25.7382875 -30.24,-25.7382875" /><path
             id="path120"
             style="fill:#231f20;fill-opacity:1;fill-rule:nonzero;stroke:none"
             d="m 2104.47,1.42188 0,56.87892 31.68,0 c 9.63,0 25.38,0 25.38,-17.461 0,-17.371 -15.75,-17.371 -25.38,-17.371 l -20.61,0 0,-22.04692 -11.07,0 m 11.07,31.58982 23.04,0 c 6.3,0 11.88,0.5391 11.88,7.918 0,7.2891 -5.58,7.832 -11.88,7.832 l -23.04,0 0,-15.75" /></g></g></g></g></svg>