<?xml version="1.0" standalone="no"?>
<!DOCTYPE svg PUBLIC "-//W3C//DTD SVG 1.1//EN" "http://www.w3.org/Graphics/SVG/1.1/DTD/svg11.dtd" >
<svg>
<metadata>
Created by FontForge 20090914 at Fri Jul  8 17:58:01 2016
 By www-data
Generated by Fontographer 4.1
</metadata>
<defs>
<font id="Copperplate33bc" horiz-adv-x="611" >
  <font-face 
    font-family="Copperplate33bc"
    font-weight="400"
    font-stretch="normal"
    units-per-em="1000"
    panose-1="0 0 4 0 0 0 0 0 0 0"
    ascent="800"
    descent="-200"
    x-height="439.999"
    cap-height="526"
    bbox="-167 -220.001 1080 832"
    underline-thickness="50"
    underline-position="-75"
    unicode-range="U+0020-U+F002"
  />
<missing-glyph horiz-adv-x="500" 
d="M63 0v832h375v-832h-375zM125 63h250v707h-250v-707z" />
    <glyph glyph-name=".notdef" horiz-adv-x="500" 
d="M63 0v832h375v-832h-375zM125 63h250v707h-250v-707z" />
    <glyph glyph-name="space" unicode=" " horiz-adv-x="305" 
 />
    <glyph glyph-name="exclam" unicode="!" horiz-adv-x="389" 
d="M88 526h214v-12c-12.667 0 -20.667 -8.33301 -24 -25l-48 -250c-2 -5.33301 -2.33301 -10.333 -1 -15c0 -10 7.33301 -16 22 -18v-12h-112v12c14.667 2 22 8 22 18c1.33301 4.66699 1 9.66699 -1 15l-48 250c-3.33301 16.667 -11.333 25 -24 25v12zM195 152
c21.333 0 39.833 -7.83301 55.5 -23.5s23.5 -34.167 23.5 -55.5s-7.83301 -39.833 -23.5 -55.5s-34.167 -23.5 -55.5 -23.5s-39.833 7.83301 -55.5 23.5s-23.5 34.167 -23.5 55.5s7.83301 39.833 23.5 55.5s34.167 23.5 55.5 23.5z" />
    <glyph glyph-name="quotedbl" unicode="&#x22;" horiz-adv-x="305" 
d="M125 451l-19 -204c-2 -20.667 -10.333 -31 -25 -31c-15.333 0 -24 10.333 -26 31l-19 204c-0.666992 8 -1 15 -1 21c0 40 15.333 60 46 60c30 0 45 -20 45 -60c0 -5.33301 -0.333008 -12.333 -1 -21zM297 451l-19 -204c-2 -20.667 -10.667 -31 -26 -31
c-14.667 0 -23 10.333 -25 31l-19 204c-0.666992 8 -1 15 -1 21c0 40 15 60 45 60c30.667 0 46 -20 46 -60c0 -5.33301 -0.333008 -12.333 -1 -21z" />
    <glyph glyph-name="numbersign" unicode="#" 
d="M371 308h-111l-19 -90h111zM305 526l-31 -150h111l31 150h83l-31 -150h94v-68h-108l-19 -90h98v-68h-112l-31 -150h-83l31 150h-111l-31 -150h-80l31 150h-98v68h112l19 90h-101v68h115l31 150h80z" />
    <glyph glyph-name="dollar" unicode="$" 
d="M53 29l-12 3.99805l58 152l12 -5c-1.33301 -10.667 -0.666016 -19 2.00098 -25c11.333 -25.333 65.333 -45.666 162 -60.999v118c-138 18 -207 67.333 -207 148c0 105.333 69 162.666 207 171.999v85h70v-85c32.667 -2 72 -9.33301 118 -22c44 -12 65.333 -18 64 -18
c3.33301 0 8.66602 3.66699 15.999 11l12 -3l-59 -143l-11 4c0 1.33301 0.5 4 1.5 8s1.5 7.33301 1.5 10c0 8.66699 -13.667 19.334 -41 32.001c-32 14.667 -66 22.334 -102 23.001v-114c65.333 -8.66699 114 -21 146 -37c52 -26 78 -65.333 78 -118
c0 -58 -24.333 -102 -73 -132c-40 -25.333 -90.333 -38.333 -151 -39v-105h-70v105c-45.333 0 -91.666 8 -138.999 24s-68.333 24 -63 24c-2.66699 0 -9.33398 -4.33301 -20.001 -13zM275 327.998v106c-56.667 -1.33301 -85 -19 -85 -53c0 -32 28.333 -49.667 85 -53z
M345 200.998v-109c65.333 0 98 18 98 54c0 20.667 -12.333 35 -37 43z" />
    <glyph glyph-name="percent" unicode="%" horiz-adv-x="1000" 
d="M273 -116h-61l383 696h59zM231 580c46 0 85.333 -16.333 118 -49s49 -71.667 49 -117s-16.333 -84.333 -49 -117s-72 -49 -118 -49s-85.333 16.333 -118 49s-49 71.667 -49 117s16.333 84.333 49 117s72 49 118 49zM231 486c-20 0 -37.167 -7 -51.5 -21
s-21.5 -31 -21.5 -51s7.16699 -37 21.5 -51s31.5 -21 51.5 -21s37.167 7 51.5 21s21.5 31 21.5 51s-7.16699 37 -21.5 51s-31.5 21 -51.5 21zM637 216c46 0 85.333 -16.333 118 -49s49 -71.667 49 -117s-16.333 -84.333 -49 -117s-72 -49 -118 -49s-85.333 16.333 -118 49
s-49 71.667 -49 117s16.333 84.333 49 117s72 49 118 49zM637 122c-20 0 -37.167 -7 -51.5 -21s-21.5 -31 -21.5 -51s7.16699 -37 21.5 -51s31.5 -21 51.5 -21s37.167 7 51.5 21s21.5 31 21.5 51s-7.16699 37 -21.5 51s-31.5 21 -51.5 21z" />
    <glyph glyph-name="ampersand" unicode="&#x26;" horiz-adv-x="722" 
d="M663 390l0.00195312 -171.999h-8c-2 9.33301 -9.33301 14 -22 14c-11.333 0 -25 -10 -41 -30c-13.333 -16.667 -23 -32.667 -29 -48c7.33301 -7.33301 18.5 -14.833 33.5 -22.5s27.167 -11.5 36.5 -11.5c10 0 16 4.66699 18 14h12v-140
c-82.667 -1.33301 -143.334 19 -182.001 61c-54.667 -40.667 -122.667 -61 -204 -61c-56.667 0 -105.334 13.333 -146.001 40c-48 30 -72 72 -72 126c0 73.333 42 125.333 126 156c-32.667 25.333 -49 53.666 -49 84.999c0 48 21 83 63 105c32 17.333 73.667 26 125 26
c121.333 0 182 -42.333 182 -127c0 -42 -28 -78.667 -84 -110c12 -10 32.333 -32.333 61 -67c53.333 78 113.333 132 180 162zM301.002 104.001c20 0 40.5 4.83301 61.5 14.5s37.5 22.167 49.5 37.5c-20.667 58.667 -57.667 88 -111 88c-25.333 0 -46.333 -6.33301 -63 -19
s-25 -29.667 -25 -51s8.33301 -38.333 25 -51s37.667 -19 63 -19zM323.002 456.001c-17.333 0 -32.333 -4.66504 -45 -13.998c-14.667 -10.667 -22.667 -25.334 -24 -44.001c1.33301 -18.667 9.33301 -33.334 24 -44.001c12.667 -9.33301 27.667 -14 45 -14
s32.833 5 46.5 15s21.167 24.333 22.5 43c-1.33301 18.667 -8.83301 33 -22.5 43s-29.167 15 -46.5 15z" />
    <glyph glyph-name="quotesingle" unicode="'" horiz-adv-x="222" 
d="M155 451l-19 -204c-2 -20.667 -10.667 -31 -26 -31c-14.667 0 -23 10.333 -25 31l-19 204c-0.666992 8 -1 15 -1 21c0 40 15 60 45 60c30.667 0 46 -20 46 -60c0 -5.33301 -0.333008 -12.333 -1 -21z" />
    <glyph glyph-name="parenleft" unicode="(" horiz-adv-x="444" 
d="M383 532v-23.999c-107.333 -32.667 -161 -127.667 -161 -285c0 -171.333 54.333 -273 163 -305v-24c-90 5.33301 -162.667 38 -218 98s-83 135 -83 225c0 89.333 27.667 163.166 83 221.499s127.333 89.5 216 93.5z" />
    <glyph glyph-name="parenright" unicode=")" horiz-adv-x="444" 
d="M61 508v23.999c88.667 -4 160.667 -35.167 216 -93.5s83 -132.166 83 -221.499c0 -90 -27.667 -165 -83 -225s-128 -92.667 -218 -98v24c108.667 32 163 133.667 163 305c0 157.333 -53.667 252.333 -161 285z" />
    <glyph glyph-name="asterisk" unicode="*" horiz-adv-x="500" 
d="M231 399l-25 133h90l-29 -133l6 -4l123 68l24 -90l-140 -8l-1 -7l102 -96l-71 -52l-57 130h-5l-58 -130l-73 51l104 98l-1 4l-140 14l27 86l120 -69z" />
    <glyph glyph-name="plus" unicode="+" horiz-adv-x="600" 
d="M251 269v171h98v-171h171v-98h-171v-171h-98v171h-171v98h171z" />
    <glyph glyph-name="comma" unicode="," horiz-adv-x="305" 
d="M71 -124v32c52.667 20.667 83 50.667 91 90c-62.667 0 -94 26.333 -94 79c0 22 8.16699 40 24.5 54s35.833 21 58.5 21c56.667 0 85 -33 85 -99c0 -81.333 -55 -140.333 -165 -177z" />
    <glyph glyph-name="hyphen" unicode="-" horiz-adv-x="333" 
d="M297 161h-262v118h262v-118z" />
    <glyph glyph-name="hyphen" unicode="&#x2010;" horiz-adv-x="333" 
d="M297 161h-262v118h262v-118z" />
    <glyph glyph-name="period" unicode="." horiz-adv-x="305" 
d="M153 152c21.333 0 39.833 -7.83301 55.5 -23.5s23.5 -34.167 23.5 -55.5s-7.83301 -39.833 -23.5 -55.5s-34.167 -23.5 -55.5 -23.5s-39.833 7.83301 -55.5 23.5s-23.5 34.167 -23.5 55.5s7.83301 39.833 23.5 55.5s34.167 23.5 55.5 23.5z" />
    <glyph glyph-name="slash" unicode="/" horiz-adv-x="278" 
d="M67 -6h-99l244 538h99z" />
    <glyph glyph-name="zero" unicode="0" 
d="M305 414c-40.667 0 -72.334 -16 -95.001 -48c-19.333 -27.333 -29 -61.666 -29 -102.999s9.66699 -75.666 29 -102.999c22.667 -32 54.334 -48 95.001 -48s72.334 16 95.001 48c19.333 27.333 29 61.666 29 102.999s-9.66699 75.666 -29 102.999
c-22.667 32 -54.334 48 -95.001 48zM305 532c74.667 0 138.667 -25.833 192 -77.5s80 -115.5 80 -191.5s-26.667 -139.833 -80 -191.5s-117.333 -77.5 -192 -77.5s-138.667 25.833 -192 77.5s-80 115.5 -80 191.5s26.667 139.833 80 191.5s117.333 77.5 192 77.5z" />
    <glyph glyph-name="one" unicode="1" 
d="M165 303l-12 -0.000976562v161h12c0 -16 3.66699 -24 11 -24c2 0 12.667 3.83301 32 11.5s30.333 11.834 33 12.501v32c0 10.667 -6.66699 16.667 -20 18v12h196v-12c-17.333 -1.33301 -26 -7.33301 -26 -18v-466c0 -10.667 8 -16.667 24 -18v-12h-199v12
c16.667 1.33301 25 7.33301 25 18v318c-36 -8.66699 -57 -15 -63 -19c-8 -4 -12.333 -12.667 -13 -26z" />
    <glyph glyph-name="two" unicode="2" 
d="M248 118h270.999c14 0 22.333 7.66699 25 23h12v-164h-12c-1.33301 15.333 -11.333 23 -30 23h-444c-13.333 -0 -20 -7.66699 -20 -23h-12c-2.66699 56.667 14.333 107.667 51 153c28 34 71 68.667 129 104l143 82c19.333 12 29 27.333 29 46c0 14 -6 26.167 -18 36.5
s-29.667 15.5 -53 15.5c-42 0 -81.667 -12.333 -119 -37c-32.667 -21.333 -49 -40 -49 -56c0 -3.33301 1.33301 -8.33301 4 -15l-12 -9l-106 149l11 8c5.33301 -5.33301 11.333 -8 18 -8c3.33301 0 17 7.33301 41 22c28.667 18 56 32 82 42
c40.667 14.667 83.334 22 128.001 22c58.667 0 109 -16 151 -48c44 -34 66 -75.333 66 -124c0 -44 -18.667 -81.333 -56 -112c-22 -18 -61.333 -40 -118 -66s-94 -47.333 -112 -64z" />
    <glyph glyph-name="three" unicode="3" 
d="M18 44l67.998 171.001l11 -5v-9c-0.666992 -3.33301 -1 -6 -1 -8c0 -19.333 22.167 -38.333 66.5 -57s90.5 -28 138.5 -28c72 0 108 19.667 108 59s-27.667 59 -83 59h-62c-13.333 0 -20 -9 -20 -27h-12v151h12c0 -14.667 6 -22 18 -22h68c37.333 0 56 14.667 56 44
c0 35.333 -29 53.333 -87 54c-44.667 0.666992 -87 -9 -127 -29c-34.667 -17.333 -52 -31.333 -52 -42c0 -2.66699 0.666992 -7.33398 2 -14.001l-8 -8l-85 135l11 5c4.66699 -4.66699 9.66699 -7 15 -7c3.33301 0 17 5.66699 41 17c28.667 14 55.667 24.667 81 32
c39.333 11.333 80.333 17 123 17c62.667 0 114.334 -11.333 155.001 -34c47.333 -26.667 71 -65.334 71 -116.001c0 -39.333 -20 -71.666 -60 -96.999v-5c58 -26.667 87 -67.667 87 -123c0 -50 -25 -90.667 -75 -122c-45.333 -27.333 -98.666 -41 -159.999 -41
c-62.667 0 -125 9.66699 -187 29c-16.667 5.33301 -35.667 12 -57 20c-15.333 6 -24 9 -26 9c-7.33301 0 -13.333 -3.66699 -18 -11z" />
    <glyph glyph-name="four" unicode="4" 
d="M156 193h192v233h-2zM35 70v124c165.333 207.333 248 311.333 248 312c0 4 -6 6.66699 -18 8v12h238v-12c-14 -1.33301 -21 -4 -21 -8v-313h63c12 0 18 7.33301 18 22h12v-145h-12c0 15.333 -6 23 -18 23h-63v-63c0 -10.667 7.66699 -16.667 23 -18v-12h-178v12
c14 1.33301 21 7.33301 21 18v63h-283c-12 0 -18 -7.66699 -18 -23h-12z" />
    <glyph glyph-name="five" unicode="5" 
d="M30 49l99.999 150.999l11 -9c-2 -4.66699 -3 -9.66699 -3 -15c0 -12.667 14 -25.667 42 -39c34 -16.667 75.333 -25 124 -25c34.667 0 62.167 6.5 82.5 19.5s30.5 30.833 30.5 53.5c0 20 -9.83301 36.667 -29.5 50s-47.167 20 -82.5 20c-50.667 0 -76 -8.66699 -76 -26
c0 -1.33301 2.33301 -5.66602 7 -12.999l-6 -11l-174 105l7 10c2 -1.33301 6 -2 12 -2c5.33301 0 8 3.33301 8 10v168c0 10.667 -7.33301 16.667 -22 18v12h442c12 0 18 8.33301 18 25h12v-156h-12c0 16.667 -6 25 -18 25h-290v-87c42 13.333 87.333 20 136 20
c61.333 0 111.333 -13.333 150 -40c44 -30.667 66 -75.667 66 -135c0 -56 -25.167 -100.667 -75.5 -134s-115.833 -50 -196.5 -50c-65.333 0 -136.666 16 -213.999 48c-12.667 5.33301 -20 8 -22 8c-2.66699 0 -7.66699 -2.33301 -15 -7z" />
    <glyph glyph-name="six" unicode="6" 
d="M556 511l-72 -137.999l-9 6c0.666992 2.66699 1 6 1 10c0 10.667 -10.667 20.334 -32 29.001c-25.333 10.667 -57.333 16 -96 16c-48 0 -86.667 -11.333 -116 -34c-31.333 -24.667 -47.333 -60.334 -48 -107.001c46.667 39.333 102.334 59 167.001 59
c57.333 0 106 -15 146 -45c45.333 -33.333 68 -78.333 68 -135c0 -58.667 -26 -104.334 -78 -137.001c-44 -27.333 -97 -41 -159 -41c-88 0 -156.667 21 -206 63c-53.333 45.333 -80 112 -80 200c0 81.333 29 148 87 200c56 50 124.667 75 206 75
c41.333 0 102.666 -9.66699 183.999 -29c3.33301 -0.666992 6 -1 8 -1c1.33301 0 7.33301 4.33301 18 13zM431 176.001c0 22.667 -10.5 40.667 -31.5 54s-47.167 20 -78.5 20s-57.5 -6.66699 -78.5 -20s-31.5 -31.333 -31.5 -54s10.333 -40.334 31 -53.001s47 -19 79 -19
s58.333 6.33301 79 19s31 30.334 31 53.001z" />
    <glyph glyph-name="seven" unicode="7" 
d="M406 408h-322c-12 0 -18 -7.66699 -18 -23h-12v166h12c0 -16.667 6 -25 18 -25h449c12 0 18 7.66699 18 23h12v-128l-193 -351c-13.333 -24 -20 -37.333 -20 -40c0 -10.667 8 -16.667 24 -18v-12h-221v12c12 0.666992 22.667 9 32 25z" />
    <glyph glyph-name="eight" unicode="8" 
d="M305 532c56 0 105 -9 147 -27c60 -25.333 90 -65.333 90 -120c0 -47.333 -26.667 -83.333 -80 -108c69.333 -24 104 -65 104 -123c0 -58.667 -30.667 -101.667 -92 -129c-46 -20.667 -102.333 -31 -169 -31s-123 10.333 -169 31c-61.333 27.333 -92 70.333 -92 129
c0 53.333 31.333 95.666 94 126.999c-46.667 22.667 -70 57.334 -70 104.001c0 54.667 30 94.667 90 120c42 18 91 27 147 27zM305 222c-28 0 -52.333 -4 -73 -12c-29.333 -11.333 -44 -29 -44 -53s14.667 -41.667 44 -53c20.667 -8 45 -12 73 -12s52.667 4 74 12
c28.667 11.333 43 29 43 53s-14.333 41.667 -43 53c-21.333 8 -46 12 -74 12zM305 324c62 0 93 18.333 93 55s-31 55 -93 55s-93 -18.333 -93 -55s31 -55 93 -55z" />
    <glyph glyph-name="nine" unicode="9" 
d="M42 22l79.001 134.002l10 -5v-9c0 -16.667 13.333 -29.334 40 -38.001c23.333 -8 53 -12 89 -12c45.333 0 83.666 11.333 114.999 34c34 25.333 53 60.666 57 105.999c-68.667 -34.667 -131.334 -52 -188.001 -52c-53.333 0 -98.666 15.667 -135.999 47
c-39.333 33.333 -59 76.333 -59 129c0 59.333 26.333 104.666 79 135.999c44 26.667 97.333 40 160 40c86 0 153.333 -21.333 202 -64c50.667 -45.333 76 -110.666 76 -195.999c0 -84.667 -30.333 -153 -91 -205c-58 -48.667 -129.667 -73 -215 -73
c-26.667 0 -62.167 5.66699 -106.5 17s-69.833 17 -76.5 17c-8 0 -15.667 -3.66699 -23 -11zM289.001 430.002c-26 0 -49 -5 -69 -15c-27.333 -13.333 -41 -33 -41 -59s13.667 -45.667 41 -59c20 -10 43 -15 69 -15s49 5 69 15c27.333 13.333 41 33 41 59
s-13.667 45.667 -41 59c-20 10 -43 15 -69 15z" />
    <glyph glyph-name="colon" unicode=":" horiz-adv-x="305" 
d="M153 152c21.333 0 39.833 -7.83301 55.5 -23.5s23.5 -34.167 23.5 -55.5s-7.83301 -39.833 -23.5 -55.5s-34.167 -23.5 -55.5 -23.5s-39.833 7.83301 -55.5 23.5s-23.5 34.167 -23.5 55.5s7.83301 39.833 23.5 55.5s34.167 23.5 55.5 23.5zM153 440
c21.333 0 39.833 -7.83301 55.5 -23.5s23.5 -34.167 23.5 -55.5s-7.83301 -39.833 -23.5 -55.5s-34.167 -23.5 -55.5 -23.5s-39.833 7.83301 -55.5 23.5s-23.5 34.167 -23.5 55.5s7.83301 39.833 23.5 55.5s34.167 23.5 55.5 23.5z" />
    <glyph glyph-name="semicolon" unicode=";" horiz-adv-x="305" 
d="M71 -124v32c52.667 20.667 83 50.667 91 90c-62.667 0 -94 26.333 -94 79c0 22 8.16699 40 24.5 54s35.833 21 58.5 21c56.667 0 85 -33 85 -99c0 -81.333 -55 -140.333 -165 -177zM153 440c21.333 0 39.833 -7.83301 55.5 -23.5s23.5 -34.167 23.5 -55.5
s-7.83301 -39.833 -23.5 -55.5s-34.167 -23.5 -55.5 -23.5s-39.833 7.83301 -55.5 23.5s-23.5 34.167 -23.5 55.5s7.83301 39.833 23.5 55.5s34.167 23.5 55.5 23.5z" />
    <glyph glyph-name="less" unicode="&#x3c;" horiz-adv-x="600" 
d="M520 87v-94l-440 188v78l440 188v-94l-315 -133z" />
    <glyph glyph-name="equal" unicode="=" horiz-adv-x="600" 
d="M520 362v-98h-440v98h440zM520 176v-98h-440v98h440z" />
    <glyph glyph-name="greater" unicode="&#x3e;" horiz-adv-x="600" 
d="M80 -7v94l315 133l-315 133v94l440 -188v-78z" />
    <glyph glyph-name="question" unicode="?" horiz-adv-x="500" 
d="M356 206v-12.001h-178v12c18 5.33301 31 15.333 39 30l53 90c12.667 22 19 39 19 51c0 28.667 -16.333 43 -49 43c-12.667 0 -25.667 -4.66699 -39 -14s-20 -18.666 -20 -27.999c0 -4 2.33301 -9 7 -15l-9 -7l-111 105l12 12c1.33301 -2.66699 5.33301 -4 12 -4
c4.66699 0 15.334 5.33301 32.001 16c20.667 14 40.334 24.333 59.001 31c29.333 10.667 61.666 16 96.999 16c41.333 0 76.166 -12.167 104.499 -36.5s42.5 -55.833 42.5 -94.5c0 -26 -15.167 -60.333 -45.5 -103s-45.5 -68.667 -45.5 -78s6.66699 -14 20 -14zM266 151.999
c21.333 0 39.833 -7.83301 55.5 -23.5s23.5 -34.167 23.5 -55.5s-7.83301 -39.833 -23.5 -55.5s-34.167 -23.5 -55.5 -23.5s-39.833 7.83301 -55.5 23.5s-23.5 34.167 -23.5 55.5s7.83301 39.833 23.5 55.5s34.167 23.5 55.5 23.5z" />
    <glyph glyph-name="at" unicode="@" horiz-adv-x="600" 
d="M376 308c0 32 -9.66699 48 -29 48c-18.667 0 -37 -12 -55 -36c-19.333 -26 -29 -56 -29 -90c0 -18.667 3 -34 9 -46s13 -18 21 -18c45.333 0 73 47.333 83 142zM394 368l7.99902 26.0029h59l-44 -184c-1.33301 -4.66699 -2 -10 -2 -16c0 -26 7.33301 -39 22 -39
c16 0 31.833 16.5 47.5 49.5s23.5 65.5 23.5 97.5c0 44.667 -17.333 83.667 -52 117c-38 35.333 -85.667 53 -143 53c-47.333 0 -88.333 -16.667 -123 -50c-43.333 -41.333 -65 -101 -65 -179c0 -53.333 20.667 -98.666 62 -135.999c39.333 -35.333 84 -53 134 -53
c57.333 0 108.666 12.333 153.999 37l8 -48c-58 -32.667 -111.667 -49 -161 -49c-93.333 0 -167.666 29.667 -222.999 89c-46.667 50 -70 106 -70 168c0 82 28.333 150 85 204c54 51.333 120.333 77 199 77c72.667 0 133.667 -21.833 183 -65.5s74 -98.5 74 -164.5
c0 -44.667 -12.667 -85.334 -38 -122.001c-28 -42 -63.667 -63 -107 -63c-22.667 0 -41 8 -55 24c-11.333 12 -16.666 22.667 -15.999 32h-3c-2 -8.66699 -11 -19.334 -27 -32.001c-20 -15.333 -40 -23.333 -60 -24c-18.667 -0.666992 -35 6 -49 20
c-17.333 17.333 -26 42.666 -26 75.999c0 42 12.667 82.667 38 122c30 47.333 68.333 71 115 71c16 0 28 -4 36 -12c2.66699 -2.66699 8 -11.334 16 -26.001z" />
    <glyph glyph-name="A" unicode="A" horiz-adv-x="722" 
d="M346 432l-89 -238h186zM469 114h-237.001l-26 -73c-4 -10 -6 -16.333 -6 -19c0 -6.66699 6 -10 18 -10v-12h-177v12c12.667 2.66699 21.334 10.334 26.001 23.001c118.667 308.667 178 465 178 469c0 5.33301 -6.66699 8.66602 -20 9.99902v12h261v-12
c-12 -1.33301 -18 -5.66602 -18 -12.999c0 -4.66699 61.667 -157.667 185 -459c8 -20 17.333 -30 28 -30v-12h-197v12c12.667 0.666992 19 4.66699 19 12c0 1.33301 -5.33301 15.666 -16 42.999s-16.667 43 -18 47z" />
    <glyph glyph-name="B" unicode="B" horiz-adv-x="722" 
d="M105 30l-0.000976562 466.001c0 10.667 -9.33301 16.667 -28 18v12h381c124.667 0 187 -46.333 187 -139c0 -58.667 -32 -95 -96 -109v-2c77.333 -20.667 116 -63.334 116 -128.001c0 -43.333 -16 -78 -48 -104c-35.333 -29.333 -86.666 -44 -153.999 -44h-386v12
c18.667 1.33301 28 7.33301 28 18zM254.999 420.001v-91.998h136c37.333 0 60 1 68 3c26.667 5.33301 40 19.666 40 42.999s-13.333 37.666 -40 42.999c-8 2 -30.667 3 -68 3h-136zM254.999 226.003v-120h170c35.333 0 60.5 4.5 75.5 13.5s22.5 24.5 22.5 46.5
s-7.5 37.5 -22.5 46.5s-40.167 13.5 -75.5 13.5h-170z" />
    <glyph glyph-name="C" unicode="C" horiz-adv-x="722" 
d="M660 497l-89.999 -164.998l-10 7c1.33301 5.33301 2 10.333 2 15c0 10.667 -16.333 21 -49 31c-34.667 10 -72.334 15 -113.001 15c-48 0 -89 -10 -123 -30c-42 -24.667 -63 -60.334 -63 -107.001s21 -82.334 63 -107.001c34 -20 75 -30 123 -30
c23.333 0 55.666 5.66699 96.999 17c47.333 13.333 71 26.333 71 39l-6 15l11 7l103 -157l-12 -7c-2 5.33301 -6.66699 8 -14 8c-3.33301 0 -18 -4.66699 -44 -14c-31.333 -11.333 -60.666 -20 -87.999 -26c-42.667 -9.33301 -86 -14 -130 -14
c-87.333 0 -162.333 22.333 -225 67c-70 50.667 -105 118 -105 202s35 151.333 105 202c62.667 44.667 137.667 67 225 67c68 0 127 -7 177 -21c45.333 -12.667 68.333 -19 69 -19c6 0 11 2.66699 15 8z" />
    <glyph glyph-name="D" unicode="D" horiz-adv-x="722" 
d="M109 30v466c0 10.667 -9.33301 16.667 -28 18v12h332c88.667 0 156.667 -25.333 204 -76c44 -46.667 66 -109 66 -187c0 -73.333 -23.667 -134.333 -71 -183c-51.333 -53.333 -121.333 -80 -210 -80h-321v12c18.667 1.33301 28 7.33301 28 18zM259 408v-290h127
c99.333 0 149 48.333 149 145s-49.667 145 -149 145h-127z" />
    <glyph glyph-name="E" unicode="E" horiz-adv-x="667" 
d="M487 348v-156h-12c-3.33301 15.333 -13.333 23 -30 23h-186v-93h321c9.33301 0 15.333 10 18 30h12v-174h-12c-2.66699 14.667 -8.66699 22 -18 22h-499v12c18.667 1.33301 28 7.33301 28 18v466c0 10.667 -9.33301 16.667 -28 18v12h499c9.33301 0 15.333 9.33301 18 28
h12v-174h-12c-2.66699 18.667 -8.66699 28 -18 28h-321v-83h186c16.667 0 26.667 7.66699 30 23h12z" />
    <glyph glyph-name="F" unicode="F" horiz-adv-x="667" 
d="M623 554v-174h-12c-2.66699 16 -8.66699 24 -18 24h-330v-89h222c9.33301 0 15.333 7.66699 18 23h12v-168h-12c-2.66699 18 -8.66699 27 -18 27h-222v-167c0 -10.667 9.33301 -16.667 28 -18v-12h-210v12c18.667 1.33301 28 7.33301 28 18v466
c0 10.667 -9.33301 16.667 -28 18v12h512c9.33301 0 15.333 9.33301 18 28h12z" />
    <glyph glyph-name="G" unicode="G" horiz-adv-x="722" 
d="M522 125v65.999h-129c-8.66699 0 -13.667 -6.66699 -15 -20h-12v140h12c0.666992 -12 5.66699 -18 15 -18h295v-12c-10.667 -0.666992 -16 -6.33398 -16 -17.001v-166c0 -11.333 4 -17 12 -17h5v-12c-90 -50 -197.333 -75 -322 -75c-90 0 -165 22.333 -225 67
c-66.667 48.667 -100 116 -100 202s33.333 153.333 100 202c60 44.667 135 67 225 67c50.667 0 105 -8 163 -24c11.333 -3.33301 26.666 -8.66602 45.999 -15.999c15.333 -6.66699 24.333 -10 27 -10c5.33301 0 10 2.66699 14 8l12 -4l-65 -132l-12 7
c1.33301 2.66699 2 6.33398 2 11.001c0 10 -20.167 20.5 -60.5 31.5s-80.833 16.5 -121.5 16.5c-51.333 0 -93.666 -13 -126.999 -39c-36.667 -28.667 -55 -68.667 -55 -120c0 -50 21 -89.333 63 -118c36.667 -24.667 79.667 -37 129 -37c50 0 96.667 6.33301 140 19z" />
    <glyph glyph-name="H" unicode="H" horiz-adv-x="778" 
d="M669 496v-466c0 -10.667 9.33301 -16.667 28 -18v-12h-206v12c18.667 1.33301 28 7.33301 28 18v185h-260v-185c0 -10.667 9.33301 -16.667 28 -18v-12h-206v12c18.667 1.33301 28 7.33301 28 18v466c0 10.667 -9.33301 16.667 -28 18v12h206v-12
c-18.667 -1.33301 -28 -7.33301 -28 -18v-159h260v159c0 10.667 -9.33301 16.667 -28 18v12h206v-12c-18.667 -1.33301 -28 -7.33301 -28 -18z" />
    <glyph glyph-name="I" unicode="I" horiz-adv-x="389" 
d="M298 0h-206v12c18.667 1.33301 28 7.33301 28 18v466c0 10.667 -9.33301 16.667 -28 18v12h206v-12c-18.667 -1.33301 -28 -7.33301 -28 -18v-466c0 -10.667 9.33301 -16.667 28 -18v-12z" />
    <glyph glyph-name="J" unicode="J" horiz-adv-x="556" 
d="M13 23l68.001 168l12 -4c-1.33301 -6.66699 -2 -11.667 -2 -15c0 -20.667 19.333 -36.667 58 -48c27.333 -8 54 -12 80 -12c27.333 0 46.333 6.33301 57 19c8.66699 11.333 13 30.333 13 57v308c0 10.667 -9.33301 16.667 -28 18v12h206v-12
c-18.667 -1.33301 -28 -7.33301 -28 -18v-333c0 -65.333 -21.667 -111 -65 -137c-34.667 -21.333 -88 -32 -160 -32c-39.333 0 -78.833 5.5 -118.5 16.5s-57.834 16.5 -54.501 16.5c-6 0 -13.667 -4.33301 -23 -13z" />
    <glyph glyph-name="K" unicode="K" horiz-adv-x="722" 
d="M705 0l-229 0.00195312v12c12.667 0 19 4.33301 19 13c0 4.66699 -21 38.667 -63 102c-49.333 73.333 -74.333 110.333 -75 111l-98 -88v-120c0 -10.667 9.33301 -16.667 28 -18v-12h-206v12c18.667 1.33301 28 7.33301 28 18v466c0 10.667 -9.33301 16.667 -28 18v12
h206v-12c-18.667 -1.33301 -28 -7.33301 -28 -18v-180h7c21.333 20.667 64 60 128 118c45.333 40.667 68 63 68 67c0 7.33301 -6 11.666 -18 12.999v12h254v-12c-12 -0.666992 -22.333 -4.33398 -31 -11.001s-17 -13.667 -25 -21l-173 -149l204 -305
c7.33301 -10.667 18 -16 32 -16v-12z" />
    <glyph glyph-name="L" unicode="L" horiz-adv-x="667" 
d="M259 496v-374h344c9.33301 0 15.333 9.33301 18 28h12v-176h-12c-2.66699 17.333 -8.66699 26 -18 26h-522v12c18.667 1.33301 28 7.33301 28 18v466c0 10.667 -9.33301 16.667 -28 18v12h206v-12c-18.667 -1.33301 -28 -7.33301 -28 -18z" />
    <glyph glyph-name="M" unicode="M" horiz-adv-x="833" 
d="M755 0l-200 -0.000976562v12c18.667 1.33301 28 7.33301 28 18l-2 370l-178 -388l-176 392h-2v-374c0 -10.667 9.33301 -16.667 28 -18v-12h-176v12c18.667 1.33301 28 7.33301 28 18v466c0 10.667 -9.33301 16.667 -28 18v12h261v-12
c-16 -0.666992 -24 -6.66699 -24 -18c0 -2.66699 14.333 -36 43 -100c31.333 -68.667 48.333 -107 51 -115c6.66699 14.667 29 61.334 67 140.001c22 44.667 33 69.667 33 75c0 11.333 -8 17.333 -24 18v12h271v-12c-18.667 -1.33301 -28 -7.33301 -28 -18v-466
c0 -10.667 9.33301 -16.667 28 -18v-12z" />
    <glyph glyph-name="N" unicode="N" horiz-adv-x="778" 
d="M109 30v466c0 10.667 -9.33301 16.667 -28 18v12h241v-12c-18.667 -0.666992 -28 -5 -28 -13c0 -3.33301 81 -94 243 -272v267c0 10.667 -7 16.667 -21 18v12h183v-12c-18.667 -1.33301 -28 -7.33301 -28 -18v-466c0 -10.667 9.33301 -16.667 28 -18v-12h-190v12
c15.333 0 23 3.66699 23 11c0 4 -15 22.333 -45 55l-244 266v-314c0 -10.667 9.33301 -16.667 28 -18v-12h-190v12c18.667 1.33301 28 7.33301 28 18z" />
    <glyph glyph-name="O" unicode="O" horiz-adv-x="722" 
d="M361 410c-46 0 -84.333 -12.667 -115 -38c-32.667 -27.333 -49 -63.666 -49 -108.999s16.333 -81.666 49 -108.999c30.667 -25.333 69 -38 115 -38s84.833 13.167 116.5 39.5s47.5 62.166 47.5 107.499s-16.333 81.666 -49 108.999c-30.667 25.333 -69 38 -115 38z
M361 532c89.333 0 162.666 -23 219.999 -69c61.333 -49.333 92 -116 92 -200s-30.667 -150.667 -92 -200c-57.333 -46 -130.666 -69 -219.999 -69s-162.666 23 -219.999 69c-61.333 49.333 -92 116 -92 200s30.667 150.667 92 200c57.333 46 130.666 69 219.999 69z" />
    <glyph glyph-name="P" unicode="P" horiz-adv-x="667" 
d="M259 193v-163c0 -10.667 9.33301 -16.667 28 -18v-12h-206v12c18.667 1.33301 28 7.33301 28 18v466c0 10.667 -9.33301 16.667 -28 18v12h358c60 0 107.667 -16.667 143 -50c32 -30.667 48 -69.667 48 -117s-16 -86 -48 -116c-35.333 -33.333 -83 -50 -143 -50h-180z
M259 414v-115h152c54 0 81 20 81 60c0 36.667 -27 55 -81 55h-152z" />
    <glyph glyph-name="Q" unicode="Q" horiz-adv-x="722" 
d="M361 410c-46 0 -84.333 -12.668 -115 -38.001c-32.667 -27.333 -49 -63.666 -49 -108.999c0 -48 15.167 -87.5 45.5 -118.5s70.5 -46.5 120.5 -46.5c22 0 35.333 1.33301 40 4c-8 22.667 -21 41 -39 55c-12 8.66699 -26.667 16 -44 22c-14 4.66699 -21 7.66699 -21 9
c0 7.33301 10.667 13 32 17c15.333 3.33301 29.333 5 42 5c38.667 0 75.334 -20 110.001 -60c11.333 7.33301 21.166 22.333 29.499 45s12.5 45.334 12.5 68.001c0 45.333 -16.333 81.666 -49 108.999c-30.667 25.333 -69 38 -115 38zM657 -25.001l-120.999 -89l-7 10
c6.66699 8 10 14 10 18c0 5.33301 -9 20.333 -27 45c-22.667 30.667 -35 47.667 -37 51c-34 -10.667 -72 -16 -114 -16c-89.333 0 -162.666 23 -219.999 69c-61.333 49.333 -92 116 -92 200s30.667 150.667 92 200c57.333 46 130.666 69 219.999 69s162.666 -23 219.999 -69
c61.333 -49.333 92 -116 92 -200c0 -93.333 -36.667 -164 -110 -212l34 -41c16.667 -20 27.667 -30 33 -30c6 0 13 2.33301 21 7z" />
    <glyph glyph-name="R" unicode="R" horiz-adv-x="722" 
d="M259 198l-0.000976562 -167.999c0 -10.667 9.33301 -16.667 28 -18v-12h-206v12c18.667 1.33301 28 7.33301 28 18v466c0 10.667 -9.33301 16.667 -28 18v12h366c73.333 0 126.833 -13.333 160.5 -40s50.5 -68.667 50.5 -126c0 -82.667 -47.667 -137.334 -143 -164.001
l118 -166c8.66699 -12 18.334 -18 29.001 -18v-12h-208v12c14.667 1.33301 22 7.33301 22 18c0 3.33301 -18.333 30 -55 80c-40 54.667 -61.333 84 -64 88h-98zM258.999 414.001v-110h168c51.333 0 77 18.333 77 55s-25.667 55 -77 55h-168z" />
    <glyph glyph-name="S" unicode="S" horiz-adv-x="667" 
d="M41 30l74.002 178.002l10 -5c-1.33301 -3.33301 -2 -10.333 -2 -21c0 -14.667 22.833 -30.334 68.5 -47.001s93.167 -25 142.5 -25c96.667 0 145 22.667 145 68c0 18.667 -35.667 31.334 -107 38.001c-100 10 -166 20 -198 30c-71.333 22 -107 61 -107 117
c0 50 22.167 90.667 66.5 122s103.166 47 176.499 47c54.667 0 112.167 -7 172.5 -21l90.5 -21c9.33301 0 18.333 5 27 15l11 -4l-69 -139l-12 6v11c0 12.667 -22.833 24.667 -68.5 36s-92.167 17 -139.5 17c-78 0 -117 -15.667 -117 -47c0 -22 35.667 -36.333 107 -43
c101.333 -9.33301 168 -19.333 200 -30c71.333 -24.667 107 -70.334 107 -137.001c0 -50 -20 -91 -60 -123c-48.667 -38.667 -122.667 -58 -222 -58c-49.333 0 -95.333 4 -138 12c-27.333 5.33301 -55.333 12.666 -84 21.999c-24 8 -38 12 -42 12
c-4.66699 0 -11.334 -4.33301 -20.001 -13z" />
    <glyph glyph-name="T" unicode="T" 
d="M408 0h-206v12c18.667 1.33301 28 7.33301 28 18v374h-172c-9.33301 0 -15.333 -9.33301 -18 -28h-12v178h12c2.66699 -18.667 8.66699 -28 18 -28h494c9.33301 0 15.333 9.33301 18 28h12v-178h-12c-2.66699 18.667 -8.66699 28 -18 28h-172v-374
c0 -10.667 9.33301 -16.667 28 -18v-12z" />
    <glyph glyph-name="U" unicode="U" horiz-adv-x="778" 
d="M515 228v268c0 10.667 -9.33301 16.667 -28 18v12h206v-12c-18.667 -1.33301 -28 -7.33301 -28 -18v-268c0 -156 -92 -234 -276 -234s-276 78 -276 234v268c0 10.667 -9.33301 16.667 -28 18v12h206v-12c-18.667 -1.33301 -28 -7.33301 -28 -18v-268
c0 -72 42 -108 126 -108s126 36 126 108z" />
    <glyph glyph-name="V" unicode="V" horiz-adv-x="667" 
d="M440 0l-206 -0.000976562v12c10 1.33301 15 4.33301 15 9c0 3.33301 -30.667 75.333 -92 216c-70.667 162 -107 245 -109 249c-7.33301 18 -15 27.333 -23 28v12h205v-12c-13.333 -0.666992 -20 -4.66699 -20 -12c0 0.666992 46.667 -100.666 140 -303.999
c90 199.333 135 301 135 305s-1.16699 6.66699 -3.5 8s-6.16602 2.33301 -11.499 3v12h172v-12c-8 -2 -13 -6.33301 -15 -13c-2.66699 -8.66699 -37.334 -90.667 -104.001 -246c-64.667 -150 -97 -227.667 -97 -233c0 -6 4.66699 -9 14 -9v-13z" />
    <glyph glyph-name="W" unicode="W" horiz-adv-x="944" 
d="M391 0l-216 -0.00292969v12c13.333 2.66699 20 8.33398 20 17.001c0 2.66699 -25.333 80.334 -76 233.001c-52 156 -78.667 236.333 -80 241c-2 7.33301 -5.33301 11 -10 11v12h183v-12c-14 -2 -21 -7 -21 -15c0 -4 13.333 -46.667 40 -128
c34 -105.333 53.333 -165.666 58 -180.999h2c62 194 93 297 93 309c0 6.66699 -7 11.667 -21 15v12h238v-12c-11.333 -4 -17 -9 -17 -15c0 -1.33301 12.333 -45.333 37 -132c26 -92.667 41.667 -151.667 47 -177h2c4 15.333 22 71 54 167
c29.333 88.667 44 135.334 44 140.001c0 7.33301 -7 13 -21 17v12h168v-12c-9.33301 -0.666992 -15 -7 -17 -19c-0.666992 -4.66699 -27 -82.834 -79 -234.501s-78 -229.834 -78 -234.501c0 -8 6.66699 -12.667 20 -14v-12h-208v12c13.333 2 20 6.66699 20 14
c0 12.667 -11.333 58.334 -34 137.001c-41.333 140.667 -62 211.667 -62 213h-2c-9.33301 -33.333 -31 -104 -65 -212c-27.333 -85.333 -41 -131.333 -41 -138c0 -9.33301 7.33301 -14 22 -14v-12z" />
    <glyph glyph-name="X" unicode="X" horiz-adv-x="722" 
d="M278 0h-230.999v12c6 0 13.667 5.66699 23 17l200 238l-186 234c-6.66699 8.66699 -14.334 13 -23.001 13v12h234v-12c-16 -0.666992 -24 -5 -24 -13c0 -2.66699 14 -20.667 42 -54c32 -38 48.667 -58 50 -60c1.33301 2 18.666 22.333 51.999 61
c26.667 32 40 49.667 40 53c0 8.66699 -7 13 -21 13v12h229v-12c-11.333 -1.33301 -19.666 -5.33301 -24.999 -12l-184 -228l203 -257c2.66699 -3.33301 8.66699 -5 18 -5v-12h-234v12c12.667 0 19 1.66699 19 5c0 4.66699 -33 50.334 -99 137.001
c-2 -2.66699 -21.667 -25.334 -59 -68.001c-32 -36.667 -48 -57.667 -48 -63c0 -7.33301 8 -11 24 -11v-12z" />
    <glyph glyph-name="Y" unicode="Y" horiz-adv-x="667" 
d="M439 514l-0.000976562 12h190v-12c-7.33301 0 -15.333 -6 -24 -18l-192 -271v-195c0 -10.667 9.33301 -16.667 28 -18v-12h-206v12c18.667 1.33301 28 7.33301 28 18v176l-191 274c-16 22.667 -27 34 -33 34v12h220v-12c-16.667 0 -25 -4 -25 -12
c0 -4.66699 14.333 -28 43 -70l68 -99c2.66699 4.66699 23.334 34 62.001 88c36 50 54 77 54 81c0 8 -7.33301 12 -22 12z" />
    <glyph glyph-name="Z" unicode="Z" 
d="M572 514l-290 -396h260c9.33301 0 15.333 7.33301 18 22h12v-162h-12c-2.66699 14.667 -8.66699 22 -18 22h-512v12l288 396h-239c-9.33301 0 -15.333 -7.66699 -18 -23h-12v169h12c2.66699 -18.667 8.66699 -28 18 -28h493v-12z" />
    <glyph glyph-name="bracketleft" unicode="[" horiz-adv-x="444" 
d="M380 -116h-282v642h280v-60h-150v-522h152v-60z" />
    <glyph glyph-name="backslash" unicode="\" horiz-adv-x="278" 
d="M-22 532h98l224 -538h-97z" />
    <glyph glyph-name="bracketright" unicode="]" horiz-adv-x="444" 
d="M346 -116h-282v60h152v522h-150v60h280v-642z" />
    <glyph glyph-name="asciicircum" unicode="^" horiz-adv-x="600" 
d="M199 209h-95l152 317h87l153 -317h-96l-100 219z" />
    <glyph glyph-name="underscore" unicode="_" horiz-adv-x="500" 
d="M500 -125h-500v50h500v-50z" />
    <glyph glyph-name="grave" unicode="`" horiz-adv-x="333" 
d="M1 641h155l95 -146h-103z" />
    <glyph glyph-name="a" unicode="a" horiz-adv-x="667" 
d="M238 161h166l-84 175zM620 0h-166.001v12c8.66699 0 13 3 13 9c0 4 -4 14.333 -12 31c-10.667 22 -16.334 34.333 -17.001 37h-232c-1.33301 -4.66699 -7 -17 -17 -37c-8 -16.667 -12 -27 -12 -31c0 -6 4.33301 -9 13 -9v-12h-150v12c10.667 0 17.334 3.33301 20.001 10
l117 263c37.333 83.333 56 127.666 56 132.999c0 6 -4.33301 9.33301 -13 10v12h209v-12c-8.66699 -0.666992 -13 -4 -13 -10c0 -4 25 -58.667 75 -164c58 -121.333 94.333 -198.666 109 -231.999c2.66699 -6.66699 9.33398 -10 20.001 -10v-12z" />
    <glyph glyph-name="b" unicode="b" 
d="M105 30v379.999c0 10.667 -10.667 16.667 -32 18v12h301c62.667 0 105.667 -7 129 -21c26 -15.333 39 -44.666 39 -87.999s-22 -75.333 -66 -96c54 -17.333 81 -53 81 -107c0 -85.333 -59.667 -128 -179 -128h-305v12c21.333 1.33301 32 7.33301 32 18zM239 355.999v-96
h119c44 0 66 16 66 48c0 20 -6.66699 33.667 -20 41c-8.66699 4.66699 -24 7 -46 7h-119zM239 191.999l0.000976562 -108h109c55.333 0 83 18 83 54c0 24 -9 39.667 -27 47c-10.667 4.66699 -29.334 7 -56.001 7h-109z" />
    <glyph glyph-name="c" unicode="c" 
d="M538 421l11.998 -4.00098l-72 -146l-14 7c2.66699 13.333 4 19 4 17c0 8.66699 -14.667 18.334 -44 29.001c-31.333 10.667 -62.666 16 -93.999 16c-42.667 0 -79 -9.33301 -109 -28c-35.333 -22 -53 -52.667 -53 -92s17.667 -70 53 -92c30 -18.667 66.333 -28 109 -28
c35.333 0 70 8.66699 104 26c28.667 14.667 43 26.667 43 36c0 8 -0.333008 14 -1 18l11 7l95 -137l-12 -7c-6 7.33301 -11.333 11 -16 11c-0.666992 0 -12 -5.33301 -34 -16c-26.667 -12 -52.667 -21.333 -78 -28c-37.333 -10.667 -74.666 -16 -111.999 -16
c-81.333 0 -148.333 17.333 -201 52c-60.667 40 -91 98 -91 174c0 76.667 30.333 135 91 175c52.667 34 119.667 51 201 51c26.667 0 63 -5.66699 109 -17s74 -17 84 -17c5.33301 0 10.333 3 15 9z" />
    <glyph glyph-name="d" unicode="d" 
d="M87 30v380c0 10.667 -8.66699 16.667 -26 18v12h300c70 0 123.333 -22 160 -66c32 -38.667 48 -90 48 -154s-16 -115.333 -48 -154c-36.667 -44 -90 -66 -160 -66h-300v12c17.333 1.33301 26 7.33301 26 18zM221 344v-248h72c51.333 0 88.5 9.5 111.5 28.5
s34.5 50.833 34.5 95.5s-11.5 76.5 -34.5 95.5s-60.167 28.5 -111.5 28.5h-72z" />
    <glyph glyph-name="e" unicode="e" 
d="M223 88h283.999c13.333 0 22 8.33301 26 25h12v-134h-10c-5.33301 14 -14.666 21 -27.999 21h-446v12c18.667 1.33301 28 7.33301 28 18v380c0 10.667 -9.33301 16.667 -28 18v12h454c12 0 18 7.33301 18 22h12v-134h-12c0 16 -6 24 -18 24h-292v-81h188
c12 0 18 7.66699 18 23h12v-130h-12c0 15.333 -6 23 -18 23h-188v-99z" />
    <glyph glyph-name="f" unicode="f" horiz-adv-x="556" 
d="M91 30v380c0 10.667 -10 16.667 -30 18v12h435c12 0 18 7.33301 18 22h12v-138h-12c0 16 -6 24 -18 24h-271v-93h183c12 0 18 7.33301 18 22h12v-134h-12c0 16 -6 24 -18 24h-183v-137c0 -10.667 9.33301 -16.667 28 -18v-12h-190v12c18.667 1.33301 28 7.33301 28 18z
" />
    <glyph glyph-name="g" unicode="g" 
d="M338 240l208.001 0.000976562v-137c0 -17.333 6.33301 -26 19 -26h9v-12c-88.667 -47.333 -179.334 -71 -272.001 -71c-81.333 0 -144.666 18.333 -189.999 55c-49.333 38.667 -74 95.667 -74 171c0 73.333 27 130.666 81 171.999c48 36 109 54 183 54
c24.667 0 58.167 -5 100.5 -15s70.5 -15 84.5 -15c4.66699 0 10.334 3.33301 17.001 10l12 -2l-52 -132l-12 6v7c0 11.333 -15.667 22 -47 32c-28.667 8.66699 -56.334 13 -83.001 13c-45.333 0 -81.333 -10 -108 -30c-29.333 -22.667 -44 -56 -44 -100
c0 -45.333 15 -80 45 -104c27.333 -21.333 64 -32 110 -32c35.333 0 67.666 5 96.999 15v65h-84c-12 0 -18 -8 -18 -24h-12v124h12c0 -16 6 -24 18 -24z" />
    <glyph glyph-name="h" unicode="h" horiz-adv-x="667" 
d="M444 182h-221v-152c0 -10.667 9.33301 -16.667 28 -18v-12h-190v12c18.667 1.33301 28 7.33301 28 18v380c0 10.667 -9.33301 16.667 -28 18v12h190v-12c-18.667 -1.33301 -28 -7.33301 -28 -18v-126h221v126c0 10.667 -9.33301 16.667 -28 18v12h190v-12
c-18.667 -1.33301 -28 -7.33301 -28 -18v-380c0 -10.667 9.33301 -16.667 28 -18v-12h-190v12c18.667 1.33301 28 7.33301 28 18v152z" />
    <glyph glyph-name="i" unicode="i" horiz-adv-x="333" 
d="M68 440h198v-12c-21.333 -1.33301 -32 -7.33301 -32 -18v-380c0 -10.667 10.667 -16.667 32 -18v-12h-198v12c21.333 1.33301 32 7.33301 32 18v380c0 10.667 -10.667 16.667 -32 18v12z" />
    <glyph glyph-name="j" unicode="j" horiz-adv-x="444" 
d="M10 8l41.999 140l12 -4v-13c3.33301 -23.333 34.333 -35 93 -35c47.333 0 71 19.667 71 59v255c0 10.667 -7.33301 16.667 -22 18v12h175v-12c-12.667 -2 -19 -8 -19 -18v-266c0 -100 -65.667 -150 -197 -150c-21.333 0 -48.666 3.33301 -81.999 10s-49.333 10 -48 10
c-4 0 -9.33301 -3.33301 -16 -10z" />
    <glyph glyph-name="k" unicode="k" 
d="M584 0h-204v12c18.667 0 28 5.66699 28 17c0 4 -16 30 -48 78c-36.667 53.333 -56.667 83 -60 89l-87 -84v-82c0 -10.667 9.33301 -16.667 28 -18v-12h-187v12c16.667 -1.33301 25 4.66699 25 18v380c0 13.333 -8.33301 19.333 -25 18v12h187v-12
c-18.667 -1.33301 -28 -7.33301 -28 -18v-184c134 116 201 177.333 201 184c0 10.667 -8.33301 16.667 -25 18v12h195v-12c-15.333 -2 -45.333 -23.333 -90 -64l-99 -91l166 -246c6 -8.66699 13.667 -13.667 23 -15v-12z" />
    <glyph glyph-name="l" unicode="l" horiz-adv-x="556" 
d="M86 30v380c0 10.667 -9 16.667 -27 18v12h187v-12c-17.333 -1.33301 -26 -7.33301 -26 -18v-308h274c12 0 18 8.33301 18 25h12v-152h-12c0 16.667 -6 25 -18 25h-435v12c18 1.33301 27 7.33301 27 18z" />
    <glyph glyph-name="m" unicode="m" horiz-adv-x="722" 
d="M206 314v-284c0 -10.667 9.33301 -16.667 28 -18v-12h-157v12c15.333 1.33301 23 7.33301 23 18v380c0 10.667 -7.66699 16.667 -23 18v12h217v-12c-12.667 -1.33301 -19 -4 -19 -8s12.667 -32 38 -84c28 -56.667 42.667 -87 44 -91l56 107c21.333 40 32 62.667 32 68
c0 4 -6.33301 6.66699 -19 8v12h218v-12c-14 -1.33301 -21 -7.33301 -21 -18v-380c0 -10.667 7 -16.667 21 -18v-12h-167v12c17.333 1.33301 26 7.33301 26 18v284h-2l-149 -289l-144 289h-2z" />
    <glyph glyph-name="n" unicode="n" horiz-adv-x="667" 
d="M579 410v-379.999c0 -10.667 9.33301 -16.667 28 -18v-12h-185v12c19.333 0 29 4.33301 29 13s-26 40 -78 94c-76 78.667 -130.333 137 -163 175l-2 -2v-262c0 -10.667 8.66699 -16.667 26 -18v-12h-171v12c16.667 1.33301 25 7.33301 25 18v380
c0 10.667 -9 16.667 -27 18v12h238v-12c-14 -1.33301 -21 -7.33301 -21 -18c0 -0.666992 60.333 -66.334 181 -197.001v197c0 10.667 -9.33301 16.667 -28 18v12h176v-12c-18.667 -1.33301 -28 -7.33301 -28 -18z" />
    <glyph glyph-name="o" unicode="o" 
d="M305 446c70.667 0 130.667 -18 180 -54c58 -41.333 87 -98.666 87 -171.999s-29 -130.666 -87 -171.999c-49.333 -36 -109.333 -54 -180 -54s-130.667 18 -180 54c-58 41.333 -87 98.666 -87 171.999s29 130.666 87 171.999c49.333 36 109.333 54 180 54zM305 340
c-39.333 0 -72 -11 -98 -33s-39 -51 -39 -87s13 -65 39 -87s58.667 -33 98 -33s72 11 98 33s39 51 39 87s-13 65 -39 87s-58.667 33 -98 33z" />
    <glyph glyph-name="p" unicode="p" horiz-adv-x="556" 
d="M84 30v380c0 9.33301 -5.33301 15.333 -16 18v12h263c126.667 0 190 -47.667 190 -143s-63.333 -143 -190 -143h-113v-124c0 -10.667 7.66699 -16.667 23 -18v-12h-173v12c10.667 2.66699 16 8.66699 16 18zM218 356v-118h95c52 0 78 19.667 78 59s-23.333 59 -70 59
h-103z" />
    <glyph glyph-name="q" unicode="q" 
d="M305 340c-39.333 0 -71.998 -10.999 -97.998 -32.999s-39 -51 -39 -87c0 -40 14 -72 42 -96c25.333 -22.667 57 -34 95 -34c17.333 0 32.666 1.66699 45.999 5c-14.667 21.333 -36.334 42.666 -65.001 63.999c-1.33301 1.33301 -6.33301 3.66602 -15 6.99902
c-5.33301 2.66699 -8 5.33398 -8 8.00098c0 6.66699 10.333 10 31 10c30 0 69 -17 117 -51c20.667 20.667 31 49.667 31 87c0 36 -13 65 -39 87s-58.667 33 -98 33zM584.002 -6.99902l-107 -79.999l-8 9c4.66699 8 7 14.333 7 19c0 11.333 -21 35 -63 71
c-36 -12 -72 -18 -108 -18c-70.667 0 -130.667 18 -180 54c-58 41.333 -87 98.666 -87 171.999s29 130.666 87 171.999c49.333 36 109.333 54 180 54s130.667 -18 180 -54c58 -41.333 87 -98.666 87 -171.999c0 -70.667 -27.333 -126.667 -82 -168
c23.333 -39.333 44.666 -59 63.999 -59c4.66699 0 12.334 2.66699 23.001 8z" />
    <glyph glyph-name="r" unicode="r" 
d="M93 30v380c0 10.667 -7.33301 16.667 -22 18v12h321c50 0 89.833 -12 119.5 -36s44.5 -58.333 44.5 -103c0 -61.333 -37 -106.333 -111 -135l89 -134c8.66699 -13.333 20.334 -20 35.001 -20v-12h-202v12c16 0 24 4.33301 24 13c0 5.33301 -11.667 28 -35 68
c-26.667 46 -40.334 69.667 -41.001 71h-96v-134c0 -10.667 8.66699 -16.667 26 -18v-12h-172v12c13.333 2 20 8 20 18zM219 356v-108h142c46 0 69 18 69 54s-25.333 54 -76 54h-135z" />
    <glyph glyph-name="s" unicode="s" horiz-adv-x="556" 
d="M38 19l41 133.999l13 -6v-5c-0.666992 -2 -1 -4 -1 -6c0 -12.667 22.667 -24.667 68 -36c42.667 -10.667 85.334 -16 128.001 -16c60.667 0 91 14.333 91 43c0 20 -28.333 33.667 -85 41c-85.333 12 -137.666 21.333 -156.999 28c-56.667 18.667 -85 52.334 -85 101.001
c0 37.333 16.667 70 50 98c40.667 34 98 51 172 51c38 0 80.333 -4.33301 127 -13s70.667 -13 72 -13c4.66699 0 12 4 22 12l11 -4l-60 -126l-13 6c0 0.666992 0.333008 2.33398 1 5.00098v6c0 6 -14.667 13.333 -44 22c-32 10 -63.333 15 -94 15
c-76 0 -114 -14.667 -114 -44c0 -18 28.333 -30.333 85 -37c81.333 -10.667 133.666 -20.334 156.999 -29.001c56.667 -20.667 85 -56 85 -106c0 -42 -17.667 -76 -53 -102c-38.667 -29.333 -94.334 -44 -167.001 -44c-39.333 0 -86.333 6 -141 18s-79.667 18 -75 18
c-6 0 -13.667 -4.66699 -23 -14z" />
    <glyph glyph-name="t" unicode="t" horiz-adv-x="556" 
d="M68 440h420c12 0 18 7.33301 18 22h12v-146h-12c0 14.667 -6 22 -18 22h-143v-308c0 -10.667 7.66699 -16.667 23 -18v-12h-180v12c15.333 1.33301 23 7.33301 23 18v308h-143c-12 0 -18 -7.33301 -18 -22h-12v146h12c0 -14.667 6 -22 18 -22z" />
    <glyph glyph-name="u" unicode="u" horiz-adv-x="667" 
d="M99 190v220c0 10.667 -9.66699 16.667 -29 18v12h180v-12c-11.333 -2 -17 -8 -17 -18v-243c0 -47.333 33.333 -71 100 -71s100 23.667 100 71v243c0 10 -5.66699 16 -17 18v12h180v-12c-19.333 -1.33301 -29 -7.33301 -29 -18v-220c0 -130.667 -78 -196 -234 -196
s-234 65.333 -234 196z" />
    <glyph glyph-name="v" unicode="v" horiz-adv-x="556" 
d="M23 428v12h189v-12c-16.667 0 -25 -3.33301 -25 -10c0 -3.33301 14 -43.333 42 -120c29.333 -80 45.333 -125 48 -135h2c69.333 168.667 104 253.667 104 255c0 6.66699 -7.66699 10 -23 10v12h167v-12c-11.333 -1.33301 -18.333 -6 -21 -14
c-4.66699 -14.667 -32 -83.334 -82 -206.001c-48.667 -117.333 -73 -177.333 -73 -180c0 -12 7 -17.333 21 -16v-12h-211v12c14 -1.33301 21 4 21 16c0 4 -22.167 69.833 -66.5 197.5s-69.333 193.334 -75 197.001s-11.5 5.5 -17.5 5.5z" />
    <glyph glyph-name="w" unicode="w" horiz-adv-x="833" 
d="M27 440l175.998 -0.000976562v-12c-18 0 -27 -6 -27 -18c0 -6 11.667 -45.333 35 -118c24.667 -75.333 38.334 -120 41.001 -134h2c2.66699 14 18.667 58.667 48 134c28 70.667 42 110 42 118c0 12 -9 18 -27 18v12h203v-12c-18.667 0 -28 -6 -28 -18
c0 -4.66699 14.333 -44.667 43 -120c30.667 -82 47 -126 49 -132h2c2.66699 14 16.334 58.667 41.001 134c23.333 70 35 109.333 35 118c0 12 -9.33301 18 -28 18v12h166v-12c-12 -1.33301 -20.667 -10.333 -26 -27c-81.333 -244 -122 -369.333 -122 -376
s9.33301 -11 28 -13v-12h-211v12c19.333 2 29 6.33301 29 13s-13.667 46.667 -41 120c-28.667 76.667 -44 119.667 -46 129h-2c-2 -9.33301 -17.333 -52.333 -46 -129c-27.333 -73.333 -41 -113.333 -41 -120s8.66699 -11 26 -13v-12h-207v12c18 2 27 6.33301 27 13
s-20.333 71.334 -61 194.001l-64 196c-2.66699 8.66699 -8 13 -16 13v12z" />
    <glyph glyph-name="x" unicode="x" 
d="M239 0l-195 -0.000976562v12c8 0 12.667 1.66699 14 5l163 213l-149 189c-4.66699 6 -13 9 -25 9v12h213v-12c-15.333 0 -23 -3.33301 -23 -10s8 -19 24 -37l41 -45c3.33301 5.33301 15.666 21 36.999 47c14.667 19.333 22 31 22 35c0 6.66699 -6.66699 10 -20 10v12h199
v-12c-10 0 -17.333 -3 -22 -9l-139 -181l179 -221c2.66699 -3.33301 8 -5 16 -5v-12h-208v12c10.667 0 16 2.33301 16 7c0 9.33301 -12.333 29 -37 59c-30 34.667 -45 52.334 -45 53.001c-1.33301 -2.66699 -15.666 -22 -42.999 -58c-24.667 -32.667 -37 -50.667 -37 -54
c0 -4.66699 6.33301 -7 19 -7v-12z" />
    <glyph glyph-name="y" unicode="y" 
d="M377 163l0.000976562 -133c0 -10.667 7 -16.667 21 -18v-12h-176v12c14 1.33301 21 7.33301 21 18v129l-191 259c-4.66699 6.66699 -14.334 10 -29.001 10v12h215v-12c-15.333 0 -23 -3.66699 -23 -11c0 -4.66699 32 -49 96 -133c2.66699 4.66699 18.667 28 48 70
c26 37.333 39 58.333 39 63c0 7.33301 -7 11 -21 11v12h198v-12c-13.333 0 -22.333 -3.33301 -27 -10z" />
    <glyph glyph-name="z" unicode="z" horiz-adv-x="556" 
d="M50 12l233 326h-193c-12 0 -18 -7.66699 -18 -23h-12v148h12c0 -15.333 6 -23 18 -23h402v-12l-231 -326h215c12 0 18 8.66699 18 26h12v-151h-12c0 15.333 -6 23 -18 23h-426v12z" />
    <glyph glyph-name="braceleft" unicode="{" horiz-adv-x="444" 
d="M129 -13v134.001c0 25.333 -2.66699 43.333 -8 54c-6 13.333 -19 22.666 -39 27.999c20 7.33301 33 17.666 39 30.999c5.33301 11.333 8 29.666 8 54.999v134c0 42.667 15.667 71 47 85c27.333 12 82.333 18 165 18v-24c-49.333 -9.33301 -74 -35.666 -74 -78.999v-123
c0 -26.667 -2.66699 -46 -8 -58c-8 -17.333 -23.667 -29.333 -47 -36v-2c23.333 -6.66699 39 -18.667 47 -36c5.33301 -12 8 -31.333 8 -58v-123c0 -43.333 24.667 -69.666 74 -78.999v-24c-82.667 0 -137.667 6 -165 18c-31.333 14 -47 42.333 -47 85z" />
    <glyph glyph-name="bar" unicode="|" horiz-adv-x="222" 
d="M62 0v526h98v-526h-98z" />
    <glyph glyph-name="braceright" unicode="}" horiz-adv-x="444" 
d="M315 121v-134.001c0 -42.667 -15.667 -71 -47 -85c-27.333 -12 -82.333 -18 -165 -18v24c49.333 9.33301 74 35.666 74 78.999v123c0 26.667 2.66699 46 8 58c8 17.333 23.667 29.333 47 36v2c-23.333 6.66699 -39 18.667 -47 36c-5.33301 12 -8 31.333 -8 58v123
c0 43.333 -24.667 69.666 -74 78.999v24c82.667 0 137.667 -6 165 -18c31.333 -14 47 -42.333 47 -85v-134c0 -25.333 2.66699 -43.666 8 -54.999c6 -13.333 19 -23.666 39 -30.999c-20 -5.33301 -33 -14.666 -39 -27.999c-5.33301 -10.667 -8 -28.667 -8 -54z" />
    <glyph glyph-name="asciitilde" unicode="~" horiz-adv-x="600" 
d="M469 298l32 -78c-35.333 -50 -71.666 -75 -108.999 -75c-22 0 -51.833 9.66699 -89.5 29s-70.834 29 -99.501 29c-30 0 -54.333 -20.333 -73 -61l-31 78c26.667 50 63 75 109 75c22 0 54 -9.33301 96 -28c48 -21.333 77.667 -32 89 -32c22.667 0 48 21 76 63z" />
    <glyph glyph-name="nonbreakingspace" unicode="&#xa0;" horiz-adv-x="500" 
 />
    <glyph glyph-name="exclamdown" unicode="&#xa1;" horiz-adv-x="400" 
d="M301 0h-214v12c12.667 0 20.667 8.33301 24 25l48 250c2 5.33301 2.33301 10.333 1 15c0 10 -7.33301 16 -22 18v12h112v-12c-14.667 -2 -22 -8 -22 -18c-1.33301 -4.66699 -1 -9.66699 1 -15l48 -250c3.33301 -16.667 11.333 -25 24 -25v-12zM194 374
c-21.333 0 -39.833 7.83301 -55.5 23.5s-23.5 34.167 -23.5 55.5s7.83301 39.833 23.5 55.5s34.167 23.5 55.5 23.5s39.833 -7.83301 55.5 -23.5s23.5 -34.167 23.5 -55.5s-7.83301 -39.833 -23.5 -55.5s-34.167 -23.5 -55.5 -23.5z" />
    <glyph glyph-name="cent" unicode="&#xa2;" 
d="M529 358l-52.999 -101c-14.667 18.667 -39 33 -73 43l-81 -205c4 -0.666992 10 -1 18 -1c50 0 91.333 19 124 57l73 -89c-6 -1.33301 -34.667 -13.333 -86 -36c-38.667 -17.333 -78.667 -26 -120 -26c-4 -0 -10.333 0.333008 -19 1h-19l-51 -127h-78l58 145
c-85.333 38 -128 98.667 -128 182c0 61.333 23.333 111 70 149c43.333 35.333 96.333 53 159 53h26c11.333 -0.666992 19.666 -1 24.999 -1l43 110h78l-53 -125c19.333 -8 48.333 -17.667 87 -29zM269.001 113l75.999 196c-37.333 0 -67.666 -9 -90.999 -27
c-25.333 -20 -38 -47.667 -38 -83c0 -48 17.667 -76.667 53 -86z" />
    <glyph glyph-name="sterling" unicode="&#xa3;" 
d="M33 -4l0.00195312 92.998c35.333 8.66699 59.666 26.334 72.999 53.001c10 20 15 48.667 15 86c0 11.333 -0.666992 25 -2 41h-86v58h80c0 71.333 15.167 123.333 45.5 156s81.833 49 154.5 49c69.333 0 121.333 -11 156 -33c39.333 -25.333 63.333 -69.666 72 -132.999
h-117c-6.66699 45.333 -42.334 68 -107.001 68c-32 0 -53.667 -10.333 -65 -31c-8.66699 -15.333 -13 -40.666 -13 -75.999h100v-58h-100c0 -64.667 -21.333 -118 -64 -160l2 -2c46 12.667 88.333 19 127 19c4.66699 0 19.667 -1.33301 45 -4s43 -4 53 -4
c29.333 0 46 22.667 50 68h120c0 -43.333 -4.83301 -76.333 -14.5 -99s-28.167 -43.334 -55.5 -62.001c-30 -20.667 -63.667 -31 -101 -31c-36.667 0 -77.834 5.33301 -123.501 16s-75.5 16 -89.5 16c-28 0 -61.333 -5.66699 -100 -17
c-33.333 -10 -51.666 -14.333 -54.999 -13z" />
    <glyph glyph-name="currency" unicode="&#xa4;" horiz-adv-x="500" 
d="M511 121l55 -56l-64 -64l-58 57c-32 -28.667 -78 -43 -138 -43s-106 14.333 -138 43l-58 -57l-64 64l55 56c-28.667 32 -43 79.333 -43 142s14.333 110 43 142l-55 56l64 64l58 -57c32 28.667 78 43 138 43s106 -14.333 138 -43l58 57l64 -64l-55 -56
c28.667 -32 43 -79.333 43 -142s-14.333 -110 -43 -142zM306 409c-40 0 -73.333 -14.333 -100 -43s-40 -63 -40 -103s13.333 -74.333 40 -103s60 -43 100 -43s73.333 14.333 100 43s40 63 40 103s-13.333 74.333 -40 103s-60 43 -100 43z" />
    <glyph glyph-name="yen" unicode="&#xa5;" horiz-adv-x="300" 
d="M50 266v57.999h116l-113 156c-16.667 22.667 -31 34 -43 34v12h212v-12c-16.667 0 -25 -4 -25 -12c0 -13.333 5.33301 -27.666 16 -42.999l101 -143l94 132c21.333 30 32 48 32 54c0 8 -7.33301 12 -22 12v12h182v-12c-14 0 -25.333 -6 -34 -18l-122 -172h116v-58h-153
l-23 -33v-25h176v-58h-176v-120c0 -10.667 8 -16.667 24 -18v-12h-197v12c15.333 1.33301 23 7.33301 23 18v120h-184v58h183v17l-29 41h-154z" />
    <glyph glyph-name="brokenbar" unicode="&#xa6;" horiz-adv-x="420" 
d="M62 0v197h98v-197h-98zM62 329v197h98v-197h-98z" />
    <glyph glyph-name="section" unicode="&#xa7;" horiz-adv-x="1112" 
d="M428 467l-70 -53.9932c-34.667 32.667 -74.667 49 -120 49c-14 0 -26.333 -3.66699 -37 -11s-16 -17.333 -16 -30c0 -16 23 -33.333 69 -52c74.667 -30.667 118 -49.334 130 -56.001c46 -26.667 69 -56.667 69 -90c0 -28.667 -8 -54.334 -24 -77.001
c-18 -23.333 -41 -37 -69 -41c37.333 -24.667 56 -54.334 56 -89.001c0 -38.667 -20.333 -68.334 -61 -89.001c-32.667 -16.667 -70.667 -25 -114 -25c-65.333 0 -125 22.333 -179 67l62 56c36.667 -35.333 76.667 -53 120 -53c17.333 0 32.333 3.66699 45 11
c15.333 9.33301 23 22.666 23 39.999c0 13.333 -23 28.666 -69 45.999c-65.333 25.333 -108 44 -128 56c-46 28 -69 61.667 -69 101c0 28 9.16699 51.667 27.5 71s41.5 31.666 69.5 36.999v2c-36 18 -54 46.333 -54 85c0 38 16.333 67 49 87c27.333 16 61 24 101 24
c70 0 133 -21.667 189 -65zM371 186.007c0 22.667 -29.333 46.333 -88 71c-50 20.667 -84.333 31 -103 31c-34.667 0 -52 -11.333 -52 -34c0 -12.667 6.66699 -24.667 20 -36c15.333 -13.333 44 -27.833 86 -43.5s73.333 -23.5 94 -23.5c28.667 0 43 11.667 43 35z" />
    <glyph glyph-name="dieresis" unicode="&#xa8;" horiz-adv-x="600" 
d="M132 504h-128v116h128v-116zM328 504h-128v116h128v-116z" />
    <glyph glyph-name="copyright" unicode="&#xa9;" horiz-adv-x="600" 
d="M300 -6c-76 0 -138.833 25.5 -188.5 76.5s-74.5 114.833 -74.5 191.5s24.833 140.834 74.5 192.501s112.5 77.5 188.5 77.5s138.833 -25.833 188.5 -77.5s74.5 -115.834 74.5 -192.501s-24.833 -140.5 -74.5 -191.5s-112.5 -76.5 -188.5 -76.5zM300 42
c57.333 0 104.166 21 140.499 63s54.5 94.333 54.5 157s-18.167 115.334 -54.5 158.001s-83.166 64 -140.499 64s-104.166 -21.333 -140.499 -64s-54.5 -95.334 -54.5 -158.001s18.167 -115 54.5 -157s83.166 -63 140.499 -63zM410 208l18.001 -0.000976562l-11 -59
c-1.33301 -5.33301 -9 -10.666 -23 -15.999c-29.333 -10.667 -56 -16 -80 -16c-52 0 -92.5 13.5 -121.5 40.5s-43.5 65.167 -43.5 114.5c0 40 11.667 73 35 99c29.333 34 75 51 137 51c24 0 49.667 -4.66699 77 -14c11.333 -4 17 -9.33301 17 -16v-56h-18
c-15.333 44 -40 66 -74 66c-48.667 0 -73.334 -42 -74.001 -126c-0.666992 -92.667 23.333 -139 72 -139c37.333 0 67 23.667 89 71z" />
    <glyph glyph-name="ordfeminine" unicode="&#xaa;" horiz-adv-x="800" 
d="M146 369h95l-48 107zM260 317h-134l-13 -27c-2.66699 -5.33301 -4 -9 -4 -11c0 -4.66699 3.33301 -7 10 -7v-8h-108v8c6 0 10 2 12 6c72 153.333 108 232 108 236c0 3.33301 -2.66699 5.33301 -8 6v8h145v-8c-4.66699 -0.666992 -7 -2.66699 -7 -6
c0 -7.33301 38 -86 114 -236c2 -4 6.33301 -6 13 -6v-8h-120v8c7.33301 0 11 2 11 6c0 0.666992 -1 3 -3 7z" />
    <glyph glyph-name="guillemotleft" unicode="&#xab;" horiz-adv-x="333" 
d="M155 374h106l-114 -154l117 -154h-104l-118 158zM345 374h106l-114 -154l117 -154h-104l-118 158z" />
    <glyph glyph-name="logicalnot" unicode="&#xac;" horiz-adv-x="333" 
d="M422 78v186h-342v98h440v-284h-98z" />
    <glyph glyph-name="minus" unicode="&#xad;" horiz-adv-x="549" 
d="M520 171h-440v98h440v-98z" />
    <glyph glyph-name="minus" unicode="&#x2212;" horiz-adv-x="549" 
d="M520 171h-440v98h440v-98z" />
    <glyph glyph-name="registered" unicode="&#xae;" horiz-adv-x="1000" 
d="M175 393l0.000976562 19.9971h158c54.667 0 82 -25.333 82 -76c0 -38.667 -19 -63.667 -57 -75l43 -64c13.333 -20 27.666 -40.333 42.999 -61v-11h-75c-8.66699 0 -20.334 15.333 -35.001 46l-38 79h-14v-77c0 -11.333 1.33301 -18.666 4 -21.999
s11.334 -5.33301 26.001 -6v-20h-137v20c14.667 0.666992 23.5 2.83398 26.5 6.50098s4.5 10.834 4.5 21.501v190c0 12.667 -2 20.5 -6 23.5s-12.333 4.83301 -25 5.5zM282.001 392.997v-122h16c24.667 0 37 21 37 63c0 39.333 -11.333 59 -34 59h-19zM300.001 -6.00293
c-76 0 -138.833 25.5 -188.5 76.5s-74.5 114.833 -74.5 191.5s24.833 140.834 74.5 192.501s112.5 77.5 188.5 77.5s138.833 -25.833 188.5 -77.5s74.5 -115.834 74.5 -192.501s-24.833 -140.5 -74.5 -191.5s-112.5 -76.5 -188.5 -76.5zM300.001 41.9971
c57.333 0 104.166 21 140.499 63s54.5 94.333 54.5 157s-18.167 115.334 -54.5 158.001s-83.166 64 -140.499 64s-104.166 -21.333 -140.499 -64s-54.5 -95.334 -54.5 -158.001s18.167 -115 54.5 -157s83.166 -63 140.499 -63z" />
    <glyph glyph-name="macron" unicode="&#xaf;" horiz-adv-x="722" 
d="M340 527h-346v74h346v-74z" />
    <glyph glyph-name="macron" unicode="&#x2c9;" horiz-adv-x="722" 
d="M340 527h-346v74h346v-74z" />
    <glyph glyph-name="degree" unicode="&#xb0;" horiz-adv-x="713" 
d="M113 389c0 -24 8.33301 -44.833 25 -62.5s37.334 -26.5 62.001 -26.5s45.334 8.83301 62.001 26.5s25 38.5 25 62.5s-8.33301 44.833 -25 62.5s-37.334 26.5 -62.001 26.5s-45.334 -8.83301 -62.001 -26.5s-25 -38.5 -25 -62.5zM200 532c40 0 73.833 -13.833 101.5 -41.5
s41.5 -61.5 41.5 -101.5s-13.833 -73.833 -41.5 -101.5s-61.5 -41.5 -101.5 -41.5s-73.833 13.833 -101.5 41.5s-41.5 61.5 -41.5 101.5s13.833 73.833 41.5 101.5s61.5 41.5 101.5 41.5z" />
    <glyph glyph-name="plusminus" unicode="&#xb1;" horiz-adv-x="600" 
d="M251 332v108h98v-108h171v-98h-171v-108h-98v108h-171v98h171zM80 0v98h440v-98h-440z" />
    <glyph glyph-name="twosuperior" unicode="&#xb2;" horiz-adv-x="549" 
d="M83 391l-68.999 88.999l7 6c4 -4 8 -6 12 -6c-2 0 14.333 8.66699 49 26s71 26 109 26c39.333 0 72.666 -8.33301 99.999 -25c31.333 -19.333 47 -46.333 47 -81c0 -24.667 -12 -46 -36 -64c-14.667 -10.667 -40.5 -23.667 -77.5 -39s-61.5 -27.666 -73.5 -36.999v-3h181
c8 0 12 5.33301 12 16h8v-101h-8c0 10 -4 15 -12 15h-298c-7.33301 0 -11 -5 -11 -15h-8c-1.33301 34 9.66699 64.667 33 92c18 20.667 46 41.667 84 63l93 49c12.667 7.33301 19 17.333 19 30c0 20 -16.667 30 -50 30c-20 0 -42 -5.66699 -66 -17
c-26.667 -13.333 -40 -27 -40 -41c0 -2.66699 1 -5 3 -7z" />
    <glyph glyph-name="threesuperior" unicode="&#xb3;" horiz-adv-x="549" 
d="M9 239l43.998 101.998l8 -4c-1.33301 -2.66699 -2 -6.33398 -2 -11.001c0 -10 14.667 -20.333 44 -31s59.333 -16 90 -16c46 0 69 11.333 69 34c0 14.667 -7 24.334 -21 29.001c-11.333 4 -33 6 -65 6c-13.333 0 -20 -5.33301 -20 -16h-8v91h8
c0.666992 -8.66699 7.33398 -13 20.001 -13c29.333 0 48.666 1.83301 57.999 5.5s14 11.834 14 24.501c0 18.667 -19.667 28 -59 28c-21.333 0 -45 -4.66699 -71 -14c-28 -9.33301 -42 -19 -42 -29c0 -4 0.333008 -6.66699 1 -8l-6 -4l-54 79l7 4
c2.66699 -2.66699 6.33398 -4 11.001 -4c-4.66699 0 11.166 6.66699 47.499 20s72.833 20 109.5 20c40.667 0 74.334 -6.66699 101.001 -20c31.333 -16 47 -39.333 47 -70c0 -23.333 -13.333 -42.666 -40 -57.999v-3c38.667 -16 58 -41.333 58 -76
c0 -31.333 -18 -56 -54 -74c-30 -14.667 -63.333 -22 -100 -22c-39.333 0 -80.166 6 -122.499 18s-60.833 18 -55.5 18c-2.66699 0 -5.66699 -2.33301 -9 -7z" />
    <glyph glyph-name="acute" unicode="&#xb4;" 
d="M177 641h155l-147 -146h-103z" />
    <glyph glyph-name="mu" unicode="&#xb5;" horiz-adv-x="667" 
d="M232 8l-0.000976562 -166c0 -10.667 9.66699 -16.667 29 -18v-12h-192v12c19.333 1.33301 29 7.33301 29 18v568c0 10.667 -9.66699 16.667 -29 18v12h180v-12c-11.333 -2 -17 -8 -17 -18v-243c0 -47.333 33.333 -71 100 -71s100 23.667 100 71v243
c0 10 -5.66699 16 -17 18v12h180v-12c-19.333 -1.33301 -29 -7.33301 -29 -18v-220c0 -130.667 -78 -196 -234 -196c-37.333 0 -70.666 4.66699 -99.999 14z" />
    <glyph glyph-name="mu" unicode="&#x3bc;" horiz-adv-x="667" 
d="M232 8l-0.000976562 -166c0 -10.667 9.66699 -16.667 29 -18v-12h-192v12c19.333 1.33301 29 7.33301 29 18v568c0 10.667 -9.66699 16.667 -29 18v12h180v-12c-11.333 -2 -17 -8 -17 -18v-243c0 -47.333 33.333 -71 100 -71s100 23.667 100 71v243
c0 10 -5.66699 16 -17 18v12h180v-12c-19.333 -1.33301 -29 -7.33301 -29 -18v-220c0 -130.667 -78 -196 -234 -196c-37.333 0 -70.666 4.66699 -99.999 14z" />
    <glyph glyph-name="paragraph" unicode="&#xb6;" horiz-adv-x="494" 
d="M400 526l0.00195312 -18.001c-26.667 -2.66699 -42.667 -6.66699 -48 -12s-8 -17.666 -8 -36.999v-571h-82v616h-46v-616h-82v333c-36.667 0 -65.834 14.5 -87.501 43.5s-32.5 67.167 -32.5 114.5c0 52 12.167 89.5 36.5 112.5s64.166 34.5 119.499 34.5h230z" />
    <glyph glyph-name="periodcentered" unicode="&#xb7;" horiz-adv-x="713" 
d="M153 299c22 0 40.667 -7.66699 56 -23s23 -34 23 -56s-7.66699 -40.667 -23 -56s-34 -23 -56 -23s-40.667 7.66699 -56 23s-23 34 -23 56s7.66699 40.667 23 56s34 23 56 23z" />
    <glyph glyph-name="periodcentered" unicode="&#x2219;" horiz-adv-x="713" 
d="M153 299c22 0 40.667 -7.66699 56 -23s23 -34 23 -56s-7.66699 -40.667 -23 -56s-34 -23 -56 -23s-40.667 7.66699 -56 23s-23 34 -23 56s7.66699 40.667 23 56s34 23 56 23z" />
    <glyph glyph-name="cedilla" unicode="&#xb8;" horiz-adv-x="823" 
d="M44 -194l18.9961 44.001c32 -10.667 57 -16 75 -16c36 0 54 13.333 54 40c0 9.33301 -4.16699 17.166 -12.5 23.499s-17.166 9.5 -26.499 9.5c-10 0 -25 -2.66699 -45 -8l-21 20l59 90h53l-43 -61l2 -2c10.667 4 21.334 6 32.001 6
c24.667 0 45.834 -6.83301 63.501 -20.5s26.5 -32.5 26.5 -56.5c0 -30.667 -14 -54.667 -42 -72c-24 -15.333 -52.333 -23 -85 -23c-29.333 0 -65.666 8.66699 -108.999 26z" />
    <glyph glyph-name="onesuperior" unicode="&#xb9;" horiz-adv-x="549" 
d="M151 231v190.999c-20 -4 -32.667 -7.5 -38 -10.5s-9 -8.83301 -11 -17.5h-8v98h8c0 -8.66699 2.33301 -13 7 -13c2.66699 0 10 2.16699 22 6.5s18.667 6.5 20 6.5v16c0 6.66699 -4.33301 11.334 -13 14.001v8h127v-8c-10.667 -0.666992 -16 -7.66699 -16 -21v-270
c0 -6.66699 5 -10 15 -10v-8h-129v8c10.667 0 16 3.33301 16 10z" />
    <glyph glyph-name="ordmasculine" unicode="&#xba;" horiz-adv-x="274" 
d="M184 532c42 0 78 -10.667 108 -32c34.667 -25.333 52 -60 52 -104s-17.333 -78.667 -52 -104c-30 -21.333 -66 -32 -108 -32s-78.333 10.667 -109 32c-34.667 25.333 -52 60 -52 104s17.333 78.667 52 104c30.667 21.333 67 32 109 32zM184 462
c-20.667 0 -38 -6.16699 -52 -18.5s-21 -28.166 -21 -47.499s7 -35.166 21 -47.499s31.333 -18.5 52 -18.5s37.834 6.16699 51.501 18.5s20.5 28.166 20.5 47.499s-6.83301 35.166 -20.5 47.499s-30.834 18.5 -51.501 18.5z" />
    <glyph glyph-name="guillemotright" unicode="&#xbb;" horiz-adv-x="400" 
d="M155 66h-106l114 154l-117 154h104l118 -158zM345 66h-106l114 154l-117 154h104l118 -158z" />
    <glyph glyph-name="onequarter" unicode="&#xbc;" horiz-adv-x="367" 
d="M544 117h124v140zM466 43v74l161 188c0 2.66699 -4 4 -12 4v8h155v-8c-9.33301 0 -14 -1.33301 -14 -4v-188h41c8 0 12 4.33301 12 13h8v-87h-8c0 9.33301 -4 14 -12 14h-41v-38c0 -6 5 -9.66699 15 -11v-8h-115v8c8 1.33301 12 5 12 11v38h-183
c-7.33301 0 -11 -4.66699 -11 -14h-8zM193 -6l430 538h71l-428 -538h-73zM122 394l-8 -0.000976562v98h8c0 -8.66699 2.33301 -13 7 -13c2.66699 0 10 2.16699 22 6.5s18.667 6.5 20 6.5v16c0 6.66699 -4.33301 11.334 -13 14.001v8h127v-8
c-10.667 -0.666992 -16 -7.66699 -16 -21v-270c0 -6.66699 5 -10 15 -10v-8h-129v8c10.667 0 16 3.33301 16 10v191c-20 -4 -32.667 -7.5 -38 -10.5s-9 -8.83301 -11 -17.5z" />
    <glyph glyph-name="onehalf" unicode="&#xbd;" horiz-adv-x="768" 
d="M563 178l-68.999 88.999l7 6c4 -4 8 -6 12 -6c-2 0 14.333 8.66699 49 26s71 26 109 26c39.333 0 72.666 -8.33301 99.999 -25c31.333 -19.333 47 -46.333 47 -81c0 -24.667 -12 -46 -36 -64c-14.667 -10.667 -40.5 -23.667 -77.5 -39s-61.5 -27.666 -73.5 -36.999v-3
h181c8 0 12 5.33301 12 16h8v-101h-8c0 10 -4 15 -12 15h-298c-7.33301 0 -11 -5 -11 -15h-8c-1.33301 34 9.66699 64.667 33 92c18 20.667 46 41.667 84 63l93 49c12.667 7.33301 19 17.333 19 30c0 20 -16.667 30 -50 30c-20 0 -42 -5.66699 -66 -17
c-26.667 -13.333 -40 -27 -40 -41c0 -2.66699 1 -5 3 -7zM149.001 -6.00098l430 538h71l-428 -538h-73zM102.001 393.999l-8 -0.000976562v98h8c0 -8.66699 2.33301 -13 7 -13c2.66699 0 10 2.16699 22 6.5s18.667 6.5 20 6.5v16c0 6.66699 -4.33301 11.334 -13 14.001v8
h127v-8c-10.667 -0.666992 -16 -7.66699 -16 -21v-270c0 -6.66699 5 -10 15 -10v-8h-129v8c10.667 0 16 3.33301 16 10v191c-20 -4 -32.667 -7.5 -38 -10.5s-9 -8.83301 -11 -17.5z" />
    <glyph glyph-name="threequarters" unicode="&#xbe;" horiz-adv-x="944" 
d="M604 117h124v140h-1zM526 43v74l161 188c0 2.66699 -4 4 -12 4v8h155v-8c-9.33301 0 -14 -1.33301 -14 -4v-188h41c8 0 12 4.33301 12 13h8v-87h-8c0 9.33301 -4 14 -12 14h-41v-38c0 -6 5 -9.66699 15 -11v-8h-115v8c8 1.33301 12 5 12 11v38h-183
c-7.33301 0 -11 -4.66699 -11 -14h-8zM47 239l43.9971 101.998l8 -2c-2 -6 -3 -10.333 -3 -13c0 -10 14.833 -20.333 44.5 -31s59.834 -16 90.501 -16c46 0 69 11.333 69 34c0 14.667 -7 24.334 -21 29.001c-11.333 4 -33 6 -65 6c-12.667 0 -19.334 -5.33301 -20.001 -16
h-8v91h8c0.666992 -8.66699 7.33398 -13 20.001 -13c29.333 0 48.666 1.83301 57.999 5.5s14 11.834 14 24.501c0 18.667 -19.667 28 -59 28c-21.333 0 -45.666 -4.66699 -72.999 -14s-41 -19 -41 -29c0 -2.66699 0.666992 -5.33398 2 -8.00098l-6 -4l-54 79l7 4
c2.66699 -2.66699 6.33398 -4 11.001 -4c-4.66699 0 11.166 6.66699 47.499 20s72.833 20 109.5 20c40.667 0 74.334 -6.66699 101.001 -20c31.333 -16 47 -39.333 47 -70c0 -23.333 -13.333 -42.666 -40 -57.999v-3c38.667 -16 58 -41.333 58 -76
c0 -31.333 -18 -56 -54 -74c-30 -14.667 -63.333 -22 -100 -22c-25.333 0 -59.666 6 -102.999 18s-68.333 18 -75 18c-2.66699 0 -5.66699 -2.66699 -9 -8zM240.997 -6.00195l430 538h71l-428 -538h-73z" />
    <glyph glyph-name="questiondown" unicode="&#xbf;" 
d="M144 320v12.001h178v-12c-18 -5.33301 -31 -15.333 -39 -30l-53 -90c-12.667 -22 -19 -39 -19 -51c0 -28.667 16.333 -43 49 -43c12.667 0 25.667 4.66699 39 14s20 18.666 20 27.999c0 4 -2.33301 9 -7 15l9 7l111 -105l-12 -12c-1.33301 2.66699 -5.33301 4 -12 4
c-4.66699 0 -15.334 -5.33301 -32.001 -16c-20.667 -14 -40.334 -24.333 -59.001 -31c-29.333 -10.667 -61.666 -16 -96.999 -16c-41.333 0 -76.166 12.167 -104.499 36.5s-42.5 55.833 -42.5 94.5c0 26 15.167 60.333 45.5 103s45.5 68.667 45.5 78s-6.66699 14 -20 14z
M234 374.001c-21.333 0 -39.833 7.83301 -55.5 23.5s-23.5 34.167 -23.5 55.5s7.83301 39.833 23.5 55.5s34.167 23.5 55.5 23.5s39.833 -7.83301 55.5 -23.5s23.5 -34.167 23.5 -55.5s-7.83301 -39.833 -23.5 -55.5s-34.167 -23.5 -55.5 -23.5z" />
    <glyph glyph-name="Agrave" unicode="&#xc0;" horiz-adv-x="500" 
d="M346 432l-89 -238h186zM469 114h-237.001l-26 -73c-4 -10 -6 -16.333 -6 -19c0 -6.66699 6 -10 18 -10v-12h-177v12c12.667 2.66699 21.334 10.334 26.001 23.001c118.667 308.667 178 465 178 469c0 5.33301 -6.66699 8.66602 -20 9.99902v12h261v-12
c-12 -1.33301 -18 -5.66602 -18 -12.999c0 -4.66699 61.667 -157.667 185 -459c8 -20 17.333 -30 28 -30v-12h-197v12c12.667 0.666992 19 4.66699 19 12c0 1.33301 -5.33301 15.666 -16 42.999s-16.667 43 -18 47zM183.999 708h155l95 -146h-103z" />
    <glyph glyph-name="Aacute" unicode="&#xc1;" horiz-adv-x="389" 
d="M346 432l-89 -238h186zM469 114h-237.001l-26 -73c-4 -10 -6 -16.333 -6 -19c0 -6.66699 6 -10 18 -10v-12h-177v12c12.667 2.66699 21.334 10.334 26.001 23.001c118.667 308.667 178 465 178 469c0 5.33301 -6.66699 8.66602 -20 9.99902v12h261v-12
c-12 -1.33301 -18 -5.66602 -18 -12.999c0 -4.66699 61.667 -157.667 185 -459c8 -20 17.333 -30 28 -30v-12h-197v12c12.667 0.666992 19 4.66699 19 12c0 1.33301 -5.33301 15.666 -16 42.999s-16.667 43 -18 47zM359.999 708h155l-147 -146h-103z" />
    <glyph glyph-name="Acircumflex" unicode="&#xc2;" horiz-adv-x="600" 
d="M346 432l-89 -238h186zM469 114h-237.001l-26 -73c-4 -10 -6 -16.333 -6 -19c0 -6.66699 6 -10 18 -10v-12h-177v12c12.667 2.66699 21.334 10.334 26.001 23.001c118.667 308.667 178 465 178 469c0 5.33301 -6.66699 8.66602 -20 9.99902v12h261v-12
c-12 -1.33301 -18 -5.66602 -18 -12.999c0 -4.66699 61.667 -157.667 185 -459c8 -20 17.333 -30 28 -30v-12h-197v12c12.667 0.666992 19 4.66699 19 12c0 1.33301 -5.33301 15.666 -16 42.999s-16.667 43 -18 47zM286.999 708h125l116 -146h-115l-63 83l-64 -83h-112z" />
    <glyph glyph-name="Atilde" unicode="&#xc3;" horiz-adv-x="549" 
d="M346 432l-89 -238h186zM469 114h-237.001l-26 -73c-4 -10 -6 -16.333 -6 -19c0 -6.66699 6 -10 18 -10v-12h-177v12c12.667 2.66699 21.334 10.334 26.001 23.001c118.667 308.667 178 465 178 469c0 5.33301 -6.66699 8.66602 -20 9.99902v12h261v-12
c-12 -1.33301 -18 -5.66602 -18 -12.999c0 -4.66699 61.667 -157.667 185 -459c8 -20 17.333 -30 28 -30v-12h-197v12c12.667 0.666992 19 4.66699 19 12c0 1.33301 -5.33301 15.666 -16 42.999s-16.667 43 -18 47zM467.999 697h65c-17.333 -80.667 -54.333 -121 -111 -121
c-17.333 0 -43.333 5.83301 -78 17.5s-58 17.5 -70 17.5c-23.333 0 -38.333 -14 -45 -42h-62c4 34 15.333 62.333 34 85c21.333 25.333 48 38 80 38c20 0 45.667 -6 77 -18s52.333 -18 63 -18c23.333 0 39 13.667 47 41z" />
    <glyph glyph-name="Adieresis" unicode="&#xc4;" 
d="M346 432l-89 -238h186zM469 114h-237.001l-26 -73c-4 -10 -6 -16.333 -6 -19c0 -6.66699 6 -10 18 -10v-12h-177v12c12.667 2.66699 21.334 10.334 26.001 23.001c118.667 308.667 178 465 178 469c0 5.33301 -6.66699 8.66602 -20 9.99902v12h261v-12
c-12 -1.33301 -18 -5.66602 -18 -12.999c0 -4.66699 61.667 -157.667 185 -459c8 -20 17.333 -30 28 -30v-12h-197v12c12.667 0.666992 19 4.66699 19 12c0 1.33301 -5.33301 15.666 -16 42.999s-16.667 43 -18 47zM314.999 571h-128v116h128v-116zM510.999 571h-128v116
h128v-116z" />
    <glyph glyph-name="Aring" unicode="&#xc5;" horiz-adv-x="549" 
d="M346 432l-89 -238h186zM469 114h-237.001l-26 -73c-4 -10 -6 -16.333 -6 -19c0 -6.66699 6 -10 18 -10v-12h-177v12c12.667 2.66699 21.334 10.334 26.001 23.001c118.667 308.667 178 465 178 469c0 5.33301 -6.66699 8.66602 -20 9.99902v12h261v-12
c-12 -1.33301 -18 -5.66602 -18 -12.999c0 -4.66699 61.667 -157.667 185 -459c8 -20 17.333 -30 28 -30v-12h-197v12c12.667 0.666992 19 4.66699 19 12c0 1.33301 -5.33301 15.666 -16 42.999s-16.667 43 -18 47zM348.999 767c29.333 0 54.5 -10.5 75.5 -31.5
s31.5 -46.167 31.5 -75.5s-10.5 -54.5 -31.5 -75.5s-46.167 -31.5 -75.5 -31.5s-54.5 10.5 -75.5 31.5s-31.5 46.167 -31.5 75.5s10.5 54.5 31.5 75.5s46.167 31.5 75.5 31.5zM348.999 713c-14.667 0 -27.167 -5 -37.5 -15s-15.5 -22.667 -15.5 -38
c0 -14.667 5.16699 -27.167 15.5 -37.5s22.833 -15.5 37.5 -15.5c15.333 0 28 5.16699 38 15.5s15 22.833 15 37.5c0 15.333 -5 28 -15 38s-22.667 15 -38 15z" />
    <glyph glyph-name="AE" unicode="&#xc6;" horiz-adv-x="612" 
d="M403 413l-120 -210h182v215c0 24 -6 36 -18 36c-10.667 0 -19.667 -4.33301 -27 -13c-2 -2 -7.66699 -11.333 -17 -28zM465 123l-226 0.000976562c-37.333 -57.333 -56 -90 -56 -98c0 -8.66699 7.66699 -13 23 -13v-12h-183v12c6.66699 0 14 5.66699 22 17
c6 8 51 85.333 135 232c85.333 149.333 128 225.666 128 228.999c0 12.667 -8.33301 20.667 -25 24v12h653c9.33301 0 15.333 9.33301 18 28h12v-174h-12c-2.66699 18.667 -8.66699 28 -18 28h-321v-83h186c16.667 0 26.667 7.66699 30 23h12v-156h-12
c-3.33301 15.333 -13.333 23 -30 23h-186v-93h321c9.33301 0 15.333 10 18 30h12v-174h-12c-2.66699 14.667 -8.66699 22 -18 22h-499v12c18.667 0.666992 28 6.66699 28 18v93z" />
    <glyph glyph-name="Ccedilla" unicode="&#xc7;" horiz-adv-x="500" 
d="M660 497l-89.999 -164.998l-10 7c1.33301 5.33301 2 10.333 2 15c0 10.667 -16.333 21 -49 31c-34.667 10 -72.334 15 -113.001 15c-48 0 -89 -10 -123 -30c-42 -24.667 -63 -60.334 -63 -107.001s21 -82.334 63 -107.001c34 -20 75 -30 123 -30
c23.333 0 55.666 5.66699 96.999 17c47.333 13.333 71 26.333 71 39l-6 15l11 7l103 -157l-12 -7c-2 5.33301 -6.66699 8 -14 8c-3.33301 0 -18 -4.66699 -44 -14c-31.333 -11.333 -60.666 -20 -87.999 -26c-42.667 -9.33301 -86 -14 -130 -14
c-87.333 0 -162.333 22.333 -225 67c-70 50.667 -105 118 -105 202s35 151.333 105 202c62.667 44.667 137.667 67 225 67c68 0 127 -7 177 -21c45.333 -12.667 68.333 -19 69 -19c6 0 11 2.66699 15 8zM251.001 -193.998l18.9961 44.001c32 -10.667 57 -16 75 -16
c36 0 54 13.333 54 40c0 9.33301 -4.16699 17.166 -12.5 23.499s-17.166 9.5 -26.499 9.5c-10 0 -25 -2.66699 -45 -8l-21 20l59 90h53l-43 -61l2 -2c10.667 4 21.334 6 32.001 6c24.667 0 45.834 -6.83301 63.501 -20.5s26.5 -32.5 26.5 -56.5
c0 -30.667 -14 -54.667 -42 -72c-24 -15.333 -52.333 -23 -85 -23c-29.333 0 -65.666 8.66699 -108.999 26z" />
    <glyph glyph-name="Egrave" unicode="&#xc8;" horiz-adv-x="500" 
d="M487 348v-156h-12c-3.33301 15.333 -13.333 23 -30 23h-186v-93h321c9.33301 0 15.333 10 18 30h12v-174h-12c-2.66699 14.667 -8.66699 22 -18 22h-499v12c18.667 1.33301 28 7.33301 28 18v466c0 10.667 -9.33301 16.667 -28 18v12h499c9.33301 0 15.333 9.33301 18 28
h12v-174h-12c-2.66699 18.667 -8.66699 28 -18 28h-321v-83h186c16.667 0 26.667 7.66699 30 23h12zM180 708h155l95 -146h-103z" />
    <glyph glyph-name="Eacute" unicode="&#xc9;" horiz-adv-x="1000" 
d="M487 348v-156h-12c-3.33301 15.333 -13.333 23 -30 23h-186v-93h321c9.33301 0 15.333 10 18 30h12v-174h-12c-2.66699 14.667 -8.66699 22 -18 22h-499v12c18.667 1.33301 28 7.33301 28 18v466c0 10.667 -9.33301 16.667 -28 18v12h499c9.33301 0 15.333 9.33301 18 28
h12v-174h-12c-2.66699 18.667 -8.66699 28 -18 28h-321v-83h186c16.667 0 26.667 7.66699 30 23h12zM356 708h155l-147 -146h-103z" />
    <glyph glyph-name="Ecircumflex" unicode="&#xca;" horiz-adv-x="305" 
d="M487 348v-156h-12c-3.33301 15.333 -13.333 23 -30 23h-186v-93h321c9.33301 0 15.333 10 18 30h12v-174h-12c-2.66699 14.667 -8.66699 22 -18 22h-499v12c18.667 1.33301 28 7.33301 28 18v466c0 10.667 -9.33301 16.667 -28 18v12h499c9.33301 0 15.333 9.33301 18 28
h12v-174h-12c-2.66699 18.667 -8.66699 28 -18 28h-321v-83h186c16.667 0 26.667 7.66699 30 23h12zM283 708h125l116 -146h-115l-63 83l-64 -83h-112z" />
    <glyph glyph-name="Edieresis" unicode="&#xcb;" horiz-adv-x="722" 
d="M487 348v-156h-12c-3.33301 15.333 -13.333 23 -30 23h-186v-93h321c9.33301 0 15.333 10 18 30h12v-174h-12c-2.66699 14.667 -8.66699 22 -18 22h-499v12c18.667 1.33301 28 7.33301 28 18v466c0 10.667 -9.33301 16.667 -28 18v12h499c9.33301 0 15.333 9.33301 18 28
h12v-174h-12c-2.66699 18.667 -8.66699 28 -18 28h-321v-83h186c16.667 0 26.667 7.66699 30 23h12zM311 571h-128v116h128v-116zM507 571h-128v116h128v-116z" />
    <glyph glyph-name="Igrave" unicode="&#xcc;" horiz-adv-x="722" 
d="M298 0h-206v12c18.667 1.33301 28 7.33301 28 18v466c0 10.667 -9.33301 16.667 -28 18v12h206v-12c-18.667 -1.33301 -28 -7.33301 -28 -18v-466c0 -10.667 9.33301 -16.667 28 -18v-12zM29 708h155l95 -146h-103z" />
    <glyph glyph-name="Iacute" unicode="&#xcd;" horiz-adv-x="722" 
d="M298 0h-206v12c18.667 1.33301 28 7.33301 28 18v466c0 10.667 -9.33301 16.667 -28 18v12h206v-12c-18.667 -1.33301 -28 -7.33301 -28 -18v-466c0 -10.667 9.33301 -16.667 28 -18v-12zM205 708h155l-147 -146h-103z" />
    <glyph glyph-name="Icircumflex" unicode="&#xce;" horiz-adv-x="1000" 
d="M298 0h-206v12c18.667 1.33301 28 7.33301 28 18v466c0 10.667 -9.33301 16.667 -28 18v12h206v-12c-18.667 -1.33301 -28 -7.33301 -28 -18v-466c0 -10.667 9.33301 -16.667 28 -18v-12zM132 708h125l116 -146h-115l-63 83l-64 -83h-112z" />
    <glyph glyph-name="Idieresis" unicode="&#xcf;" horiz-adv-x="944" 
d="M298 0h-206v12c18.667 1.33301 28 7.33301 28 18v466c0 10.667 -9.33301 16.667 -28 18v12h206v-12c-18.667 -1.33301 -28 -7.33301 -28 -18v-466c0 -10.667 9.33301 -16.667 28 -18v-12zM160 571h-128v116h128v-116zM356 571h-128v116h128v-116z" />
    <glyph glyph-name="Eth" unicode="&#xd0;" horiz-adv-x="500" 
d="M35 217v118h74v161c0 10.667 -9.33301 16.667 -28 18v12h332c88.667 0 156.667 -25.333 204 -76c44 -46.667 66 -109 66 -187c0 -73.333 -23.667 -134.333 -71 -183c-51.333 -53.333 -121.333 -80 -210 -80h-321v12c18.667 1.33301 28 7.33301 28 18v187h-74zM382 335
v-118h-123v-99h127c99.333 0 149 48.333 149 145s-49.667 145 -149 145h-127v-73h123z" />
    <glyph glyph-name="Ntilde" unicode="&#xd1;" horiz-adv-x="1000" 
d="M109 30v466c0 10.667 -9.33301 16.667 -28 18v12h241v-12c-18.667 -0.666992 -28 -5 -28 -13c0 -3.33301 81 -94 243 -272v267c0 10.667 -7 16.667 -21 18v12h183v-12c-18.667 -1.33301 -28 -7.33301 -28 -18v-466c0 -10.667 9.33301 -16.667 28 -18v-12h-190v12
c15.333 0 23 3.66699 23 11c0 4 -15 22.333 -45 55l-244 266v-314c0 -10.667 9.33301 -16.667 28 -18v-12h-190v12c18.667 1.33301 28 7.33301 28 18zM508 697h65c-17.333 -80.667 -54.333 -121 -111 -121c-17.333 0 -43.333 5.83301 -78 17.5s-58 17.5 -70 17.5
c-23.333 0 -38.333 -14 -45 -42h-62c4 34 15.333 62.333 34 85c21.333 25.333 48 38 80 38c20 0 45.667 -6 77 -18s52.333 -18 63 -18c23.333 0 39 13.667 47 41z" />
    <glyph glyph-name="Ograve" unicode="&#xd2;" horiz-adv-x="500" 
d="M361 410c-46 0 -84.333 -12.667 -115 -38c-32.667 -27.333 -49 -63.666 -49 -108.999s16.333 -81.666 49 -108.999c30.667 -25.333 69 -38 115 -38s84.833 13.167 116.5 39.5s47.5 62.166 47.5 107.499s-16.333 81.666 -49 108.999c-30.667 25.333 -69 38 -115 38z
M361 532c89.333 0 162.666 -23 219.999 -69c61.333 -49.333 92 -116 92 -200s-30.667 -150.667 -92 -200c-57.333 -46 -130.666 -69 -219.999 -69s-162.666 23 -219.999 69c-61.333 49.333 -92 116 -92 200s30.667 150.667 92 200c57.333 46 130.666 69 219.999 69zM196 708
h155l95 -146h-103z" />
    <glyph glyph-name="Oacute" unicode="&#xd3;" horiz-adv-x="500" 
d="M361 410c-46 0 -84.333 -12.667 -115 -38c-32.667 -27.333 -49 -63.666 -49 -108.999s16.333 -81.666 49 -108.999c30.667 -25.333 69 -38 115 -38s84.833 13.167 116.5 39.5s47.5 62.166 47.5 107.499s-16.333 81.666 -49 108.999c-30.667 25.333 -69 38 -115 38z
M361 532c89.333 0 162.666 -23 219.999 -69c61.333 -49.333 92 -116 92 -200s-30.667 -150.667 -92 -200c-57.333 -46 -130.666 -69 -219.999 -69s-162.666 23 -219.999 69c-61.333 49.333 -92 116 -92 200s30.667 150.667 92 200c57.333 46 130.666 69 219.999 69zM372 708
h155l-147 -146h-103z" />
    <glyph glyph-name="Ocircumflex" unicode="&#xd4;" horiz-adv-x="278" 
d="M361 410c-46 0 -84.333 -12.667 -115 -38c-32.667 -27.333 -49 -63.666 -49 -108.999s16.333 -81.666 49 -108.999c30.667 -25.333 69 -38 115 -38s84.833 13.167 116.5 39.5s47.5 62.166 47.5 107.499s-16.333 81.666 -49 108.999c-30.667 25.333 -69 38 -115 38z
M361 532c89.333 0 162.666 -23 219.999 -69c61.333 -49.333 92 -116 92 -200s-30.667 -150.667 -92 -200c-57.333 -46 -130.666 -69 -219.999 -69s-162.666 23 -219.999 69c-61.333 49.333 -92 116 -92 200s30.667 150.667 92 200c57.333 46 130.666 69 219.999 69zM299 708
h125l116 -146h-115l-63 83l-64 -83h-112z" />
    <glyph glyph-name="Otilde" unicode="&#xd5;" horiz-adv-x="278" 
d="M361 410c-46 0 -84.333 -12.667 -115 -38c-32.667 -27.333 -49 -63.666 -49 -108.999s16.333 -81.666 49 -108.999c30.667 -25.333 69 -38 115 -38s84.833 13.167 116.5 39.5s47.5 62.166 47.5 107.499s-16.333 81.666 -49 108.999c-30.667 25.333 -69 38 -115 38z
M361 532c89.333 0 162.666 -23 219.999 -69c61.333 -49.333 92 -116 92 -200s-30.667 -150.667 -92 -200c-57.333 -46 -130.666 -69 -219.999 -69s-162.666 23 -219.999 69c-61.333 49.333 -92 116 -92 200s30.667 150.667 92 200c57.333 46 130.666 69 219.999 69zM480 697
h65c-17.333 -80.667 -54.333 -121 -111 -121c-17.333 0 -43.333 5.83301 -78 17.5s-58 17.5 -70 17.5c-23.333 0 -38.333 -14 -45 -42h-62c4 34 15.333 62.333 34 85c21.333 25.333 48 38 80 38c20 0 45.667 -6 77 -18s52.333 -18 63 -18c23.333 0 39 13.667 47 41z" />
    <glyph glyph-name="Odieresis" unicode="&#xd6;" horiz-adv-x="600" 
d="M361 410c-46 0 -84.333 -12.667 -115 -38c-32.667 -27.333 -49 -63.666 -49 -108.999s16.333 -81.666 49 -108.999c30.667 -25.333 69 -38 115 -38s84.833 13.167 116.5 39.5s47.5 62.166 47.5 107.499s-16.333 81.666 -49 108.999c-30.667 25.333 -69 38 -115 38z
M361 532c89.333 0 162.666 -23 219.999 -69c61.333 -49.333 92 -116 92 -200s-30.667 -150.667 -92 -200c-57.333 -46 -130.666 -69 -219.999 -69s-162.666 23 -219.999 69c-61.333 49.333 -92 116 -92 200s30.667 150.667 92 200c57.333 46 130.666 69 219.999 69zM327 571
h-128v116h128v-116zM523 571h-128v116h128v-116z" />
    <glyph glyph-name="multiply" unicode="&#xd7;" horiz-adv-x="494" 
d="M231 220l-151 149l70 71l151 -151l150 151l69 -71l-150 -149l150 -151l-69 -69l-150 150l-151 -150l-70 69z" />
    <glyph glyph-name="Oslash" unicode="&#xd8;" 
d="M242 159l175 243c-18 5.33301 -36.667 8 -56 8c-46 0 -84.333 -12.667 -115 -38c-32.667 -27.333 -49 -63.666 -49 -108.999c0 -42.667 15 -77.334 45 -104.001zM480 368l-175 -242.999c18 -6 36.667 -9 56 -9c46 0 84.833 13.167 116.5 39.5s47.5 62.166 47.5 107.499
c0 43.333 -15 78.333 -45 105zM494 510.001l78 108.001h88l-100 -140c75.333 -48.667 113 -120.334 113 -215.001c0 -84 -30.667 -150.667 -92 -200c-57.333 -46 -130.666 -69 -219.999 -69c-50 0 -94.667 7.66699 -134 23l-87 -123h-87l109 154
c-75.333 49.333 -113 121 -113 215c0 84 30.667 150.667 92 200c57.333 46 130.666 69 219.999 69c48.667 0 93 -7.33301 133 -22z" />
    <glyph glyph-name="Ugrave" unicode="&#xd9;" horiz-adv-x="667" 
d="M515 228v268c0 10.667 -9.33301 16.667 -28 18v12h206v-12c-18.667 -1.33301 -28 -7.33301 -28 -18v-268c0 -156 -92 -234 -276 -234s-276 78 -276 234v268c0 10.667 -9.33301 16.667 -28 18v12h206v-12c-18.667 -1.33301 -28 -7.33301 -28 -18v-268
c0 -72 42 -108 126 -108s126 36 126 108zM224 708h155l95 -146h-103z" />
    <glyph glyph-name="Uacute" unicode="&#xda;" horiz-adv-x="167" 
d="M515 228v268c0 10.667 -9.33301 16.667 -28 18v12h206v-12c-18.667 -1.33301 -28 -7.33301 -28 -18v-268c0 -156 -92 -234 -276 -234s-276 78 -276 234v268c0 10.667 -9.33301 16.667 -28 18v12h206v-12c-18.667 -1.33301 -28 -7.33301 -28 -18v-268
c0 -72 42 -108 126 -108s126 36 126 108zM400 708h155l-147 -146h-103z" />
    <glyph glyph-name="Ucircumflex" unicode="&#xdb;" 
d="M515 228v268c0 10.667 -9.33301 16.667 -28 18v12h206v-12c-18.667 -1.33301 -28 -7.33301 -28 -18v-268c0 -156 -92 -234 -276 -234s-276 78 -276 234v268c0 10.667 -9.33301 16.667 -28 18v12h206v-12c-18.667 -1.33301 -28 -7.33301 -28 -18v-268
c0 -72 42 -108 126 -108s126 36 126 108zM327 708h125l116 -146h-115l-63 83l-64 -83h-112z" />
    <glyph glyph-name="Udieresis" unicode="&#xdc;" horiz-adv-x="333" 
d="M515 228v268c0 10.667 -9.33301 16.667 -28 18v12h206v-12c-18.667 -1.33301 -28 -7.33301 -28 -18v-268c0 -156 -92 -234 -276 -234s-276 78 -276 234v268c0 10.667 -9.33301 16.667 -28 18v12h206v-12c-18.667 -1.33301 -28 -7.33301 -28 -18v-268
c0 -72 42 -108 126 -108s126 36 126 108zM355 571h-128v116h128v-116zM551 571h-128v116h128v-116z" />
    <glyph glyph-name="Yacute" unicode="&#xdd;" horiz-adv-x="333" 
d="M439 514l-0.000976562 12h190v-12c-7.33301 0 -15.333 -6 -24 -18l-192 -271v-195c0 -10.667 9.33301 -16.667 28 -18v-12h-206v12c18.667 1.33301 28 7.33301 28 18v176l-191 274c-16 22.667 -27 34 -33 34v12h220v-12c-16.667 0 -25 -4 -25 -12
c0 -4.66699 14.333 -28 43 -70l68 -99c2.66699 4.66699 23.334 34 62.001 88c36 50 54 77 54 81c0 8 -7.33301 12 -22 12zM343.999 708h155l-147 -146h-103z" />
    <glyph glyph-name="Thorn" unicode="&#xde;" horiz-adv-x="889" 
d="M259 113v-83c0 -10.667 9.33301 -16.667 28 -18v-12h-206v12c18.667 1.33301 28 7.33301 28 18v466c0 10.667 -9.33301 16.667 -28 18v12h206v-12c-18.667 -1.33301 -28 -7.33301 -28 -18v-50h180c60 0 107.667 -16.667 143 -50c32 -30.667 48 -69.667 48 -117
s-16 -86 -48 -116c-35.333 -33.333 -83 -50 -143 -50h-180zM259 334v-115h152c54 0 81 20 81 60c0 36.667 -27 55 -81 55h-152z" />
    <glyph glyph-name="germandbls" unicode="&#xdf;" horiz-adv-x="1112" 
d="M38 19l41 133.999l13 -6v-5c-0.666992 -2 -1 -4 -1 -6c0 -12.667 22.667 -24.667 68 -36c42.667 -10.667 85.334 -16 128.001 -16c60.667 0 91 14.333 91 43c0 20 -28.333 33.667 -85 41c-85.333 12 -137.666 21.333 -156.999 28c-56.667 18.667 -85 52.334 -85 101.001
c0 37.333 16.667 70 50 98c40.667 34 98 51 172 51c38 0 80.333 -4.33301 127 -13s70.667 -13 72 -13c4.66699 0 12 4 22 12l11 -4l-60 -126l-13 6c0 0.666992 0.333008 2.33398 1 5.00098v6c0 6 -14.667 13.333 -44 22c-32 10 -63.333 15 -94 15
c-76 0 -114 -14.667 -114 -44c0 -18 28.333 -30.333 85 -37c81.333 -10.667 133.666 -20.334 156.999 -29.001c56.667 -20.667 85 -56 85 -106c0 -42 -17.667 -76 -53 -102c-38.667 -29.333 -94.334 -44 -167.001 -44c-39.333 0 -86.333 6 -141 18s-79.667 18 -75 18
c-6 0 -13.667 -4.66699 -23 -14zM594 18.999l41 133.999l13 -6v-5c-0.666992 -2 -1 -4 -1 -6c0 -12.667 22.667 -24.667 68 -36c42.667 -10.667 85.334 -16 128.001 -16c60.667 0 91 14.333 91 43c0 20 -28.333 33.667 -85 41c-85.333 12 -137.666 21.333 -156.999 28
c-56.667 18.667 -85 52.334 -85 101.001c0 37.333 16.667 70 50 98c40.667 34 98 51 172 51c38 0 80.333 -4.33301 127 -13s70.667 -13 72 -13c4.66699 0 12 4 22 12l11 -4l-60 -126l-13 6c0 0.666992 0.333008 2.33398 1 5.00098v6c0 6 -14.667 13.333 -44 22
c-32 10 -63.333 15 -94 15c-76 0 -114 -14.667 -114 -44c0 -18 28.333 -30.333 85 -37c81.333 -10.667 133.666 -20.334 156.999 -29.001c56.667 -20.667 85 -56 85 -106c0 -42 -17.667 -76 -53 -102c-38.667 -29.333 -94.334 -44 -167.001 -44c-39.333 0 -86.333 6 -141 18
s-79.667 18 -75 18c-6 0 -13.667 -4.66699 -23 -14z" />
    <glyph glyph-name="agrave" unicode="&#xe0;" horiz-adv-x="500" 
d="M238 161h166l-84 175zM620 0h-166.001v12c8.66699 0 13 3 13 9c0 4 -4 14.333 -12 31c-10.667 22 -16.334 34.333 -17.001 37h-232c-1.33301 -4.66699 -7 -17 -17 -37c-8 -16.667 -12 -27 -12 -31c0 -6 4.33301 -9 13 -9v-12h-150v12c10.667 0 17.334 3.33301 20.001 10
l117 263c37.333 83.333 56 127.666 56 132.999c0 6 -4.33301 9.33301 -13 10v12h209v-12c-8.66699 -0.666992 -13 -4 -13 -10c0 -4 25 -58.667 75 -164c58 -121.333 94.333 -198.666 109 -231.999c2.66699 -6.66699 9.33398 -10 20.001 -10v-12zM155.999 641h155l95 -146
h-103z" />
    <glyph glyph-name="aacute" unicode="&#xe1;" horiz-adv-x="305" 
d="M238 161h166l-84 175zM620 0h-166.001v12c8.66699 0 13 3 13 9c0 4 -4 14.333 -12 31c-10.667 22 -16.334 34.333 -17.001 37h-232c-1.33301 -4.66699 -7 -17 -17 -37c-8 -16.667 -12 -27 -12 -31c0 -6 4.33301 -9 13 -9v-12h-150v12c10.667 0 17.334 3.33301 20.001 10
l117 263c37.333 83.333 56 127.666 56 132.999c0 6 -4.33301 9.33301 -13 10v12h209v-12c-8.66699 -0.666992 -13 -4 -13 -10c0 -4 25 -58.667 75 -164c58 -121.333 94.333 -198.666 109 -231.999c2.66699 -6.66699 9.33398 -10 20.001 -10v-12zM331.999 641h155l-147 -146
h-103z" />
    <glyph glyph-name="acircumflex" unicode="&#xe2;" horiz-adv-x="278" 
d="M238 161h166l-84 175zM620 0h-166.001v12c8.66699 0 13 3 13 9c0 4 -4 14.333 -12 31c-10.667 22 -16.334 34.333 -17.001 37h-232c-1.33301 -4.66699 -7 -17 -17 -37c-8 -16.667 -12 -27 -12 -31c0 -6 4.33301 -9 13 -9v-12h-150v12c10.667 0 17.334 3.33301 20.001 10
l117 263c37.333 83.333 56 127.666 56 132.999c0 6 -4.33301 9.33301 -13 10v12h209v-12c-8.66699 -0.666992 -13 -4 -13 -10c0 -4 25 -58.667 75 -164c58 -121.333 94.333 -198.666 109 -231.999c2.66699 -6.66699 9.33398 -10 20.001 -10v-12zM258.999 641h125l116 -146
h-115l-63 83l-64 -83h-112z" />
    <glyph glyph-name="atilde" unicode="&#xe3;" horiz-adv-x="500" 
d="M238 161h166l-84 175zM620 0h-166.001v12c8.66699 0 13 3 13 9c0 4 -4 14.333 -12 31c-10.667 22 -16.334 34.333 -17.001 37h-232c-1.33301 -4.66699 -7 -17 -17 -37c-8 -16.667 -12 -27 -12 -31c0 -6 4.33301 -9 13 -9v-12h-150v12c10.667 0 17.334 3.33301 20.001 10
l117 263c37.333 83.333 56 127.666 56 132.999c0 6 -4.33301 9.33301 -13 10v12h209v-12c-8.66699 -0.666992 -13 -4 -13 -10c0 -4 25 -58.667 75 -164c58 -121.333 94.333 -198.666 109 -231.999c2.66699 -6.66699 9.33398 -10 20.001 -10v-12zM439.999 630h65
c-17.333 -80.667 -54.333 -121 -111 -121c-17.333 0 -43.333 5.83301 -78 17.5s-58 17.5 -70 17.5c-23.333 0 -38.333 -14 -45 -42h-62c4 34 15.333 62.333 34 85c21.333 25.333 48 38 80 38c20 0 45.667 -6 77 -18s52.333 -18 63 -18c23.333 0 39 13.667 47 41z" />
    <glyph glyph-name="adieresis" unicode="&#xe4;" horiz-adv-x="1000" 
d="M238 161h166l-84 175zM620 0h-166.001v12c8.66699 0 13 3 13 9c0 4 -4 14.333 -12 31c-10.667 22 -16.334 34.333 -17.001 37h-232c-1.33301 -4.66699 -7 -17 -17 -37c-8 -16.667 -12 -27 -12 -31c0 -6 4.33301 -9 13 -9v-12h-150v12c10.667 0 17.334 3.33301 20.001 10
l117 263c37.333 83.333 56 127.666 56 132.999c0 6 -4.33301 9.33301 -13 10v12h209v-12c-8.66699 -0.666992 -13 -4 -13 -10c0 -4 25 -58.667 75 -164c58 -121.333 94.333 -198.666 109 -231.999c2.66699 -6.66699 9.33398 -10 20.001 -10v-12zM286.999 504h-128v116h128
v-116zM482.999 504h-128v116h128v-116z" />
    <glyph glyph-name="aring" unicode="&#xe5;" horiz-adv-x="722" 
d="M238 161h166l-84 175zM620 0h-166.001v12c8.66699 0 13 3 13 9c0 4 -4 14.333 -12 31c-10.667 22 -16.334 34.333 -17.001 37h-232c-1.33301 -4.66699 -7 -17 -17 -37c-8 -16.667 -12 -27 -12 -31c0 -6 4.33301 -9 13 -9v-12h-150v12c10.667 0 17.334 3.33301 20.001 10
l117 263c37.333 83.333 56 127.666 56 132.999c0 6 -4.33301 9.33301 -13 10v12h209v-12c-8.66699 -0.666992 -13 -4 -13 -10c0 -4 25 -58.667 75 -164c58 -121.333 94.333 -198.666 109 -231.999c2.66699 -6.66699 9.33398 -10 20.001 -10v-12zM320.999 700
c29.333 0 54.5 -10.5 75.5 -31.5s31.5 -46.167 31.5 -75.5s-10.5 -54.5 -31.5 -75.5s-46.167 -31.5 -75.5 -31.5s-54.5 10.5 -75.5 31.5s-31.5 46.167 -31.5 75.5s10.5 54.5 31.5 75.5s46.167 31.5 75.5 31.5zM320.999 646c-14.667 0 -27.167 -5 -37.5 -15
s-15.5 -22.667 -15.5 -38c0 -14.667 5.16699 -27.167 15.5 -37.5s22.833 -15.5 37.5 -15.5c15.333 0 28 5.16699 38 15.5s15 22.833 15 37.5c0 15.333 -5 28 -15 38s-22.667 15 -38 15z" />
    <glyph glyph-name="ae" unicode="&#xe6;" horiz-adv-x="667" 
d="M378 381l-121.999 -205h165v192c0 20 -7.66699 30 -23 30c-6.66699 0 -13.334 -5.66699 -20.001 -17zM849.001 352h-294.002v-81h190c12 0 18 7.66699 18 23h12v-130h-12c0 15.333 -6 23 -18 23h-190v-99h286c13.333 0 22 8.33301 26 25h12v-134h-10
c-5.33301 14 -14.666 21 -27.999 21h-450v12c20 1.33301 30 7.33301 30 18v74h-206l-24 -43c-13.333 -24.667 -20 -38 -20 -40c0 -3.33301 5.33301 -6.33301 16 -9v-12h-169v12c8.66699 0 16.334 5 23.001 15c18.667 28 60.667 94.667 126 200
c75.333 120.667 113 183.334 113 188.001c0 7.33301 -5.66699 11.666 -17 12.999v12h586c12 0 18 7.33301 18 22h12v-134h-12c0 16 -6 24 -18 24z" />
    <glyph glyph-name="ccedilla" unicode="&#xe7;" horiz-adv-x="722" 
d="M538 421l11.998 -4.00098l-72 -146l-14 7c2.66699 13.333 4 19 4 17c0 8.66699 -14.667 18.334 -44 29.001c-31.333 10.667 -62.666 16 -93.999 16c-42.667 0 -79 -9.33301 -109 -28c-35.333 -22 -53 -52.667 -53 -92s17.667 -70 53 -92c30 -18.667 66.333 -28 109 -28
c35.333 0 70 8.66699 104 26c28.667 14.667 43 26.667 43 36c0 8 -0.333008 14 -1 18l11 7l95 -137l-12 -7c-6 7.33301 -11.333 11 -16 11c-0.666992 0 -12 -5.33301 -34 -16c-26.667 -12 -52.667 -21.333 -78 -28c-37.333 -10.667 -74.666 -16 -111.999 -16
c-81.333 0 -148.333 17.333 -201 52c-60.667 40 -91 98 -91 174c0 76.667 30.333 135 91 175c52.667 34 119.667 51 201 51c26.667 0 63 -5.66699 109 -17s74 -17 84 -17c5.33301 0 10.333 3 15 9zM199.998 -194.001l18.9961 44.001c32 -10.667 57 -16 75 -16
c36 0 54 13.333 54 40c0 9.33301 -4.16699 17.166 -12.5 23.499s-17.166 9.5 -26.499 9.5c-10 0 -25 -2.66699 -45 -8l-21 20l59 90h53l-43 -61l2 -2c10.667 4 21.334 6 32.001 6c24.667 0 45.834 -6.83301 63.501 -20.5s26.5 -32.5 26.5 -56.5
c0 -30.667 -14 -54.667 -42 -72c-24 -15.333 -52.333 -23 -85 -23c-29.333 0 -65.666 8.66699 -108.999 26z" />
    <glyph glyph-name="egrave" unicode="&#xe8;" horiz-adv-x="667" 
d="M223 88h283.999c13.333 0 22 8.33301 26 25h12v-134h-10c-5.33301 14 -14.666 21 -27.999 21h-446v12c18.667 1.33301 28 7.33301 28 18v380c0 10.667 -9.33301 16.667 -28 18v12h454c12 0 18 7.33301 18 22h12v-134h-12c0 16 -6 24 -18 24h-292v-81h188
c12 0 18 7.66699 18 23h12v-130h-12c0 15.333 -6 23 -18 23h-188v-99zM139.999 641h155l95 -146h-103z" />
    <glyph glyph-name="eacute" unicode="&#xe9;" horiz-adv-x="667" 
d="M223 88h283.999c13.333 0 22 8.33301 26 25h12v-134h-10c-5.33301 14 -14.666 21 -27.999 21h-446v12c18.667 1.33301 28 7.33301 28 18v380c0 10.667 -9.33301 16.667 -28 18v12h454c12 0 18 7.33301 18 22h12v-134h-12c0 16 -6 24 -18 24h-292v-81h188
c12 0 18 7.66699 18 23h12v-130h-12c0 15.333 -6 23 -18 23h-188v-99zM315.999 641h155l-147 -146h-103z" />
    <glyph glyph-name="ecircumflex" unicode="&#xea;" horiz-adv-x="389" 
d="M223 88h283.999c13.333 0 22 8.33301 26 25h12v-134h-10c-5.33301 14 -14.666 21 -27.999 21h-446v12c18.667 1.33301 28 7.33301 28 18v380c0 10.667 -9.33301 16.667 -28 18v12h454c12 0 18 7.33301 18 22h12v-134h-12c0 16 -6 24 -18 24h-292v-81h188
c12 0 18 7.66699 18 23h12v-130h-12c0 15.333 -6 23 -18 23h-188v-99zM242.999 641h125l116 -146h-115l-63 83l-64 -83h-112z" />
    <glyph glyph-name="edieresis" unicode="&#xeb;" horiz-adv-x="389" 
d="M223 88h283.999c13.333 0 22 8.33301 26 25h12v-134h-10c-5.33301 14 -14.666 21 -27.999 21h-446v12c18.667 1.33301 28 7.33301 28 18v380c0 10.667 -9.33301 16.667 -28 18v12h454c12 0 18 7.33301 18 22h12v-134h-12c0 16 -6 24 -18 24h-292v-81h188
c12 0 18 7.66699 18 23h12v-130h-12c0 15.333 -6 23 -18 23h-188v-99zM270.999 504h-128v116h128v-116zM466.999 504h-128v116h128v-116z" />
    <glyph glyph-name="igrave" unicode="&#xec;" horiz-adv-x="389" 
d="M68 440h198v-12c-21.333 -1.33301 -32 -7.33301 -32 -18v-380c0 -10.667 10.667 -16.667 32 -18v-12h-198v12c21.333 1.33301 32 7.33301 32 18v380c0 10.667 -10.667 16.667 -32 18v12zM1 641h155l95 -146h-103z" />
    <glyph glyph-name="iacute" unicode="&#xed;" horiz-adv-x="389" 
d="M68 440h198v-12c-21.333 -1.33301 -32 -7.33301 -32 -18v-380c0 -10.667 10.667 -16.667 32 -18v-12h-198v12c21.333 1.33301 32 7.33301 32 18v380c0 10.667 -10.667 16.667 -32 18v12zM177 641h155l-147 -146h-103z" />
    <glyph glyph-name="icircumflex" unicode="&#xee;" horiz-adv-x="722" 
d="M68 440h198v-12c-21.333 -1.33301 -32 -7.33301 -32 -18v-380c0 -10.667 10.667 -16.667 32 -18v-12h-198v12c21.333 1.33301 32 7.33301 32 18v380c0 10.667 -10.667 16.667 -32 18v12zM104 641h125l116 -146h-115l-63 83l-64 -83h-112z" />
    <glyph glyph-name="idieresis" unicode="&#xef;" horiz-adv-x="722" 
d="M68 440h198v-12c-21.333 -1.33301 -32 -7.33301 -32 -18v-380c0 -10.667 10.667 -16.667 32 -18v-12h-198v12c21.333 1.33301 32 7.33301 32 18v380c0 10.667 -10.667 16.667 -32 18v12zM132 504h-128v116h128v-116zM328 504h-128v116h128v-116z" />
    <glyph glyph-name="eth" unicode="&#xf0;" horiz-adv-x="790" 
d="M33 185v96h54v129c0 10.667 -8.66699 16.667 -26 18v12h300c70 0 123.333 -22 160 -66c32 -38.667 48 -90 48 -154s-16 -115.333 -48 -154c-36.667 -44 -90 -66 -160 -66h-300v12c17.333 1.33301 26 7.33301 26 18v155h-54zM311 281v-96h-90v-89h72
c51.333 0 88.5 9.5 111.5 28.5s34.5 50.833 34.5 95.5s-11.5 76.5 -34.5 95.5s-60.167 28.5 -111.5 28.5h-72v-63h90z" />
    <glyph glyph-name="ntilde" unicode="&#xf1;" horiz-adv-x="722" 
d="M579 410v-379.999c0 -10.667 9.33301 -16.667 28 -18v-12h-185v12c19.333 0 29 4.33301 29 13s-26 40 -78 94c-76 78.667 -130.333 137 -163 175l-2 -2v-262c0 -10.667 8.66699 -16.667 26 -18v-12h-171v12c16.667 1.33301 25 7.33301 25 18v380
c0 10.667 -9 16.667 -27 18v12h238v-12c-14 -1.33301 -21 -7.33301 -21 -18c0 -0.666992 60.333 -66.334 181 -197.001v197c0 10.667 -9.33301 16.667 -28 18v12h176v-12c-18.667 -1.33301 -28 -7.33301 -28 -18zM452 630.001h65c-17.333 -80.667 -54.333 -121 -111 -121
c-17.333 0 -43.333 5.83301 -78 17.5s-58 17.5 -70 17.5c-23.333 0 -38.333 -14 -45 -42h-62c4 34 15.333 62.333 34 85c21.333 25.333 48 38 80 38c20 0 45.667 -6 77 -18s52.333 -18 63 -18c23.333 0 39 13.667 47 41z" />
    <glyph glyph-name="ograve" unicode="&#xf2;" horiz-adv-x="778" 
d="M305 446c70.667 0 130.667 -18 180 -54c58 -41.333 87 -98.666 87 -171.999s-29 -130.666 -87 -171.999c-49.333 -36 -109.333 -54 -180 -54s-130.667 18 -180 54c-58 41.333 -87 98.666 -87 171.999s29 130.666 87 171.999c49.333 36 109.333 54 180 54zM305 340
c-39.333 0 -72 -11 -98 -33s-39 -51 -39 -87s13 -65 39 -87s58.667 -33 98 -33s72 11 98 33s39 51 39 87s-13 65 -39 87s-58.667 33 -98 33zM140 641h155l95 -146h-103z" />
    <glyph glyph-name="oacute" unicode="&#xf3;" horiz-adv-x="778" 
d="M305 446c70.667 0 130.667 -18 180 -54c58 -41.333 87 -98.666 87 -171.999s-29 -130.666 -87 -171.999c-49.333 -36 -109.333 -54 -180 -54s-130.667 18 -180 54c-58 41.333 -87 98.666 -87 171.999s29 130.666 87 171.999c49.333 36 109.333 54 180 54zM305 340
c-39.333 0 -72 -11 -98 -33s-39 -51 -39 -87s13 -65 39 -87s58.667 -33 98 -33s72 11 98 33s39 51 39 87s-13 65 -39 87s-58.667 33 -98 33zM316 641h155l-147 -146h-103z" />
    <glyph glyph-name="ocircumflex" unicode="&#xf4;" horiz-adv-x="778" 
d="M305 446c70.667 0 130.667 -18 180 -54c58 -41.333 87 -98.666 87 -171.999s-29 -130.666 -87 -171.999c-49.333 -36 -109.333 -54 -180 -54s-130.667 18 -180 54c-58 41.333 -87 98.666 -87 171.999s29 130.666 87 171.999c49.333 36 109.333 54 180 54zM305 340
c-39.333 0 -72 -11 -98 -33s-39 -51 -39 -87s13 -65 39 -87s58.667 -33 98 -33s72 11 98 33s39 51 39 87s-13 65 -39 87s-58.667 33 -98 33zM243 641h125l116 -146h-115l-63 83l-64 -83h-112z" />
    <glyph glyph-name="otilde" unicode="&#xf5;" horiz-adv-x="333" 
d="M305 446c70.667 0 130.667 -18 180 -54c58 -41.333 87 -98.666 87 -171.999s-29 -130.666 -87 -171.999c-49.333 -36 -109.333 -54 -180 -54s-130.667 18 -180 54c-58 41.333 -87 98.666 -87 171.999s29 130.666 87 171.999c49.333 36 109.333 54 180 54zM305 340
c-39.333 0 -72 -11 -98 -33s-39 -51 -39 -87s13 -65 39 -87s58.667 -33 98 -33s72 11 98 33s39 51 39 87s-13 65 -39 87s-58.667 33 -98 33zM424 630h65c-17.333 -80.667 -54.333 -121 -111 -121c-17.333 0 -43.333 5.83301 -78 17.5s-58 17.5 -70 17.5
c-23.333 0 -38.333 -14 -45 -42h-62c4 34 15.333 62.333 34 85c21.333 25.333 48 38 80 38c20 0 45.667 -6 77 -18s52.333 -18 63 -18c23.333 0 39 13.667 47 41z" />
    <glyph glyph-name="odieresis" unicode="&#xf6;" horiz-adv-x="333" 
d="M305 446c70.667 0 130.667 -18 180 -54c58 -41.333 87 -98.666 87 -171.999s-29 -130.666 -87 -171.999c-49.333 -36 -109.333 -54 -180 -54s-130.667 18 -180 54c-58 41.333 -87 98.666 -87 171.999s29 130.666 87 171.999c49.333 36 109.333 54 180 54zM305 340
c-39.333 0 -72 -11 -98 -33s-39 -51 -39 -87s13 -65 39 -87s58.667 -33 98 -33s72 11 98 33s39 51 39 87s-13 65 -39 87s-58.667 33 -98 33zM271 504h-128v116h128v-116zM467 504h-128v116h128v-116z" />
    <glyph glyph-name="divide" unicode="&#xf7;" horiz-adv-x="333" 
d="M520 171h-440v98h440v-98zM301 477c20.667 0 38.667 -7.66699 54 -23s23 -33.333 23 -54s-7.66699 -38.667 -23 -54s-33.333 -23 -54 -23s-38.667 7.66699 -54 23s-23 33.333 -23 54s7.66699 38.667 23 54s33.333 23 54 23zM301 117c20.667 0 38.667 -7.66699 54 -23
s23 -33.333 23 -54s-7.66699 -38.667 -23 -54s-33.333 -23 -54 -23s-38.667 7.66699 -54 23s-23 33.333 -23 54s7.66699 38.667 23 54s33.333 23 54 23z" />
    <glyph glyph-name="oslash" unicode="&#xf8;" horiz-adv-x="333" 
d="M205 136l146 198c-14.667 4 -30 6 -46 6c-39.333 0 -72 -11 -98 -33s-39 -51 -39 -87c0 -34.667 12.333 -62.667 37 -84zM403 307l-148 -199c16 -5.33301 32.667 -8 50 -8c39.333 0 72 11 98 33s39 51 39 87c0 36.667 -13 65.667 -39 87zM567 528l-95 -128
c66.667 -40 100 -100 100 -180c0 -73.333 -29 -130.666 -87 -171.999c-49.333 -36 -109.333 -54 -180 -54c-42 0 -81.667 7.33301 -119 22l-78 -106h-70l97 132c-64.667 40.667 -97 100 -97 178c0 73.333 29 130.666 87 171.999c49.333 36 109.333 54 180 54
c40.667 0 78.667 -6.66699 114 -20l76 102h72z" />
    <glyph glyph-name="ugrave" unicode="&#xf9;" horiz-adv-x="333" 
d="M99 190v220c0 10.667 -9.66699 16.667 -29 18v12h180v-12c-11.333 -2 -17 -8 -17 -18v-243c0 -47.333 33.333 -71 100 -71s100 23.667 100 71v243c0 10 -5.66699 16 -17 18v12h180v-12c-19.333 -1.33301 -29 -7.33301 -29 -18v-220c0 -130.667 -78 -196 -234 -196
s-234 65.333 -234 196zM168 641h155l95 -146h-103z" />
    <glyph glyph-name="uacute" unicode="&#xfa;" horiz-adv-x="333" 
d="M99 190v220c0 10.667 -9.66699 16.667 -29 18v12h180v-12c-11.333 -2 -17 -8 -17 -18v-243c0 -47.333 33.333 -71 100 -71s100 23.667 100 71v243c0 10 -5.66699 16 -17 18v12h180v-12c-19.333 -1.33301 -29 -7.33301 -29 -18v-220c0 -130.667 -78 -196 -234 -196
s-234 65.333 -234 196zM344 641h155l-147 -146h-103z" />
    <glyph glyph-name="ucircumflex" unicode="&#xfb;" horiz-adv-x="333" 
d="M99 190v220c0 10.667 -9.66699 16.667 -29 18v12h180v-12c-11.333 -2 -17 -8 -17 -18v-243c0 -47.333 33.333 -71 100 -71s100 23.667 100 71v243c0 10 -5.66699 16 -17 18v12h180v-12c-19.333 -1.33301 -29 -7.33301 -29 -18v-220c0 -130.667 -78 -196 -234 -196
s-234 65.333 -234 196zM271 641h125l116 -146h-115l-63 83l-64 -83h-112z" />
    <glyph glyph-name="udieresis" unicode="&#xfc;" horiz-adv-x="333" 
d="M99 190v220c0 10.667 -9.66699 16.667 -29 18v12h180v-12c-11.333 -2 -17 -8 -17 -18v-243c0 -47.333 33.333 -71 100 -71s100 23.667 100 71v243c0 10 -5.66699 16 -17 18v12h180v-12c-19.333 -1.33301 -29 -7.33301 -29 -18v-220c0 -130.667 -78 -196 -234 -196
s-234 65.333 -234 196zM299 504h-128v116h128v-116zM495 504h-128v116h128v-116z" />
    <glyph glyph-name="yacute" unicode="&#xfd;" horiz-adv-x="333" 
d="M377 163l0.000976562 -133c0 -10.667 7 -16.667 21 -18v-12h-176v12c14 1.33301 21 7.33301 21 18v129l-191 259c-4.66699 6.66699 -14.334 10 -29.001 10v12h215v-12c-15.333 0 -23 -3.66699 -23 -11c0 -4.66699 32 -49 96 -133c2.66699 4.66699 18.667 28 48 70
c26 37.333 39 58.333 39 63c0 7.33301 -7 11 -21 11v12h198v-12c-13.333 0 -22.333 -3.33301 -27 -10zM316.001 641h155l-147 -146h-103z" />
    <glyph glyph-name="thorn" unicode="&#xfe;" horiz-adv-x="333" 
d="M84 30v380c0 9.33301 -5.33301 15.333 -16 18v12h173v-12c-15.333 -1.33301 -23 -7.33301 -23 -18v-40h113c126.667 0 190 -47.667 190 -143s-63.333 -143 -190 -143h-113v-54c0 -10.667 7.66699 -16.667 23 -18v-12h-173v12c10.667 2.66699 16 8.66699 16 18zM218 286
v-118h95c52 0 78 19.667 78 59s-23.333 59 -70 59h-103z" />
    <glyph glyph-name="ydieresis" unicode="&#xff;" horiz-adv-x="333" 
d="M377 163l0.000976562 -133c0 -10.667 7 -16.667 21 -18v-12h-176v12c14 1.33301 21 7.33301 21 18v129l-191 259c-4.66699 6.66699 -14.334 10 -29.001 10v12h215v-12c-15.333 0 -23 -3.66699 -23 -11c0 -4.66699 32 -49 96 -133c2.66699 4.66699 18.667 28 48 70
c26 37.333 39 58.333 39 63c0 7.33301 -7 11 -21 11v12h198v-12c-13.333 0 -22.333 -3.33301 -27 -10zM271.001 504h-128v116h128v-116zM467.001 504h-128v116h128v-116z" />
    <glyph glyph-name="dotlessi" unicode="&#x131;" horiz-adv-x="333" 
d="M68 440h198v-12c-21.333 -1.33301 -32 -7.33301 -32 -18v-380c0 -10.667 10.667 -16.667 32 -18v-12h-198v12c21.333 1.33301 32 7.33301 32 18v380c0 10.667 -10.667 16.667 -32 18v12z" />
    <glyph glyph-name="Lslash" unicode="&#x141;" horiz-adv-x="667" 
d="M259 496v-132l164 56v-121l-164 -55v-122h344c9.33301 0 15.333 9.33301 18 28h12v-176h-12c-2.66699 17.333 -8.66699 26 -18 26h-522v12c18.667 1.33301 28 7.33301 28 18v164l-77 -26v119l77 26v183c0 10.667 -9.33301 16.667 -28 18v12h206v-12
c-18.667 -1.33301 -28 -7.33301 -28 -18z" />
    <glyph glyph-name="lslash" unicode="&#x142;" horiz-adv-x="556" 
d="M86 30v137l-50 -13v94l50 13v149c0 10.667 -9 16.667 -27 18v12h187v-12c-17.333 -1.33301 -26 -7.33301 -26 -18v-116l125 32v-92l-125 -32v-100h274c12 0 18 8.33301 18 25h12v-152h-12c0 16.667 -6 25 -18 25h-435v12c18 1.33301 27 7.33301 27 18z" />
    <glyph glyph-name="OE" unicode="&#x152;" horiz-adv-x="667" 
d="M496 151v217c0 29.333 -31 44 -93 44c-138.667 0 -208 -51.333 -208 -154c0 -48.667 23.667 -86.667 71 -114c39.333 -22.667 85 -34 137 -34c62 0 93 13.667 93 41zM646 408v-83h147c18.667 0 28.667 9.66699 30 29h12v-166h-12c-1.33301 18 -11.333 27 -30 27h-147v-93
h282c9.33301 0 15.333 10 18 30h12v-174h-12c-2.66699 14.667 -8.66699 22 -18 22h-583c-85.333 0 -155.333 22.667 -210 68c-58.667 48 -88 112.333 -88 193c0 69.333 23.667 129 71 179c54.667 57.333 129.667 86 225 86h585c9.33301 0 15.333 9.33301 18 28h12v-174h-12
c-2.66699 18.667 -8.66699 28 -18 28h-282z" />
    <glyph glyph-name="oe" unicode="&#x153;" horiz-adv-x="667" 
d="M429 152l-0.000976562 136c0 42.667 -33 64 -99 64c-108 0 -162 -44 -162 -132s54 -132 162 -132c30.667 0 55.334 7 74.001 21c16.667 12 25 26.333 25 43zM882.999 462l-0.000976562 -134h-12c0 16 -6 24 -18 24h-294v-81h190c12 0 18 7.66699 18 23h12v-130h-12
c0 15.333 -6 23 -18 23h-190v-99h286c13.333 0 22 8.33301 26 25h12v-134h-10c-5.33301 14 -14.666 21 -27.999 21h-513c-99.333 -0 -175 23.333 -227 70c-44.667 39.333 -67 89.333 -67 150c0 68.667 24.667 123 74 163c46.667 38 108 57 184 57h557c12 0 18 7.33301 18 22
h12z" />
    <glyph glyph-name="Scaron" unicode="&#x160;" horiz-adv-x="667" 
d="M41 30l74.002 178.002l10 -5c-1.33301 -3.33301 -2 -10.333 -2 -21c0 -14.667 22.833 -30.334 68.5 -47.001s93.167 -25 142.5 -25c96.667 0 145 22.667 145 68c0 18.667 -35.667 31.334 -107 38.001c-100 10 -166 20 -198 30c-71.333 22 -107 61 -107 117
c0 50 22.167 90.667 66.5 122s103.166 47 176.499 47c54.667 0 112.167 -7 172.5 -21l90.5 -21c9.33301 0 18.333 5 27 15l11 -4l-69 -139l-12 6v11c0 12.667 -22.833 24.667 -68.5 36s-92.167 17 -139.5 17c-78 0 -117 -15.667 -117 -47c0 -22 35.667 -36.333 107 -43
c101.333 -9.33301 168 -19.333 200 -30c71.333 -24.667 107 -70.334 107 -137.001c0 -50 -20 -91 -60 -123c-48.667 -38.667 -122.667 -58 -222 -58c-49.333 0 -95.333 4 -138 12c-27.333 5.33301 -55.333 12.666 -84 21.999c-24 8 -38 12 -42 12
c-4.66699 0 -11.334 -4.33301 -20.001 -13zM512.002 708.002l-116 -146h-125l-113 146h112l64 -82l63 82h115z" />
    <glyph glyph-name="scaron" unicode="&#x161;" 
d="M38 19l41 133.999l13 -6v-5c-0.666992 -2 -1 -4 -1 -6c0 -12.667 22.667 -24.667 68 -36c42.667 -10.667 85.334 -16 128.001 -16c60.667 0 91 14.333 91 43c0 20 -28.333 33.667 -85 41c-85.333 12 -137.666 21.333 -156.999 28c-56.667 18.667 -85 52.334 -85 101.001
c0 37.333 16.667 70 50 98c40.667 34 98 51 172 51c38 0 80.333 -4.33301 127 -13s70.667 -13 72 -13c4.66699 0 12 4 22 12l11 -4l-60 -126l-13 6c0 0.666992 0.333008 2.33398 1 5.00098v6c0 6 -14.667 13.333 -44 22c-32 10 -63.333 15 -94 15
c-76 0 -114 -14.667 -114 -44c0 -18 28.333 -30.333 85 -37c81.333 -10.667 133.666 -20.334 156.999 -29.001c56.667 -20.667 85 -56 85 -106c0 -42 -17.667 -76 -53 -102c-38.667 -29.333 -94.334 -44 -167.001 -44c-39.333 0 -86.333 6 -141 18s-79.667 18 -75 18
c-6 0 -13.667 -4.66699 -23 -14zM457 640.999l-116 -146h-125l-113 146h112l64 -82l63 82h115z" />
    <glyph glyph-name="Ydieresis" unicode="&#x178;" horiz-adv-x="667" 
d="M439 514l-0.000976562 12h190v-12c-7.33301 0 -15.333 -6 -24 -18l-192 -271v-195c0 -10.667 9.33301 -16.667 28 -18v-12h-206v12c18.667 1.33301 28 7.33301 28 18v176l-191 274c-16 22.667 -27 34 -33 34v12h220v-12c-16.667 0 -25 -4 -25 -12
c0 -4.66699 14.333 -28 43 -70l68 -99c2.66699 4.66699 23.334 34 62.001 88c36 50 54 77 54 81c0 8 -7.33301 12 -22 12zM298.999 571h-128v116h128v-116zM494.999 571h-128v116h128v-116z" />
    <glyph glyph-name="Zcaron" unicode="&#x17d;" 
d="M572 514l-290 -396h260c9.33301 0 15.333 7.33301 18 22h12v-162h-12c-2.66699 14.667 -8.66699 22 -18 22h-512v12l288 396h-239c-9.33301 0 -15.333 -7.66699 -18 -23h-12v169h12c2.66699 -18.667 8.66699 -28 18 -28h493v-12zM484 708l-116 -146h-125l-113 146h112
l64 -82l63 82h115z" />
    <glyph glyph-name="zcaron" unicode="&#x17e;" horiz-adv-x="556" 
d="M50 12l233 326h-193c-12 0 -18 -7.66699 -18 -23h-12v148h12c0 -15.333 6 -23 18 -23h402v-12l-231 -326h215c12 0 18 8.66699 18 26h12v-151h-12c0 15.333 -6 23 -18 23h-426v12zM457 641l-116 -146h-125l-113 146h112l64 -82l63 82h115z" />
    <glyph glyph-name="florin" unicode="&#x192;" horiz-adv-x="667" 
d="M3 -163l33.999 128.001l12 -4c0.666992 -16 8 -29 22 -39c12 -8 26.333 -12 43 -12c44.667 0 70.334 18.333 77.001 55l51 280h-110v76h124c18.667 140.667 75 211 169 211c36.667 0 72 -5 106 -15s49.667 -15 47 -15c0.666992 0 4.33398 2.33301 11.001 7l13 -3
l-38 -130l-12 3c-3.33301 36.667 -28.333 55 -75 55c-28.667 0 -48 -9.33301 -58 -28c-6.66699 -12.667 -13 -41 -19 -85h125v-76h-138l-61 -307c-7.33301 -36.667 -24.666 -66.334 -51.999 -89.001c-30 -24.667 -69 -37 -117 -37c-27.333 0 -57.333 4.33301 -90 13
s-47.334 13 -44.001 13c1.33301 0 -1.33398 -1.66699 -8.00098 -5z" />
    <glyph glyph-name="circumflex" unicode="&#x2c6;" horiz-adv-x="667" 
d="M104 641h125l116 -146h-115l-63 83l-64 -83h-112z" />
    <glyph glyph-name="caron" unicode="&#x2c7;" horiz-adv-x="333" 
d="M345 641l-116 -146h-125l-113 146h112l64 -82l63 82h115z" />
    <glyph glyph-name="breve" unicode="&#x2d8;" horiz-adv-x="333" 
d="M268 641h66c-12.667 -97.333 -70.667 -146 -174 -146c-46.667 0 -85 12.833 -115 38.5s-45.333 61.5 -46 107.5h66c4.66699 -46.667 39 -70 103 -70c58 0 91.333 23.333 100 70z" />
    <glyph glyph-name="dotaccent" unicode="&#x2d9;" horiz-adv-x="333" 
d="M230 504h-128v116h128v-116z" />
    <glyph glyph-name="ring" unicode="&#x2da;" horiz-adv-x="333" 
d="M166 700c29.333 0 54.5 -10.5 75.5 -31.5s31.5 -46.167 31.5 -75.5s-10.5 -54.5 -31.5 -75.5s-46.167 -31.5 -75.5 -31.5s-54.5 10.5 -75.5 31.5s-31.5 46.167 -31.5 75.5s10.5 54.5 31.5 75.5s46.167 31.5 75.5 31.5zM166 646c-14.667 0 -27.167 -5 -37.5 -15
s-15.5 -22.667 -15.5 -38c0 -14.667 5.16699 -27.167 15.5 -37.5s22.833 -15.5 37.5 -15.5c15.333 0 28 5.16699 38 15.5s15 22.833 15 37.5c0 15.333 -5 28 -15 38s-22.667 15 -38 15z" />
    <glyph glyph-name="ogonek" unicode="&#x2db;" horiz-adv-x="333" 
d="M258 20v-11.999c-93.333 -35.333 -140 -77 -140 -125c0 -32.667 17 -49 51 -49c23.333 0 55.333 13.333 96 40l20 -34c-60 -40 -110.333 -60 -151 -60c-30 0 -54.333 7.66699 -73 23c-20.667 17.333 -31 40.333 -31 69c0 73.333 76 122.666 228 147.999z" />
    <glyph glyph-name="tilde" unicode="&#x2dc;" 
d="M285 630h65c-17.333 -80.667 -54.333 -121 -111 -121c-17.333 0 -43.333 5.83301 -78 17.5s-58 17.5 -70 17.5c-23.333 0 -38.333 -14 -45 -42h-62c4 34 15.333 62.333 34 85c21.333 25.333 48 38 80 38c20 0 45.667 -6 77 -18s52.333 -18 63 -18
c23.333 0 39 13.667 47 41z" />
    <glyph glyph-name="hungarumlaut" unicode="&#x2dd;" horiz-adv-x="333" 
d="M-6 495l76 146h150l-128 -146h-98zM178 495l95 146h155l-147 -146h-103z" />
    <glyph glyph-name="endash" unicode="&#x2013;" horiz-adv-x="667" 
d="M500 171h-500v98h500v-98z" />
    <glyph glyph-name="emdash" unicode="&#x2014;" 
d="M1000 171h-1000v98h1000v-98z" />
    <glyph glyph-name="quoteleft" unicode="&#x2018;" 
d="M233 558l-0.000976562 -32c-52.667 -20.667 -83 -50.667 -91 -90c62.667 0 94 -26.333 94 -79c0 -22 -8.16699 -40 -24.5 -54s-35.833 -21 -58.5 -21c-27.333 0 -48.666 10 -63.999 30c-14 17.333 -21 40.333 -21 69c0 81.333 55 140.333 165 177z" />
    <glyph glyph-name="quoteright" unicode="&#x2019;" horiz-adv-x="333" 
d="M45 274l0.000976562 32c52.667 20.667 83 50.667 91 90c-62.667 0 -94 26.333 -94 79c0 22 8.16699 40 24.5 54s35.833 21 58.5 21c27.333 0 48.666 -10 63.999 -30c14 -17.333 21 -40.333 21 -69c0 -81.333 -55 -140.333 -165 -177z" />
    <glyph glyph-name="quotesinglbase" unicode="&#x201a;" horiz-adv-x="722" 
d="M45 -124l0.000976562 32c52.667 20.667 83 50.667 91 90c-62.667 0 -94 26.333 -94 79c0 22 8.16699 40 24.5 54s35.833 21 58.5 21c27.333 0 48.666 -10 63.999 -30c14 -17.333 21 -40.333 21 -69c0 -81.333 -55 -140.333 -165 -177z" />
    <glyph glyph-name="quotedblleft" unicode="&#x201c;" horiz-adv-x="333" 
d="M442 558l-0.000976562 -32c-52.667 -20.667 -83 -50.667 -91 -90c62.667 0 94 -26.333 94 -79c0 -22 -8.16699 -40 -24.5 -54s-35.833 -21 -58.5 -21c-27.333 0 -48.666 10 -63.999 30c-14 17.333 -21 40.333 -21 69c0 81.333 55 140.333 165 177zM218.999 558
l-0.000976562 -32c-52.667 -20.667 -83 -50.667 -91 -90c62.667 0 94 -26.333 94 -79c0 -22 -8.16699 -40 -24.5 -54s-35.833 -21 -58.5 -21c-27.333 0 -48.666 10 -63.999 30c-14 17.333 -21 40.333 -21 69c0 81.333 55 140.333 165 177z" />
    <glyph glyph-name="quotedblright" unicode="&#x201d;" horiz-adv-x="333" 
d="M58 274l0.000976562 32c52.667 20.667 83 50.667 91 90c-62.667 0 -94 26.333 -94 79c0 22 8.16699 40 24.5 54s35.833 21 58.5 21c27.333 0 48.666 -10 63.999 -30c14 -17.333 21 -40.333 21 -69c0 -81.333 -55 -140.333 -165 -177zM281.001 274l0.000976562 32
c52.667 20.667 83 50.667 91 90c-62.667 0 -94 26.333 -94 79c0 22 8.16699 40 24.5 54s35.833 21 58.5 21c27.333 0 48.666 -10 63.999 -30c14 -17.333 21 -40.333 21 -69c0 -81.333 -55 -140.333 -165 -177z" />
    <glyph glyph-name="quotedblbase" unicode="&#x201e;" horiz-adv-x="778" 
d="M58 -124l0.000976562 32c52.667 20.667 83 50.667 91 90c-62.667 0 -94 26.333 -94 79c0 22 8.16699 40 24.5 54s35.833 21 58.5 21c27.333 0 48.666 -10 63.999 -30c14 -17.333 21 -40.333 21 -69c0 -81.333 -55 -140.333 -165 -177zM281.001 -124l0.000976562 32
c52.667 20.667 83 50.667 91 90c-62.667 0 -94 26.333 -94 79c0 22 8.16699 40 24.5 54s35.833 21 58.5 21c27.333 0 48.666 -10 63.999 -30c14 -17.333 21 -40.333 21 -69c0 -81.333 -55 -140.333 -165 -177z" />
    <glyph glyph-name="dagger" unicode="&#x2020;" horiz-adv-x="778" 
d="M271 -112h-45.001l-18 158c-8 60.667 -17.333 113 -28 157c22.667 38.667 37.334 77.334 44.001 116.001l-156 -44v136l156 -47l-40 162h132l-40 -162l156 47v-136l-156 44c4 -36.667 17.667 -75.334 41 -116.001c-10 -42 -25.333 -147 -46 -315z" />
    <glyph glyph-name="daggerdbl" unicode="&#x2021;" horiz-adv-x="667" 
d="M187 526h126l-39 -144l158 42v-131l-158 41c6 -52 18.333 -94.667 37 -128c-18.667 -45.333 -31 -87.333 -37 -126l158 41v-131l-158 42l38 -144h-124l38 144l-158 -42v131l158 -41c-6 38.667 -18.333 80.667 -37 126c18.667 33.333 31 76 37 128l-158 -41v131l158 -42z
" />
    <glyph glyph-name="bullet" unicode="&#x2022;" horiz-adv-x="333" 
d="M150 394c36.667 0 67.834 -12.667 93.501 -38s38.5 -56.333 38.5 -93s-12.833 -67.834 -38.5 -93.501s-56.834 -38.5 -93.501 -38.5s-67.667 12.833 -93 38.5s-38 56.834 -38 93.501s12.667 67.667 38 93s56.333 38 93 38z" />
    <glyph glyph-name="ellipsis" unicode="&#x2026;" horiz-adv-x="722" 
d="M167 154c21.333 0 39.833 -7.83301 55.5 -23.5s23.5 -34.167 23.5 -55.5s-7.83301 -39.833 -23.5 -55.5s-34.167 -23.5 -55.5 -23.5s-39.833 7.83301 -55.5 23.5s-23.5 34.167 -23.5 55.5s7.83301 39.833 23.5 55.5s34.167 23.5 55.5 23.5zM500 154
c21.333 0 39.833 -7.83301 55.5 -23.5s23.5 -34.167 23.5 -55.5s-7.83301 -39.833 -23.5 -55.5s-34.167 -23.5 -55.5 -23.5s-39.833 7.83301 -55.5 23.5s-23.5 34.167 -23.5 55.5s7.83301 39.833 23.5 55.5s34.167 23.5 55.5 23.5zM833 154
c21.333 0 39.833 -7.83301 55.5 -23.5s23.5 -34.167 23.5 -55.5s-7.83301 -39.833 -23.5 -55.5s-34.167 -23.5 -55.5 -23.5s-39.833 7.83301 -55.5 23.5s-23.5 34.167 -23.5 55.5s7.83301 39.833 23.5 55.5s34.167 23.5 55.5 23.5z" />
    <glyph glyph-name="perthousand" unicode="&#x2030;" horiz-adv-x="667" 
d="M127 -34l345 624h51l-342 -624h-54zM165 508c-17.333 0 -32.5 -6.16699 -45.5 -18.5s-19.5 -27.5 -19.5 -45.5s6.5 -33.167 19.5 -45.5s28.167 -18.5 45.5 -18.5s32.5 6.16699 45.5 18.5s19.5 27.5 19.5 45.5s-6.5 33.167 -19.5 45.5s-28.167 18.5 -45.5 18.5zM165 590
c40.667 0 75.334 -14.333 104.001 -43s43 -63 43 -103c0 -39.333 -14.333 -73.5 -43 -102.5s-63.334 -43.5 -104.001 -43.5c-40 0 -74.5 14.5 -103.5 43.5s-43.5 63.167 -43.5 102.5c0 40 14.5 74.333 43.5 103s63.5 43 103.5 43zM489 175
c-17.333 0 -32.5 -6.16699 -45.5 -18.5s-19.5 -27.5 -19.5 -45.5s6.5 -33.167 19.5 -45.5s28.167 -18.5 45.5 -18.5s32.5 6.16699 45.5 18.5s19.5 27.5 19.5 45.5s-6.5 33.167 -19.5 45.5s-28.167 18.5 -45.5 18.5zM489 257c40.667 0 75.334 -14.333 104.001 -43
s43 -63 43 -103c0 -39.333 -14.333 -73.5 -43 -102.5s-63.334 -43.5 -104.001 -43.5c-40 0 -74.5 14.5 -103.5 43.5s-43.5 63.167 -43.5 102.5c0 40 14.5 74.333 43.5 103s63.5 43 103.5 43zM835 175c-17.333 0 -32.5 -6.16699 -45.5 -18.5s-19.5 -27.5 -19.5 -45.5
s6.5 -33.167 19.5 -45.5s28.167 -18.5 45.5 -18.5s32.5 6.16699 45.5 18.5s19.5 27.5 19.5 45.5s-6.5 33.167 -19.5 45.5s-28.167 18.5 -45.5 18.5zM835 257c40.667 0 75.334 -14.333 104.001 -43s43 -63 43 -103c0 -39.333 -14.333 -73.5 -43 -102.5
s-63.334 -43.5 -104.001 -43.5c-40 0 -74.5 14.5 -103.5 43.5s-43.5 63.167 -43.5 102.5c0 40 14.5 74.333 43.5 103s63.5 43 103.5 43z" />
    <glyph glyph-name="guilsinglleft" unicode="&#x2039;" horiz-adv-x="667" 
d="M169 374h106l-114 -154l117 -154h-104l-118 158z" />
    <glyph glyph-name="guilsinglright" unicode="&#x203a;" 
d="M164 66h-106l114 154l-117 154h104l118 -158z" />
    <glyph glyph-name="fraction" unicode="&#x2044;" horiz-adv-x="167" 
d="M-167 -6l430 538h71l-428 -538h-73z" />
    <glyph glyph-name="trademark" unicode="&#x2122;" 
d="M233 502l-0.000976562 -226c0 -12 1.66699 -19.333 5 -22c4 -4.66699 15 -7.33398 33 -8.00098v-20h-168v20c18 0.666992 29 3.33398 33 8.00098c3.33301 2.66699 5 10 5 22v226h-31c-25.333 0 -40.666 -15 -45.999 -45h-20v69h286v-69h-20c-4.66699 30 -20 45 -46 45
h-31zM533.999 227l-95 203h-1v-129c0 -22 1.33301 -35.667 4 -41c4 -8.66699 15 -13.334 33 -14.001v-20h-100v20c18 0.666992 29 5.33398 33 14.001c2.66699 5.33301 4 19 4 41v165c-12.667 26.667 -30.334 40 -53.001 40v20h121l94 -195l103 195h103v-20
c-15.333 -0.666992 -25.166 -2.5 -29.499 -5.5s-6.5 -11.167 -6.5 -24.5v-200c0 -12 1.66699 -19.333 5 -22c4 -4.66699 14.333 -7.33398 31 -8.00098v-20h-166v20c18 0.666992 29 3.33398 33 8.00098c3.33301 2.66699 5 10 5 22v154h-2l-104 -203h-12z" />
    <glyph glyph-name="fi" unicode="&#xf001;" horiz-adv-x="889" 
d="M91 30v380c0 10.667 -10 16.667 -30 18v12h435c12 0 18 7.33301 18 22h12v-138h-12c0 16 -6 24 -18 24h-271v-93h183c12 0 18 7.33301 18 22h12v-134h-12c0 16 -6 24 -18 24h-183v-137c0 -10.667 9.33301 -16.667 28 -18v-12h-190v12c18.667 1.33301 28 7.33301 28 18z
M624 440h198v-12c-21.333 -1.33301 -32 -7.33301 -32 -18v-380c0 -10.667 10.667 -16.667 32 -18v-12h-198v12c21.333 1.33301 32 7.33301 32 18v380c0 10.667 -10.667 16.667 -32 18v12z" />
    <glyph glyph-name="fl" unicode="&#xf002;" horiz-adv-x="1112" 
d="M91 30v380c0 10.667 -10 16.667 -30 18v12h435c12 0 18 7.33301 18 22h12v-138h-12c0 16 -6 24 -18 24h-271v-93h183c12 0 18 7.33301 18 22h12v-134h-12c0 16 -6 24 -18 24h-183v-137c0 -10.667 9.33301 -16.667 28 -18v-12h-190v12c18.667 1.33301 28 7.33301 28 18z
M642 30v380c0 10.667 -9 16.667 -27 18v12h187v-12c-17.333 -1.33301 -26 -7.33301 -26 -18v-308h274c12 0 18 8.33301 18 25h12v-152h-12c0 16.667 -6 25 -18 25h-435v12c18 1.33301 27 7.33301 27 18z" />
    <glyph glyph-name=".null" horiz-adv-x="0" 
 />
    <glyph glyph-name="nonmarkingreturn" horiz-adv-x="305" 
 />
    <glyph glyph-name="glyph232" horiz-adv-x="305" 
 />
    <glyph glyph-name="glyph233" horiz-adv-x="305" 
 />
    <glyph glyph-name="glyph234" horiz-adv-x="305" 
 />
    <glyph glyph-name="glyph235" horiz-adv-x="305" 
 />
    <glyph glyph-name="glyph236" horiz-adv-x="305" 
 />
    <glyph glyph-name="glyph237" horiz-adv-x="305" 
 />
    <glyph glyph-name="glyph238" horiz-adv-x="305" 
 />
    <glyph glyph-name="glyph239" horiz-adv-x="305" 
 />
    <glyph glyph-name="glyph240" horiz-adv-x="305" 
 />
    <glyph glyph-name="glyph241" horiz-adv-x="305" 
 />
    <glyph glyph-name="glyph242" horiz-adv-x="305" 
 />
    <glyph glyph-name="glyph243" horiz-adv-x="305" 
 />
    <glyph glyph-name="glyph244" horiz-adv-x="305" 
 />
    <glyph glyph-name="glyph245" horiz-adv-x="305" 
 />
    <glyph glyph-name="glyph246" horiz-adv-x="305" 
 />
    <glyph glyph-name="glyph247" horiz-adv-x="305" 
 />
    <glyph glyph-name="glyph248" horiz-adv-x="305" 
 />
    <glyph glyph-name="glyph249" horiz-adv-x="305" 
 />
    <glyph glyph-name="glyph250" horiz-adv-x="305" 
 />
    <glyph glyph-name="glyph251" horiz-adv-x="305" 
 />
    <glyph glyph-name="glyph252" horiz-adv-x="305" 
 />
    <glyph glyph-name="glyph253" horiz-adv-x="305" 
 />
    <glyph glyph-name="glyph254" horiz-adv-x="305" 
 />
    <glyph glyph-name="glyph255" horiz-adv-x="305" 
 />
    <glyph glyph-name="glyph256" horiz-adv-x="305" 
 />
    <glyph glyph-name="glyph257" horiz-adv-x="305" 
 />
    <glyph glyph-name="glyph258" horiz-adv-x="305" 
 />
    <glyph glyph-name="glyph259" horiz-adv-x="305" 
 />
    <glyph glyph-name="glyph260" horiz-adv-x="305" 
 />
    <glyph glyph-name="glyph261" horiz-adv-x="305" 
 />
    <glyph glyph-name="glyph262" horiz-adv-x="305" 
 />
    <glyph glyph-name="glyph263" horiz-adv-x="305" 
 />
    <glyph glyph-name="glyph264" horiz-adv-x="305" 
 />
    <glyph glyph-name="glyph265" horiz-adv-x="722" 
 />
    <glyph glyph-name="glyph266" horiz-adv-x="722" 
 />
    <glyph glyph-name="glyph267" 
 />
    <glyph glyph-name="glyph268" 
 />
    <glyph glyph-name="glyph269" 
 />
    <glyph glyph-name="glyph270" 
 />
    <glyph glyph-name="glyph271" horiz-adv-x="667" 
 />
    <glyph glyph-name="glyph272" horiz-adv-x="667" 
 />
    <glyph glyph-name="glyph273" horiz-adv-x="305" 
 />
    </font>
</defs>
</svg>
