<?xml version="1.0" standalone="no"?>
<!DOCTYPE svg PUBLIC "-//W3C//DTD SVG 1.1//EN" "http://www.w3.org/Graphics/SVG/1.1/DTD/svg11.dtd" >
<svg>
<metadata>
Created by FontForge 20090914 at Fri Jul  8 17:58:47 2016
 By www-data
Generated by Fontographer 4.1
</metadata>
<defs>
<font id="GoudyBoldItalic" horiz-adv-x="278" >
  <font-face 
    font-family="Goudy"
    font-weight="17661"
    font-style="italic"
    font-stretch="normal"
    units-per-em="1000"
    panose-1="0 0 11 0 0 0 0 0 0 0"
    ascent="800"
    descent="-200"
    x-height="428.997"
    cap-height="704"
    bbox="-167 -229 1013 968.003"
    underline-thickness="51"
    underline-position="-87"
    unicode-range="U+0020-U+F002"
  />
<missing-glyph horiz-adv-x="500" 
d="M63 0v796h375v-796h-375zM125 63h250v671h-250v-671z" />
    <glyph glyph-name=".notdef" horiz-adv-x="500" 
d="M63 0v796h375v-796h-375zM125 63h250v671h-250v-671z" />
    <glyph glyph-name="space" unicode=" " 
 />
    <glyph glyph-name="exclam" unicode="!" horiz-adv-x="333" 
d="M144 273l-5 396.999c0 18 4.66699 30 14 36c7.33301 4.66699 21 7 41 7c26 0 43.667 -1.33301 53 -4c18.667 -5.33301 28 -17.666 28 -36.999c0 -6.66699 -2.66699 -20.667 -8 -42l-92 -364c-3.33301 -13.333 -8 -20 -14 -20c-8.66699 0 -14 2.66699 -16 8
c-0.666992 2 -1 8.33301 -1 19zM134 -11.001c-4.66699 0 -11.334 4.33301 -20.001 13l-55 57c-10 10 -15 16.333 -15 19c0 3.33301 5.66699 10.333 17 21c24.667 22 44.334 40.333 59.001 55c9.33301 9.33301 17.333 14 24 14c4.66699 0 11.334 -4.33301 20.001 -13l55 -57
c10 -10 15 -16.333 15 -19c0 -3.33301 -5.66699 -10.333 -17 -21c-24.667 -22 -44.334 -40.333 -59.001 -55c-9.33301 -9.33301 -17.333 -14 -24 -14z" />
    <glyph glyph-name="quotedbl" unicode="&#x22;" horiz-adv-x="500" 
d="M165 700c42 0 63 -19 63 -57c0 -15.333 -6.33301 -36.333 -19 -63l-86 -168c-12 -23.333 -23.667 -35 -35 -35c-14 0 -20 13.333 -18 40l14 195c4 58.667 31 88 81 88zM416 700c42 0 63 -19 63 -57c0 -15.333 -6.33301 -36.333 -19 -63l-86 -168
c-12 -23.333 -23.667 -35 -35 -35c-14 0 -20 13.333 -18 40l14 195c4 58.667 31 88 81 88z" />
    <glyph glyph-name="numbersign" unicode="#" horiz-adv-x="556" 
d="M498 303v-90h-102l-32 -213h-89l31 213h-85l-32 -213h-88l31 213h-100v90h114l13 84h-99v90h111l30 200h87l-29 -200h86l29 200h90l-30 -200h90v-90h-103l-12 -84h89zM332 387h-86l-12 -84h85z" />
    <glyph glyph-name="dollar" unicode="$" horiz-adv-x="556" 
d="M253 423l27 198.999c-30 0.666992 -55.333 -7.66602 -76 -24.999c-22.667 -18 -34 -41.667 -34 -71c0 -46.667 27.667 -81 83 -103zM281 283.999l-29.001 -247c38.667 1.33301 70.5 13 95.5 35s37.5 52.333 37.5 91c0 34 -9.33301 60.333 -28 79
c-13.333 12.667 -38.666 26.667 -75.999 42zM283.999 655.999l10.998 85.999c2 13.333 8.33301 20 19 20c14 0 21 -4 21 -12c0 -4.66699 -4 -36 -12 -94c40.667 -6 75.834 -17.5 105.501 -34.5s44.5 -34.833 44.5 -53.5c0 -8.66699 -11.333 -43.667 -34 -105
c-2 -5.33301 -6.66699 -8 -14 -8c-8.66699 0 -13 9 -13 27c0 47.333 -10.667 81.333 -32 102c-8.66699 9.33301 -29.334 20.333 -62.001 33l-25 -207c63.333 -31.333 101 -52 113 -62c42 -34 63 -80.667 63 -140c0 -62.667 -21.333 -112.667 -64 -150
c-40 -35.333 -92 -54.666 -156 -57.999l-13 -112c-1.33301 -10 -3.16602 -16.167 -5.49902 -18.5s-8.16602 -3.5 -17.499 -3.5c-12 0 -18 7.66699 -18 23c0 2.66699 4.33301 39.667 13 111c-34.667 2 -73 13.333 -115 34c-45.333 22.667 -68 44.667 -68 66
c0 12 5.33301 37.333 16 76c13.333 46 26 69 38 69c6 0 10 -15.333 12 -46c3.33301 -39.333 11 -70 23 -92c20 -35.333 53.333 -57 100 -65l29 252c-53.333 23.333 -90.333 44.666 -111 63.999c-30 28.667 -45 67.334 -45 116.001c0 54 19.667 98 59 132
c36.667 31.333 82.667 48 138 50z" />
    <glyph glyph-name="percent" unicode="%" horiz-adv-x="833" 
d="M201 -11l380 675h53l-381 -675h-52zM230 622c-57.333 0 -86 -46.333 -86 -139c0 -98.667 26 -148 78 -148c53.333 0 80 47 80 141c0 97.333 -24 146 -72 146zM241 653c41.333 0 74.833 -13.168 100.5 -39.501s38.5 -60.166 38.5 -101.499c0 -50.667 -12 -95 -36 -133
c-32.667 -50.667 -81.667 -76 -147 -76c-41.333 0 -74 12.833 -98 38.5s-36 59.5 -36 101.5c0 54 16 101.667 48 143c34.667 44.667 78 67 130 67zM623 314.999c-57.333 0 -86 -46.333 -86 -139c0 -98.667 26 -148 78 -148c53.333 0 80 47 80 141c0 97.333 -24 146 -72 146z
M634 345.999c41.333 0 74.833 -13.168 100.5 -39.501s38.5 -60.166 38.5 -101.499c0 -50.667 -12 -95 -36 -133c-32.667 -50.667 -81.667 -76 -147 -76c-41.333 0 -74 12.833 -98 38.5s-36 59.5 -36 101.5c0 54 16 101.667 48 143c34.667 44.667 78 67 130 67z" />
    <glyph glyph-name="ampersand" unicode="&#x26;" horiz-adv-x="833" 
d="M315 -11c-85.333 0 -153.168 20.3359 -203.501 61.0029s-75.5 94.334 -75.5 161.001c0 64.667 22.667 122.334 68 173.001c30 32.667 66.333 59.334 109 80.001c-2 17.333 -3 32.666 -3 45.999c0 47.333 18.667 92 56 134c40.667 46 89.334 69 146.001 69
c87.333 0 131 -31.667 131 -95c0 -16 -7 -30.667 -21 -44c-16 -15.333 -36.333 -23 -61 -23c-22 0 -33 4 -33 12c0 2 3 6.33301 9 13s9 15.667 9 27c0 9.33301 -3 18 -9 26c-10 14 -26.333 21 -49 21c-24 0 -49.667 -10.333 -77 -31c-36.667 -28 -55 -66 -55 -114
c0 -4.66699 0.666992 -13 2 -25c22 8.66699 43.333 13 64 13c24.667 0 45.5 -7 62.5 -21s25.5 -33 25.5 -57c0 -21.333 -7.83301 -38.666 -23.5 -51.999s-34.5 -20 -56.5 -20c-52 0 -87.333 26 -106 78c-41.333 -31.333 -62 -81.333 -62 -150c0 -62 19.333 -116 58 -162
c41.333 -49.333 92.666 -74 153.999 -74c50 0 96.667 15.833 140 47.5s66.666 67.5 69.999 107.5c6 76.667 -18.667 115 -74 115c-19.333 0 -36.333 -6.33301 -51 -19s-22 -28.334 -22 -47.001c0 -10 3.33301 -19.5 10 -28.5s14.334 -13.5 23.001 -13.5
c8 0 15.833 2.66699 23.5 8s13.167 8 16.5 8c8.66699 0 13 -4.66699 13 -14c0 -10.667 -6.33301 -19.834 -19 -27.501s-27.667 -11.5 -45 -11.5c-26.667 0 -47 10 -61 30c-12.667 16.667 -19 38 -19 64c0 41.333 18.667 75.666 56 102.999c26.667 20 106 64 238 132
c65.333 33.333 98 69.666 98 108.999c0 43.333 -19.667 65 -59 65c-11.333 0 -21.333 -3 -30 -9c-10.667 -6.66699 -16 -15.334 -16 -26.001c0 -7.33301 6.33301 -13.833 19 -19.5s19 -13.834 19 -24.501c0 -31.333 -18.667 -47 -56 -47
c-15.333 0 -28.166 5.83301 -38.499 17.5s-15.5 27.5 -15.5 47.5s6.66699 39 20 57c20 27.333 50.667 41 92 41c36 0 65 -12.167 87 -36.5s33 -54.833 33 -91.5c0 -51.333 -22.333 -96.333 -67 -135c-21.333 -18 -66.333 -45.667 -135 -83c25.333 -28 38 -65.333 38 -112
c0 -66 -34.5 -124.667 -103.5 -176s-150.167 -77 -243.5 -77zM263.998 446.003c5.33301 -35.333 22 -53.333 50 -54c20.667 -0.666992 31 9 31 29c0 22 -15 33 -45 33c-12 0 -24 -2.66699 -36 -8z" />
    <glyph glyph-name="quotesingle" unicode="'" 
d="M199 700c42 0 63 -19 63 -57c0 -15.333 -6.33301 -36.333 -19 -63l-86 -168c-12 -23.333 -23.667 -35 -35 -35c-14 0 -20 13.333 -18 40l14 195c4 58.667 31 88 81 88z" />
    <glyph glyph-name="parenleft" unicode="(" horiz-adv-x="389" 
d="M83 164c0 142 22.332 259.667 66.999 353c34 70 78.333 123 133 159c36.667 24.667 67 37 91 37c10.667 0 16 -3.66699 16 -11c0 -6 -7.66699 -15.333 -23 -28c-26 -20.667 -46 -38 -60 -52c-85.333 -85.333 -128 -251.666 -128 -498.999
c0 -78.667 10 -138.334 30 -179.001c12.667 -25.333 31.334 -44.666 56.001 -57.999c20 -10.667 30 -19.334 30 -26.001c0 -10.667 -8.66699 -16 -26 -16c-37.333 0 -73 18.333 -107 55c-52.667 56.667 -79 145 -79 265z" />
    <glyph glyph-name="parenright" unicode=")" horiz-adv-x="389" 
d="M297 393c0 -142 -22.332 -259.667 -66.999 -353c-34 -70 -78.333 -123 -133 -159c-36.667 -24.667 -67 -37 -91 -37c-10.667 0 -16 3.66699 -16 11c0 6 7.66699 15.333 23 28c26 20.667 46 38 60 52c85.333 85.333 128 251.666 128 498.999
c0 78.667 -10 138.334 -30 179.001c-12.667 25.333 -31.334 44.666 -56.001 57.999c-20 10.667 -30 19.334 -30 26.001c0 10.667 8.66699 16 26 16c37.333 0 73 -18.333 107 -55c52.667 -56.667 79 -145 79 -265z" />
    <glyph glyph-name="asterisk" unicode="*" horiz-adv-x="500" 
d="M269 713c14 0 25.833 -4 35.5 -12s14.5 -19 14.5 -33c0 -14.667 -7.16699 -36.334 -21.5 -65.001s-21.5 -56 -21.5 -82l8 -5c24.667 11.333 48 34.333 70 69c18 28.667 37 43 57 43c12 0 23.667 -5 35 -15s17 -20.667 17 -32c0 -13.333 -3.66699 -25.333 -11 -36
s-17.333 -16 -30 -16c-53.333 0 -96.333 -8.66699 -129 -26v-14c32.667 -17.333 75.667 -26 129 -26c27.333 -5.33301 41 -22.666 41 -51.999c0 -11.333 -5.66699 -22 -17 -32s-23 -15 -35 -15c-20 0 -39 14.333 -57 43c-22 34.667 -45.333 57.667 -70 69l-8 -5
c0 -26 7.16699 -53.333 21.5 -82s21.5 -50.334 21.5 -65.001c0 -14 -4.83301 -25 -14.5 -33s-21.5 -12 -35.5 -12s-25.833 4 -35.5 12s-14.5 19 -14.5 33c0 14.667 7.16699 36.334 21.5 65.001s21.5 56 21.5 82l-8 5c-24.667 -11.333 -48 -34.333 -70 -69
c-18 -28.667 -37 -43 -57 -43c-12 0 -23.667 5 -35 15s-17 20.667 -17 32c0 29.333 13.667 46.666 41 51.999c53.333 0 96.333 8.66699 129 26v14c-32.667 17.333 -75.667 26 -129 26c-12.667 0 -22.667 5.33301 -30 16s-11 22.667 -11 36c0 11.333 5.66699 22 17 32
s23 15 35 15c20 0 39 -14.333 57 -43c22 -34.667 45.333 -57.667 70 -69l8 5c0 26 -7.16699 53.333 -21.5 82s-21.5 50.334 -21.5 65.001c0 14 4.83301 25 14.5 33s21.5 12 35.5 12z" />
    <glyph glyph-name="plus" unicode="+" horiz-adv-x="606" 
d="M259 297v209h88v-209h209v-88h-209v-209h-88v209h-209v88h209z" />
    <glyph glyph-name="comma" unicode="," horiz-adv-x="333" 
d="M68 95c0 7.33301 14.168 21.332 42.501 41.999s47.166 31 56.499 31s22 -10 38 -30c20 -24.667 30 -52 30 -82c0 -49.333 -26.333 -97.666 -79 -144.999c-45.333 -40.667 -80 -61 -104 -61c-8.66699 0 -13 5 -13 15c0 5.33301 7.66699 13.666 23 24.999
c20 14 34.333 26.333 43 37c15.333 18.667 23 40.334 23 65.001c0 22 -10 43.667 -30 65s-30 34 -30 38z" />
    <glyph glyph-name="hyphen" unicode="-" horiz-adv-x="333" 
d="M221 191c-106.667 -33.333 -162 -50 -166 -50c-9.33301 0 -14 5.66699 -14 17c0 6 1.33301 19 4 39c3.33301 24.667 6.33301 38.834 9 42.501s14.667 8.83398 36 15.501c108 33.333 163.333 50 166 50c9.33301 0 14 -5.66699 14 -17c0 -6 -1.33301 -19 -4 -39
c-3.33301 -24.667 -6.33301 -38.834 -9 -42.501s-14.667 -8.83398 -36 -15.501z" />
    <glyph glyph-name="hyphen" unicode="&#x2010;" horiz-adv-x="333" 
d="M221 191c-106.667 -33.333 -162 -50 -166 -50c-9.33301 0 -14 5.66699 -14 17c0 6 1.33301 19 4 39c3.33301 24.667 6.33301 38.834 9 42.501s14.667 8.83398 36 15.501c108 33.333 163.333 50 166 50c9.33301 0 14 -5.66699 14 -17c0 -6 -1.33301 -19 -4 -39
c-3.33301 -24.667 -6.33301 -38.834 -9 -42.501s-14.667 -8.83398 -36 -15.501z" />
    <glyph glyph-name="period" unicode="." horiz-adv-x="333" 
d="M148 -11c-4.66699 0 -11.334 4.33301 -20.001 13l-55 57c-10 10 -15 16.333 -15 19c0 3.33301 5.66699 10.333 17 21c24.667 22 44.334 40.333 59.001 55c9.33301 9.33301 17.333 14 24 14c4.66699 0 11.334 -4.33301 20.001 -13l55 -57c10 -10 15 -16.333 15 -19
c0 -3.33301 -5.66699 -10.333 -17 -21c-24.667 -22 -44.334 -40.333 -59.001 -55c-9.33301 -9.33301 -17.333 -14 -24 -14z" />
    <glyph glyph-name="slash" unicode="/" 
d="M203 700h97l-240 -792h-97z" />
    <glyph glyph-name="zero" unicode="0" horiz-adv-x="556" 
d="M272 37c50 0 85.333 31 106 93c16 50 24 126.667 24 230c0 184 -38.667 276 -116 276c-32.667 0 -59.667 -16 -81 -48c-36.667 -54 -55 -149 -55 -285c0 -177.333 40.667 -266 122 -266zM529 405c0 -98 -25.001 -188.668 -75.001 -272.001
c-58 -96 -131.667 -144 -221 -144c-65.333 0 -117.666 28.333 -156.999 85c-35.333 50.667 -53 110.334 -53 179.001c0 105.333 21.333 197 64 275c54.667 99.333 133.667 149 237 149c69.333 0 122.333 -28.667 159 -86c30.667 -48.667 46 -110.667 46 -186z" />
    <glyph glyph-name="one" unicode="1" horiz-adv-x="556" 
d="M194 99l42.002 366.001c2.66699 23.333 4 41.333 4 54c0 28 -14.667 42 -44 42c-10 0 -20.5 -1 -31.5 -3s-17.833 -3 -20.5 -3c-11.333 0 -17 5 -17 15c0 14.667 10.667 23.667 32 27c48 7.33301 87 18 117 32c14.667 6.66699 32 17.667 52 33
c13.333 10 25.666 15 36.999 15c8 0 12 -5.33301 12 -16l-12 -104l-39 -338c-7.33301 -63.333 -11 -99.333 -11 -108c0 -32.667 10.333 -54.334 31 -65.001c8.66699 -4.66699 27.667 -8 57 -10c20.667 -2 31 -8.66699 31 -20c0 -13.333 -8.33301 -20 -25 -20
c-10 0 -33.833 0.666992 -71.5 2s-62.834 2 -75.501 2c-23.333 -0 -52.333 -0.666992 -87 -2s-55 -2 -61 -2c-16 0 -24 5.33301 -24 16c0 13.333 8 21 24 23c27.333 4 43.333 7 48 9c18 8.66699 28.667 27 32 55z" />
    <glyph glyph-name="two" unicode="2" horiz-adv-x="556" 
d="M291 677c47.333 0 87 -13.3291 119 -39.9961c34 -28.667 51 -66.667 51 -114c0 -40 -18.333 -83 -55 -129c-31.333 -40 -115 -128 -251 -264c-6.66699 -6.66699 -10 -11.334 -10 -14.001c0 -6 42.667 -9 128 -9c54.667 0 96 7 124 21c15.333 7.33301 29.666 20 42.999 38
c10.667 14 21.667 21 33 21c10 0 15 -5.66699 15 -17c0 -6.66699 -15.667 -36.667 -47 -90c-32 -56 -52.667 -84 -62 -84c-20.667 0 -50.334 0.666992 -89.001 2s-67 2 -85 2c-11.333 0 -44.333 -0.666992 -99 -2s-84 -2 -88 -2c-12 0 -18 5.33301 -18 16
c0 7.33301 3 14.666 9 21.999c6 5.33301 11.667 11 17 17l110 121c56.667 63.333 100.334 118.333 131.001 165c42 64.667 63 119 63 163c0 64 -31 96 -93 96c-28.667 0 -54.334 -7.66699 -77.001 -23c-14.667 -8.66699 -30 -22.334 -46 -41.001
c-13.333 -15.333 -21.666 -23 -24.999 -23c-13.333 0 -20 5 -20 15c0 29.333 25.333 62.166 76 98.499s99.334 54.5 146.001 54.5z" />
    <glyph glyph-name="three" unicode="3" horiz-adv-x="556" 
d="M233 329c-6.66699 0 -14.001 -0.835938 -22.001 -2.50293s-12.667 -2.5 -14 -2.5c-12.667 0 -19 5 -19 15c0 10.667 4 17.667 12 21c56 22.667 92.333 40.334 109 53.001c34.667 26 52 61 52 105c0 30.667 -8.5 54.834 -25.5 72.501s-40.167 26.5 -69.5 26.5
c-30 0 -56 -7.33301 -78 -22c-12.667 -8 -26.667 -21 -42 -39c-12 -14.667 -20.667 -22 -26 -22c-14 0 -21 4.66699 -21 14c0 23.333 19.667 49.333 59 78c46 34 97.667 51 155 51c44 0 81 -10.333 111 -31c33.333 -23.333 50 -56.666 50 -99.999
c0 -59.333 -44 -108.666 -132 -147.999c96 -27.333 144 -80 144 -158c0 -65.333 -24 -122.333 -72 -171c-51.333 -53.333 -116.666 -80 -195.999 -80c-69.333 0 -125 13.333 -167 40c-30 18.667 -45 35 -45 49c0 12.667 5.66699 19 17 19c6.66699 0 16.667 -5.66699 30 -17
c16.667 -14 31.667 -24 45 -30c23.333 -11.333 51 -17 83 -17c50.667 0 92.667 17.167 126 51.5s50 77.166 50 128.499c0 77.333 -38 116 -114 116z" />
    <glyph glyph-name="four" unicode="4" horiz-adv-x="556" 
d="M281 159l-256.001 -0.000976562c-22 0 -33 9 -33 27c0 42.667 142 201.334 426 476.001c10 10 17.667 15 23 15c8 0 12 -3.33301 12 -10c0 -1.33301 -1.33301 -12.333 -4 -33l-49 -385h42c14.667 0 27.334 6.66699 38.001 20s19 20 25 20c8.66699 0 13 -4 13 -12
c0 -15.333 -4 -36.333 -12 -63c-10 -36.667 -23 -55 -39 -55h-77l-22 -196c-1.33301 -10 -14 -17.667 -38 -23c-18 -4 -35 -6 -51 -6c-20 0 -30 4.33301 -30 13c0 3.33301 10.667 74 32 212zM291.999 248.999l35.999 258c-61.333 -50.667 -118.666 -106.667 -171.999 -168
c-43.333 -50.667 -65 -79.667 -65 -87c0 -2 3.66699 -3 11 -3h190z" />
    <glyph glyph-name="five" unicode="5" horiz-adv-x="556" 
d="M202 649l169.001 -0.00195312c29.333 0 53.666 7.66699 72.999 23s32.333 23 39 23c7.33301 0 11 -4.33301 11 -13c0 -13.333 -5.83301 -34.166 -17.5 -62.499s-22.167 -46.5 -31.5 -54.5c-4.66699 -4 -10 -6.33301 -16 -7h-67c-80 0 -132.333 -2.33301 -157 -7
c-13.333 -2.66699 -21.333 -7.66699 -24 -15c-16 -43.333 -25 -81.666 -27 -114.999c0 -4.66699 2.33301 -7 7 -7c-0.666992 0 6.5 0.5 21.5 1.5s31.167 1.5 48.5 1.5c54 0 101 -10.667 141 -32c62 -32.667 93 -86 93 -160c0 -78 -33.667 -138.333 -101 -181
c-57.333 -36.667 -127.333 -55 -210 -55c-36 0 -70.333 5.66699 -103 17s-49 23 -49 35c0 11.333 5.66699 17 17 17c6 0 20.5 -4 43.5 -12s52.167 -12 87.5 -12c50.667 0 95 13.333 133 40c42 30 63 69.333 63 118c0 40 -14.667 71.667 -44 95
c-27.333 20.667 -61.666 31 -102.999 31c-10.667 0 -24.334 -0.5 -41.001 -1.5s-29 -1.5 -37 -1.5c-24.667 0 -37 6.33301 -37 19c0 2.66699 21.333 95.667 64 279c4 16.667 10 27 18 31c5.33301 3.33301 17.333 5 36 5z" />
    <glyph glyph-name="six" unicode="6" horiz-adv-x="556" 
d="M143 232c0 -50 10.333 -94.667 31 -134c25.333 -49.333 60.333 -74 105 -74c41.333 0 72 18.333 92 55c16 29.333 24 66.666 24 111.999c0 48.667 -8.66699 90 -26 124c-22 42.667 -55 64 -99 64c-40 0 -71.167 -14.167 -93.5 -42.5s-33.5 -63.166 -33.5 -104.499z
M510 677c18 0 27 -6.66992 27 -20.0029c0 -9.33301 -6 -14.666 -18 -15.999c-109.333 -12 -194.666 -51 -255.999 -117c-38.667 -41.333 -62.334 -84.666 -71.001 -129.999c50 28 98 42 144 42c52 0 95.167 -18.167 129.5 -54.5s51.5 -81.166 51.5 -134.499
c0 -74 -23.167 -135.5 -69.5 -184.5s-105.833 -73.5 -178.5 -73.5c-62.667 0 -116.667 18.333 -162 55c-57.333 46.667 -86 115.667 -86 207c0 132 50.333 237.667 151 317c92 72.667 204.667 109 338 109z" />
    <glyph glyph-name="seven" unicode="7" horiz-adv-x="556" 
d="M204 -30c-24.667 0 -41.665 3.00293 -50.998 9.00293c-12 8 -18 24.333 -18 49c0 55.333 14 106.666 42 153.999c16 27.333 49 69.666 99 126.999c116 132.667 174 216 174 250c0 9.33301 -9.33301 14.333 -28 15c6 0 -55 0 -183 0c-41.333 0 -72.333 -8 -93 -24
c-10.667 -9.33301 -20.667 -24.666 -30 -45.999c-7.33301 -16 -15.333 -24 -24 -24c-12.667 0 -19 7 -19 21c0 13.333 5.66699 39 17 77c10 36 19.333 63.667 28 83c5.33301 11.333 18.333 16.666 39 15.999c58.667 -2.66699 108.667 -4 150 -4
c17.333 0 43.166 0.666992 77.499 2s60.166 2 77.499 2c18.667 0 30.667 -1.33301 36 -4c9.33301 -4 14 -13.667 14 -29c0 -48.667 -20 -110.334 -60 -185.001l-111 -193c-40 -74.667 -60 -135.667 -60 -183c0 -14.667 1.83301 -32 5.5 -52s5.5 -30.667 5.5 -32
c0 -19.333 -29.333 -29 -88 -29z" />
    <glyph glyph-name="eight" unicode="8" horiz-adv-x="556" 
d="M172 538c0 -31.333 18 -61.333 54 -90c33.333 -26.667 66 -40 98 -40c26 0 48.5 11.5 67.5 34.5s28.5 47.833 28.5 74.5c0 40 -11 71.167 -33 93.5s-52.333 33.5 -91 33.5c-32.667 0 -61 -9 -85 -27c-26 -20 -39 -46.333 -39 -79zM244 -11
c-84.667 0 -146 22.998 -184 68.998c-25.333 30 -38 64 -38 102c0 46.667 12 84.334 36 113.001c21.333 25.333 55 47.333 101 66c-50 36.667 -75 86 -75 148c0 60 24 107.667 72 143c42.667 31.333 94.334 47 155.001 47c49.333 0 91.666 -10.667 126.999 -32
c42.667 -26 64 -62.667 64 -110c0 -68 -45.333 -118.333 -136 -151c42 -23.333 72.667 -47.666 92 -72.999c22.667 -30 34 -67.667 34 -113c0 -50 -16 -93.667 -48 -131c-44 -52 -110.667 -78 -200 -78zM259 24.998c38.667 0 71.668 8.99805 99.001 26.998
c32 20.667 48 49.334 48 86.001c0 37.333 -17.667 71.333 -53 102c-26 22 -59.333 41 -100 57c-30.667 12 -50.334 18 -59.001 18c-26.667 0 -47.667 -18.333 -63 -55c-12 -28 -18 -57.333 -18 -88c0 -43.333 13.667 -78.666 41 -105.999s62.333 -41 105 -41z" />
    <glyph glyph-name="nine" unicode="9" horiz-adv-x="556" 
d="M280 289c40 0 71.667 14.667 95 44c21.333 27.333 32 61.666 32 102.999c0 50 -10.333 94.667 -31 134c-25.333 49.333 -60.333 74 -105 74c-41.333 0 -72 -18.333 -92 -55c-16 -29.333 -24 -66.666 -24 -111.999c0 -48.667 8.66699 -90 26 -124
c22 -42.667 55 -64 99 -64zM40 -11c-18 0 -27 6.66992 -27 20.0029c0 9.33301 6 14.666 18 15.999c109.333 12 194.666 51 255.999 117c38.667 41.333 62.334 84.666 71.001 129.999c-50 -28 -98 -42 -144 -42c-52 0 -95.167 18.167 -129.5 54.5s-51.5 81.166 -51.5 134.499
c0 74 23.167 135.5 69.5 184.5s105.833 73.5 178.5 73.5c62.667 0 116.667 -18.333 162 -55c57.333 -46.667 86 -115.667 86 -207c0 -132 -50.333 -237.667 -151 -317c-92 -72.667 -204.667 -109 -338 -109z" />
    <glyph glyph-name="colon" unicode=":" horiz-adv-x="333" 
d="M144 -11c-4.66699 0 -11.334 4.33301 -20.001 13l-55 57c-10 10 -15 16.333 -15 19c0 3.33301 5.66699 10.333 17 21c24.667 22 44.334 40.333 59.001 55c9.33301 9.33301 17.333 14 24 14c4.66699 0 11.334 -4.33301 20.001 -13l55 -57c10 -10 15 -16.333 15 -19
c0 -3.33301 -5.66699 -10.333 -17 -21c-24.667 -22 -44.334 -40.333 -59.001 -55c-9.33301 -9.33301 -17.333 -14 -24 -14zM163 267c-4.66699 0 -11.334 4.33301 -20.001 13l-55 57c-10 10 -15 16.333 -15 19c0 3.33301 5.66699 10.333 17 21
c24.667 22 44.334 40.333 59.001 55c9.33301 9.33301 17.333 14 24 14c4.66699 0 11.334 -4.33301 20.001 -13l55 -57c10 -10 15 -16.333 15 -19c0 -3.33301 -5.66699 -10.333 -17 -21c-24.667 -22 -44.334 -40.333 -59.001 -55c-9.33301 -9.33301 -17.333 -14 -24 -14z" />
    <glyph glyph-name="semicolon" unicode=";" horiz-adv-x="333" 
d="M64 95c0 7.33301 14.168 21.332 42.501 41.999s47.166 31 56.499 31s22 -10 38 -30c20 -24.667 30 -52 30 -82c0 -49.333 -26.333 -97.666 -79 -144.999c-45.333 -40.667 -80 -61 -104 -61c-8.66699 0 -13 5 -13 15c0 5.33301 7.66699 13.666 23 24.999
c20 14 34.333 26.333 43 37c15.333 18.667 23 40.334 23 65.001c0 22 -10 43.667 -30 65s-30 34 -30 38zM158.001 266.999c-4.66699 0 -11.334 4.33301 -20.001 13l-55 57c-10 10 -15 16.333 -15 19c0 3.33301 5.66699 10.333 17 21c24.667 22 44.334 40.333 59.001 55
c9.33301 9.33301 17.333 14 24 14c4.66699 0 11.334 -4.33301 20.001 -13l55 -57c10 -10 15 -16.333 15 -19c0 -3.33301 -5.66699 -10.333 -17 -21c-24.667 -22 -44.334 -40.333 -59.001 -55c-9.33301 -9.33301 -17.333 -14 -24 -14z" />
    <glyph glyph-name="less" unicode="&#x3c;" horiz-adv-x="606" 
d="M174 253l384 -174v-95l-509 228v82l509 228v-95z" />
    <glyph glyph-name="equal" unicode="=" horiz-adv-x="606" 
d="M556 394v-88h-506v88h506zM556 200v-88h-506v88h506z" />
    <glyph glyph-name="greater" unicode="&#x3e;" horiz-adv-x="606" 
d="M48 79l384 174l-384 174v95l509 -228v-82l-509 -228v95z" />
    <glyph glyph-name="question" unicode="?" horiz-adv-x="389" 
d="M382 590c0 -33.333 -16.9971 -69.333 -50.9971 -108l-95 -96c-34 -36.667 -51 -69 -51 -97s-4.66699 -42 -14 -42c-6.66699 0 -13.167 5.66699 -19.5 17s-9.5 26 -9.5 44c0 36.667 18.333 84.834 55 144.501s55 104.5 55 134.5c0 25.333 -9.66699 43.333 -29 54
c-10.667 6 -22.334 9 -35.001 9c-17.333 0 -35.333 -7.83301 -54 -23.5s-29.334 -23.5 -32.001 -23.5c-9.33301 0 -14 5 -14 15c0 15.333 11.667 33.666 35 54.999c29.333 26.667 63.666 40 102.999 40c40 0 75 -10 105 -30c34 -23.333 51 -54.333 51 -93zM145.003 -11
c-4.66699 0 -11.334 4.33301 -20.001 13l-55 57c-10 10 -15 16.333 -15 19c0 3.33301 5.66699 10.333 17 21c24.667 22 44.334 40.333 59.001 55c9.33301 9.33301 17.333 14 24 14c4.66699 0 11.334 -4.33301 20.001 -13l55 -57c10 -10 15 -16.333 15 -19
c0 -3.33301 -5.66699 -10.333 -17 -21c-24.667 -22 -44.334 -40.333 -59.001 -55c-9.33301 -9.33301 -17.333 -14 -24 -14z" />
    <glyph glyph-name="at" unicode="@" horiz-adv-x="747" 
d="M279 248c0 -40.667 12.667 -61.001 38 -61.001s51.5 26.833 78.5 80.5s40.5 103.834 40.5 150.501c0 17.333 -3 32.333 -9 45c-7.33301 16.667 -18.333 25 -33 25c-30.667 0 -58.667 -33 -84 -99c-20.667 -55.333 -31 -102.333 -31 -141zM457 460.999l12.999 55.998h113
l-68 -256c-7.33301 -27.333 -11 -45.666 -11 -54.999c0 -14 4.33301 -21 13 -21c20 0 45 21.667 75 65c32 46 48 89.667 48 131c0 80.667 -21.667 144 -65 190c-46.667 49.333 -113.667 74 -201 74c-80.667 0 -149 -28.5 -205 -85.5s-84 -126.167 -84 -207.5
c0 -82 28 -151.667 84 -209s124.333 -86 205 -86c112 0 196.667 42 254 126h76c-29.333 -59.333 -73 -106.5 -131 -141.5s-124.333 -52.5 -199 -52.5c-99.333 0 -183.666 35.333 -252.999 106s-104 156.334 -104 257.001c0 100 34.667 185.167 104 255.5
s153.666 105.5 252.999 105.5c108.667 0 193.334 -30.667 254.001 -92c54.667 -56.667 82 -129.334 82 -218.001c0 -75.333 -28 -139 -84 -191c-48 -44 -95.333 -66 -142 -66c-43.333 0 -67 28 -71 84h-2c-34.667 -52.667 -73.667 -79 -117 -79
c-26.667 0 -52 9.66699 -76 29c-34.667 26.667 -52 66 -52 118c0 56.667 21.167 108.834 63.5 156.501s90.833 71.5 145.5 71.5c20 0 37.5 -5.83301 52.5 -17.5s24.167 -27.5 27.5 -47.5h2z" />
    <glyph glyph-name="A" unicode="A" horiz-adv-x="722" 
d="M319 497l-72.002 -137.001c-14.667 -28 -22 -44 -22 -48c0 -11.333 26 -17 78 -17c40.667 0 67.334 1 80.001 3c20 2 30 7.66699 30 17c0 8.66699 -5.66699 29.334 -17 62.001l-40 115c-7.33301 21.333 -12.666 32 -15.999 32c-4.66699 0 -11.667 -9 -21 -27z
M44.998 79.999l328.995 610.999c11.333 20.667 20 31 26 31c8 0 15 -9.33301 21 -28l183 -576c10.667 -34 26.334 -56.667 47.001 -68c6.66699 -4 22.334 -8.33301 47.001 -13c14.667 -2.66699 22 -10.667 22 -24c0 -11.333 -10.333 -17 -31 -17
c-6.66699 0 -18.167 0.666992 -34.5 2s-30.5 2 -42.5 2c-33.333 0 -67.666 -0.666992 -102.999 -2s-58 -2 -68 -2c-20.667 0 -31 5.33301 -31 16c0 9.33301 5.66699 16 17 20c18.667 6 29.334 10 32.001 12c11.333 8 17 22 17 42c0 13.333 -6 40.333 -18 81
c-14 48 -27.333 73 -40 75c-23.333 4 -62.333 6 -117 6c-56 0 -88.333 -0.666992 -97 -2c-15.333 -2 -33 -24 -53 -66c-19.333 -38.667 -29 -67.667 -29 -87s8.66699 -33.666 26 -42.999c2.66699 -1.33301 18.667 -6 48 -14c17.333 -5.33301 26 -13 26 -23
c0 -11.333 -10.333 -17 -31 -17c-6 0 -18.167 0.666992 -36.5 2s-36.166 2 -53.499 2c-16.667 0 -35.5 -0.666992 -56.5 -2s-35.833 -2 -44.5 -2c-19.333 0 -29 5 -29 15c0 7.33301 9.33301 16 28 26c22 12 37.333 26.333 46 43z" />
    <glyph glyph-name="B" unicode="B" horiz-adv-x="667" 
d="M477 201c0 46.667 -18 83.999 -54 111.999c-33.333 25.333 -74.333 38 -123 38c-43.333 0 -67.333 -4.33301 -72 -13c-7.33301 -14 -14.333 -56.333 -21 -127c-4.66699 -58 -7 -102.667 -7 -134c0 -19.333 10.667 -31.666 32 -36.999c10 -2.66699 28 -4 54 -4
c127.333 0 191 55 191 165zM485 523.999c0 43.333 -13.333 78.333 -40 105s-61.667 40 -105 40c-21.333 0 -34 -0.333008 -38 -1c-11.333 -2 -21.833 -7.5 -31.5 -16.5s-18.5 -47.167 -26.5 -114.5c-6 -52.667 -9 -89 -9 -109c0 -17.333 9.66699 -28.666 29 -33.999
c8 -2 24.333 -3 49 -3c64 0 111 17 141 51c20.667 23.333 31 50.666 31 81.999zM79 139.999l43.001 398.001c4.66699 43.333 7 67 7 71c0 23.333 -8 39.666 -24 48.999c-4.66699 2.66699 -19 6.66699 -43 12c-16 4 -24 11 -24 21c0 8.66699 11.667 13 35 13
c8 0 24.333 -0.666992 49 -2s44.667 -2 60 -2c20.667 0 53.167 0.666992 97.5 2s77.833 2 100.5 2c88 0 150.667 -22 188 -66c24.667 -28.667 37 -64.667 37 -108c0 -74.667 -50.667 -122.667 -152 -144v-2c106.667 -31.333 160 -90 160 -176c0 -141.333 -90 -212 -270 -212
c-12.667 0 -31.834 0.666992 -57.501 2s-45.167 2 -58.5 2c-22 0 -54.833 -0.666992 -98.5 -2s-76.5 -2 -98.5 -2c-22.667 0 -34 4.33301 -34 13c0 12 6 20.333 18 25c18 6 30.333 12.667 37 20c14 16 23.333 44.667 28 86z" />
    <glyph glyph-name="C" unicode="C" horiz-adv-x="667" 
d="M648 626l-0.000976562 -147v-29c-1.33301 -6 -5.66602 -9 -12.999 -9c-8 0 -21 20 -39 60c-23.333 49.333 -46.666 86 -69.999 110c-38 40 -85.667 60 -143 60c-52.667 0 -97.667 -17 -135 -51c-58 -53.333 -87 -142 -87 -266c0 -73.333 17.667 -139 53 -197
c41.333 -67.333 97 -101 167 -101c41.333 0 79.666 11.333 114.999 34c22.667 14.667 46.334 36 71.001 64c20.667 22.667 33 34 37 34c10 0 15 -4.33301 15 -13c0 -16 -13 -38.333 -39 -67c-29.333 -32 -63.333 -58.667 -102 -80c-47.333 -26 -93.666 -39 -138.999 -39
c-96 0 -173 33 -231 99c-54.667 63.333 -82 143.333 -82 240c0 96 28.667 181.333 86 256c65.333 86 151.666 129 258.999 129c41.333 0 79.666 -5.66699 114.999 -17c22.667 -6.66699 46 -17 70 -31c20 -11.333 32 -17 36 -17s10 3 18 9s15.333 9 22 9
c10.667 0 16 -13.333 16 -40z" />
    <glyph glyph-name="D" unicode="D" horiz-adv-x="778" 
d="M261 576l-46.999 -390.999c-4.66699 -38.667 -7 -64.334 -7 -77.001c0 -34 10.667 -56.333 32 -67c12.667 -6.66699 35 -10 67 -10c84 0 154.667 33.333 212 100c61.333 71.333 92 164.333 92 279c0 80.667 -20.667 143.834 -62 189.501s-100 68.5 -176 68.5
c-38 0 -64.333 -6 -79 -18c-16.667 -12.667 -27.334 -37.334 -32.001 -74.001zM83.001 111.001l45.998 407.001c5.33301 47.333 8 78.333 8 93c0 21.333 -8 35.666 -24 42.999l-45.5 12c-15.667 4 -23.5 12.667 -23.5 26c0 8 5.66699 12 17 12
c-2.66699 0 14.333 -0.666992 51 -2s85.667 -2 147 -2c18.667 0 46.834 0.666992 84.501 2s65.834 2 84.501 2c95.333 0 172.5 -25.667 231.5 -77s88.5 -122.333 88.5 -213c0 -130 -43 -233.667 -129 -311c-80 -71.333 -180 -107 -300 -107
c-17.333 0 -43.833 0.666992 -79.5 2s-62.5 2 -80.5 2c-10 0 -34.833 -0.666992 -74.5 -2s-61.167 -2 -64.5 -2c-13.333 0 -20 4 -20 12c0 10 6.33301 17.333 19 22c18.667 6 31 11.667 37 17c14.667 12.667 23.667 34 27 64z" />
    <glyph glyph-name="E" unicode="E" horiz-adv-x="667" 
d="M260 385l105.003 -0.00195312c36 0 64 8 84 24c11.333 8.66699 22.666 23.334 33.999 44.001c8 16 16 24 24 24c8.66699 0 13 -6.33301 13 -19c0 12 -7.66699 -58.667 -23 -212c-0.666992 -7.33301 -5 -11 -13 -11c-7.33301 0 -13.666 9.33301 -18.999 28
c-6.66699 24.667 -15 42.334 -25 53.001c-18 18.667 -46.333 28 -85 28h-77c-13.333 0 -26.333 -3.66699 -39 -11c-8.66699 -5.33301 -16.334 -39 -23.001 -101c-5.33301 -48 -8 -83.667 -8 -107c0 -34.667 5.66699 -57.167 17 -67.5s33 -15.5 65 -15.5
c72.667 0 133.667 11.667 183 35c32.667 15.333 62 36.666 88 63.999c21.333 23.333 34 35 38 35c8 0 12 -7.66699 12 -23c0 -25.333 -11.667 -56 -35 -92c-27.333 -43.333 -57.666 -65 -90.999 -65c-39.333 0 -92.833 0.666992 -160.5 2s-114.834 2 -141.501 2
c-34.667 0 -69.167 -0.666992 -103.5 -2s-57.166 -2 -68.499 -2c-12.667 0 -19 3.33301 -19 10c0 12 6.66699 20.333 20 25c22 8.66699 35 14.334 39 17.001c14.667 11.333 23.667 30 27 56l52 428c6 49.333 9 77.333 9 84c0 21.333 -8.33301 36.333 -25 45
c-5.33301 2.66699 -21 6.33398 -47 11.001c-16.667 3.33301 -25 9.66602 -25 18.999c0 8.66699 7.66699 13 23 13c21.333 0 53.166 -0.666992 95.499 -2s74.166 -2 95.499 -2c92.667 0 176.667 0.666992 252 2s108 2 98 2c14 0 21 -3.66699 21 -11v-125
c0 -17.333 -4.33301 -26 -13 -26c-10.667 0 -18.667 11 -24 33c-6 26.667 -12.333 43 -19 49c-12.667 11.333 -27.667 19 -45 23c-34.667 8.66699 -95.334 13 -182.001 13c-36.667 0 -58.667 -3.33301 -66 -10c-10 -9.33301 -19 -45.333 -27 -108
c-6.66699 -50 -10 -87 -10 -111c0 -30.667 6.33301 -46 19 -46z" />
    <glyph glyph-name="F" unicode="F" horiz-adv-x="611" 
d="M260 385l87.0029 -0.00292969c36 0 64 8 84 24c11.333 8.66699 22.666 23.334 33.999 44.001c8 16 16 24 24 24c8.66699 0 13 -6.33301 13 -19c0 12 -7.66699 -58.667 -23 -212c-0.666992 -7.33301 -5 -11 -13 -11c-7.33301 0 -13.666 9.33301 -18.999 28
c-6.66699 24.667 -15 42.334 -25 53.001c-18 18.667 -46.333 28 -85 28h-59c-13.333 0 -26.333 -3.66699 -39 -11c-8.66699 -5.33301 -16.334 -39 -23.001 -101c-5.33301 -48 -8 -83.667 -8 -107c0 -34 9.33301 -57.333 28 -70c8 -5.33301 25.333 -10.333 52 -15
c18.667 -3.33301 28 -11 28 -23c0 -14 -13.333 -21 -40 -21c-36.667 0 -67.667 1.33301 -93 4c-34.667 0 -69.167 -0.666992 -103.5 -2s-57.166 -2 -68.499 -2c-12.667 0 -19 3.33301 -19 10c0 12 6.66699 20.333 20 25c22 8.66699 35 14.334 39 17.001
c14.667 11.333 23.667 30 27 56l52 428c6 49.333 9 77.333 9 84c0 21.333 -8.33301 36.333 -25 45c-5.33301 2.66699 -21 6.33398 -47 11.001c-16.667 3.33301 -25 9.66602 -25 18.999c0 8.66699 7.66699 13 23 13c21.333 0 53.166 -0.666992 95.499 -2s74.166 -2 95.499 -2
c92.667 0 176.667 0.666992 252 2s108 2 98 2c14 0 21 -3.66699 21 -11v-125c0 -17.333 -4.33301 -26 -13 -26c-10.667 0 -18.667 11 -24 33c-6 26.667 -12.333 43 -19 49c-12.667 11.333 -27.667 19 -45 23c-34.667 8.66699 -95.334 13 -182.001 13
c-36.667 0 -58.667 -3.33301 -66 -10c-10 -9.33301 -19 -45.333 -27 -108c-6.66699 -50 -10 -87 -10 -111c0 -30.667 6.33301 -46 19 -46z" />
    <glyph glyph-name="G" unicode="G" horiz-adv-x="722" 
d="M630 236l-22.999 -176.004c-22 -168.667 -85.667 -253 -191 -253c-66.667 0 -100 24 -100 72c0 33.333 15.333 49 46 47c10.667 0.666992 19.334 -11.666 26.001 -36.999s19 -37.666 37 -36.999c20.667 0.666992 33.667 12.334 39 35.001c2 8.66699 7.66699 55 17 139
c-49.333 -24.667 -101.666 -37 -156.999 -37c-75.333 0 -138 20.333 -188 61c-70.667 56 -106 146.333 -106 271c0 125.333 40.667 225 122 299c68 62 143.333 93 226 93c51.333 0 103.5 -9.66699 156.5 -29s78.5 -29 76.5 -29c6.66699 0 12.667 3.83301 18 11.5
s11.666 11.5 18.999 11.5c12 0 18 -5.66699 18 -17v-202c0 -12 -5.33301 -18 -16 -18c-10 0 -17.667 5 -23 15c-0.666992 0.666992 -8.33398 18.334 -23.001 53.001c-12.667 30.667 -31.667 59.667 -57 87c-45.333 49.333 -97.333 74 -156 74
c-82.667 0 -143.334 -41.667 -182.001 -125c-28 -62 -42 -139.667 -42 -233c0 -100.667 23.333 -175 70 -223c33.333 -34.667 72.666 -52 117.999 -52c60.667 0 103.334 19.667 128.001 59c18 28.667 27 70.667 27 126c0 32.667 -9 55.334 -27 68.001
c-8.66699 6 -25 11.333 -49 16c-18 3.33301 -27 9.66602 -27 18.999c0 8.66699 3.33301 14 10 16c2.66699 0.666992 10.667 1 24 1c2.66699 0 18.334 -0.666992 47.001 -2s57.667 -2 87 -2c20 0 41.167 0.666992 63.5 2s39.166 2 50.499 2c14 0 21 -6 21 -18
s-6 -19.667 -18 -23c-20.667 -6 -32.667 -10 -36 -12c-14 -9.33301 -22.667 -27 -26 -53z" />
    <glyph glyph-name="H" unicode="H" horiz-adv-x="778" 
d="M520 94l16.998 171.001c2.66699 26.667 4 43.334 4 50.001c0 14 -9 21 -27 21h-246c-18.667 0 -29.667 -3 -33 -9s-6.66602 -26.333 -9.99902 -61l-7 -75c-6.66699 -71.333 -10 -102 -10 -92c0 -23.333 8.33301 -40 25 -50c5.33301 -3.33301 21 -9 47 -17
c16.667 -4.66699 25 -12 25 -22c0 -9.33301 -13.333 -14 -40 -14c-7.33301 0 -23.5 0.666992 -48.5 2s-46.833 2 -65.5 2c-15.333 0 -35.166 -0.666992 -59.499 -2s-41.5 -2 -51.5 -2c-24.667 0 -37 6 -37 18c0 7.33301 6 13.666 18 18.999
c19.333 8.66699 31.333 14.667 36 18c13.333 10 21 24.333 23 43l54 447c3.33301 27.333 5 44.333 5 51c0 28 -7.33301 47.667 -22 59c-5.33301 4 -19.333 9.33301 -42 16c-14.667 4.66699 -22 12.667 -22 24c0 8.66699 9 13 27 13c3.33301 0 19.666 -0.666992 48.999 -2
s60.333 -2 93 -2c11.333 0 27.666 0.666992 48.999 2s36.333 2 45 2c16 0 24 -5 24 -15c0 -8.66699 -6 -15.667 -18 -21c-19.333 -8 -30.666 -13.333 -33.999 -16c-12.667 -10 -20.334 -24.667 -23.001 -44l-23 -179c-3.33301 -27.333 1.66699 -41 15 -41h238h36
c11.333 2 17.333 6.33301 18 13l15 140c1.33301 12.667 2 34.667 2 66c0 22 -7.33301 37.333 -22 46c-3.33301 2 -16.333 6.33301 -39 13c-14.667 4 -22 11.333 -22 22s5.66699 16 17 16c-1.33301 0 10.167 -0.666992 34.5 -2s55.166 -2 92.499 -2
c22 0 45.667 0.666992 71 2s41.333 2 48 2c16 0 24 -5 24 -15c0 -8.66699 -6 -15.667 -18 -21c-19.333 -8 -30.666 -13.333 -33.999 -16c-13.333 -10 -21 -24.667 -23 -44l-42 -417c-3.33301 -33.333 -5 -64 -5 -92c0 -23.333 8.33301 -40 25 -50
c5.33301 -3.33301 21 -9 47 -17c16.667 -4.66699 25 -12 25 -22c0 -9.33301 -15 -14 -45 -14c-7.33301 0 -23.5 0.666992 -48.5 2s-46.833 2 -65.5 2c-15.333 0 -35.166 -0.666992 -59.499 -2s-41.5 -2 -51.5 -2c-21.333 0 -32 6 -32 18c0 7.33301 6.33301 13.666 19 18.999
c18.667 8.66699 30.334 14.667 35.001 18c13.333 10 21 24.333 23 43z" />
    <glyph glyph-name="I" unicode="I" horiz-adv-x="389" 
d="M286 608l-46.999 -418c-3.33301 -29.333 -5 -59.666 -5 -90.999c0 -23.333 8.33301 -40 25 -50c5.33301 -3.33301 21 -9 47 -17c16.667 -4.66699 25 -12 25 -22c0 -9.33301 -13.333 -14 -40 -14c-7.33301 0 -23.5 0.666992 -48.5 2s-46.833 2 -65.5 2
c-15.333 0 -35.166 -0.666992 -59.499 -2s-41.5 -2 -51.5 -2c-24.667 0 -37 6 -37 18c0 7.33301 5.66699 13.666 17 18.999c18 8.66699 29 14.667 33 18c12.667 10 20 24.333 22 43l54 447c3.33301 27.333 5 44.333 5 51c0 28 -7.33301 47.667 -22 59
c-5.33301 4 -19.333 9.33301 -42 16c-14.667 4.66699 -22 12.667 -22 24c0 8.66699 10.667 13 32 13c3.33301 0 19.666 -0.666992 48.999 -2s60.333 -2 93 -2c11.333 0 27.666 0.666992 48.999 2s36.333 2 45 2c16 0 24 -5 24 -15c0 -8.66699 -6.33301 -15.667 -19 -21
c-20.667 -8 -33 -13.333 -37 -16c-14 -10 -22 -24.667 -24 -44z" />
    <glyph glyph-name="J" unicode="J" horiz-adv-x="444" 
d="M354 589l-37.0039 -375c-6.66699 -67.333 -28.667 -127 -66 -179c-42.667 -60 -94 -90 -154 -90c-35.333 0 -63.333 8 -84 24c-17.333 13.333 -26 28.333 -26 45c0 27.333 5.66699 49.666 17 66.999c10 15.333 22.333 23 37 23c17.333 0 33.333 -17.333 48 -52
s30.334 -52 47.001 -52c26.667 0 43.334 38 50.001 114l34 374c5.33301 58.667 8 95.334 8 110.001c0 28.667 -7.66699 48.334 -23 59.001c-7.33301 5.33301 -21.666 9.66602 -42.999 12.999c-15.333 2.66699 -23 8.66699 -23 18c0 10.667 5 16 15 16
c7.33301 0 30 -0.666992 68 -2s59.333 -2 64 -2s21 0.666992 49 2s54.667 2 80 2c13.333 0 20 -4.66699 20 -14c0 -7.33301 -6.33301 -13.333 -19 -18c-17.333 -6 -29.666 -12.667 -36.999 -20c-14 -13.333 -22.333 -34.333 -25 -63z" />
    <glyph glyph-name="K" unicode="K" horiz-adv-x="722" 
d="M517 -4l-200.001 307c-16 24.667 -25.667 37 -29 37c-7.33301 0 -19 -7.66699 -35 -23c-14 -12 -24 -22.667 -30 -32c-4 -6 -8 -30.667 -12 -74c-3.33301 -37.333 -5 -64.333 -5 -81c0 -38.667 8.66699 -65.667 26 -81c9.33301 -7.33301 26 -13.333 50 -18
c17.333 -2.66699 26 -9 26 -19c0 -10.667 -5.66699 -16 -17 -16c2 0 -11.833 0.666992 -41.5 2s-65.5 2 -107.5 2c-12 -0 -32 -0.666992 -60 -2s-47.667 -2 -59 -2c-10.667 0 -16.667 0.333008 -18 1c-6 1.33301 -9 6 -9 14c0 11.333 6.66699 18.333 20 21
c19.333 4 32.666 9.33301 39.999 16c15.333 13.333 25 38.333 29 75l45 410c3.33301 30.667 5 51.667 5 63c0 27.333 -8 46.666 -24 57.999c-7.33301 5.33301 -22 10.333 -44 15c-16 4 -24 10.333 -24 19c0 10.667 14.667 16 44 16c17.333 0 40 -0.666992 68 -2
c36.667 -1.33301 59.334 -2 68.001 -2c15.333 -0.666992 31.833 -0.166992 49.5 1.5s29.167 2.5 34.5 2.5c22.667 0 34 -3.66699 34 -11c0 -8.66699 -6.33301 -15.667 -19 -21c-18.667 -8.66699 -31.334 -16 -38.001 -22c-14 -13.333 -22.667 -33.333 -26 -60l-27 -231
l218 183c54 48.667 81 84.334 81 107.001c0 9.33301 -11.167 16.5 -33.5 21.5s-33.5 12.167 -33.5 21.5c0 8 5 12 15 12c1.33301 0 21.333 -0.666992 60 -2s65.334 -2 80.001 -2c10.667 0 26.667 0.666992 48 2s37.333 2 48 2c19.333 0 29 -3.66699 29 -11
c0 -8.66699 -7.66699 -15.667 -23 -21c-32 -12 -55 -22 -69 -30c-38 -20 -77.667 -48.667 -119 -86l-147 -134l165 -261c28.667 -45.333 60.334 -78.333 95.001 -99c17.333 -10.667 41.333 -20 72 -28c19.333 -4.66699 29 -12 29 -22c0 -10.667 -5.33301 -16 -16 -16
c0.666992 0 -10.5 0.666992 -33.5 2s-48.833 2 -77.5 2c-20.667 -0 -42 -0.666992 -64 -2s-34.667 -2 -38 -2z" />
    <glyph glyph-name="L" unicode="L" horiz-adv-x="611" 
d="M84 123l45.001 373.002c7.33301 60.667 11 94.667 11 102c0 25.333 -8 43 -24 53c-5.33301 3.33301 -20 8 -44 14c-16 4 -24 11 -24 21c0 12 10.333 18 31 18c18 0 42 -0.666992 72 -2s51.667 -2 65 -2c10.667 0 26.334 0.666992 47.001 2s36 2 46 2
c23.333 0 35 -5.66699 35 -17c0 -8 -6.33301 -14.667 -19 -20c-17.333 -6.66699 -29.333 -13.334 -36 -20.001c-14.667 -14 -23.334 -36 -26.001 -66l-39 -393c-4 -40 -6 -64 -6 -72c0 -43.333 28.333 -65 85 -65c63.333 0 117 12.333 161 37
c28 15.333 54.333 37.666 79 66.999c20 24.667 33.333 37 40 37c8.66699 0 13 -8.66699 13 -26c0 -39.333 -11 -75.333 -33 -108c-20 -30 -41 -48.667 -63 -56c-12.667 -4 -41.334 -6 -86.001 -6c-25.333 0 -69.5 0.666992 -132.5 2s-105.5 2 -127.5 2
c-26 -0 -52 -0.666992 -78 -2s-42.333 -2 -49 -2c-18.667 0 -28 8 -28 24c0 8.66699 6.33301 14.667 19 18c18 6 30.667 12.333 38 19c14.667 13.333 24 35.333 28 66z" />
    <glyph glyph-name="M" unicode="M" horiz-adv-x="944" 
d="M265 671l206.001 -494.001l260 500l10 19c4 5.33301 9.66699 8 17 8c9.33301 0 23 -0.666992 41 -2s31.333 -2 40 -2c7.33301 0 18.333 0.666992 33 2s25.667 2 33 2c18.667 0 28 -5 28 -15c0 -11.333 -9.33301 -19 -28 -23c-25.333 -4.66699 -43 -11.667 -53 -21
c-18.667 -18 -28 -49.667 -28 -95v-424c0 -33.333 9 -57.333 27 -72c8.66699 -6.66699 25.334 -13 50.001 -19c18 -4.66699 27 -12 27 -22c0 -11.333 -9.33301 -17 -28 -17c-14 0 -36 0.666992 -66 2s-52.333 2 -67 2c-22 0 -46 -0.666992 -72 -2s-41 -2 -45 -2
c-21.333 0 -32 7 -32 21c0 9.33301 7 16.333 21 21c19.333 6.66699 32.666 14 39.999 22c14 15.333 21 40.333 21 75v334c0 24 -1.33301 36 -4 36s-12 -15.667 -28 -47l-220 -438c-8 -16 -15.333 -24 -22 -24c-10.667 0 -21 13.333 -31 40l-3 7l-169 424
c-4.66699 11.333 -8 17 -10 17c-4 0 -7 -6 -9 -18l-39 -206c-10 -52.667 -15 -98.667 -15 -138c0 -31.333 8.66699 -54 26 -68c7.33301 -6.66699 23 -14 47 -22c17.333 -5.33301 26 -13.333 26 -24c0 -8 -4.33301 -12 -13 -12c-6.66699 0 -24.5 0.666992 -53.5 2
s-49.167 2 -60.5 2c-19.333 0 -40.666 -0.666992 -63.999 -2s-37.333 -2 -42 -2c-12 0 -18 6 -18 18c0 10.667 7 18.667 21 24c20 7.33301 35 16.666 45 27.999c18 20.667 31 55 39 103l50 304c5.33301 31.333 7.66602 55.333 6.99902 72
c-1.33301 42.667 -13.333 74.334 -36 95.001c-12.667 10.667 -33.667 20.334 -63 29.001c-22 6 -33 13.667 -33 23c0 8 5.33301 12 16 12c2 0 13.833 -0.666992 35.5 -2s41.834 -2 60.501 -2c8.66699 0 23.667 0.666992 45 2s35.666 2 42.999 2
c15.333 0 27.666 -11 36.999 -33z" />
    <glyph glyph-name="N" unicode="N" horiz-adv-x="778" 
d="M100 146l44.001 335c2.66699 20 4 36 4 48c0 43.333 -12.333 75.666 -37 96.999c-12.667 11.333 -35.667 22 -69 32c-24.667 8 -37 17.667 -37 29s7 17 21 17c0.666992 0 9.66699 -0.666992 27 -2s38 -2 62 -2c19.333 0 37.333 0.666992 54 2s25.667 2 27 2
c19.333 0 33.333 -5.66699 42 -17l321 -424c30 -39.333 46.333 -59 49 -59c4.66699 0 9.66699 22 15 66l21 178c2.66699 24.667 4 57.334 4 98.001c0 40 -11.333 69.333 -34 88c-12 10 -33 19 -63 27c-22.667 5.33301 -34 12.666 -34 21.999c0 14 7 21 21 21
c4 0 21.5 -0.666992 52.5 -2s54.167 -2 69.5 -2c22 0 45.167 0.666992 69.5 2s38.833 2 43.5 2c14 0 21 -6 21 -18c0 -9.33301 -6.33301 -17 -19 -23c-18.667 -8.66699 -31.334 -16 -38.001 -22c-14.667 -14 -23.667 -35.333 -27 -64l-69 -573
c-0.666992 -6 -1.33398 -11.5 -2.00098 -16.5s-3 -7.5 -7 -7.5c-5.33301 0 -10 2 -14 6l-369 494c-30 40 -46.333 60 -49 60c-3.33301 0 -5.66602 -7 -6.99902 -21l-28 -307c-2.66699 -29.333 -4 -58.666 -4 -87.999c0 -32 11 -55.333 33 -70
c11.333 -7.33301 32 -14.333 62 -21c22 -5.33301 33 -12.333 33 -21c0 -10.667 -3.33301 -16 -10 -16c-3.33301 0 -19.833 0.666992 -49.5 2s-48.834 2 -57.501 2c-11.333 -0 -38.166 -0.666992 -80.499 -2s-65.5 -2 -69.5 -2c-10.667 0 -16 3.33301 -16 10
c0 10 6.66699 18 20 24c19.333 8.66699 33.333 17.667 42 27c16 19.333 26.667 49 32 89z" />
    <glyph glyph-name="O" unicode="O" horiz-adv-x="778" 
d="M409 713c91.333 0 168.668 -27.998 232.001 -83.998c72.667 -64 109 -151.333 109 -262c0 -102.667 -30 -188.334 -90 -257.001c-70.667 -80.667 -171.334 -121 -302.001 -121c-94 0 -171.667 27.667 -233 83c-66.667 59.333 -100 139 -100 239
c0 111.333 36 206.166 108 284.499s164 117.5 276 117.5zM613.002 375.002c0 112 -28.333 194.333 -85 247c-38 35.333 -79.667 53 -125 53c-70 0 -127 -32.333 -171 -97c-45.333 -66.667 -68 -155.667 -68 -267c0 -89.333 20.667 -159.333 62 -210
c37.333 -46.667 85 -70 143 -70c84 0 147.667 36.667 191 110c35.333 61.333 53 139.333 53 234z" />
    <glyph glyph-name="P" unicode="P" horiz-adv-x="667" 
d="M261 525l-33 -303.999c-6 -55.333 -9 -89 -9 -101c0 -34 9 -57.333 27 -70c8 -6 24.667 -11 50 -15c18 -3.33301 27 -10.333 27 -21c0 -12 -10.333 -18 -31 -18c-8.66699 0 -28.167 0.666992 -58.5 2s-55.166 2 -74.499 2c-10 0 -31.667 -0.666992 -65 -2
s-56.333 -2 -69 -2c-10.667 0 -16 5.33301 -16 16c0 10 6.33301 16.667 19 20c18 4 30.667 10 38 18c14.667 15.333 24.334 42.666 29.001 81.999l44 393c3.33301 30 5 51 5 63c0 31.333 -8 53 -24 65c-8.66699 6 -24 10.333 -46 13c-16 2 -24 7.33301 -24 16
c0 14.667 15.333 22 46 22c7.33301 0 25.666 -0.666992 54.999 -2s58.333 -2 87 -2c18.667 0 41.667 0.666992 69 2s48 2 62 2c104.667 0 179 -24 223 -72c28.667 -31.333 43 -71 43 -119c0 -69.333 -27.667 -122.333 -83 -159c-46 -30 -104 -45 -174 -45
c-62.667 0 -94 11 -94 33c0 8.66699 5 13 15 13c8 0 17.167 -1 27.5 -3s18.833 -3 25.5 -3c100 0 150 48.333 150 145c0 48.667 -13.833 89.334 -41.5 122.001s-64.167 49 -109.5 49c-26.667 0 -47.334 -7.33301 -62.001 -22c-9.33301 -9.33301 -16.333 -27 -21 -53
c0 -2.66699 -2.33301 -24.334 -7 -65.001z" />
    <glyph glyph-name="Q" unicode="Q" horiz-adv-x="778" 
d="M613 375c0 112 -28.333 194.333 -85 247c-38 35.333 -79.667 53 -125 53c-70 0 -127 -32.333 -171 -97c-45.333 -66.667 -68 -155.667 -68 -267c0 -89.333 20.667 -160.333 62 -213c38 -48.667 85.667 -73 143 -73c84 0 147.667 37.667 191 113
c35.333 62.667 53 141.667 53 237zM409 713c91.333 0 168.667 -27.9961 232 -83.9961c72.667 -64 109 -151.333 109 -262c0 -122.667 -40.333 -219.667 -121 -291c-44.667 -39.333 -95.667 -67 -153 -83c-2.66699 -0.666992 -4.66699 -2.33398 -6 -5.00098
s-0.666016 -4.33398 2.00098 -5.00098l81 -41c52 -25.333 91.667 -38 119 -38c19.333 0 37.166 8.33301 53.499 25s26.833 25 31.5 25c8 0 12 -5.66699 12 -17c0 -24 -16 -50.333 -48 -79c-35.333 -32 -74 -48 -116 -48c-38 0 -84.333 15 -139 45l-135 82
c-50 30 -89 45 -117 45c-48.667 0 -73 -20 -73 -60c0 -20 5.33301 -36 16 -48s16 -20 16 -24c0 -10 -5.66699 -15 -17 -15c-14 0 -28.333 8.33301 -43 25c-17.333 20.667 -26 46.334 -26 77.001c0 27.333 8.16699 50.666 24.5 69.999s34.5 29.333 54.5 30v2
c-26 5.33301 -53.667 29.666 -83 72.999c-38.667 56 -58 122.333 -58 199c0 111.333 36 206.166 108 284.499s164 117.5 276 117.5z" />
    <glyph glyph-name="R" unicode="R" horiz-adv-x="722" 
d="M273 579l-19 -151c-2 -16 -3 -26.333 -3 -31c0 -14 10 -23.333 30 -28c12 -2.66699 33.333 -4 64 -4c100 0 150 43.333 150 130c0 43.333 -15 82.5 -45 117.5s-66.333 52.5 -109 52.5c-25.333 0 -43 -8.66699 -53 -26c-6 -10.667 -11 -30.667 -15 -60zM92 110
l52.9951 418.001c2.66699 21.333 4 42.666 4 63.999c0 28.667 -8.33301 49 -25 61c-7.33301 5.33301 -22.333 10 -45 14c-16.667 3.33301 -25 9.33301 -25 18c0 12.667 14.333 19 43 19c18.667 0 46.334 -0.666992 83.001 -2s64 -2 82 -2c11.333 0 28.333 0.666992 51 2
s39.667 2 51 2c170 0 255 -64.333 255 -193c0 -56.667 -24 -102.334 -72 -137.001c-19.333 -13.333 -48.666 -27 -87.999 -41l108 -223c12.667 -26.667 29 -44 49 -52c6.66699 -2.66699 21 -5 43 -7c12.667 -1.33301 19 -7.33301 19 -18c0 -15.333 -13 -27 -39 -35
c-18 -6 -37 -9 -57 -9c-25.333 0 -44.666 3 -57.999 9c-10.667 4.66699 -26 16 -46 34c-25.333 22.667 -69.666 110 -132.999 262c-6.66699 15.333 -16.667 25.333 -30 30c-8.66699 3.33301 -23 5 -43 5c-14 0 -23.167 -3.66699 -27.5 -11s-9.5 -40 -15.5 -98
c-5.33301 -52.667 -8 -85.667 -8 -99c0 -30.667 9 -52 27 -64c7.33301 -5.33301 24 -10.666 50 -15.999c18 -4 27 -11.333 27 -22c0 -15.333 -11 -23 -33 -23c-14.667 0 -36.667 0.666992 -66 2s-51.666 2 -66.999 2c-14 -0 -34.833 -0.666992 -62.5 -2s-48.5 -2 -62.5 -2
c-15.333 0 -23 5.66699 -23 17c0 10.667 6 18 18 22c18.667 6 30.667 11 36 15c14.667 12 23.667 32 27 60z" />
    <glyph glyph-name="S" unicode="S" horiz-adv-x="500" 
d="M459 664l-0.00488281 -79.998c0 -11.333 0.5 -21.5 1.5 -30.5s1.5 -18.5 1.5 -28.5c0 -10.667 -4.66699 -16 -14 -16c-10 0 -18.333 9.66699 -25 29c-10 28.667 -20.333 50.334 -31 65.001c-33.333 46 -76 69 -128 69c-61.333 0 -92 -29.667 -92 -89
c0 -22.667 13 -48.334 39 -77.001l187 -194c32.667 -34.667 49 -80.334 49 -137.001c0 -64 -26 -112.333 -78 -145c-44 -27.333 -99.667 -41 -167 -41c-35.333 0 -72.333 3.66699 -111 11c-44 8.66699 -67 18 -69 28c-14.667 69.333 -22 117.333 -22 144
c0 16 6.66699 24 20 24c2.66699 0 12 -14 28 -42c18.667 -34 38.334 -60 59.001 -78c31.333 -28 67.333 -42 108 -42c34.667 0 63.167 8.16699 85.5 24.5s33.5 41.166 33.5 74.499c0 24.667 -13 53 -39 85c-20 26 -73.667 83.333 -161 172
c-44.667 45.333 -67 97.333 -67 156c0 52.667 18 94 54 124c33.333 28.667 77 43 131 43c26.667 0 57.334 -6 92.001 -18s55.334 -18 62.001 -18c2.66699 0 8.33398 2 17.001 6s14.334 6 17.001 6c12.667 0 19 -8.33301 19 -25z" />
    <glyph glyph-name="T" unicode="T" horiz-adv-x="722" 
d="M258 103l62.999 493c1.33301 10.667 2 19.667 2 27c0 15.333 -7.66699 24.666 -23 27.999c-4 0.666992 -19.667 1 -47 1c-42.667 0 -75 -3.33301 -97 -10c-31.333 -9.33301 -52 -27 -62 -53l-26 -69c-5.33301 -10.667 -12.666 -16 -21.999 -16s-14 4.33301 -14 13
c0 14 11.333 69 34 165c3.33301 14.667 8.66602 22 15.999 22c32.667 0 81.667 -0.666992 147 -2s114.333 -2 147 -2s81.5 0.666992 146.5 2s113.833 2 146.5 2c20.667 0 31 -3.66699 31 -11v-139c0 -12 -5 -18 -15 -18c-8 0 -15.333 10 -22 30
c-11.333 32 -18.666 51 -21.999 57c-11.333 20 -25.666 30 -42.999 30h-74c-34.667 0 -57 -4.33301 -67 -13c-6.66699 -5.33301 -11 -18.666 -13 -39.999l-49 -453c-0.666992 -6 -1 -18 -1 -36c0 -32.667 8.66699 -54.667 26 -66c8 -6 23.667 -10.333 47 -13
c17.333 -2 26 -7.66699 26 -17c0 -12.667 -10 -19 -30 -19c-18.667 0 -41.334 0.666992 -68.001 2s-47 2 -61 2c-12.667 -0 -32 -0.666992 -58 -2s-45.667 -2 -59 -2c-28.667 0 -43 7 -43 21c0 6.66699 6.33301 11.334 19 14.001c18 4 30.667 8.66699 38 14
c14.667 11.333 23.667 30.666 27 57.999z" />
    <glyph glyph-name="U" unicode="U" horiz-adv-x="778" 
d="M252 589l-32.0029 -225.997c-8 -56.667 -12 -109 -12 -157c0 -112.667 58 -169 174 -169c54 0 102.333 16.333 145 49c58 45.333 93.333 114.666 106 207.999l29 212c4 29.333 6 55.333 6 78c0 28 -10 48 -30 60c-8 4.66699 -26.667 10.667 -56 18
c-20 4.66699 -30 12.334 -30 23.001c0 12.667 8 19 24 19c3.33301 0 15.833 -0.666992 37.5 -2s44.167 -2 67.5 -2c21.333 0 42.333 0.666992 63 2s32.334 2 35.001 2c15.333 0 23 -6.33301 23 -19c0 -8 -6 -14.333 -18 -19c-17.333 -6 -29.666 -12.667 -36.999 -20
c-15.333 -14.667 -25.333 -37.334 -30 -68.001l-52 -330c-27.333 -172.667 -138.666 -259 -333.999 -259c-74 0 -133.667 17.667 -179 53c-49.333 38.667 -74 93 -74 163c0 40.667 7.83301 113.167 23.5 217.5s23.5 160.166 23.5 167.499
c0 29.333 -8.33301 49.666 -25 60.999c-7.33301 6 -22.333 11 -45 15c-16.667 2.66699 -25 8.66699 -25 18c0 13.333 8.66699 20 26 20c11.333 0 31.5 -0.666992 60.5 -2s51.5 -2 67.5 -2c8 0 30.5 0.666992 67.5 2s57.167 2 60.5 2c11.333 0 17 -4.66699 17 -14
c0 -10 -5.33301 -16.333 -16 -19c-16.667 -4 -28 -9 -34 -15c-13.333 -12 -22.333 -34.333 -27 -67z" />
    <glyph glyph-name="V" unicode="V" horiz-adv-x="667" 
d="M255 5l-185.003 596c-6.66699 21.333 -17.334 37 -32.001 47c-4 2.66699 -16 8.33398 -36 17.001c-11.333 4.66699 -17 11.334 -17 20.001c0 12.667 8 19 24 19l41 -2c27.333 -1.33301 57.333 -2 90 -2c20.667 0 45.334 0.666992 74.001 2s46 2 52 2
c15.333 0 23 -6.33301 23 -19c0 -6.66699 -14 -13.834 -42 -21.501s-42 -21.5 -42 -41.5c0 -8 6.66699 -36.333 20 -85l91 -331c6 -22.667 12.667 -34 20 -34c6 0 15 11.667 27 35l156 308c24.667 48.667 37 80.667 37 96c0 21.333 -7.66699 36.666 -23 45.999
c-6 2.66699 -20.667 7 -44 13c-15.333 4 -23 10.333 -23 19c0 10 6.66699 15 20 15c2.66699 0 14.334 -0.666992 35.001 -2s43 -2 67 -2c23.333 0 45.333 0.666992 66 2s33.334 2 38.001 2c11.333 0 17 -4.66699 17 -14c0 -6 -4.66699 -11 -14 -15
c-14.667 -6.66699 -26.667 -13.667 -36 -21c-17.333 -15.333 -34 -38 -50 -68l-307 -584c-8 -14.667 -16.333 -22 -25 -22c-9.33301 0 -16.666 8.33301 -21.999 25z" />
    <glyph glyph-name="W" unicode="W" horiz-adv-x="944" 
d="M912 619l-292 -609c-9.33301 -20 -18 -30 -26 -30c-10 0 -18 12 -24 36l-90 351c-4 14.667 -9 22 -15 22c-5.33301 0 -12 -9.33301 -20 -28l-153 -345c-10.667 -24 -19 -36 -25 -36c-7.33301 0 -16.666 19.667 -27.999 59l-165 571c-6.66699 22 -17 37.667 -31 47
c-4 2.66699 -15 7.33398 -33 14.001c-10.667 3.33301 -16 9.33301 -16 18c0 10 7.33301 15 22 15c5.33301 0 21.666 -0.666992 48.999 -2s50 -2 68 -2c16 0 37.333 0.666992 64 2s47.334 2 62.001 2c10 0 15 -6 15 -18c0 -6.66699 -12.667 -14.334 -38 -23.001
s-38 -21.667 -38 -39c0 -8.66699 1.66699 -19 5 -31l102 -367c4 -14 7.33301 -21 10 -21c4.66699 0 8 2.33301 10 7l111 228c10.667 22 16 35.333 16 40c0 10.667 -10.333 51.334 -31 122.001c-6.66699 22.667 -18.667 39.667 -36 51c-6.66699 4 -20.667 10 -42 18
c-14 5.33301 -21 11.666 -21 18.999c0 9.33301 9 14 27 14c8 0 26.5 -0.666992 55.5 -2s53.833 -2 74.5 -2c22.667 0 46.667 0.666992 72 2s40.333 2 45 2c10.667 0 16 -4.66699 16 -14c0 -8.66699 -11.667 -16.334 -35 -23.001s-35 -20.334 -35 -41.001
c0 -7.33301 5 -31.666 15 -72.999l81 -336c3.33301 -13.333 8.33301 -20 15 -20c3.33301 0 8 6.33301 14 19l152 327c16.667 36 25 63.667 25 83c0 18.667 -13.833 31.667 -41.5 39s-41.5 14 -41.5 20c0 12.667 4.66699 19 14 19c13.333 0 34.666 -0.666992 63.999 -2
s52 -2 68 -2c7.33301 0 19 0.666992 35 2s29 2 39 2c14 0 21 -4 21 -12c0 -9.33301 -5.33301 -15.666 -16 -18.999c-23.333 -8 -35.333 -12.333 -36 -13c-16 -8 -28.667 -21.667 -38 -41z" />
    <glyph glyph-name="X" unicode="X" horiz-adv-x="722" 
d="M319 346c0 9.33301 -30.3301 84.668 -90.9971 226.001c-18 42.667 -42.333 64 -73 64c-46.667 0 -70 -20.667 -70 -62c0 -6 0.666992 -12.333 2 -19c0 -8.66699 4.66699 -18.667 14 -30s14 -20 14 -26c0 -15.333 -8.66699 -23 -26 -23c-8.66699 0 -18.667 7.66699 -30 23
c-14 18.667 -21 40.334 -21 65.001c0 44 15.167 79.833 45.5 107.5s69.833 41.5 118.5 41.5c68.667 0 112.667 -23.667 132 -71c54 -131.333 83.333 -197 88 -197c4 0 41.333 43 112 129c18 22 27 39 27 51c0 18 -13 31 -39 39s-39 15.667 -39 23c0 11.333 6.66699 17 20 17
c-0.666992 0 12.166 -0.666992 38.499 -2s55.833 -2 88.5 -2c20.667 0 41 0.666992 61 2s31.667 2 35 2c14.667 0 22 -6 22 -18c0 -8.66699 -6 -15.334 -18 -20.001c-26.667 -12 -43 -19.667 -49 -23c-26 -14.667 -51.333 -36.334 -76 -65.001l-135 -152
c-20 -22.667 -30 -35.667 -30 -39s32.667 -91.333 98 -264c21.333 -56.667 50 -85 86 -85c14.667 0 30.167 4.33301 46.5 13s26.166 13 29.499 13c10 0 15 -4.33301 15 -13c0 -14.667 -11.667 -28.334 -35 -41.001c-26.667 -14 -61.334 -21 -104.001 -21
c-43.333 0 -76.333 8 -99 24s-41.667 43 -57 81c-49.333 126 -75.666 189 -78.999 189c-2.66699 0 -36.667 -36.667 -102 -110c-27.333 -30.667 -41 -59 -41 -85c0 -17.333 8 -30 24 -38c2 -1.33301 17.333 -6.33301 46 -15c16 -5.33301 24 -12.666 24 -21.999
c0 -11.333 -11 -17 -33 -17c-8 0 -27 0.666992 -57 2s-59.333 2 -88 2c-21.333 -0 -42.833 -0.666992 -64.5 -2s-33.834 -2 -36.501 -2c-11.333 0 -17 4.33301 -17 13c0 10 5 17.333 15 22l63 34c24 14.667 70.833 61.667 140.5 141s104.5 126 104.5 140z" />
    <glyph glyph-name="Y" unicode="Y" horiz-adv-x="611" 
d="M223 268c0 34.667 -50.335 142.001 -151.002 322.001c-15.333 27.333 -32.666 48 -51.999 62c-9.33301 6 -23 12 -41 18c-10.667 4 -16 9.33301 -16 16c0 12 8.66699 18 26 18c1.33301 0 20.5 -0.666992 57.5 -2s63.833 -2 80.5 -2c37.333 0 69.333 0.666992 96 2
s39.334 2 38.001 2c16 0 24 -6 24 -18c0 -11.333 -13 -20.666 -39 -27.999s-39 -18.333 -39 -33c0 -15.333 11.333 -47 34 -95l63 -126c10.667 -22.667 18.667 -34 24 -34s11 3.33301 17 10l21 30l81 109c29.333 40.667 44 68.667 44 84c0 20.667 -8.33301 36 -25 46
c-5.33301 3.33301 -21 8.33301 -47 15c-16.667 4.66699 -25 11.667 -25 21c0 12.667 7.33301 19 22 19c10.667 0 29.167 -0.666992 55.5 -2s47.5 -2 63.5 -2c10.667 0 27 0.666992 49 2s38.333 2 49 2c14 0 21 -6 21 -18c0 -8.66699 -4.66699 -15.667 -14 -21l-38 -22
c-20 -15.333 -39.333 -36.333 -58 -63l-159 -224c-22.667 -34 -35.667 -66.333 -39 -97c-10.667 -94.667 -16 -147.334 -16 -158.001c0 -23.333 9 -40 27 -50c6.66699 -3.33301 24 -8.33301 52 -15c18 -4.66699 27 -11.667 27 -21c0 -12.667 -7.66699 -19 -23 -19l-49 2
c-32.667 1.33301 -67.334 2 -104.001 2c-28.667 0 -56.5 -0.666992 -83.5 -2s-43.5 -2 -49.5 -2c-16.667 0 -25 5.66699 -25 17s7.33301 18.666 22 21.999c22.667 4.66699 37.334 9 44.001 13c17.333 11.333 28.333 32.333 33 63c14.667 96 22 148.333 22 157z" />
    <glyph glyph-name="Z" unicode="Z" horiz-adv-x="611" 
d="M547 624l-317.001 -492c-24.667 -38 -37 -60 -37 -66c0 -17.333 25.667 -26 77 -26c68 0 124.333 11.667 169 35c30 16 55.667 38 77 66c18 23.333 28.333 35 31 35c8 0 12 -8 12 -24c0 -28.667 -7.33301 -56.667 -22 -84c-12 -21.333 -25.667 -37.666 -41 -48.999
c-20.667 -15.333 -53.334 -23 -98.001 -23c-20 0 -53 0.666992 -99 2s-82.333 2 -109 2c-19.333 0 -47.666 -0.666992 -84.999 -2s-64.333 -2 -81 -2c-7.33301 0 -11 4.66699 -11 14c0 6 4.33301 15.667 13 29l350 531c15.333 23.333 23 40.666 23 51.999
c0 10 -5.33301 17 -16 21c-18.667 6.66699 -56.334 10 -113.001 10c-42.667 0 -75.334 -6.33301 -98.001 -19c-29.333 -16 -52.666 -46.667 -69.999 -92c-3.33301 -8.66699 -8 -13 -14 -13c-8.66699 0 -13 5 -13 15s3.66699 30.333 11 61c8 36 13 60.667 15 74
c2 16.667 10.333 25 25 25c24.667 0 61.834 -0.666992 111.501 -2s86.834 -2 111.501 -2c23.333 0 58 0.666992 104 2s80.333 2 103 2c15.333 0 23 -7 23 -21c0 -6 -10.667 -25.667 -32 -59z" />
    <glyph glyph-name="bracketleft" unicode="[" horiz-adv-x="389" 
d="M302 -146l-248.998 -0.000976562l95 859h250l-6 -37h-84c-26.667 0 -44.834 -5 -54.501 -15s-15.834 -28.333 -18.501 -55l-59 -539c-8.66699 -79.333 -13 -120.333 -13 -123c0 -21.333 6.33301 -35.666 19 -42.999c8.66699 -4.66699 23 -7 43 -7h81z" />
    <glyph glyph-name="backslash" unicode="\" horiz-adv-x="606" 
d="M75 700h99l372 -700h-99z" />
    <glyph glyph-name="bracketright" unicode="]" horiz-adv-x="389" 
d="M78 713l248.998 0.000976562l-95 -859h-250l6 37h84c26.667 0 44.834 5 54.501 15s15.834 28.333 18.501 55l59 539c8.66699 79.333 13 120.333 13 123c0 21.333 -6.33301 35.666 -19 42.999c-8.66699 4.66699 -23 7 -43 7h-81z" />
    <glyph glyph-name="asciicircum" unicode="^" horiz-adv-x="606" 
d="M160 297h-97l200 403h79l201 -403h-97l-143 279z" />
    <glyph glyph-name="underscore" unicode="_" horiz-adv-x="500" 
d="M500 -138h-500v51h500v-51z" />
    <glyph glyph-name="grave" unicode="`" horiz-adv-x="333" 
d="M266 510h-32l-122 91c-22 17.333 -33 34 -33 50c0 22 12.667 33 38 33c14.667 0 31.667 -12.333 51 -37z" />
    <glyph glyph-name="a" unicode="a" horiz-adv-x="500" 
d="M266 400c-46.667 0 -84.333 -30.001 -113 -90.001c-22.667 -48 -34 -98.333 -34 -151c0 -25.333 4.33301 -46.666 13 -63.999c12 -22.667 29.333 -34 52 -34c30.667 0 54.667 11.667 72 35c12 16.667 22.333 42.334 31 77.001c24.667 97.333 37 157.666 37 180.999
c0 30.667 -19.333 46 -58 46zM6.00098 127.999c0 76 23.3301 143.667 69.9971 203c50.667 65.333 113.334 98 188.001 98c20.667 0 41.167 -4.5 61.5 -13.5l30.5 -13.5c15.333 0 30.833 11.333 46.5 34s26.834 34 33.501 34c8.66699 0 13 -5 13 -15
c0 -0.666992 -9.16699 -52.834 -27.5 -156.501s-27.5 -164.5 -27.5 -182.5c0 -31.333 9.66699 -47 29 -47c11.333 0 22.333 8.5 33 25.5s19.334 25.5 26.001 25.5c8 0 12 -3 12 -9c0 -23.333 -13 -48.666 -39 -75.999c-28.667 -30.667 -59.667 -46 -93 -46
c-24.667 0 -43.334 11.333 -56.001 34c-6 10.667 -12 28.667 -18 54c-57.333 -58.667 -110 -88 -158 -88c-37.333 0 -67.666 14 -90.999 42c-22 26 -33 58.333 -33 97z" />
    <glyph glyph-name="b" unicode="b" horiz-adv-x="500" 
d="M125 110c0 -57.333 23 -85.999 69 -85.999c40.667 0 76.334 24.333 107.001 73c28 45.333 42 93.666 42 144.999c0 26.667 -4.66699 50 -14 70c-12.667 28.667 -32.334 43 -59.001 43c-38.667 0 -72.667 -26.667 -102 -80c-28.667 -50.667 -43 -105.667 -43 -165z
M177 508.001l-23.0039 -196.001l2 -2c24 38 46.333 65.667 67 83c29.333 24 63.333 36 102 36c40.667 0 73.334 -15 98.001 -45c22.667 -27.333 34 -61.666 34 -102.999c0 -88 -33 -160.667 -99 -218c-57.333 -49.333 -119.666 -74 -186.999 -74
c-43.333 0 -77.666 9.33301 -102.999 28c-28 20 -42 49 -42 87c0 57.333 6 130 18 218l31 216c8 67.333 12 101.333 12 102c0 14.667 -5.66699 23.667 -17 27c-3.33301 0.666992 -14.666 1 -33.999 1s-29 5.66699 -29 17c0 10 5.66699 15.667 17 17
c50 5.33301 90.333 11 121 17c22.667 4 34.667 6 36 6c12.667 0 19 -7 19 -21z" />
    <glyph glyph-name="c" unicode="c" horiz-adv-x="444" 
d="M277 429c30.667 0 58.332 -6.33301 82.999 -19c28.667 -14 43 -32 43 -54c0 -37.333 -16 -56 -48 -56c-18 0 -36.333 15.5 -55 46.5s-41.667 46.5 -69 46.5c-35.333 0 -62.666 -22.667 -81.999 -68c-14.667 -34.667 -22 -72.334 -22 -113.001
c0 -108 40.333 -162 121 -162c24 0 44.333 5 61 15c8 4.66699 18.667 13.334 32 26.001c9.33301 10 17.333 15 24 15c8 0 12 -3.33301 12 -10c0 -18.667 -16.333 -40 -49 -64c-39.333 -28.667 -84 -43 -134 -43c-65.333 0 -113 19 -143 57c-22.667 28 -34 63.333 -34 106
c0 73.333 23.667 137 71 191c50.667 57.333 113.667 86 189 86z" />
    <glyph glyph-name="d" unicode="d" horiz-adv-x="500" 
d="M121 169c0 -70.667 22.667 -106 68 -106c24 0 45.333 11.333 64 34c36.667 44.667 55 125.667 55 243c0 37.333 -16.333 56 -49 56c-37.333 0 -70 -24.333 -98 -73c-26.667 -46 -40 -97.333 -40 -154zM319 412l26.998 227.999c0 14.667 -5.66699 23.667 -17 27
c-3.33301 0.666992 -14.666 1 -33.999 1s-29 5.66699 -29 17c0 10 5.66699 15.667 17 17c50 5.33301 90.333 11 121 17c22.667 4 34.667 6 36 6c12.667 0 19 -7 19 -21c0 6.66699 -7.66699 -58.666 -23 -195.999l-40 -358c-2.66699 -24 -4 -36.667 -4 -38
c0 -10 2.66699 -18.833 8 -26.5s11.333 -11.5 18 -11.5c11.333 0 23 9 35 27s21.333 27 28 27c8.66699 0 13 -4.66699 13 -14c0 -15.333 -13 -38.666 -39 -69.999c-30 -36.667 -59.333 -55 -88 -55c-31.333 0 -53.333 13.333 -66 40c-4 17.333 -8.33301 34.666 -13 51.999
c-28 -30.667 -46.667 -49.667 -56 -57c-29.333 -23.333 -62 -35 -98 -35c-41.333 0 -73.666 15 -96.999 45c-20.667 27.333 -31 62 -31 104c0 80 26.667 149.667 80 209c49.333 54.667 103 82 161 82c23.333 0 47.333 -5.66699 72 -17z" />
    <glyph glyph-name="e" unicode="e" horiz-adv-x="444" 
d="M132 227c36.667 -2 71.668 7.66699 105.001 29c37.333 23.333 56 52.333 56 87c0 32 -13.333 48 -40 48c-34.667 0 -64.334 -19 -89.001 -57c-21.333 -34 -32 -69.667 -32 -107zM130.001 194c-6.66699 -96 32.999 -144 118.999 -144c30.667 0 58.5 9.83301 83.5 29.5
s39.833 29.5 44.5 29.5c8 0 12 -4.66699 12 -14c0 -5.33301 -7.33301 -15.666 -22 -30.999c-18.667 -20.667 -41.667 -37.334 -69 -50.001c-36 -16.667 -75.667 -25 -119 -25c-47.333 0 -85.666 13.167 -114.999 39.5s-44 62.5 -44 108.5c0 90.667 29.333 163.667 88 219
c51.333 48.667 110.666 73 177.999 73c26.667 0 50.334 -6.33301 71.001 -19c24.667 -14.667 37 -34.667 37 -60c0 -46.667 -33.333 -85 -100 -115c-49.333 -21.333 -104 -35 -164 -41z" />
    <glyph glyph-name="f" unicode="f" 
d="M189 414h98.001c9.33301 0 15 -1.66699 17 -5s3 -10.333 3 -21c0 -16.667 -6.66699 -25 -20 -25h-104l-45 -373c-14.667 -121.333 -60 -182 -136 -182c-10.667 0 -21.334 5.66699 -32.001 17c-14 14.667 -21 34 -21 58c0 8 4.33301 12.667 13 14
c15.333 2.66699 25 5 29 7c18.667 10 31.667 29.667 39 59c3.33301 12 7.66602 40.667 12.999 86l37 314h-75c-13.333 0 -20 8.33301 -20 25c0 10.667 1 17.667 3 21s7.66699 5 17 5h80c9.33301 87.333 31.333 159.333 66 216c38.667 63.333 87.667 95 147 95
c35.333 0 53 -13.667 53 -41c0 -17.333 -3 -32.333 -9 -45c-7.33301 -15.333 -17.666 -23 -30.999 -23c-10 0 -22.667 7.5 -38 22.5s-29.333 22.5 -42 22.5c-17.333 0 -28 -18.667 -32 -56z" />
    <glyph glyph-name="g" unicode="g" horiz-adv-x="444" 
d="M258 299c0 66 -19 99 -57 99c-46.667 0 -70 -50.667 -70 -152c0 -56.667 19.333 -85 58 -85c46 0 69 46 69 138zM191 429c18 0 44.001 -3.3291 78.001 -9.99609s59.667 -10 77 -10c18.667 0 33.667 3.33301 45 10s19.333 10 24 10c20.667 0 31 -12 31 -36
c0 -10.667 -3.33301 -20.5 -10 -29.5s-15.334 -13.5 -26.001 -13.5c-10 0 -24 5 -42 15s-30.667 15.667 -38 17c21.333 -28.667 32 -62.334 32 -101.001c0 -50 -20 -89.333 -60 -118c-35.333 -25.333 -78.666 -38 -129.999 -38c-11.333 0 -22 1.16699 -32 3.5l-15 3.5
c-10 0 -15 -6.33301 -15 -19c0 -16 23 -28.333 69 -37c67.333 -12.667 110.666 -23.334 129.999 -32.001c46 -20.667 69 -53.334 69 -98.001c0 -52 -24.333 -90 -73 -114c-36.667 -18 -84.334 -27 -143.001 -27c-49.333 0 -91.333 7.33301 -126 22c-48.667 20 -73 51 -73 93
c0 25.333 8 46 24 62c10.667 11.333 25.334 20.666 44.001 27.999c16 6.66699 24 10.667 24 12c0 2 -2 8 -6 18s-6 17.333 -6 22c0 26 6.83301 46.5 20.5 61.5s20.5 23.167 20.5 24.5c0 2.66699 -5 8.66699 -15 18c-12 11.333 -21 23 -27 35c-10 19.333 -15 43 -15 71
c0 47.333 15.5 85.333 46.5 114s70.167 43 117.5 43zM177.001 -162.996c70 0 104.999 21.333 104.999 64c0 22 -19 39.333 -57 52c-80.667 27.333 -127.667 41 -141 41s-24.166 -6.33301 -32.499 -19s-12.5 -26 -12.5 -40c0 -32 16 -57 48 -75c26 -15.333 56 -23 90 -23z
" />
    <glyph glyph-name="h" unicode="h" horiz-adv-x="556" 
d="M205 508l-24.001 -177.001l2 -2c30 33.333 53 56 69 68c28 21.333 57.667 32 89 32c32 0 57.5 -9.83301 76.5 -29.5s28.5 -45.5 28.5 -77.5c0 -10 -2.33301 -44.667 -7 -104s-7 -91.333 -7 -96c0 -29.333 8.66699 -44 26 -44c12 0 23.667 8.16699 35 24.5
s18.666 24.5 21.999 24.5c13.333 0 20 -5.66699 20 -17c0 -17.333 -14 -39.666 -42 -66.999c-32 -31.333 -65 -47 -99 -47c-47.333 0 -71 31 -71 93c0 4.66699 2.83301 35 8.5 91s8.5 92.333 8.5 109c0 44.667 -16 67 -48 67c-29.333 0 -55.666 -14.333 -78.999 -43
c-24.667 -30.667 -40.667 -72.667 -48 -126l-22 -162c-2 -12.667 -5.33301 -20 -10 -22s-18 -3 -40 -3c-26 -0 -40.333 0.333008 -43 1c-8 1.33301 -12 6 -12 14c0 -4 23 170.333 69 523l10 82c1.33301 9.33301 2 16 2 20c0 14.667 -5.66699 23.667 -17 27
c-3.33301 0.666992 -14.666 1 -33.999 1s-29 5.66699 -29 17c0 10 5.66699 15.667 17 17c50 5.33301 90.333 11 121 17c22.667 4 34.667 6 36 6c12.667 0 19 -7 19 -21c0 2 -9 -63.333 -27 -196z" />
    <glyph glyph-name="i" unicode="i" 
d="M36 78c0 29.333 7.33301 83.5 22 162.5s22 116.5 22 112.5c0 12 -11.5 20 -34.5 24s-34.5 10.333 -34.5 19c0 10.667 10 16.667 30 18c38.667 2 74 5 106 9c28 4 42.667 6 44 6c9.33301 0 14 -3 14 -9c0 -0.666992 -9.83301 -45.5 -29.5 -134.5
s-29.5 -149.5 -29.5 -181.5c0 -20.667 7.33301 -31 22 -31c12 0 25.167 9.66699 39.5 29s24.833 29 31.5 29c8.66699 0 13 -4 13 -12c0 -18.667 -13.333 -43 -40 -73c-33.333 -38 -72 -57 -116 -57c-40 0 -60 29.667 -60 89zM177 670c9.33301 0 21 -10.333 35 -31
s21 -35.334 21 -44.001c0 -8 -9.5 -22.5 -28.5 -43.5s-33.167 -31.5 -42.5 -31.5s-21 10.333 -35 31s-21 35.334 -21 44.001c0 8 9.5 22.5 28.5 43.5s33.167 31.5 42.5 31.5z" />
    <glyph glyph-name="j" unicode="j" 
d="M47 -195c-18 0 -36.168 7.99902 -54.501 23.999s-27.5 28.667 -27.5 38c0 4.66699 3.33301 7.33398 10 8.00098c10.667 1.33301 17.334 2.66602 20.001 3.99902c30 12.667 49.333 47.667 58 105l25 268c6.66699 62.667 10 96.334 10 101.001c0 12 -12.833 20 -38.5 24
s-38.5 10.333 -38.5 19c0 10.667 10 16.667 30 18c38.667 2 74 5 106 9c28 4 42.667 6 44 6c9.33301 0 14 -3 14 -9c0 10 -14.667 -127 -44 -411c-14 -136 -52 -204 -114 -204zM167.999 669.999c9.33301 0 21 -10.333 35 -31s21 -35.334 21 -44.001
c0 -8 -9.5 -22.5 -28.5 -43.5s-33.167 -31.5 -42.5 -31.5s-21 10.333 -35 31s-21 35.334 -21 44.001c0 8 9.5 22.5 28.5 43.5s33.167 31.5 42.5 31.5z" />
    <glyph glyph-name="k" unicode="k" horiz-adv-x="500" 
d="M196 508l-36.0039 -291.999c50 30 85 54.667 105 74c24.667 24 48.667 59.333 72 106c6.66699 13.333 11 21 13 23c6.66699 6.66699 16.667 10 30 10c34 0 51 -14.667 51 -44c0 -12.667 -12.667 -29.667 -38 -51c-19.333 -15.333 -55.666 -40.333 -108.999 -75
c46.667 -77.333 77.334 -126.333 92.001 -147s26.334 -31 35.001 -31c4.66699 0 14 7.5 28 22.5s22 22.5 24 22.5c10 0 15 -4.66699 15 -14c0 -20 -14 -45.5 -42 -76.5s-53.333 -46.5 -76 -46.5c-19.333 0 -38.666 12.333 -57.999 37
c-17.333 22.667 -52.666 80 -105.999 172c-22.667 -13.333 -34.334 -20.333 -35.001 -21c-2.66699 -2.66699 -4.66699 -7.66699 -6 -15l-21 -137c-2 -12.667 -6 -20.334 -12 -23.001c-3.33301 -1.33301 -16 -2 -38 -2c-26 -0 -40.333 0.333008 -43 1
c-8 1.33301 -12 6 -12 14c0 -4 23 170.333 69 523l10 82c1.33301 9.33301 2 16 2 20c0 14.667 -5.66699 23.667 -17 27c-3.33301 0.666992 -14.666 1 -33.999 1s-29 5.66699 -29 17c0 10 5.66699 15.667 17 17c50 5.33301 90.333 11 121 17c22.667 4 34.667 6 36 6
c12.667 0 19 -7 19 -21c0 -6 -3.33301 -32.667 -10 -80c-8.66699 -58 -14.334 -96.667 -17.001 -116z" />
    <glyph glyph-name="l" unicode="l" 
d="M106 -11c-24.667 0 -43.834 9.00098 -57.501 27.001s-20.5 39.667 -20.5 65c0 13.333 3.33301 43.666 10 90.999l47 366l7 59c3.33301 24 5 38.333 5 43c0 14.667 -5.66699 23.667 -17 27c-3.33301 0.666992 -14.666 1 -33.999 1s-29 5.66699 -29 17
c0 10 5.66699 15.667 17 17c50 5.33301 90.333 11 121 17c22.667 4 34.667 6 36 6c12.667 0 19 -7 19 -21c0 -18.667 -11.167 -120 -33.5 -304s-33.5 -278.667 -33.5 -284c0 -28.667 9.33301 -43 28 -43c14 0 28.5 10.667 43.5 32s26.167 32 33.5 32s11 -3.66699 11 -11
c0 -23.333 -13.667 -50.333 -41 -81c-32.667 -37.333 -70 -56 -112 -56z" />
    <glyph glyph-name="m" unicode="m" horiz-adv-x="778" 
d="M388 0l-95.0039 0.00195312c-6 0 -9 4.33301 -9 13c0 2 10.333 53.667 31 155c10 49.333 15 93.333 15 132c0 50 -16.333 75 -49 75c-38 0 -69.333 -44.667 -94 -134c-4.66699 -18 -18 -85.667 -40 -203c-4.66699 -25.333 -9.33398 -38 -14.001 -38h-91
c-6 0 -9 4.33301 -9 13l24 121.5c16 81 24 128.167 24 141.5c0 37.333 -11 56 -33 56c-10.667 0 -20.667 -8.16699 -30 -24.5s-17.666 -24.5 -24.999 -24.5c-8 0 -12 5.33301 -12 16c0 24 13.333 51.667 40 83s52.334 47 77.001 47s42 -11.667 52 -35
c6.66699 -15.333 11.334 -39.333 14.001 -72c50.667 71.333 109 107 175 107c30.667 0 52.334 -10.333 65.001 -31c7.33301 -12.667 14 -37 20 -73c55.333 69.333 111 104 167 104c32.667 0 58 -12 76 -36c16.667 -21.333 25 -48.333 25 -81
c0 -22 -3.83301 -61.833 -11.5 -119.5s-11.5 -88.834 -11.5 -93.501c0 -20 6.33301 -30 19 -30s25.5 7.66699 38.5 23s22.167 23 27.5 23c8.66699 0 13 -4.33301 13 -13c0 -16 -13 -37.333 -39 -64c-31.333 -32.667 -66.666 -49 -105.999 -49c-41.333 0 -62 26.667 -62 80
c0 15.333 4.5 56.166 13.5 122.499s13.5 101.833 13.5 106.5c0 46.667 -16.667 70 -50 70c-36 0 -65.333 -31.667 -88 -95c-8 -23.333 -19 -70.333 -33 -141c-4 -20.667 -9 -54.667 -15 -102c-2.66699 -20 -7 -30 -13 -30z" />
    <glyph glyph-name="n" unicode="n" horiz-adv-x="556" 
d="M144 0l-91.001 -0.000976562c-6 0 -9 4.33301 -9 13l24 121.5c16 81 24 128.167 24 141.5c0 37.333 -11 56 -33 56c-10.667 0 -20.667 -8.16699 -30 -24.5s-17.666 -24.5 -24.999 -24.5c-8 0 -12 5.33301 -12 16c0 24 13.333 51.667 40 83s52.334 47 77.001 47
c46 0 69 -38 69 -114h2c52.667 76 113.667 114 183 114c32.667 0 58 -12 76 -36c16.667 -21.333 25 -48.333 25 -81c0 -24 -3.83301 -59.667 -11.5 -107s-11.5 -82.666 -11.5 -105.999c0 -20 6.33301 -30 19 -30s25.5 7.66699 38.5 23s22.167 23 27.5 23
c8.66699 0 13 -4.33301 13 -13c0 -16 -13 -37.333 -39 -64c-31.333 -32.667 -66.666 -49 -105.999 -49c-41.333 0 -62 26.667 -62 80c0 23.333 4.66699 61.833 14 115.5s14 91.5 14 113.5c0 51.333 -17.667 77 -53 77c-34.667 0 -63.334 -22.333 -86.001 -67
c-16.667 -32.667 -30.667 -79.667 -42 -141l-21 -129c-4.66699 -25.333 -9.33398 -38 -14.001 -38z" />
    <glyph glyph-name="o" unicode="o" horiz-adv-x="444" 
d="M236 429c52 0 93.835 -16.168 125.502 -48.501s47.5 -74.166 47.5 -125.499c0 -70 -19.333 -130.667 -58 -182c-42 -56 -97.333 -84 -166 -84c-64.667 0 -112.334 23 -143.001 69c-24 34.667 -36 76.667 -36 126c0 71.333 24.333 131 73 179
c45.333 44 97.666 66 156.999 66zM120.002 125.999c0 -68.667 22 -103 66 -103c47.333 0 80 41 98 123c8.66699 42 13 92 13 150c0 32 -3.66699 55.333 -11 70c-10.667 22 -30 33 -58 33c-42 0 -72.333 -37 -91 -111c-11.333 -46.667 -17 -100.667 -17 -162z" />
    <glyph glyph-name="p" unicode="p" horiz-adv-x="500" 
d="M17 -137l61.001 494c-26 -11.333 -42.667 -17 -50 -17c-13.333 0 -20 6 -20 18c0 13.333 21.333 27.666 64 42.999c8 2.66699 12.333 4.5 13 5.5s1.66699 5.83301 3 14.5l17 106c3.33301 22.667 29 34 77 34c17.333 0 26 -3.33301 26 -10
c0 -3.33301 -2 -17.666 -6 -42.999l-14 -89c33.333 6.66699 59 10 77 10c127.333 0 191 -53 191 -159c0 -73.333 -27.167 -138.5 -81.5 -195.5s-117.833 -85.5 -190.5 -85.5c-20.667 0 -35.334 1.66699 -44.001 5c-9.33301 -88 -14 -126.333 -14 -115
c0 -18 6.33301 -30 19 -36c3.33301 -2 15.333 -4.66699 36 -8c12.667 -2.66699 19 -8 19 -16c0 -9.33301 -6.66699 -14 -20 -14c-4.66699 0 -19.5 0.666992 -44.5 2s-48.5 2 -70.5 2c-10 0 -25 -0.666992 -45 -2s-35 -2 -45 -2c-12 0 -18 4.33301 -18 13
c0 9.33301 9.5 14.833 28.5 16.5s29.5 11.167 31.5 28.5zM341.001 246c0 97.333 -34.333 146 -103 146c-27.333 0 -44 -4.33301 -50 -13c-3.33301 -5.33301 -7 -24.333 -11 -57c-19.333 -168 -29 -253 -29 -255c0 -28.667 15.333 -43 46 -43c47.333 0 85 26.333 113 79
c22.667 43.333 34 91 34 143z" />
    <glyph glyph-name="q" unicode="q" horiz-adv-x="500" 
d="M281 -122l27.001 204.001l-2 2c-45.333 -63.333 -98.666 -95 -159.999 -95c-42 0 -74.833 13 -98.5 39s-35.5 60.667 -35.5 104c0 102.667 36.667 182 110 238c51.333 39.333 101.666 59 150.999 59c24 0 48.167 -4.83301 72.5 -14.5s37.833 -14.5 40.5 -14.5
c8.66699 0 19.834 14.667 33.501 44s23.5 44 29.5 44c10 0 15 -4.66699 15 -14c0 -2.66699 -12.333 -101.834 -37 -297.501s-37 -297.5 -37 -305.5c0 -18 6 -29.333 18 -34c2.66699 -1.33301 13.667 -2.66602 33 -3.99902c12 -0.666992 18 -5.33398 18 -14.001
c0 -9.33301 -3.33301 -14 -10 -14c1.33301 0 -11.334 0.666992 -38.001 2s-52.667 2 -78 2c-26.667 0 -51.834 -0.666992 -75.501 -2s-36.167 -2 -37.5 -2c-8 0 -12 3 -12 9c0 10 11.5 17.833 34.5 23.5s35.833 19.167 38.5 40.5zM275.001 398.001
c-45.333 0 -82.667 -28.666 -112 -85.999c-25.333 -48 -38 -96.333 -38 -145c0 -74.667 23.333 -112 70 -112c38 0 72.333 27 103 81c6 10.667 14.333 44.667 25 102c10 55.333 15 89.666 15 102.999c0 38 -21 57 -63 57z" />
    <glyph glyph-name="r" unicode="r" horiz-adv-x="389" 
d="M206 224l-33.0029 -199.002c-2 -12.667 -6 -20.334 -12 -23.001c-3.33301 -1.33301 -16 -2 -38 -2c-26 0 -40.333 0.333008 -43 1c-8 1.33301 -12 6 -12 14c0 7.33301 6 48.833 18 124.5s18 118.834 18 129.501c0 45.333 -11.667 68 -35 68
c-12 0 -21.667 -9.16699 -29 -27.5s-13.666 -27.5 -18.999 -27.5c-9.33301 0 -14 6.66699 -14 20c0 32.667 14.333 62.667 43 90c26 24.667 50.667 37 74 37c18.667 0 32.334 -11 41.001 -33c4 -10.667 10.333 -37 19 -79c24 36.667 43.333 62 58 76
c25.333 24 53.333 36 84 36c29.333 0 44 -10 44 -30c0 -9.33301 -2.66699 -24.666 -8 -45.999c-7.33301 -28.667 -15.666 -43 -24.999 -43c-7.33301 0 -18 8.66699 -32 26s-24.333 26 -31 26c-11.333 0 -23 -10.667 -35 -32c-14.667 -25.333 -25.667 -60.666 -33 -105.999z
" />
    <glyph glyph-name="s" unicode="s" horiz-adv-x="389" 
d="M223 85c0 24.667 -14.333 49.335 -43 74.002l-79 64c-28.667 27.333 -43 56.666 -43 87.999c0 38 17.667 68 53 90c30 18.667 65 28 105 28c29.333 0 55 -6 77 -18c24.667 -13.333 37 -30 37 -50c0 -28 -15.333 -42 -46 -42c-14.667 0 -28.834 13.167 -42.501 39.5
s-31.167 39.5 -52.5 39.5c-30 0 -45 -15.667 -45 -47c0 -16.667 14.333 -36.334 43 -59.001c46 -36.667 72.667 -59 80 -67c28.667 -30.667 43 -63.667 43 -99c0 -43.333 -17.667 -77.666 -53 -102.999c-31.333 -22.667 -69.666 -34 -114.999 -34c-48 0 -85 10.333 -111 31
c-20 16 -30 33.667 -30 53c0 30 17 45 51 45c18 0 30 -8.33301 36 -25s11.667 -33.334 17 -50.001c9.33301 -17.333 26 -26 50 -26c20.667 0 37.167 6.16699 49.5 18.5s18.5 28.833 18.5 49.5z" />
    <glyph glyph-name="t" unicode="t" horiz-adv-x="333" 
d="M287 363l-99 -0.000976562l-21 -132c-8 -52.667 -12 -86 -12 -100c0 -30.667 13 -46 39 -46c13.333 0 28.166 9.83301 44.499 29.5s27.5 29.5 33.5 29.5c8.66699 0 13 -4.66699 13 -14c0 -19.333 -14 -45.666 -42 -78.999c-35.333 -41.333 -74.666 -62 -117.999 -62
c-54 0 -81 34.333 -81 103c0 26 5.66699 77 17 153s17 113.667 17 113c0 3.33301 -16.333 5 -49 5c-10 0 -14 5.33301 -12 16c0 4.66699 14.333 19.334 43 44.001c35.333 30 55.333 47.667 60 53l43 50c14.667 16.667 26 25 34 25c12 0 18 -4 18 -12
c0 -12 -2.66699 -33 -8 -63c-3.33301 -20.667 -7 -41.334 -11 -62.001h91c9.33301 0 15 -1.66699 17 -5s3 -10.333 3 -21c0 -16.667 -6.66699 -25 -20 -25z" />
    <glyph glyph-name="u" unicode="u" horiz-adv-x="556" 
d="M391 414h70.9971c12 0 18 -5.33301 18 -16c0 -4.66699 -8.33301 -46 -25 -124s-25 -131.667 -25 -161c0 -26.667 6.33301 -40 19 -40c12 0 24.833 8.83301 38.5 26.5s22.834 26.5 27.501 26.5c9.33301 0 14 -4.33301 14 -13c0 -18.667 -14 -42.334 -42 -71.001
c-34 -35.333 -72.333 -53 -115 -53c-34.667 0 -52 21.667 -52 65c0 18 3.33301 61.333 10 130l-2 2c-30 -57.333 -55.333 -98.333 -76 -123c-41.333 -49.333 -87.666 -74 -138.999 -74c-40.667 0 -61 21.667 -61 65c0 14 6.5 57.833 19.5 131.5s19.5 115.834 19.5 126.501
c0 18.667 -7.66699 28 -23 28c-12 0 -22.833 -10.667 -32.5 -32s-18.167 -32 -25.5 -32c-9.33301 0 -14 5.33301 -14 16c0 27.333 14 56.333 42 87c31.333 33.333 65.333 50 102 50c40.667 0 61 -29.333 61 -88c0 -18 -5.66699 -58.833 -17 -122.5
s-17 -100.834 -17 -111.501c0 -22.667 8 -34 24 -34c24.667 0 58.334 38 101.001 114c40.667 72.667 68 139.334 82 200.001c4 18 9.66699 27 17 27z" />
    <glyph glyph-name="v" unicode="v" horiz-adv-x="444" 
d="M24 242c0 -14.667 3.66699 -29 11 -43c8.66699 -16.667 19.667 -25 33 -25c8.66699 0 13.667 6 15 18c8 77.333 12 123.333 12 138c0 10.667 -3 16 -9 16c-12 0 -24 -6.66699 -36 -20c-17.333 -20 -26 -48 -26 -84zM206 342c0 -12.667 -2.66699 -48.167 -8 -106.5
s-8 -92.5 -8 -102.5c0 -47.333 13.333 -71 40 -71c23.333 0 49.666 25.333 78.999 76s44 97.667 44 141c0 16.667 -5.66699 35.5 -17 56.5s-17 35.5 -17 43.5c0 13.333 5.33301 25 16 35s22.667 15 36 15c30.667 0 46 -21.333 46 -64c0 -72.667 -22.667 -150 -68 -232
c-53.333 -96 -115.333 -144 -186 -144c-52 0 -78.667 49 -80 147c-26.667 8.66699 -45 16.667 -55 24c-26.667 22 -40 57 -40 105c0 43.333 16.667 82 50 116c30.667 32 63.334 48 98.001 48c46.667 0 70 -29 70 -87z" />
    <glyph glyph-name="w" unicode="w" horiz-adv-x="722" 
d="M24 242c0 -14.667 3.66699 -29 11 -43c8.66699 -16.667 19.667 -25 33 -25c8.66699 0 13.667 6 15 18c8 77.333 12 123.333 12 138c0 10.667 -3 16 -9 16c-12 0 -24 -6.66699 -36 -20c-17.333 -20 -26 -48 -26 -84zM136 429c46.667 0 70.001 -28.999 70.001 -86.999
c0 -12.667 -2.66699 -48.167 -8 -106.5s-8 -92.5 -8 -102.5c0 -43.333 13.333 -65 40 -65c20.667 0 44.667 26.333 72 79c33.333 64 58 147.667 74 251c1.33301 10.667 6.66602 16 15.999 16h75c8 0 12 -6 12 -18l-11.5 -84.5c-7.66699 -56.333 -11.5 -93.833 -11.5 -112.5
c0 -82.667 18 -125 54 -127c22 -1.33301 47.333 22.167 76 70.5s43 93.833 43 136.5c0 16.667 -5.66699 35.5 -17 56.5s-17 35.5 -17 43.5c0 13.333 5.33301 25 16 35s22.667 15 36 15c30.667 0 46 -21.333 46 -64c0 -72.667 -22.667 -150 -68 -232
c-53.333 -96 -115.333 -144 -186 -144c-21.333 0 -39.5 16.667 -54.5 50s-24.833 81.666 -29.5 144.999h-2c-12.667 -42 -33.334 -81.333 -62.001 -118c-39.333 -51.333 -82 -77 -128 -77c-52 0 -78.667 49 -80 147c-26.667 8.66699 -45 16.667 -55 24
c-26.667 22 -40 57 -40 105c0 43.333 16.667 82 50 116c30.667 32 63.334 48 98.001 48z" />
    <glyph glyph-name="x" unicode="x" horiz-adv-x="444" 
d="M252 258l71 -182c11.333 -30 34.666 -45 69.999 -45c2 0 4.66699 0.333008 8 1h7c13.333 0 20 -3.66699 20 -11c0 -21.333 -34 -32 -102 -32c-43.333 0 -73.333 10 -90 30c-13.333 15.333 -31 55.666 -53 120.999c-49.333 -66 -81 -106 -95 -120
c-20.667 -20.667 -43.667 -31 -69 -31c-31.333 0 -47 16.333 -47 49c0 14.667 4 26.5 12 35.5s18 13.5 30 13.5c6.66699 0 15.834 -1.16699 27.501 -3.5s20.5 -3.5 26.5 -3.5c15.333 0 31.666 10.333 48.999 31c9.33301 10.667 26.666 35.667 51.999 75
c-18.667 56.667 -31 91.667 -37 105c-13.333 30 -27.666 45 -42.999 45c-16.667 0 -28 -10.167 -34 -30.5s-12.667 -30.5 -20 -30.5c-12 0 -18 6 -18 18c0 26 11.667 54.333 35 85c26 34 54.333 51 85 51c25.333 0 48.333 -17.667 69 -53c8 -13.333 18.667 -38 32 -74
c45.333 54.667 73.333 87.334 84 98.001c21.333 19.333 43 29 65 29c12.667 0 23.667 -4 33 -12s14 -18.333 14 -31c0 -31.333 -17 -47 -51 -47c-8 0 -16.667 1.16699 -26 3.5s-14.666 3.5 -15.999 3.5c-18 0 -47.667 -29.333 -89 -88z" />
    <glyph glyph-name="y" unicode="y" horiz-adv-x="444" 
d="M-15 278c0 30.667 10.6699 62.333 32.0029 95c24 37.333 52.667 56 86 56s66.666 -28.333 99.999 -85c7.33301 -12 41 -81.333 101 -208c30.667 52.667 46 104.667 46 156c0 18.667 -5.83301 37.667 -17.5 57s-17.5 32.333 -17.5 39c0 8.66699 5 17.667 15 27
s22 14 36 14c30 0 45 -20.333 45 -61c0 -44 -17.333 -110.333 -52 -199c-38.667 -97.333 -83 -179 -133 -245c-60.667 -79.333 -119.334 -119 -176.001 -119c-41.333 0 -62 19.667 -62 59c0 30.667 13.667 46 41 46c16.667 0 32 -5 46 -15s27.667 -15 41 -15
c21.333 0 46.666 19 75.999 57c27.333 35.333 41 62 41 80c0 23.333 -22.333 81 -67 173c-48 97.333 -83.667 146 -107 146c-17.333 0 -29.833 -13.5 -37.5 -40.5s-14.5 -40.5 -20.5 -40.5c-10.667 0 -16 7.66699 -16 23z" />
    <glyph glyph-name="z" unicode="z" horiz-adv-x="389" 
d="M-6 25l247 265.998c-36.667 -1.33301 -71.834 7.16699 -105.501 25.5s-53.167 27.5 -58.5 27.5c-14 0 -21 -7.33301 -21 -22c0 -12 3.66699 -23 11 -33s11 -15.667 11 -17c0 -8.66699 -5 -13 -15 -13c-8 0 -16.667 6 -26 18c-13.333 15.333 -20 35.666 -20 60.999
c0 23.333 9.83301 44.333 29.5 63s41.5 28 65.5 28c19.333 0 53.833 -10.167 103.5 -30.5s79.834 -30.5 90.501 -30.5c15.333 0 25.833 10.167 31.5 30.5s14.5 30.5 26.5 30.5c13.333 0 20 -7.66699 20 -23c0 -10.667 -14.667 -33 -44 -67l-210 -223
c30 -10.667 56.333 -32.667 79 -66c4 -5.33301 19 -32.666 45 -81.999c14 -27.333 27.333 -41 40 -41c12 0 18 4 18 12c0 2 -0.333008 5.66699 -1 11s-1 11.333 -1 18c0 20 9.66699 30 29 30c25.333 0 38 -10.667 38 -32c0 -17.333 -9.5 -33.333 -28.5 -48
s-39.833 -22 -62.5 -22c-35.333 0 -69 11.667 -101 35c-14.667 10.667 -37.667 32.334 -69 65.001c-22 23.333 -39 35 -51 35c-11.333 0 -22 -7 -32 -21s-21 -21 -33 -21s-18 4.33301 -18 13c0 6.66699 4 14.334 12 23.001z" />
    <glyph glyph-name="braceleft" unicode="{" horiz-adv-x="389" 
d="M173 382c12.667 120 20 184.333 22 193c9.33301 51.333 26 86.666 50 105.999c26.667 21.333 71 32 133 32l-2 -2l2 -2c-28.667 -10 -49.334 -23.5 -62.001 -40.5s-20.667 -42.167 -24 -75.5c-11.333 -106 -19.333 -172.667 -24 -200
c-7.33301 -42.667 -17.666 -71.667 -30.999 -87c-10.667 -12.667 -31.667 -23.334 -63 -32.001v-3c46 -5.33301 69 -33.333 69 -84c0 -28 -4.16699 -69.667 -12.5 -125s-12.5 -96.666 -12.5 -123.999c0 -44.667 20.667 -71.667 62 -81v-3c-2 0 -8.66699 -0.333008 -20 -1
s-22.333 -1 -33 -1c-68.667 0 -103 31.667 -103 95c0 28 4.16699 69.833 12.5 125.5s12.5 97.5 12.5 125.5c0 37.333 -21.333 60.333 -64 69v3c9.33301 3.33301 19 7 29 11c14.667 6.66699 26.667 16.334 36 29.001c12 17.333 19.667 41.333 23 72z" />
    <glyph glyph-name="bar" unicode="|" horiz-adv-x="606" 
d="M258 0v700h89v-700h-89z" />
    <glyph glyph-name="braceright" unicode="}" horiz-adv-x="389" 
d="M264 183c-12.667 -120 -20 -184.333 -22 -193c-9.33301 -51.333 -26 -86.666 -50 -105.999c-26.667 -21.333 -71 -32 -133 -32l2 2l-2 2c28.667 10 49.334 23.5 62.001 40.5s20.667 42.167 24 75.5c11.333 106 19.333 172.667 24 200
c7.33301 42.667 17.666 71.667 30.999 87c10.667 12.667 31.667 23.334 63 32.001v3c-46 5.33301 -69 33.333 -69 84c0 28 4.16699 69.667 12.5 125s12.5 96.666 12.5 123.999c0 44.667 -20.667 71.667 -62 81v3c2 0 8.66699 0.333008 20 1s22.333 1 33 1
c68.667 0 103 -31.667 103 -95c0 -28 -4.16699 -69.833 -12.5 -125.5s-12.5 -97.5 -12.5 -125.5c0 -37.333 21.333 -60.333 64 -69v-3c-9.33301 -3.33301 -19 -7 -29 -11c-14.667 -6.66699 -26.667 -16.334 -36 -29.001c-12 -17.333 -19.667 -41.333 -23 -72z" />
    <glyph glyph-name="asciitilde" unicode="~" horiz-adv-x="606" 
d="M501 347l53.999 -62c-44.667 -76.667 -92 -115 -142 -115c-19.333 0 -49.666 8.33301 -90.999 25l-42 17c-42.667 17.333 -69.334 26 -80.001 26c-22 0 -41.333 -9.66699 -58 -29c-5.33301 -6 -17.666 -25 -36.999 -57l-54 63c44 81.333 92.667 122 146 122
c26.667 0 65.667 -11.333 117 -34s84 -34 98 -34c28 0 57.667 26 89 78z" />
    <glyph glyph-name="nonbreakingspace" unicode="&#xa0;" 
 />
    <glyph glyph-name="exclamdown" unicode="&#xa1;" horiz-adv-x="333" 
d="M189 245l5 -396.999c0 -18 -4.16699 -29.667 -12.5 -35s-22.5 -8 -42.5 -8c-26 0 -43.667 1.33301 -53 4c-18.667 5.33301 -28 17.666 -28 36.999c0 6.66699 2.66699 20.667 8 42l92 364c3.33301 13.333 8 20 14 20c8.66699 0 14 -2.66699 16 -8
c0.666992 -2 1 -8.33301 1 -19zM189 350.001c-4.66699 0 -11.334 4.33301 -20.001 13l-55 57c-10 10 -15 16.333 -15 19c0 3.33301 5.66699 10.333 17 21c24.667 22 44.334 40.333 59.001 55c9.33301 9.33301 17.333 14 24 14c4.66699 0 11.334 -4.33301 20.001 -13l55 -57
c10 -10 15 -16.333 15 -19c0 -3.33301 -5.66699 -10.333 -17 -21c-24.667 -22 -44.334 -40.333 -59.001 -55c-9.33301 -9.33301 -17.333 -14 -24 -14z" />
    <glyph glyph-name="cent" unicode="&#xa2;" horiz-adv-x="556" 
d="M208 79l122.999 278.001c-15.333 24 -36 36 -62 36c-35.333 0 -62.666 -22.667 -81.999 -68c-14.667 -34.667 -22 -72.334 -22 -113.001c0 -60.667 14.333 -105 43 -133zM208.999 -10.999l-54 -119.999h-43l58 128c-32 0 -59.667 17.667 -83 53
c-21.333 32.667 -32 66.667 -32 102c0 73.333 23.667 137 71 191c50.667 57.333 113.667 86 189 86c12.667 0 28 -2 46 -6l51 114h43l-56 -127c28 -14 42 -34.333 42 -61c0 -11.333 -5.16699 -22.333 -15.5 -33s-21.166 -16 -32.499 -16c-12 0 -24 6 -36 18l-116 -260
c10.667 -5.33301 25.667 -8 45 -8c30 0 56.333 9.33301 79 28s35.667 28 39 28c7.33301 0 11 -5 11 -15c0 -14.667 -17.333 -34.334 -52 -59.001c-40.667 -28.667 -84.334 -43 -131.001 -43h-23z" />
    <glyph glyph-name="sterling" unicode="&#xa3;" horiz-adv-x="556" 
d="M262 364v-41.999h91c9.33301 0 15 -1.66699 17 -5s3 -10.333 3 -21c0 -16.667 -6.66699 -25 -20 -25h-104c-29.333 -66 -66.333 -123.333 -111 -172l2 -2c27.333 9.33301 59 14 95 14c8.66699 0 21.167 -1 37.5 -3s28.5 -3 36.5 -3c34.667 0 62.334 6.33301 83.001 19
c11.333 6 23.666 17.333 36.999 34c10 12.667 19.333 19 28 19c10.667 0 16 -5 16 -15c0 -5.33301 -26.667 -54.333 -80 -147c-5.33301 -9.33301 -12.333 -15 -21 -17c-4.66699 -1.33301 -16.334 -2 -35.001 -2c-22.667 0 -57 0.666992 -103 2s-71.667 2 -77 2
c-32 0 -61.167 -0.666992 -87.5 -2s-40.166 -2 -41.499 -2c-9.33301 0 -14 6 -14 18c0 6 10 19.333 30 40c25.333 26 45 51.333 59 76c22.667 40.667 36.667 87.667 42 141h-75c-13.333 0 -20 8.33301 -20 25c0 10.667 1 17.667 3 21s7.66699 5 17 5h79v18
c0 14 -1.33301 35 -4 63s-4 49 -4 63c0 73.333 23 128.666 69 165.999c37.333 30 84.333 45 141 45c56 0 98.667 -15 128 -45c23.333 -24 35 -53.333 35 -88c0 -44.667 -16 -67 -48 -67c-30 0 -45 13.333 -45 40c0 10.667 4 22.667 12 36s12 26.333 12 39
c0 32 -28.667 48 -86 48c-33.333 0 -60 -14 -80 -42c-18 -25.333 -27 -55.666 -27 -90.999c0 -12.667 1.66699 -32.834 5 -60.501s5 -55.167 5 -82.5z" />
    <glyph glyph-name="currency" unicode="&#xa4;" horiz-adv-x="556" 
d="M25 145l50 50c-30 43.333 -45 90 -45 140c0 56 15.333 103.667 46 143l-51 50l58 60l52 -51c41.333 31.333 90.333 47 147 47c50.667 0 97 -15.333 139 -46l50 50l58 -60l-50 -49c31.333 -39.333 47 -87 47 -143c0 -55.333 -15.333 -102.333 -46 -141l51 -50l-58 -59
l-51 50c-41.333 -32 -88.666 -48 -141.999 -48c-56.667 0 -105.334 16 -146.001 48l-51 -50zM282 491c-44 0 -81.5 -15 -112.5 -45s-46.5 -67 -46.5 -111c0 -43.333 15.5 -79.833 46.5 -109.5s68.167 -44.5 111.5 -44.5c42 0 77.833 15.333 107.5 46s44.5 67 44.5 109
s-14.833 78.333 -44.5 109s-65.167 46 -106.5 46z" />
    <glyph glyph-name="yen" unicode="&#xa5;" horiz-adv-x="556" 
d="M353 129l-72.002 0.00488281c-2 -8.66699 -3 -18.334 -3 -29.001c0 -23.333 8.33301 -40.333 25 -51c6 -4 21 -9 45 -15c16.667 -4.66699 25 -11.334 25 -20.001c0 -12 -6.33301 -18 -19 -18c-12 0 -31.5 0.666992 -58.5 2s-54.167 2 -81.5 2
s-53.166 -0.666992 -77.499 -2s-38.833 -2 -43.5 -2c-15.333 0 -23 6.33301 -23 19c0 10.667 7 17 21 19c20 3.33301 34 8.66602 42 15.999c16 14 25.667 40.333 29 79h-76l5 49h81l3 32h-77l5 49h76c0 2 0.333008 4.83301 1 8.5s1 6.16699 1 7.5
c0 15.333 -15.667 56.666 -47 123.999l-91 191c-10.667 22 -30.667 37.333 -60 46c-26 8 -39 15.667 -39 23c0 12 8 18 24 18c1.33301 0 18.833 -0.666992 52.5 -2s58.834 -2 75.501 -2c18 0 38.333 0.666992 61 2s37.667 2 45 2c22.667 0 34 -5.66699 34 -17
c0 -8.66699 -11 -15.334 -33 -20.001s-33 -13.334 -33 -26.001c0 -25.333 16.667 -73.333 50 -144c32 -66.667 50.667 -100 56 -100c7.33301 0 33.833 32.5 79.5 97.5s68.5 107.167 68.5 126.5c0 20.667 -7.66699 34 -23 40c-4 2 -18 4.33301 -42 7
c-15.333 2 -23 7.66699 -23 17c0 12.667 6.66699 19 20 19c2.66699 0 15 -0.666992 37 -2s46 -2 72 -2c10 0 25.667 0.666992 47 2s35.333 2 42 2c12.667 0 19 -5.33301 19 -16c0 -8.66699 -4.66699 -14.667 -14 -18c-18.667 -6 -31 -10.667 -37 -14
c-18.667 -11.333 -36 -29.666 -52 -54.999l-144 -222c-21.333 -36 -32.333 -67 -33 -93h76l-5 -49h-76l-3 -32h73z" />
    <glyph glyph-name="brokenbar" unicode="&#xa6;" 
d="M258 420v280h89v-280h-89zM258 0v280h89v-280h-89z" />
    <glyph glyph-name="section" unicode="&#xa7;" horiz-adv-x="500" 
d="M194 425c-16 0 -29.167 -5.66797 -39.5 -17.001s-15.5 -25 -15.5 -41c0 -30 20 -69 60 -117c41.333 -50 79 -75 113 -75c14 0 26.667 6.66699 38 20s17 28 17 44c0 26.667 -22.167 64.334 -66.5 113.001s-79.833 73 -106.5 73zM315 148.999
c-4 0 -8.83594 0.334961 -14.5029 1.00195s-10.167 1 -13.5 1c43.333 -50.667 65 -95 65 -133c0 -38.667 -15.667 -71 -47 -97s-67 -39 -107 -39c-51.333 0 -90.666 12 -117.999 36c-23.333 20 -35 44.333 -35 73c0 16 5.66699 29 17 39s25 15 41 15c36 0 54 -17 54 -51
c0 -16.667 -5.33301 -30.334 -16 -41.001s-16 -18 -16 -22c0 -8.66699 8.33301 -15.334 25 -20.001c12.667 -3.33301 24.667 -5 36 -5c34.667 0 60 9.33301 76 28c10 12.667 15 26.334 15 41.001c0 30.667 -18 67.334 -54 110.001l-101 113
c-36 45.333 -54 86.666 -54 123.999c0 36 9.33301 66.167 28 90.5s45.667 36.5 81 36.5c10.667 0 25.334 -1.33301 44.001 -4l2 2c-41.333 38.667 -62 80.667 -62 126s15.333 80.666 46 105.999c27.333 22.667 64.333 34 111 34c34 0 63.667 -7.33301 89 -22
c29.333 -18 44 -43 44 -75c0 -18 -5.83301 -32.333 -17.5 -43s-26.5 -16 -44.5 -16c-17.333 0 -30.666 6.33301 -39.999 19c-7.33301 9.33301 -11 19.333 -11 30c0 14.667 5.66699 27 17 37s17 18 17 24c0 8 -8 14.333 -24 19c-12.667 3.33301 -24 5 -34 5
c-25.333 0 -45.5 -7 -60.5 -21s-22.5 -33.333 -22.5 -58s17.667 -57 53 -97l98 -109c35.333 -45.333 53 -87.333 53 -126c0 -51.333 -15.667 -88 -47 -110c-20.667 -14 -45 -21 -73 -21z" />
    <glyph glyph-name="dieresis" unicode="&#xa8;" horiz-adv-x="333" 
d="M125 534c-9.33301 0 -20.833 7 -34.5 21s-20.5 24.667 -20.5 32s6.83301 18 20.5 32s24.167 21 31.5 21c9.33301 0 20.666 -7 33.999 -21s20 -24.667 20 -32s-6.66699 -18 -20 -32s-23.666 -21 -30.999 -21zM316 534c-9.33301 0 -20.833 7 -34.5 21
s-20.5 24.667 -20.5 32s6.83301 18 20.5 32s24.167 21 31.5 21c9.33301 0 20.666 -7 33.999 -21s20 -24.667 20 -32s-6.66699 -18 -20 -32s-23.666 -21 -30.999 -21z" />
    <glyph glyph-name="copyright" unicode="&#xa9;" horiz-adv-x="747" 
d="M374 -11c-99.333 0 -183.666 35.333 -252.999 106s-104 156.334 -104 257.001c0 100 34.667 185.167 104 255.5s153.666 105.5 252.999 105.5s183.666 -35.167 252.999 -105.5s104 -155.5 104 -255.5c0 -100.667 -34.667 -186.334 -104 -257.001
s-153.666 -106 -252.999 -106zM373 57c80.667 0 149 28.667 205 86s84 127 84 209c0 81.333 -28 150.5 -84 207.5s-124.333 85.5 -205 85.5s-149 -28.5 -205 -85.5s-84 -126.167 -84 -207.5c0 -82 28 -151.667 84 -209s124.333 -86 205 -86zM521 517v-105h-38
c-11.333 30.667 -21.666 52 -30.999 64c-15.333 19.333 -36 29 -62 29c-22.667 0 -43.334 -9.33301 -62.001 -28c-26 -25.333 -39 -63.333 -39 -114c0 -44.667 9 -82.667 27 -114c22 -37.333 53.333 -56 94 -56c14 0 29.5 4.5 46.5 13.5s29.833 19.833 38.5 32.5l8 12
l32 -12c-12.667 -30.667 -35.334 -54 -68.001 -70c-28.667 -14 -60.667 -21 -96 -21c-55.333 0 -99.666 18.333 -132.999 55s-50 83.667 -50 141c0 59.333 18 107.833 54 145.5s82.667 56.5 140 56.5c56 0 102.333 -9.66699 139 -29z" />
    <glyph glyph-name="ordfeminine" unicode="&#xaa;" horiz-adv-x="300" 
d="M203 695c-30.667 0 -55 -18 -73 -54c-15.333 -28.667 -23 -59 -23 -91c0 -38.667 14.333 -58 43 -58c32 0 54.333 22.333 67 67c16 57.333 24 93.333 24 108c0 18.667 -12.667 28 -38 28zM34 532c0 45.333 15.002 86 45.002 122c33.333 39.333 74.333 59 123 59
c13.333 0 26.5 -2.83301 39.5 -8.5s19.833 -8.5 20.5 -8.5c9.33301 0 19.166 6.83301 29.499 20.5s17.833 20.5 22.5 20.5c5.33301 0 8 -3 8 -9l-18 -93.5c-12 -62.333 -18 -98.833 -18 -109.5c0 -18.667 6.33301 -28 19 -28c7.33301 0 14.5 5 21.5 15s12.5 15 16.5 15
c5.33301 0 8 -1.66699 8 -5c0 -14 -8.33301 -29.333 -25 -46c-18.667 -18 -39 -27 -61 -27c-22.667 0 -38.667 17.333 -48 52c-37.333 -34.667 -71.333 -52 -102 -52c-24.667 0 -44.334 8 -59.001 24s-22 35.667 -22 59zM46.002 334h214v50h-214v-50z" />
    <glyph glyph-name="guillemotleft" unicode="&#xab;" horiz-adv-x="500" 
d="M233 219c2 1.33301 49.333 39.335 142 114.002c32 26 51.667 39 59 39c5.33301 0 8 -3.33301 8 -10c0.666992 -4.66699 -7 -16.334 -23 -35.001l-96 -114c14 -30 30.333 -62.333 49 -97c9.33301 -18.667 14 -30.334 14 -35.001c0 -7.33301 -3.33301 -11 -10 -11
s-17 8 -31 24zM76 219.002c2 1.33301 49.333 39.335 142 114.002c32 26 51.667 39 59 39c5.33301 0 8 -3.33301 8 -10c0.666992 -4.66699 -7 -16.334 -23 -35.001l-96 -114c14 -30 30.333 -62.333 49 -97c9.33301 -18.667 14 -30.334 14 -35.001
c0 -7.33301 -3.33301 -11 -10 -11s-17 8 -31 24z" />
    <glyph glyph-name="logicalnot" unicode="&#xac;" horiz-adv-x="606" 
d="M468 306h-418v88h506v-282h-88v194z" />
    <glyph glyph-name="minus" unicode="&#xad;" 
d="M50 209v88h506v-88h-506z" />
    <glyph glyph-name="minus" unicode="&#x2212;" 
d="M50 209v88h506v-88h-506z" />
    <glyph glyph-name="registered" unicode="&#xae;" horiz-adv-x="747" 
d="M374 -11c-99.333 0 -183.666 35.333 -252.999 106s-104 156.334 -104 257.001c0 100 34.667 185.167 104 255.5s153.666 105.5 252.999 105.5s183.666 -35.167 252.999 -105.5s104 -155.5 104 -255.5c0 -100.667 -34.667 -186.334 -104 -257.001
s-153.666 -106 -252.999 -106zM374 57c80.667 0 149 28.667 205 86s84 127 84 209c0 81.333 -28 150.5 -84 207.5s-124.333 85.5 -205 85.5s-149 -28.5 -205 -85.5s-84 -126.167 -84 -207.5c0 -82 28 -151.667 84 -209s124.333 -86 205 -86zM331 333l0.000976562 -116.001
c0 -20 6.66699 -30 20 -30h20v-23h-166v23h7c14.667 0 23.667 1 27 3c6 2.66699 9 10.334 9 23.001v290c0 11.333 -8.33301 17 -25 17h-16v26h196c75.333 0 113 -32.667 113 -98c0 -24.667 -9 -46.167 -27 -64.5s-39.333 -29.5 -64 -33.5v-2
c19.333 -1.33301 37.666 -16 54.999 -44l39 -76c14 -27.333 27.667 -41 41 -41v-23h-74c-19.333 0 -36.333 14.667 -51 44l-33 81c-12.667 29.333 -26.667 44 -42 44h-29zM331.001 505.999v-136.999c0 -5.33301 7.33301 -8 22 -8c53.333 0 80 27.333 80 82
c0 50 -23 75 -69 75c-14 0 -23 -0.333008 -27 -1s-6 -4.33398 -6 -11.001z" />
    <glyph glyph-name="macron" unicode="&#xaf;" horiz-adv-x="333" 
d="M355 614h-305l11 56h306z" />
    <glyph glyph-name="macron" unicode="&#x2c9;" horiz-adv-x="333" 
d="M355 614h-305l11 56h306z" />
    <glyph glyph-name="degree" unicode="&#xb0;" horiz-adv-x="400" 
d="M365 527c0 -41.333 -14.667 -76.666 -44 -105.999s-64.666 -44 -105.999 -44s-76.666 14.667 -105.999 44s-44 64.666 -44 105.999s14.667 76.666 44 105.999s64.666 44 105.999 44s76.666 -14.667 105.999 -44s44 -64.666 44 -105.999zM325 527
c0 30 -10.832 55.833 -32.499 77.5s-47.834 32.5 -78.501 32.5c-30 0 -55.667 -10.833 -77 -32.5s-32 -47.5 -32 -77.5c0 -30.667 10.667 -56.667 32 -78s47.333 -32 78 -32c30 0 55.833 10.667 77.5 32s32.5 47.333 32.5 78z" />
    <glyph glyph-name="plusminus" unicode="&#xb1;" horiz-adv-x="606" 
d="M259 367v139h88v-139h209v-88h-209v-139h-88v139h-209v88h209zM50 0v88h506v-88h-506z" />
    <glyph glyph-name="twosuperior" unicode="&#xb2;" 
d="M195 677c30.667 0 56.665 -8.16797 77.998 -24.501s32 -38.833 32 -67.5c0 -24 -11.667 -50 -35 -78c-20.667 -24 -75 -76.667 -163 -158c-4.66699 -4 -7 -7 -7 -9c0 -3.33301 27.667 -5 83 -5c35.333 0 62.333 4 81 12c10 4.66699 19.333 12.667 28 24
c6.66699 8 13.667 12 21 12c6.66699 0 10 -3.33301 10 -10c0 -4.66699 -10.333 -23.334 -31 -56.001s-34 -49 -40 -49c-13.333 0 -32.5 0.5 -57.5 1.5s-43.5 1.5 -55.5 1.5c-7.33301 0 -28.666 -0.5 -63.999 -1.5s-54.333 -1.5 -57 -1.5c-8 0 -12 3.33301 -12 10
c0 2.66699 5.66699 10.334 17 23.001l116 121c54 62.667 81 112.334 81 149.001c0 38 -20 57 -60 57c-25.333 0 -47.833 -8.66699 -67.5 -26s-29.167 -26 -28.5 -26c-8.66699 0 -13 3 -13 9c0 18 16.333 37.833 49 59.5s64.334 32.5 95.001 32.5z" />
    <glyph glyph-name="threesuperior" unicode="&#xb3;" 
d="M127 474c0 6 2.66699 10.3291 8 12.9961c35.333 12.667 59 23.334 71 32.001c22.667 15.333 34 36.333 34 63c0 39.333 -20.667 59 -62 59c-22.667 0 -44.167 -8.33301 -64.5 -25l-30.5 -25c-8.66699 0 -13.334 4.33301 -14.001 13c-0.666992 9.33301 12.333 23 39 41
c31.333 21.333 65 32 101 32c28.667 0 52.667 -6 72 -18c21.333 -14.667 32 -35 32 -61c0 -36.667 -28.667 -65.667 -86 -87v-2c62.667 -15.333 94 -46.666 94 -93.999c0 -39.333 -15.333 -73.666 -46 -102.999c-34 -32 -76.667 -48 -128 -48
c-47.333 0 -84.333 8.33301 -111 25c-18 11.333 -27 21.333 -27 30c0 6.66699 3 10 9 10c2.66699 0 15 -6.33301 37 -19s44.667 -19 68 -19c32.667 0 59.834 10.333 81.501 31s32.5 46.334 32.5 77.001c0 46 -24.667 69 -74 69c-4.66699 0 -9.5 -0.5 -14.5 -1.5
s-7.83301 -1.5 -8.5 -1.5c-8.66699 0 -13 3 -13 9z" />
    <glyph glyph-name="acute" unicode="&#xb4;" horiz-adv-x="333" 
d="M165 510h-32l98 137c19.333 24.667 36.333 37 51 37c25.333 0 38 -11 38 -33c0 -16 -10.667 -32.667 -32 -50z" />
    <glyph glyph-name="mu" unicode="&#xb5;" horiz-adv-x="556" 
d="M391 414h70.9971c12 0 18 -5.33301 18 -16c0 -4.66699 -8.33301 -46 -25 -124s-25 -131.667 -25 -161c0 -26.667 6.33301 -40 19 -40c12 0 24.833 8.83301 38.5 26.5s22.834 26.5 27.501 26.5c9.33301 0 14 -4.33301 14 -13c0 -18.667 -14 -42.334 -42 -71.001
c-34 -35.333 -72.333 -53 -115 -53c-34.667 0 -52 21.667 -52 65c0 18 3.33301 61.333 10 130l-2 2c-30 -57.333 -55.333 -98.333 -76 -123c-41.333 -49.333 -87.666 -74 -138.999 -74c-2 0 -5 0.333008 -9 1h-9c-15.333 0 -23 -16 -23 -48c0 -54 -7 -91.667 -21 -113
c-10 -16 -26 -24 -48 -24c-32 0 -48 15.667 -48 47c0 12.667 12.333 35.334 37 68.001c28 36 45.667 72.667 53 110c30.667 150 46 244 46 282c0 18.667 -7.66699 28 -23 28c-12 0 -22.833 -10.667 -32.5 -32s-18.167 -32 -25.5 -32c-9.33301 0 -14 5.33301 -14 16
c0 27.333 14 56.333 42 87c31.333 33.333 65.333 50 102 50c40.667 0 61 -29.333 61 -88c0 -18 -5.66699 -58.833 -17 -122.5s-17 -100.834 -17 -111.501c0 -22.667 8 -34 24 -34c24.667 0 58.334 38 101.001 114c40.667 72.667 68 139.334 82 200.001
c4 18 9.66699 27 17 27z" />
    <glyph glyph-name="mu" unicode="&#x3bc;" horiz-adv-x="556" 
d="M391 414h70.9971c12 0 18 -5.33301 18 -16c0 -4.66699 -8.33301 -46 -25 -124s-25 -131.667 -25 -161c0 -26.667 6.33301 -40 19 -40c12 0 24.833 8.83301 38.5 26.5s22.834 26.5 27.501 26.5c9.33301 0 14 -4.33301 14 -13c0 -18.667 -14 -42.334 -42 -71.001
c-34 -35.333 -72.333 -53 -115 -53c-34.667 0 -52 21.667 -52 65c0 18 3.33301 61.333 10 130l-2 2c-30 -57.333 -55.333 -98.333 -76 -123c-41.333 -49.333 -87.666 -74 -138.999 -74c-2 0 -5 0.333008 -9 1h-9c-15.333 0 -23 -16 -23 -48c0 -54 -7 -91.667 -21 -113
c-10 -16 -26 -24 -48 -24c-32 0 -48 15.667 -48 47c0 12.667 12.333 35.334 37 68.001c28 36 45.667 72.667 53 110c30.667 150 46 244 46 282c0 18.667 -7.66699 28 -23 28c-12 0 -22.833 -10.667 -32.5 -32s-18.167 -32 -25.5 -32c-9.33301 0 -14 5.33301 -14 16
c0 27.333 14 56.333 42 87c31.333 33.333 65.333 50 102 50c40.667 0 61 -29.333 61 -88c0 -18 -5.66699 -58.833 -17 -122.5s-17 -100.834 -17 -111.501c0 -22.667 8 -34 24 -34c24.667 0 58.334 38 101.001 114c40.667 72.667 68 139.334 82 200.001
c4 18 9.66699 27 17 27z" />
    <glyph glyph-name="paragraph" unicode="&#xb6;" horiz-adv-x="628" 
d="M548 655l-129.999 -724.999h64l-9 -48h-374l9 48h79l71 396c-16 -4 -36 -6 -60 -6c-58 0 -100.667 18.333 -128 55c-20 26.667 -30 59.667 -30 99c0 61.333 18.667 111.666 56 150.999c47.333 50 119.666 75 216.999 75h309l-8 -45h-66zM467.001 655.001h-66l-130 -725
h66zM264.001 363.001l53 291.999c-4 0.666992 -7.66699 1 -11 1c-35.333 0 -62 -33 -80 -99c-12 -43.333 -18 -85.666 -18 -126.999c0 -48.667 18.667 -71 56 -67z" />
    <glyph glyph-name="periodcentered" unicode="&#xb7;" horiz-adv-x="333" 
d="M178 164c-4.66699 0 -11.334 4.33301 -20.001 13l-55 57c-10 10 -15 16.333 -15 19c0 3.33301 5.66699 10.333 17 21c24.667 22 44.334 40.333 59.001 55c9.33301 9.33301 17.333 14 24 14c4.66699 0 11.334 -4.33301 20.001 -13l55 -57c10 -10 15 -16.333 15 -19
c0 -3.33301 -5.66699 -10.333 -17 -21c-24.667 -22 -44.334 -40.333 -59.001 -55c-9.33301 -9.33301 -17.333 -14 -24 -14z" />
    <glyph glyph-name="periodcentered" unicode="&#x2219;" horiz-adv-x="333" 
d="M178 164c-4.66699 0 -11.334 4.33301 -20.001 13l-55 57c-10 10 -15 16.333 -15 19c0 3.33301 5.66699 10.333 17 21c24.667 22 44.334 40.333 59.001 55c9.33301 9.33301 17.333 14 24 14c4.66699 0 11.334 -4.33301 20.001 -13l55 -57c10 -10 15 -16.333 15 -19
c0 -3.33301 -5.66699 -10.333 -17 -21c-24.667 -22 -44.334 -40.333 -59.001 -55c-9.33301 -9.33301 -17.333 -14 -24 -14z" />
    <glyph glyph-name="cedilla" unicode="&#xb8;" horiz-adv-x="333" 
d="M-21 -192l16.998 28.999c22.667 -12 45.334 -18 68.001 -18c36.667 0 55 15.667 55 47c0 12 -5.16699 21.333 -15.5 28s-21.833 9.66699 -34.5 9c-6 0 -16.333 -2 -31 -6l-10 9l66 97h37l-44 -65l2 -2c2.66699 2.66699 12.334 4 29.001 4c22.667 0 41.5 -6.5 56.5 -19.5
s22.5 -30.833 22.5 -53.5c0 -27.333 -15.333 -48.666 -46 -63.999c-24.667 -12 -52 -18 -82 -18c-32.667 0 -62.667 7.66699 -90 23z" />
    <glyph glyph-name="onesuperior" unicode="&#xb9;" 
d="M122 330l28 220.001c1.33301 10.667 2 21.334 2 32.001c0 16.667 -9.33301 25 -28 25c-6.66699 0 -13.667 -0.5 -21 -1.5s-11.666 -1.5 -12.999 -1.5c-7.33301 0 -11 3 -11 9c0 8.66699 7 14 21 16c42 6 74 16 96 30c19.333 12 32 18 38 18c4.66699 0 7 -3.33301 7 -10
c0 -4.66699 -2.33301 -25.334 -7 -62.001l-26 -203c-4.66699 -36.667 -7 -58.334 -7 -65.001c0 -19.333 6.66699 -32.333 20 -39c5.33301 -2.66699 17.666 -4.66699 36.999 -6c13.333 -0.666992 20 -4.66699 20 -12c0 -8 -5.33301 -12 -16 -12
c-6.66699 0 -22.167 0.5 -46.5 1.5s-40.5 1.5 -48.5 1.5c-15.333 0 -34.333 -0.5 -57 -1.5s-36 -1.5 -40 -1.5c-10 0 -15 3.33301 -15 10c0 8 5.33301 12.667 16 14c17.333 2 27.333 3.66699 30 5c12 5.33301 19 16.333 21 33z" />
    <glyph glyph-name="ordmasculine" unicode="&#xba;" horiz-adv-x="300" 
d="M193 713c34 0 61.167 -9.66699 81.5 -29s30.5 -44.333 30.5 -75c0 -42 -12.333 -78.333 -37 -109c-27.333 -34 -63.333 -51 -108 -51c-42 0 -73 13.667 -93 41c-15.333 20.667 -23 46 -23 76c0 43.333 15.667 79 47 107c29.333 26.667 63.333 40 102 40zM118 531
c0 -41.333 14.333 -62 43 -62c48 0 72 54.667 72 164c0 41.333 -15 62 -45 62c-27.333 0 -47 -22.333 -59 -67c-7.33301 -28 -11 -60.333 -11 -97zM37 334h213v50h-213v-50z" />
    <glyph glyph-name="guillemotright" unicode="&#xbb;" horiz-adv-x="500" 
d="M267 219c-2 -1.33301 -49.333 -39.333 -142 -114c-32 -26 -51.667 -39 -59 -39c-5.33301 0 -8 3.33301 -8 10c-0.666992 4.66699 7 16.667 23 36l96 113c-14 30 -30.333 62.667 -49 98c-9.33301 18 -14 29.333 -14 34c0 7.33301 3.33301 11 10 11s17 -8 31 -24zM424 219
c-2 -1.33301 -49.333 -39.333 -142 -114c-32 -26 -51.667 -39 -59 -39c-5.33301 0 -8 3.33301 -8 10c-0.666992 4.66699 7 16.667 23 36l96 113c-14 30 -30.333 62.667 -49 98c-9.33301 18 -14 29.333 -14 34c0 7.33301 3.33301 11 10 11s17 -8 31 -24z" />
    <glyph glyph-name="onequarter" unicode="&#xbc;" 
d="M250 0h-58l444 666h57zM628 69l-167.001 0.000976562c-14 0 -21 5.33301 -21 16c0 28.667 92.333 124 277 286c6.66699 6 11.667 9 15 9c5.33301 0 8 -2 8 -6c0 1.33301 -1 -5.33398 -3 -20.001l-32 -231h27c9.33301 0 17.5 4 24.5 12s12.5 12 16.5 12
c6 0 9 -2.33301 9 -7c0 -9.33301 -2.33301 -22 -7 -38c-7.33301 -22 -16 -33 -26 -33h-50l-15 -118c-1.33301 -11.333 -20.666 -17 -57.999 -17c-12.667 0 -19 2.66699 -19 8c0 -1.33301 7 41 21 127zM634.999 123.001l23 155c-40 -30 -77 -63.667 -111 -101
c-28.667 -30 -43 -47.333 -43 -52c0 -1.33301 2.33301 -2 7 -2h124zM121.999 330.001l28 220.001c1.33301 10.667 2 21.334 2 32.001c0 16.667 -9.33301 25 -28 25c-6.66699 0 -13.667 -0.5 -21 -1.5s-11.666 -1.5 -12.999 -1.5c-7.33301 0 -11 3 -11 9
c0 8.66699 7 14 21 16c42 6 74 16 96 30c19.333 12 32 18 38 18c4.66699 0 7 -3.33301 7 -10c0 -4.66699 -2.33301 -25.334 -7 -62.001l-26 -203c-4.66699 -36.667 -7 -58.334 -7 -65.001c0 -19.333 6.66699 -32.333 20 -39c5.33301 -2.66699 17.666 -4.66699 36.999 -6
c13.333 -0.666992 20 -4.66699 20 -12c0 -8 -5.33301 -12 -16 -12c-6.66699 0 -22.167 0.5 -46.5 1.5s-40.5 1.5 -48.5 1.5c-15.333 0 -34.333 -0.5 -57 -1.5s-36 -1.5 -40 -1.5c-10 0 -15 3.33301 -15 10c0 8 5.33301 12.667 16 14c17.333 2 27.333 3.66699 30 5
c12 5.33301 19 16.333 21 33z" />
    <glyph glyph-name="onehalf" unicode="&#xbd;" 
d="M230 0h-58l444 666h57zM668 406c30.667 0 56.8311 -8.16797 78.498 -24.501s32.5 -38.833 32.5 -67.5c0 -24 -12 -50 -36 -78c-20 -23.333 -74.333 -76 -163 -158c-4.66699 -4 -7 -7 -7 -9c0 -3.33301 27.667 -5 83 -5c35.333 0 62.333 4 81 12
c10 4.66699 19.333 12.667 28 24c6.66699 8 13.667 12 21 12c6.66699 0 10 -3.33301 10 -10c0 -4.66699 -10.333 -23.334 -31 -56.001s-34 -49 -40 -49c-13.333 0 -32.5 0.5 -57.5 1.5s-43.5 1.5 -55.5 1.5c-7.33301 0 -28.666 -0.5 -63.999 -1.5s-54.333 -1.5 -57 -1.5
c-8 0 -12 3.33301 -12 10c0 2.66699 5.66699 10.334 17 23.001l116 121c54 62.667 81 112.334 81 149.001c0 38 -20 57 -60 57c-25.333 0 -47.833 -8.66699 -67.5 -26s-29.167 -26 -28.5 -26c-8.66699 0 -13 3 -13 9c0 18 16.333 37.833 49 59.5s64.334 32.5 95.001 32.5z
M121.997 329.999l28 220.001c1.33301 10.667 2 21.334 2 32.001c0 16.667 -9.33301 25 -28 25c-6.66699 0 -13.667 -0.5 -21 -1.5s-11.666 -1.5 -12.999 -1.5c-7.33301 0 -11 3 -11 9c0 8.66699 7 14 21 16c42 6 74 16 96 30c19.333 12 32 18 38 18
c4.66699 0 7 -3.33301 7 -10c0 -4.66699 -2.33301 -25.334 -7 -62.001l-26 -203c-4.66699 -36.667 -7 -58.334 -7 -65.001c0 -19.333 6.66699 -32.333 20 -39c5.33301 -2.66699 17.666 -4.66699 36.999 -6c13.333 -0.666992 20 -4.66699 20 -12c0 -8 -5.33301 -12 -16 -12
c-6.66699 0 -22.167 0.5 -46.5 1.5s-40.5 1.5 -48.5 1.5c-15.333 0 -34.333 -0.5 -57 -1.5s-36 -1.5 -40 -1.5c-10 0 -15 3.33301 -15 10c0 8 5.33301 12.667 16 14c17.333 2 27.333 3.66699 30 5c12 5.33301 19 16.333 21 33z" />
    <glyph glyph-name="threequarters" unicode="&#xbe;" 
d="M250 0h-58l444 666h57zM628 69l-167.001 0.000976562c-14 0 -21 5.33301 -21 16c0 28.667 92.333 124 277 286c6.66699 6 11.667 9 15 9c5.33301 0 8 -2 8 -6c0 1.33301 -1 -5.33398 -3 -20.001l-32 -231h27c9.33301 0 17.5 4 24.5 12s12.5 12 16.5 12
c6 0 9 -2.33301 9 -7c0 -9.33301 -2.33301 -22 -7 -38c-7.33301 -22 -16 -33 -26 -33h-50l-15 -118c-1.33301 -11.333 -20.666 -17 -57.999 -17c-12.667 0 -19 2.66699 -19 8c0 -1.33301 7 41 21 127zM634.999 123.001l23 155c-40 -30 -77 -63.667 -111 -101
c-28.667 -30 -43 -47.333 -43 -52c0 -1.33301 2.33301 -2 7 -2h124zM126.999 474.001c0 6 2.66602 10.3291 7.99902 12.9961c35.333 12.667 59 23.334 71 32.001c22.667 15.333 34 36.333 34 63c0 39.333 -20.667 59 -62 59c-26 0 -48 -8.33301 -66 -25s-27.667 -25 -29 -25
c-9.33301 0 -14 3 -14 9c0 14 13 29.667 39 47c30 20 63.667 30 101 30c28.667 0 52.667 -6 72 -18c21.333 -14.667 32 -35 32 -61c0 -36.667 -28.667 -65.667 -86 -87v-2c62.667 -15.333 94 -46.666 94 -93.999c0 -39.333 -15.333 -73.666 -46 -102.999
c-34 -32 -76.667 -48 -128 -48c-44.667 0 -80.667 8 -108 24c-20 11.333 -30 21.333 -30 30c0 7.33301 3.66699 11 11 11c2 0 12.667 -6.33301 32 -19s43 -19 71 -19c32.667 0 59.834 10.333 81.501 31s32.5 46.334 32.5 77.001c0 46 -24.667 69 -74 69
c-4.66699 0 -9.5 -0.5 -14.5 -1.5s-7.83301 -1.5 -8.5 -1.5c-8.66699 0 -13 3 -13 9z" />
    <glyph glyph-name="questiondown" unicode="&#xbf;" horiz-adv-x="389" 
d="M10 -72c0 33.333 16.9971 69.333 50.9971 108l95 96c34 36.667 51 69 51 97s4.66699 42 14 42c6.66699 0 13.167 -5.66699 19.5 -17s9.5 -26 9.5 -44c0 -36.667 -18.333 -84.834 -55 -144.501s-55 -104.5 -55 -134.5c0 -25.333 9.66699 -43.333 29 -54
c10.667 -6 22.334 -9 35.001 -9c17.333 0 35.333 7.83301 54 23.5s29.334 23.5 32.001 23.5c9.33301 0 14 -5 14 -15c0 -15.333 -11.667 -33.666 -35 -54.999c-29.333 -26.667 -63.666 -40 -102.999 -40c-40 0 -75 10 -105 30c-34 23.333 -51 54.333 -51 93zM235.997 350
c-4.66699 0 -11.334 4.33301 -20.001 13l-55 57c-10 10 -15 16.333 -15 19c0 3.33301 5.66699 10.333 17 21c24.667 22 44.334 40.333 59.001 55c9.33301 9.33301 17.333 14 24 14c4.66699 0 11.334 -4.33301 20.001 -13l55 -57c10 -10 15 -16.333 15 -19
c0 -3.33301 -5.66699 -10.333 -17 -21c-24.667 -22 -44.334 -40.333 -59.001 -55c-9.33301 -9.33301 -17.333 -14 -24 -14z" />
    <glyph glyph-name="Agrave" unicode="&#xc0;" horiz-adv-x="722" 
d="M319 497l-72.002 -137.001c-14.667 -28 -22 -44 -22 -48c0 -11.333 26 -17 78 -17c40.667 0 67.334 1 80.001 3c20 2 30 7.66699 30 17c0 8.66699 -5.66699 29.334 -17 62.001l-40 115c-7.33301 21.333 -12.666 32 -15.999 32c-4.66699 0 -11.667 -9 -21 -27z
M44.998 79.999l328.995 610.999c11.333 20.667 20 31 26 31c8 0 15 -9.33301 21 -28l183 -576c10.667 -34 26.334 -56.667 47.001 -68c6.66699 -4 22.334 -8.33301 47.001 -13c14.667 -2.66699 22 -10.667 22 -24c0 -11.333 -10.333 -17 -31 -17
c-6.66699 0 -18.167 0.666992 -34.5 2s-30.5 2 -42.5 2c-33.333 0 -67.666 -0.666992 -102.999 -2s-58 -2 -68 -2c-20.667 0 -31 5.33301 -31 16c0 9.33301 5.66699 16 17 20c18.667 6 29.334 10 32.001 12c11.333 8 17 22 17 42c0 13.333 -6 40.333 -18 81
c-14 48 -27.333 73 -40 75c-23.333 4 -62.333 6 -117 6c-56 0 -88.333 -0.666992 -97 -2c-15.333 -2 -33 -24 -53 -66c-19.333 -38.667 -29 -67.667 -29 -87s8.66699 -33.666 26 -42.999c2.66699 -1.33301 18.667 -6 48 -14c17.333 -5.33301 26 -13 26 -23
c0 -11.333 -10.333 -17 -31 -17c-6 0 -18.167 0.666992 -36.5 2s-36.166 2 -53.499 2c-16.667 0 -35.5 -0.666992 -56.5 -2s-35.833 -2 -44.5 -2c-19.333 0 -29 5 -29 15c0 7.33301 9.33301 16 28 26c22 12 37.333 26.333 46 43zM460.993 793.998h-32l-122 91
c-22 17.333 -33 34 -33 50c0 22 12.667 33 38 33c14.667 0 31.667 -12.333 51 -37z" />
    <glyph glyph-name="Aacute" unicode="&#xc1;" horiz-adv-x="722" 
d="M319 497l-72.002 -137.001c-14.667 -28 -22 -44 -22 -48c0 -11.333 26 -17 78 -17c40.667 0 67.334 1 80.001 3c20 2 30 7.66699 30 17c0 8.66699 -5.66699 29.334 -17 62.001l-40 115c-7.33301 21.333 -12.666 32 -15.999 32c-4.66699 0 -11.667 -9 -21 -27z
M44.998 79.999l328.995 610.999c11.333 20.667 20 31 26 31c8 0 15 -9.33301 21 -28l183 -576c10.667 -34 26.334 -56.667 47.001 -68c6.66699 -4 22.334 -8.33301 47.001 -13c14.667 -2.66699 22 -10.667 22 -24c0 -11.333 -10.333 -17 -31 -17
c-6.66699 0 -18.167 0.666992 -34.5 2s-30.5 2 -42.5 2c-33.333 0 -67.666 -0.666992 -102.999 -2s-58 -2 -68 -2c-20.667 0 -31 5.33301 -31 16c0 9.33301 5.66699 16 17 20c18.667 6 29.334 10 32.001 12c11.333 8 17 22 17 42c0 13.333 -6 40.333 -18 81
c-14 48 -27.333 73 -40 75c-23.333 4 -62.333 6 -117 6c-56 0 -88.333 -0.666992 -97 -2c-15.333 -2 -33 -24 -53 -66c-19.333 -38.667 -29 -67.667 -29 -87s8.66699 -33.666 26 -42.999c2.66699 -1.33301 18.667 -6 48 -14c17.333 -5.33301 26 -13 26 -23
c0 -11.333 -10.333 -17 -31 -17c-6 0 -18.167 0.666992 -36.5 2s-36.166 2 -53.499 2c-16.667 0 -35.5 -0.666992 -56.5 -2s-35.833 -2 -44.5 -2c-19.333 0 -29 5 -29 15c0 7.33301 9.33301 16 28 26c22 12 37.333 26.333 46 43zM359.993 793.998h-32l98 137
c19.333 24.667 36.333 37 51 37c25.333 0 38 -11 38 -33c0 -16 -10.667 -32.667 -32 -50z" />
    <glyph glyph-name="Acircumflex" unicode="&#xc2;" horiz-adv-x="722" 
d="M319 497l-72.002 -137.001c-14.667 -28 -22 -44 -22 -48c0 -11.333 26 -17 78 -17c40.667 0 67.334 1 80.001 3c20 2 30 7.66699 30 17c0 8.66699 -5.66699 29.334 -17 62.001l-40 115c-7.33301 21.333 -12.666 32 -15.999 32c-4.66699 0 -11.667 -9 -21 -27z
M44.998 79.999l328.995 610.999c11.333 20.667 20 31 26 31c8 0 15 -9.33301 21 -28l183 -576c10.667 -34 26.334 -56.667 47.001 -68c6.66699 -4 22.334 -8.33301 47.001 -13c14.667 -2.66699 22 -10.667 22 -24c0 -11.333 -10.333 -17 -31 -17
c-6.66699 0 -18.167 0.666992 -34.5 2s-30.5 2 -42.5 2c-33.333 0 -67.666 -0.666992 -102.999 -2s-58 -2 -68 -2c-20.667 0 -31 5.33301 -31 16c0 9.33301 5.66699 16 17 20c18.667 6 29.334 10 32.001 12c11.333 8 17 22 17 42c0 13.333 -6 40.333 -18 81
c-14 48 -27.333 73 -40 75c-23.333 4 -62.333 6 -117 6c-56 0 -88.333 -0.666992 -97 -2c-15.333 -2 -33 -24 -53 -66c-19.333 -38.667 -29 -67.667 -29 -87s8.66699 -33.666 26 -42.999c2.66699 -1.33301 18.667 -6 48 -14c17.333 -5.33301 26 -13 26 -23
c0 -11.333 -10.333 -17 -31 -17c-6 0 -18.167 0.666992 -36.5 2s-36.166 2 -53.499 2c-16.667 0 -35.5 -0.666992 -56.5 -2s-35.833 -2 -44.5 -2c-19.333 0 -29 5 -29 15c0 7.33301 9.33301 16 28 26c22 12 37.333 26.333 46 43zM444.993 953.998l86 -170h-40l-85 101
l-135 -101h-42l158 170h58z" />
    <glyph glyph-name="Atilde" unicode="&#xc3;" horiz-adv-x="722" 
d="M319 497l-72.002 -137.001c-14.667 -28 -22 -44 -22 -48c0 -11.333 26 -17 78 -17c40.667 0 67.334 1 80.001 3c20 2 30 7.66699 30 17c0 8.66699 -5.66699 29.334 -17 62.001l-40 115c-7.33301 21.333 -12.666 32 -15.999 32c-4.66699 0 -11.667 -9 -21 -27z
M44.998 79.999l328.995 610.999c11.333 20.667 20 31 26 31c8 0 15 -9.33301 21 -28l183 -576c10.667 -34 26.334 -56.667 47.001 -68c6.66699 -4 22.334 -8.33301 47.001 -13c14.667 -2.66699 22 -10.667 22 -24c0 -11.333 -10.333 -17 -31 -17
c-6.66699 0 -18.167 0.666992 -34.5 2s-30.5 2 -42.5 2c-33.333 0 -67.666 -0.666992 -102.999 -2s-58 -2 -68 -2c-20.667 0 -31 5.33301 -31 16c0 9.33301 5.66699 16 17 20c18.667 6 29.334 10 32.001 12c11.333 8 17 22 17 42c0 13.333 -6 40.333 -18 81
c-14 48 -27.333 73 -40 75c-23.333 4 -62.333 6 -117 6c-56 0 -88.333 -0.666992 -97 -2c-15.333 -2 -33 -24 -53 -66c-19.333 -38.667 -29 -67.667 -29 -87s8.66699 -33.666 26 -42.999c2.66699 -1.33301 18.667 -6 48 -14c17.333 -5.33301 26 -13 26 -23
c0 -11.333 -10.333 -17 -31 -17c-6 0 -18.167 0.666992 -36.5 2s-36.166 2 -53.499 2c-16.667 0 -35.5 -0.666992 -56.5 -2s-35.833 -2 -44.5 -2c-19.333 0 -29 5 -29 15c0 7.33301 9.33301 16 28 26c22 12 37.333 26.333 46 43zM542.993 923.998h33.001
c-13.333 -72.667 -47.333 -109 -102 -109c-14.667 0 -40 7.33301 -76 22s-59.667 22 -71 22c-26.667 0 -44 -15.333 -52 -46h-33c15.333 74 49.666 111 102.999 111c14 0 40 -7.5 78 -22.5s60 -22.5 66 -22.5c32.667 0 50.667 15 54 45z" />
    <glyph glyph-name="Adieresis" unicode="&#xc4;" horiz-adv-x="722" 
d="M319 497l-72.002 -137.001c-14.667 -28 -22 -44 -22 -48c0 -11.333 26 -17 78 -17c40.667 0 67.334 1 80.001 3c20 2 30 7.66699 30 17c0 8.66699 -5.66699 29.334 -17 62.001l-40 115c-7.33301 21.333 -12.666 32 -15.999 32c-4.66699 0 -11.667 -9 -21 -27z
M44.998 79.999l328.995 610.999c11.333 20.667 20 31 26 31c8 0 15 -9.33301 21 -28l183 -576c10.667 -34 26.334 -56.667 47.001 -68c6.66699 -4 22.334 -8.33301 47.001 -13c14.667 -2.66699 22 -10.667 22 -24c0 -11.333 -10.333 -17 -31 -17
c-6.66699 0 -18.167 0.666992 -34.5 2s-30.5 2 -42.5 2c-33.333 0 -67.666 -0.666992 -102.999 -2s-58 -2 -68 -2c-20.667 0 -31 5.33301 -31 16c0 9.33301 5.66699 16 17 20c18.667 6 29.334 10 32.001 12c11.333 8 17 22 17 42c0 13.333 -6 40.333 -18 81
c-14 48 -27.333 73 -40 75c-23.333 4 -62.333 6 -117 6c-56 0 -88.333 -0.666992 -97 -2c-15.333 -2 -33 -24 -53 -66c-19.333 -38.667 -29 -67.667 -29 -87s8.66699 -33.666 26 -42.999c2.66699 -1.33301 18.667 -6 48 -14c17.333 -5.33301 26 -13 26 -23
c0 -11.333 -10.333 -17 -31 -17c-6 0 -18.167 0.666992 -36.5 2s-36.166 2 -53.499 2c-16.667 0 -35.5 -0.666992 -56.5 -2s-35.833 -2 -44.5 -2c-19.333 0 -29 5 -29 15c0 7.33301 9.33301 16 28 26c22 12 37.333 26.333 46 43zM319.993 817.998
c-9.33301 0 -20.833 7 -34.5 21s-20.5 24.667 -20.5 32s6.83301 18 20.5 32s24.167 21 31.5 21c9.33301 0 20.666 -7 33.999 -21s20 -24.667 20 -32s-6.66699 -18 -20 -32s-23.666 -21 -30.999 -21zM510.993 817.998c-9.33301 0 -20.833 7 -34.5 21s-20.5 24.667 -20.5 32
s6.83301 18 20.5 32s24.167 21 31.5 21c9.33301 0 20.666 -7 33.999 -21s20 -24.667 20 -32s-6.66699 -18 -20 -32s-23.666 -21 -30.999 -21z" />
    <glyph glyph-name="Aring" unicode="&#xc5;" horiz-adv-x="722" 
d="M319 497l-72.002 -137.001c-14.667 -28 -22 -44 -22 -48c0 -11.333 26 -17 78 -17c40.667 0 67.334 1 80.001 3c20 2 30 7.66699 30 17c0 8.66699 -5.66699 29.334 -17 62.001l-40 115c-7.33301 21.333 -12.666 32 -15.999 32c-4.66699 0 -11.667 -9 -21 -27z
M44.998 79.999l328.995 610.999c11.333 20.667 20 31 26 31c8 0 15 -9.33301 21 -28l183 -576c10.667 -34 26.334 -56.667 47.001 -68c6.66699 -4 22.334 -8.33301 47.001 -13c14.667 -2.66699 22 -10.667 22 -24c0 -11.333 -10.333 -17 -31 -17
c-6.66699 0 -18.167 0.666992 -34.5 2s-30.5 2 -42.5 2c-33.333 0 -67.666 -0.666992 -102.999 -2s-58 -2 -68 -2c-20.667 0 -31 5.33301 -31 16c0 9.33301 5.66699 16 17 20c18.667 6 29.334 10 32.001 12c11.333 8 17 22 17 42c0 13.333 -6 40.333 -18 81
c-14 48 -27.333 73 -40 75c-23.333 4 -62.333 6 -117 6c-56 0 -88.333 -0.666992 -97 -2c-15.333 -2 -33 -24 -53 -66c-19.333 -38.667 -29 -67.667 -29 -87s8.66699 -33.666 26 -42.999c2.66699 -1.33301 18.667 -6 48 -14c17.333 -5.33301 26 -13 26 -23
c0 -11.333 -10.333 -17 -31 -17c-6 0 -18.167 0.666992 -36.5 2s-36.166 2 -53.499 2c-16.667 0 -35.5 -0.666992 -56.5 -2s-35.833 -2 -44.5 -2c-19.333 0 -29 5 -29 15c0 7.33301 9.33301 16 28 26c22 12 37.333 26.333 46 43zM437.993 750.998
c-28 0 -52 9.83301 -72 29.5s-30 43.5 -30 71.5s10 52 30 72s44 30 72 30s51.833 -10 71.5 -30s29.5 -44 29.5 -72c0 -27.333 -10 -51 -30 -71s-43.667 -30 -71 -30zM437.993 908.998c-16 0 -29.499 -5.49902 -40.499 -16.499s-16.5 -24.5 -16.5 -40.5
c0 -15.333 5.66699 -28.5 17 -39.5s24.666 -16.5 39.999 -16.5s28.5 5.66699 39.5 17s16.5 24.333 16.5 39c0 15.333 -5.5 28.666 -16.5 39.999s-24.167 17 -39.5 17z" />
    <glyph glyph-name="AE" unicode="&#xc6;" horiz-adv-x="889" 
d="M266 322h118c28.667 0 44 9.33301 46 28l31 290c0 14 -6.33301 21 -19 21c-11.333 0 -27.333 -17 -48 -51l-140 -223c-20.667 -31.333 -31 -48.333 -31 -51c0 -9.33301 14.333 -14 43 -14zM14 85l302.003 472.998c21.333 33.333 32 57.333 32 72
c0 16 -8.33301 26.333 -25 31l-45 5c-16.667 2 -25 7.66699 -25 17c0 14 5.33301 21 16 21c7.33301 0 49.666 -0.666992 126.999 -2s137.666 -2 180.999 -2c71.333 0 138.5 0.666992 201.5 2s91.833 2 86.5 2c14 0 21 -3.66699 21 -11v-125c0 -17.333 -4.33301 -26 -13 -26
c-10.667 0 -18.667 11 -24 33c-6 26.667 -12.333 43 -19 49c-13.333 12 -25.666 19.667 -36.999 23c-26 8.66699 -68.667 13 -128 13c-36.667 0 -58.667 -3.33301 -66 -10c-10 -9.33301 -19 -45.333 -27 -108c-6.66699 -50 -10 -87 -10 -111c0 -30.667 6.33301 -46 19 -46
h43c36 0 64 8 84 24c11.333 8.66699 22.666 23.334 33.999 44.001c8 16 16 24 24 24c8.66699 0 13 -6.33301 13 -19c0 12 -7.66699 -58.667 -23 -212c-0.666992 -7.33301 -5 -11 -13 -11c-7.33301 0 -13.666 9.33301 -18.999 28c-6.66699 24.667 -15 42.334 -25 53.001
c-18 18.667 -46.333 28 -85 28h-15c-13.333 0 -26.333 -3.66699 -39 -11c-8.66699 -5.33301 -16.334 -39 -23.001 -101c-5.33301 -48 -8 -83.667 -8 -107c0 -34.667 5.66699 -57.167 17 -67.5s33 -15.5 65 -15.5c54 0 100.333 11.667 139 35c24.667 14.667 48.667 36 72 64
c18.667 23.333 30.667 35 36 35c8 0 12 -7.66699 12 -23c0 -25.333 -11.667 -56 -35 -92c-27.333 -43.333 -57.666 -65 -90.999 -65c-13.333 0 -48.666 0.666992 -105.999 2s-102 2 -134 2c-34.667 -0 -69.167 -0.666992 -103.5 -2s-57.166 -2 -68.499 -2
c-12.667 0 -19 3.33301 -19 10c0 12 6.66699 20.333 20 25c22 8.66699 35 14.334 39 17.001c14.667 11.333 23.667 30 27 56c12.667 106 19 154.667 19 146c0 10.667 -3.33301 17 -10 19c-13.333 4.66699 -47 7 -101 7c-62 0 -101.667 -3.66699 -119 -11
c-14.667 -6 -35.167 -32 -61.5 -78s-39.5 -77.333 -39.5 -94c0 -20 8.66699 -34.333 26 -43c2.66699 -1.33301 18.667 -6 48 -14c17.333 -4.66699 26 -12.334 26 -23.001c0 -11.333 -10.333 -17 -31 -17c-4.66699 0 -17.334 0.666992 -38.001 2s-42.334 2 -65.001 2
c-14.667 -0 -31.834 -0.666992 -51.501 -2s-33.5 -2 -41.5 -2c-16 0 -24 5.66699 -24 17c0 8 7.66699 15.333 23 22c21.333 9.33301 39.666 26 54.999 50z" />
    <glyph glyph-name="Ccedilla" unicode="&#xc7;" horiz-adv-x="667" 
d="M648 626l-0.000976562 -147v-29c-1.33301 -6 -5.66602 -9 -12.999 -9c-8 0 -21 20 -39 60c-23.333 49.333 -46.666 86 -69.999 110c-38 40 -85.667 60 -143 60c-52.667 0 -97.667 -17 -135 -51c-58 -53.333 -87 -142 -87 -266c0 -73.333 17.667 -139 53 -197
c41.333 -67.333 97 -101 167 -101c41.333 0 79.666 11.333 114.999 34c22.667 14.667 46.334 36 71.001 64c20.667 22.667 33 34 37 34c10 0 15 -4.33301 15 -13c0 -16 -13 -38.333 -39 -67c-29.333 -32 -63.333 -58.667 -102 -80c-47.333 -26 -93.666 -39 -138.999 -39
c-96 0 -173 33 -231 99c-54.667 63.333 -82 143.333 -82 240c0 96 28.667 181.333 86 256c65.333 86 151.666 129 258.999 129c41.333 0 79.666 -5.66699 114.999 -17c22.667 -6.66699 46 -17 70 -31c20 -11.333 32 -17 36 -17s10 3 18 9s15.333 9 22 9
c10.667 0 16 -13.333 16 -40zM145.999 -192l16.998 28.999c22.667 -12 45.334 -18 68.001 -18c36.667 0 55 15.667 55 47c0 12 -5.16699 21.333 -15.5 28s-21.833 9.66699 -34.5 9c-6 0 -16.333 -2 -31 -6l-10 9l66 97h37l-44 -65l2 -2c2.66699 2.66699 12.334 4 29.001 4
c22.667 0 41.5 -6.5 56.5 -19.5s22.5 -30.833 22.5 -53.5c0 -27.333 -15.333 -48.666 -46 -63.999c-24.667 -12 -52 -18 -82 -18c-32.667 0 -62.667 7.66699 -90 23z" />
    <glyph glyph-name="Egrave" unicode="&#xc8;" horiz-adv-x="667" 
d="M260 385l105.003 -0.00195312c36 0 64 8 84 24c11.333 8.66699 22.666 23.334 33.999 44.001c8 16 16 24 24 24c8.66699 0 13 -6.33301 13 -19c0 12 -7.66699 -58.667 -23 -212c-0.666992 -7.33301 -5 -11 -13 -11c-7.33301 0 -13.666 9.33301 -18.999 28
c-6.66699 24.667 -15 42.334 -25 53.001c-18 18.667 -46.333 28 -85 28h-77c-13.333 0 -26.333 -3.66699 -39 -11c-8.66699 -5.33301 -16.334 -39 -23.001 -101c-5.33301 -48 -8 -83.667 -8 -107c0 -34.667 5.66699 -57.167 17 -67.5s33 -15.5 65 -15.5
c72.667 0 133.667 11.667 183 35c32.667 15.333 62 36.666 88 63.999c21.333 23.333 34 35 38 35c8 0 12 -7.66699 12 -23c0 -25.333 -11.667 -56 -35 -92c-27.333 -43.333 -57.666 -65 -90.999 -65c-39.333 0 -92.833 0.666992 -160.5 2s-114.834 2 -141.501 2
c-34.667 0 -69.167 -0.666992 -103.5 -2s-57.166 -2 -68.499 -2c-12.667 0 -19 3.33301 -19 10c0 12 6.66699 20.333 20 25c22 8.66699 35 14.334 39 17.001c14.667 11.333 23.667 30 27 56l52 428c6 49.333 9 77.333 9 84c0 21.333 -8.33301 36.333 -25 45
c-5.33301 2.66699 -21 6.33398 -47 11.001c-16.667 3.33301 -25 9.66602 -25 18.999c0 8.66699 7.66699 13 23 13c21.333 0 53.166 -0.666992 95.499 -2s74.166 -2 95.499 -2c92.667 0 176.667 0.666992 252 2s108 2 98 2c14 0 21 -3.66699 21 -11v-125
c0 -17.333 -4.33301 -26 -13 -26c-10.667 0 -18.667 11 -24 33c-6 26.667 -12.333 43 -19 49c-12.667 11.333 -27.667 19 -45 23c-34.667 8.66699 -95.334 13 -182.001 13c-36.667 0 -58.667 -3.33301 -66 -10c-10 -9.33301 -19 -45.333 -27 -108
c-6.66699 -50 -10 -87 -10 -111c0 -30.667 6.33301 -46 19 -46zM433.003 793.998h-32l-122 91c-22 17.333 -33 34 -33 50c0 22 12.667 33 38 33c14.667 0 31.667 -12.333 51 -37z" />
    <glyph glyph-name="Eacute" unicode="&#xc9;" horiz-adv-x="667" 
d="M260 385l105.003 -0.00195312c36 0 64 8 84 24c11.333 8.66699 22.666 23.334 33.999 44.001c8 16 16 24 24 24c8.66699 0 13 -6.33301 13 -19c0 12 -7.66699 -58.667 -23 -212c-0.666992 -7.33301 -5 -11 -13 -11c-7.33301 0 -13.666 9.33301 -18.999 28
c-6.66699 24.667 -15 42.334 -25 53.001c-18 18.667 -46.333 28 -85 28h-77c-13.333 0 -26.333 -3.66699 -39 -11c-8.66699 -5.33301 -16.334 -39 -23.001 -101c-5.33301 -48 -8 -83.667 -8 -107c0 -34.667 5.66699 -57.167 17 -67.5s33 -15.5 65 -15.5
c72.667 0 133.667 11.667 183 35c32.667 15.333 62 36.666 88 63.999c21.333 23.333 34 35 38 35c8 0 12 -7.66699 12 -23c0 -25.333 -11.667 -56 -35 -92c-27.333 -43.333 -57.666 -65 -90.999 -65c-39.333 0 -92.833 0.666992 -160.5 2s-114.834 2 -141.501 2
c-34.667 0 -69.167 -0.666992 -103.5 -2s-57.166 -2 -68.499 -2c-12.667 0 -19 3.33301 -19 10c0 12 6.66699 20.333 20 25c22 8.66699 35 14.334 39 17.001c14.667 11.333 23.667 30 27 56l52 428c6 49.333 9 77.333 9 84c0 21.333 -8.33301 36.333 -25 45
c-5.33301 2.66699 -21 6.33398 -47 11.001c-16.667 3.33301 -25 9.66602 -25 18.999c0 8.66699 7.66699 13 23 13c21.333 0 53.166 -0.666992 95.499 -2s74.166 -2 95.499 -2c92.667 0 176.667 0.666992 252 2s108 2 98 2c14 0 21 -3.66699 21 -11v-125
c0 -17.333 -4.33301 -26 -13 -26c-10.667 0 -18.667 11 -24 33c-6 26.667 -12.333 43 -19 49c-12.667 11.333 -27.667 19 -45 23c-34.667 8.66699 -95.334 13 -182.001 13c-36.667 0 -58.667 -3.33301 -66 -10c-10 -9.33301 -19 -45.333 -27 -108
c-6.66699 -50 -10 -87 -10 -111c0 -30.667 6.33301 -46 19 -46zM332.003 793.998h-32l98 137c19.333 24.667 36.333 37 51 37c25.333 0 38 -11 38 -33c0 -16 -10.667 -32.667 -32 -50z" />
    <glyph glyph-name="Ecircumflex" unicode="&#xca;" horiz-adv-x="667" 
d="M260 385l105.003 -0.00195312c36 0 64 8 84 24c11.333 8.66699 22.666 23.334 33.999 44.001c8 16 16 24 24 24c8.66699 0 13 -6.33301 13 -19c0 12 -7.66699 -58.667 -23 -212c-0.666992 -7.33301 -5 -11 -13 -11c-7.33301 0 -13.666 9.33301 -18.999 28
c-6.66699 24.667 -15 42.334 -25 53.001c-18 18.667 -46.333 28 -85 28h-77c-13.333 0 -26.333 -3.66699 -39 -11c-8.66699 -5.33301 -16.334 -39 -23.001 -101c-5.33301 -48 -8 -83.667 -8 -107c0 -34.667 5.66699 -57.167 17 -67.5s33 -15.5 65 -15.5
c72.667 0 133.667 11.667 183 35c32.667 15.333 62 36.666 88 63.999c21.333 23.333 34 35 38 35c8 0 12 -7.66699 12 -23c0 -25.333 -11.667 -56 -35 -92c-27.333 -43.333 -57.666 -65 -90.999 -65c-39.333 0 -92.833 0.666992 -160.5 2s-114.834 2 -141.501 2
c-34.667 0 -69.167 -0.666992 -103.5 -2s-57.166 -2 -68.499 -2c-12.667 0 -19 3.33301 -19 10c0 12 6.66699 20.333 20 25c22 8.66699 35 14.334 39 17.001c14.667 11.333 23.667 30 27 56l52 428c6 49.333 9 77.333 9 84c0 21.333 -8.33301 36.333 -25 45
c-5.33301 2.66699 -21 6.33398 -47 11.001c-16.667 3.33301 -25 9.66602 -25 18.999c0 8.66699 7.66699 13 23 13c21.333 0 53.166 -0.666992 95.499 -2s74.166 -2 95.499 -2c92.667 0 176.667 0.666992 252 2s108 2 98 2c14 0 21 -3.66699 21 -11v-125
c0 -17.333 -4.33301 -26 -13 -26c-10.667 0 -18.667 11 -24 33c-6 26.667 -12.333 43 -19 49c-12.667 11.333 -27.667 19 -45 23c-34.667 8.66699 -95.334 13 -182.001 13c-36.667 0 -58.667 -3.33301 -66 -10c-10 -9.33301 -19 -45.333 -27 -108
c-6.66699 -50 -10 -87 -10 -111c0 -30.667 6.33301 -46 19 -46zM417.003 953.998l86 -170h-40l-85 101l-135 -101h-42l158 170h58z" />
    <glyph glyph-name="Edieresis" unicode="&#xcb;" horiz-adv-x="667" 
d="M260 385l105.003 -0.00195312c36 0 64 8 84 24c11.333 8.66699 22.666 23.334 33.999 44.001c8 16 16 24 24 24c8.66699 0 13 -6.33301 13 -19c0 12 -7.66699 -58.667 -23 -212c-0.666992 -7.33301 -5 -11 -13 -11c-7.33301 0 -13.666 9.33301 -18.999 28
c-6.66699 24.667 -15 42.334 -25 53.001c-18 18.667 -46.333 28 -85 28h-77c-13.333 0 -26.333 -3.66699 -39 -11c-8.66699 -5.33301 -16.334 -39 -23.001 -101c-5.33301 -48 -8 -83.667 -8 -107c0 -34.667 5.66699 -57.167 17 -67.5s33 -15.5 65 -15.5
c72.667 0 133.667 11.667 183 35c32.667 15.333 62 36.666 88 63.999c21.333 23.333 34 35 38 35c8 0 12 -7.66699 12 -23c0 -25.333 -11.667 -56 -35 -92c-27.333 -43.333 -57.666 -65 -90.999 -65c-39.333 0 -92.833 0.666992 -160.5 2s-114.834 2 -141.501 2
c-34.667 0 -69.167 -0.666992 -103.5 -2s-57.166 -2 -68.499 -2c-12.667 0 -19 3.33301 -19 10c0 12 6.66699 20.333 20 25c22 8.66699 35 14.334 39 17.001c14.667 11.333 23.667 30 27 56l52 428c6 49.333 9 77.333 9 84c0 21.333 -8.33301 36.333 -25 45
c-5.33301 2.66699 -21 6.33398 -47 11.001c-16.667 3.33301 -25 9.66602 -25 18.999c0 8.66699 7.66699 13 23 13c21.333 0 53.166 -0.666992 95.499 -2s74.166 -2 95.499 -2c92.667 0 176.667 0.666992 252 2s108 2 98 2c14 0 21 -3.66699 21 -11v-125
c0 -17.333 -4.33301 -26 -13 -26c-10.667 0 -18.667 11 -24 33c-6 26.667 -12.333 43 -19 49c-12.667 11.333 -27.667 19 -45 23c-34.667 8.66699 -95.334 13 -182.001 13c-36.667 0 -58.667 -3.33301 -66 -10c-10 -9.33301 -19 -45.333 -27 -108
c-6.66699 -50 -10 -87 -10 -111c0 -30.667 6.33301 -46 19 -46zM292.003 817.998c-9.33301 0 -20.833 7 -34.5 21s-20.5 24.667 -20.5 32s6.83301 18 20.5 32s24.167 21 31.5 21c9.33301 0 20.666 -7 33.999 -21s20 -24.667 20 -32s-6.66699 -18 -20 -32
s-23.666 -21 -30.999 -21zM483.003 817.998c-9.33301 0 -20.833 7 -34.5 21s-20.5 24.667 -20.5 32s6.83301 18 20.5 32s24.167 21 31.5 21c9.33301 0 20.666 -7 33.999 -21s20 -24.667 20 -32s-6.66699 -18 -20 -32s-23.666 -21 -30.999 -21z" />
    <glyph glyph-name="Igrave" unicode="&#xcc;" horiz-adv-x="389" 
d="M286 608l-46.999 -418c-3.33301 -29.333 -5 -59.666 -5 -90.999c0 -23.333 8.33301 -40 25 -50c5.33301 -3.33301 21 -9 47 -17c16.667 -4.66699 25 -12 25 -22c0 -9.33301 -13.333 -14 -40 -14c-7.33301 0 -23.5 0.666992 -48.5 2s-46.833 2 -65.5 2
c-15.333 0 -35.166 -0.666992 -59.499 -2s-41.5 -2 -51.5 -2c-24.667 0 -37 6 -37 18c0 7.33301 5.66699 13.666 17 18.999c18 8.66699 29 14.667 33 18c12.667 10 20 24.333 22 43l54 447c3.33301 27.333 5 44.333 5 51c0 28 -7.33301 47.667 -22 59
c-5.33301 4 -19.333 9.33301 -42 16c-14.667 4.66699 -22 12.667 -22 24c0 8.66699 10.667 13 32 13c3.33301 0 19.666 -0.666992 48.999 -2s60.333 -2 93 -2c11.333 0 27.666 0.666992 48.999 2s36.333 2 45 2c16 0 24 -5 24 -15c0 -8.66699 -6.33301 -15.667 -19 -21
c-20.667 -8 -33 -13.333 -37 -16c-14 -10 -22 -24.667 -24 -44zM294.001 794h-32l-122 91c-22 17.333 -33 34 -33 50c0 22 12.667 33 38 33c14.667 0 31.667 -12.333 51 -37z" />
    <glyph glyph-name="Iacute" unicode="&#xcd;" horiz-adv-x="389" 
d="M286 608l-46.999 -418c-3.33301 -29.333 -5 -59.666 -5 -90.999c0 -23.333 8.33301 -40 25 -50c5.33301 -3.33301 21 -9 47 -17c16.667 -4.66699 25 -12 25 -22c0 -9.33301 -13.333 -14 -40 -14c-7.33301 0 -23.5 0.666992 -48.5 2s-46.833 2 -65.5 2
c-15.333 0 -35.166 -0.666992 -59.499 -2s-41.5 -2 -51.5 -2c-24.667 0 -37 6 -37 18c0 7.33301 5.66699 13.666 17 18.999c18 8.66699 29 14.667 33 18c12.667 10 20 24.333 22 43l54 447c3.33301 27.333 5 44.333 5 51c0 28 -7.33301 47.667 -22 59
c-5.33301 4 -19.333 9.33301 -42 16c-14.667 4.66699 -22 12.667 -22 24c0 8.66699 10.667 13 32 13c3.33301 0 19.666 -0.666992 48.999 -2s60.333 -2 93 -2c11.333 0 27.666 0.666992 48.999 2s36.333 2 45 2c16 0 24 -5 24 -15c0 -8.66699 -6.33301 -15.667 -19 -21
c-20.667 -8 -33 -13.333 -37 -16c-14 -10 -22 -24.667 -24 -44zM193.001 794h-32l98 137c19.333 24.667 36.333 37 51 37c25.333 0 38 -11 38 -33c0 -16 -10.667 -32.667 -32 -50z" />
    <glyph glyph-name="Icircumflex" unicode="&#xce;" horiz-adv-x="389" 
d="M286 608l-46.999 -418c-3.33301 -29.333 -5 -59.666 -5 -90.999c0 -23.333 8.33301 -40 25 -50c5.33301 -3.33301 21 -9 47 -17c16.667 -4.66699 25 -12 25 -22c0 -9.33301 -13.333 -14 -40 -14c-7.33301 0 -23.5 0.666992 -48.5 2s-46.833 2 -65.5 2
c-15.333 0 -35.166 -0.666992 -59.499 -2s-41.5 -2 -51.5 -2c-24.667 0 -37 6 -37 18c0 7.33301 5.66699 13.666 17 18.999c18 8.66699 29 14.667 33 18c12.667 10 20 24.333 22 43l54 447c3.33301 27.333 5 44.333 5 51c0 28 -7.33301 47.667 -22 59
c-5.33301 4 -19.333 9.33301 -42 16c-14.667 4.66699 -22 12.667 -22 24c0 8.66699 10.667 13 32 13c3.33301 0 19.666 -0.666992 48.999 -2s60.333 -2 93 -2c11.333 0 27.666 0.666992 48.999 2s36.333 2 45 2c16 0 24 -5 24 -15c0 -8.66699 -6.33301 -15.667 -19 -21
c-20.667 -8 -33 -13.333 -37 -16c-14 -10 -22 -24.667 -24 -44zM278.001 954l86 -170h-40l-85 101l-135 -101h-42l158 170h58z" />
    <glyph glyph-name="Idieresis" unicode="&#xcf;" horiz-adv-x="389" 
d="M286 608l-46.999 -418c-3.33301 -29.333 -5 -59.666 -5 -90.999c0 -23.333 8.33301 -40 25 -50c5.33301 -3.33301 21 -9 47 -17c16.667 -4.66699 25 -12 25 -22c0 -9.33301 -13.333 -14 -40 -14c-7.33301 0 -23.5 0.666992 -48.5 2s-46.833 2 -65.5 2
c-15.333 0 -35.166 -0.666992 -59.499 -2s-41.5 -2 -51.5 -2c-24.667 0 -37 6 -37 18c0 7.33301 5.66699 13.666 17 18.999c18 8.66699 29 14.667 33 18c12.667 10 20 24.333 22 43l54 447c3.33301 27.333 5 44.333 5 51c0 28 -7.33301 47.667 -22 59
c-5.33301 4 -19.333 9.33301 -42 16c-14.667 4.66699 -22 12.667 -22 24c0 8.66699 10.667 13 32 13c3.33301 0 19.666 -0.666992 48.999 -2s60.333 -2 93 -2c11.333 0 27.666 0.666992 48.999 2s36.333 2 45 2c16 0 24 -5 24 -15c0 -8.66699 -6.33301 -15.667 -19 -21
c-20.667 -8 -33 -13.333 -37 -16c-14 -10 -22 -24.667 -24 -44zM153.001 818c-9.33301 0 -20.833 7 -34.5 21s-20.5 24.667 -20.5 32s6.83301 18 20.5 32s24.167 21 31.5 21c9.33301 0 20.666 -7 33.999 -21s20 -24.667 20 -32s-6.66699 -18 -20 -32
s-23.666 -21 -30.999 -21zM344.001 818c-9.33301 0 -20.833 7 -34.5 21s-20.5 24.667 -20.5 32s6.83301 18 20.5 32s24.167 21 31.5 21c9.33301 0 20.666 -7 33.999 -21s20 -24.667 20 -32s-6.66699 -18 -20 -32s-23.666 -21 -30.999 -21z" />
    <glyph glyph-name="Eth" unicode="&#xd0;" 
d="M355 414l-8 -63h-113l-20 -166c-4.66699 -38.667 -7 -64.334 -7 -77.001c0 -34 10.667 -56.333 32 -67c12.667 -6.66699 35 -10 67 -10c84 0 154.667 33.333 212 100c61.333 71.333 92 164.333 92 279c0 80.667 -20.667 143.834 -62 189.501s-100 68.5 -176 68.5
c-38 0 -64.667 -5.66699 -80 -17c-16.667 -13.333 -27 -38.333 -31 -75l-19 -162h113zM83 111l26.998 240.001h-95l7 63h95l12 104c5.33301 46 8 77 8 93c0 21.333 -8 35.666 -24 42.999l-45.5 12c-15.667 4 -23.5 12.667 -23.5 26c0 8 5.66699 12 17 12
c-2.66699 0 14.333 -0.666992 51 -2s85.667 -2 147 -2c18.667 0 46.834 0.666992 84.501 2s65.834 2 84.501 2c95.333 0 172.5 -25.667 231.5 -77s88.5 -122.333 88.5 -213c0 -130 -43 -233.667 -129 -311c-80 -71.333 -180 -107 -300 -107
c-17.333 0 -43.833 0.666992 -79.5 2s-62.5 2 -80.5 2c-10 -0 -34.833 -0.666992 -74.5 -2s-61.167 -2 -64.5 -2c-13.333 0 -20 4 -20 12c-0 10 6.33301 17.333 19 22c18.667 6 31 11.667 37 17c14.667 12.667 23.667 34 27 64z" />
    <glyph glyph-name="Ntilde" unicode="&#xd1;" horiz-adv-x="778" 
d="M100 146l44.001 335c2.66699 20 4 36 4 48c0 43.333 -12.333 75.666 -37 96.999c-12.667 11.333 -35.667 22 -69 32c-24.667 8 -37 17.667 -37 29s7 17 21 17c0.666992 0 9.66699 -0.666992 27 -2s38 -2 62 -2c19.333 0 37.333 0.666992 54 2s25.667 2 27 2
c19.333 0 33.333 -5.66699 42 -17l321 -424c30 -39.333 46.333 -59 49 -59c4.66699 0 9.66699 22 15 66l21 178c2.66699 24.667 4 57.334 4 98.001c0 40 -11.333 69.333 -34 88c-12 10 -33 19 -63 27c-22.667 5.33301 -34 12.666 -34 21.999c0 14 7 21 21 21
c4 0 21.5 -0.666992 52.5 -2s54.167 -2 69.5 -2c22 0 45.167 0.666992 69.5 2s38.833 2 43.5 2c14 0 21 -6 21 -18c0 -9.33301 -6.33301 -17 -19 -23c-18.667 -8.66699 -31.334 -16 -38.001 -22c-14.667 -14 -23.667 -35.333 -27 -64l-69 -573
c-0.666992 -6 -1.33398 -11.5 -2.00098 -16.5s-3 -7.5 -7 -7.5c-5.33301 0 -10 2 -14 6l-369 494c-30 40 -46.333 60 -49 60c-3.33301 0 -5.66602 -7 -6.99902 -21l-28 -307c-2.66699 -29.333 -4 -58.666 -4 -87.999c0 -32 11 -55.333 33 -70
c11.333 -7.33301 32 -14.333 62 -21c22 -5.33301 33 -12.333 33 -21c0 -10.667 -3.33301 -16 -10 -16c-3.33301 0 -19.833 0.666992 -49.5 2s-48.834 2 -57.501 2c-11.333 -0 -38.166 -0.666992 -80.499 -2s-65.5 -2 -69.5 -2c-10.667 0 -16 3.33301 -16 10
c0 10 6.66699 18 20 24c19.333 8.66699 33.333 17.667 42 27c16 19.333 26.667 49 32 89zM576.001 924h33.001c-13.333 -72.667 -47.333 -109 -102 -109c-14.667 0 -40 7.33301 -76 22s-59.667 22 -71 22c-26.667 0 -44 -15.333 -52 -46h-33
c15.333 74 49.666 111 102.999 111c14 0 40 -7.5 78 -22.5s60 -22.5 66 -22.5c32.667 0 50.667 15 54 45z" />
    <glyph glyph-name="Ograve" unicode="&#xd2;" horiz-adv-x="778" 
d="M409 713c91.333 0 168.668 -27.998 232.001 -83.998c72.667 -64 109 -151.333 109 -262c0 -102.667 -30 -188.334 -90 -257.001c-70.667 -80.667 -171.334 -121 -302.001 -121c-94 0 -171.667 27.667 -233 83c-66.667 59.333 -100 139 -100 239
c0 111.333 36 206.166 108 284.499s164 117.5 276 117.5zM613.002 375.002c0 112 -28.333 194.333 -85 247c-38 35.333 -79.667 53 -125 53c-70 0 -127 -32.333 -171 -97c-45.333 -66.667 -68 -155.667 -68 -267c0 -89.333 20.667 -159.333 62 -210
c37.333 -46.667 85 -70 143 -70c84 0 147.667 36.667 191 110c35.333 61.333 53 139.333 53 234zM489.002 794.002h-32l-122 91c-22 17.333 -33 34 -33 50c0 22 12.667 33 38 33c14.667 0 31.667 -12.333 51 -37z" />
    <glyph glyph-name="Oacute" unicode="&#xd3;" horiz-adv-x="778" 
d="M409 713c91.333 0 168.668 -27.998 232.001 -83.998c72.667 -64 109 -151.333 109 -262c0 -102.667 -30 -188.334 -90 -257.001c-70.667 -80.667 -171.334 -121 -302.001 -121c-94 0 -171.667 27.667 -233 83c-66.667 59.333 -100 139 -100 239
c0 111.333 36 206.166 108 284.499s164 117.5 276 117.5zM613.002 375.002c0 112 -28.333 194.333 -85 247c-38 35.333 -79.667 53 -125 53c-70 0 -127 -32.333 -171 -97c-45.333 -66.667 -68 -155.667 -68 -267c0 -89.333 20.667 -159.333 62 -210
c37.333 -46.667 85 -70 143 -70c84 0 147.667 36.667 191 110c35.333 61.333 53 139.333 53 234zM388.002 794.002h-32l98 137c19.333 24.667 36.333 37 51 37c25.333 0 38 -11 38 -33c0 -16 -10.667 -32.667 -32 -50z" />
    <glyph glyph-name="Ocircumflex" unicode="&#xd4;" horiz-adv-x="778" 
d="M409 713c91.333 0 168.668 -27.998 232.001 -83.998c72.667 -64 109 -151.333 109 -262c0 -102.667 -30 -188.334 -90 -257.001c-70.667 -80.667 -171.334 -121 -302.001 -121c-94 0 -171.667 27.667 -233 83c-66.667 59.333 -100 139 -100 239
c0 111.333 36 206.166 108 284.499s164 117.5 276 117.5zM613.002 375.002c0 112 -28.333 194.333 -85 247c-38 35.333 -79.667 53 -125 53c-70 0 -127 -32.333 -171 -97c-45.333 -66.667 -68 -155.667 -68 -267c0 -89.333 20.667 -159.333 62 -210
c37.333 -46.667 85 -70 143 -70c84 0 147.667 36.667 191 110c35.333 61.333 53 139.333 53 234zM473.002 954.002l86 -170h-40l-85 101l-135 -101h-42l158 170h58z" />
    <glyph glyph-name="Otilde" unicode="&#xd5;" horiz-adv-x="778" 
d="M409 713c91.333 0 168.668 -27.998 232.001 -83.998c72.667 -64 109 -151.333 109 -262c0 -102.667 -30 -188.334 -90 -257.001c-70.667 -80.667 -171.334 -121 -302.001 -121c-94 0 -171.667 27.667 -233 83c-66.667 59.333 -100 139 -100 239
c0 111.333 36 206.166 108 284.499s164 117.5 276 117.5zM613.002 375.002c0 112 -28.333 194.333 -85 247c-38 35.333 -79.667 53 -125 53c-70 0 -127 -32.333 -171 -97c-45.333 -66.667 -68 -155.667 -68 -267c0 -89.333 20.667 -159.333 62 -210
c37.333 -46.667 85 -70 143 -70c84 0 147.667 36.667 191 110c35.333 61.333 53 139.333 53 234zM581.002 924.002h33.001c-13.333 -72.667 -47.333 -109 -102 -109c-14.667 0 -40 7.33301 -76 22s-59.667 22 -71 22c-26.667 0 -44 -15.333 -52 -46h-33
c15.333 74 49.666 111 102.999 111c14 0 40 -7.5 78 -22.5s60 -22.5 66 -22.5c32.667 0 50.667 15 54 45z" />
    <glyph glyph-name="Odieresis" unicode="&#xd6;" horiz-adv-x="778" 
d="M409 713c91.333 0 168.668 -27.998 232.001 -83.998c72.667 -64 109 -151.333 109 -262c0 -102.667 -30 -188.334 -90 -257.001c-70.667 -80.667 -171.334 -121 -302.001 -121c-94 0 -171.667 27.667 -233 83c-66.667 59.333 -100 139 -100 239
c0 111.333 36 206.166 108 284.499s164 117.5 276 117.5zM613.002 375.002c0 112 -28.333 194.333 -85 247c-38 35.333 -79.667 53 -125 53c-70 0 -127 -32.333 -171 -97c-45.333 -66.667 -68 -155.667 -68 -267c0 -89.333 20.667 -159.333 62 -210
c37.333 -46.667 85 -70 143 -70c84 0 147.667 36.667 191 110c35.333 61.333 53 139.333 53 234zM348.002 818.002c-9.33301 0 -20.833 7 -34.5 21s-20.5 24.667 -20.5 32s6.83301 18 20.5 32s24.167 21 31.5 21c9.33301 0 20.666 -7 33.999 -21s20 -24.667 20 -32
s-6.66699 -18 -20 -32s-23.666 -21 -30.999 -21zM539.002 818.002c-9.33301 0 -20.833 7 -34.5 21s-20.5 24.667 -20.5 32s6.83301 18 20.5 32s24.167 21 31.5 21c9.33301 0 20.666 -7 33.999 -21s20 -24.667 20 -32s-6.66699 -18 -20 -32s-23.666 -21 -30.999 -21z" />
    <glyph glyph-name="multiply" unicode="&#xd7;" 
d="M241 253l-191 191l62 62l191 -191l191 191l62 -62l-191 -191l191 -191l-62 -62l-191 191l-191 -191l-62 62z" />
    <glyph glyph-name="Oslash" unicode="&#xd8;" horiz-adv-x="778" 
d="M197 146l341.999 465c-35.333 42.667 -80.666 64 -135.999 64c-70 0 -127 -32.333 -171 -97c-45.333 -66.667 -68 -155.667 -68 -267c0 -62 11 -117 33 -165zM568.999 570l-344 -467c42.667 -48 90.667 -72 144 -72c84 0 147.667 36.667 191 110
c35.333 61.333 53 139.333 53 234c0 80 -14.667 145 -44 195zM581.999 669l64 88.002h60l-84 -113c85.333 -66.667 128 -159 128 -277c0 -102.667 -30 -188.334 -90 -257.001c-70.667 -80.667 -171.334 -121 -302.001 -121c-69.333 0 -130.333 15.333 -183 46l-74 -100h-60
l94 126c-36.667 26.667 -64.667 64 -84 112c-17.333 42.667 -26 88.667 -26 138c0 111.333 36 206.166 108 284.499s164 117.5 276 117.5c64.667 0 122.334 -14.667 173.001 -44z" />
    <glyph glyph-name="Ugrave" unicode="&#xd9;" horiz-adv-x="778" 
d="M252 589l-32.0029 -225.997c-8 -56.667 -12 -109 -12 -157c0 -112.667 58 -169 174 -169c54 0 102.333 16.333 145 49c58 45.333 93.333 114.666 106 207.999l29 212c4 29.333 6 55.333 6 78c0 28 -10 48 -30 60c-8 4.66699 -26.667 10.667 -56 18
c-20 4.66699 -30 12.334 -30 23.001c0 12.667 8 19 24 19c3.33301 0 15.833 -0.666992 37.5 -2s44.167 -2 67.5 -2c21.333 0 42.333 0.666992 63 2s32.334 2 35.001 2c15.333 0 23 -6.33301 23 -19c0 -8 -6 -14.333 -18 -19c-17.333 -6 -29.666 -12.667 -36.999 -20
c-15.333 -14.667 -25.333 -37.334 -30 -68.001l-52 -330c-27.333 -172.667 -138.666 -259 -333.999 -259c-74 0 -133.667 17.667 -179 53c-49.333 38.667 -74 93 -74 163c0 40.667 7.83301 113.167 23.5 217.5s23.5 160.166 23.5 167.499
c0 29.333 -8.33301 49.666 -25 60.999c-7.33301 6 -22.333 11 -45 15c-16.667 2.66699 -25 8.66699 -25 18c0 13.333 8.66699 20 26 20c11.333 0 31.5 -0.666992 60.5 -2s51.5 -2 67.5 -2c8 0 30.5 0.666992 67.5 2s57.167 2 60.5 2c11.333 0 17 -4.66699 17 -14
c0 -10 -5.33301 -16.333 -16 -19c-16.667 -4 -28 -9 -34 -15c-13.333 -12 -22.333 -34.333 -27 -67zM488.997 794.003h-32l-122 91c-22 17.333 -33 34 -33 50c0 22 12.667 33 38 33c14.667 0 31.667 -12.333 51 -37z" />
    <glyph glyph-name="Uacute" unicode="&#xda;" horiz-adv-x="778" 
d="M252 589l-32.0029 -225.997c-8 -56.667 -12 -109 -12 -157c0 -112.667 58 -169 174 -169c54 0 102.333 16.333 145 49c58 45.333 93.333 114.666 106 207.999l29 212c4 29.333 6 55.333 6 78c0 28 -10 48 -30 60c-8 4.66699 -26.667 10.667 -56 18
c-20 4.66699 -30 12.334 -30 23.001c0 12.667 8 19 24 19c3.33301 0 15.833 -0.666992 37.5 -2s44.167 -2 67.5 -2c21.333 0 42.333 0.666992 63 2s32.334 2 35.001 2c15.333 0 23 -6.33301 23 -19c0 -8 -6 -14.333 -18 -19c-17.333 -6 -29.666 -12.667 -36.999 -20
c-15.333 -14.667 -25.333 -37.334 -30 -68.001l-52 -330c-27.333 -172.667 -138.666 -259 -333.999 -259c-74 0 -133.667 17.667 -179 53c-49.333 38.667 -74 93 -74 163c0 40.667 7.83301 113.167 23.5 217.5s23.5 160.166 23.5 167.499
c0 29.333 -8.33301 49.666 -25 60.999c-7.33301 6 -22.333 11 -45 15c-16.667 2.66699 -25 8.66699 -25 18c0 13.333 8.66699 20 26 20c11.333 0 31.5 -0.666992 60.5 -2s51.5 -2 67.5 -2c8 0 30.5 0.666992 67.5 2s57.167 2 60.5 2c11.333 0 17 -4.66699 17 -14
c0 -10 -5.33301 -16.333 -16 -19c-16.667 -4 -28 -9 -34 -15c-13.333 -12 -22.333 -34.333 -27 -67zM387.997 794.003h-32l98 137c19.333 24.667 36.333 37 51 37c25.333 0 38 -11 38 -33c0 -16 -10.667 -32.667 -32 -50z" />
    <glyph glyph-name="Ucircumflex" unicode="&#xdb;" horiz-adv-x="778" 
d="M252 589l-32.0029 -225.997c-8 -56.667 -12 -109 -12 -157c0 -112.667 58 -169 174 -169c54 0 102.333 16.333 145 49c58 45.333 93.333 114.666 106 207.999l29 212c4 29.333 6 55.333 6 78c0 28 -10 48 -30 60c-8 4.66699 -26.667 10.667 -56 18
c-20 4.66699 -30 12.334 -30 23.001c0 12.667 8 19 24 19c3.33301 0 15.833 -0.666992 37.5 -2s44.167 -2 67.5 -2c21.333 0 42.333 0.666992 63 2s32.334 2 35.001 2c15.333 0 23 -6.33301 23 -19c0 -8 -6 -14.333 -18 -19c-17.333 -6 -29.666 -12.667 -36.999 -20
c-15.333 -14.667 -25.333 -37.334 -30 -68.001l-52 -330c-27.333 -172.667 -138.666 -259 -333.999 -259c-74 0 -133.667 17.667 -179 53c-49.333 38.667 -74 93 -74 163c0 40.667 7.83301 113.167 23.5 217.5s23.5 160.166 23.5 167.499
c0 29.333 -8.33301 49.666 -25 60.999c-7.33301 6 -22.333 11 -45 15c-16.667 2.66699 -25 8.66699 -25 18c0 13.333 8.66699 20 26 20c11.333 0 31.5 -0.666992 60.5 -2s51.5 -2 67.5 -2c8 0 30.5 0.666992 67.5 2s57.167 2 60.5 2c11.333 0 17 -4.66699 17 -14
c0 -10 -5.33301 -16.333 -16 -19c-16.667 -4 -28 -9 -34 -15c-13.333 -12 -22.333 -34.333 -27 -67zM472.997 954.003l86 -170h-40l-85 101l-135 -101h-42l158 170h58z" />
    <glyph glyph-name="Udieresis" unicode="&#xdc;" horiz-adv-x="778" 
d="M252 589l-32.0029 -225.997c-8 -56.667 -12 -109 -12 -157c0 -112.667 58 -169 174 -169c54 0 102.333 16.333 145 49c58 45.333 93.333 114.666 106 207.999l29 212c4 29.333 6 55.333 6 78c0 28 -10 48 -30 60c-8 4.66699 -26.667 10.667 -56 18
c-20 4.66699 -30 12.334 -30 23.001c0 12.667 8 19 24 19c3.33301 0 15.833 -0.666992 37.5 -2s44.167 -2 67.5 -2c21.333 0 42.333 0.666992 63 2s32.334 2 35.001 2c15.333 0 23 -6.33301 23 -19c0 -8 -6 -14.333 -18 -19c-17.333 -6 -29.666 -12.667 -36.999 -20
c-15.333 -14.667 -25.333 -37.334 -30 -68.001l-52 -330c-27.333 -172.667 -138.666 -259 -333.999 -259c-74 0 -133.667 17.667 -179 53c-49.333 38.667 -74 93 -74 163c0 40.667 7.83301 113.167 23.5 217.5s23.5 160.166 23.5 167.499
c0 29.333 -8.33301 49.666 -25 60.999c-7.33301 6 -22.333 11 -45 15c-16.667 2.66699 -25 8.66699 -25 18c0 13.333 8.66699 20 26 20c11.333 0 31.5 -0.666992 60.5 -2s51.5 -2 67.5 -2c8 0 30.5 0.666992 67.5 2s57.167 2 60.5 2c11.333 0 17 -4.66699 17 -14
c0 -10 -5.33301 -16.333 -16 -19c-16.667 -4 -28 -9 -34 -15c-13.333 -12 -22.333 -34.333 -27 -67zM347.997 818.003c-9.33301 0 -20.833 7 -34.5 21s-20.5 24.667 -20.5 32s6.83301 18 20.5 32s24.167 21 31.5 21c9.33301 0 20.666 -7 33.999 -21s20 -24.667 20 -32
s-6.66699 -18 -20 -32s-23.666 -21 -30.999 -21zM538.997 818.003c-9.33301 0 -20.833 7 -34.5 21s-20.5 24.667 -20.5 32s6.83301 18 20.5 32s24.167 21 31.5 21c9.33301 0 20.666 -7 33.999 -21s20 -24.667 20 -32s-6.66699 -18 -20 -32s-23.666 -21 -30.999 -21z" />
    <glyph glyph-name="Yacute" unicode="&#xdd;" 
d="M223 268c0 34.667 -50.335 142.001 -151.002 322.001c-15.333 27.333 -32.666 48 -51.999 62c-9.33301 6 -23 12 -41 18c-10.667 4 -16 9.33301 -16 16c0 12 8.66699 18 26 18c1.33301 0 20.5 -0.666992 57.5 -2s63.833 -2 80.5 -2c37.333 0 69.333 0.666992 96 2
s39.334 2 38.001 2c16 0 24 -6 24 -18c0 -11.333 -13 -20.666 -39 -27.999s-39 -18.333 -39 -33c0 -15.333 11.333 -47 34 -95l63 -126c10.667 -22.667 18.667 -34 24 -34s11 3.33301 17 10l21 30l81 109c29.333 40.667 44 68.667 44 84c0 20.667 -8.33301 36 -25 46
c-5.33301 3.33301 -21 8.33301 -47 15c-16.667 4.66699 -25 11.667 -25 21c0 12.667 7.33301 19 22 19c10.667 0 29.167 -0.666992 55.5 -2s47.5 -2 63.5 -2c10.667 0 27 0.666992 49 2s38.333 2 49 2c14 0 21 -6 21 -18c0 -8.66699 -4.66699 -15.667 -14 -21l-38 -22
c-20 -15.333 -39.333 -36.333 -58 -63l-159 -224c-22.667 -34 -35.667 -66.333 -39 -97c-10.667 -94.667 -16 -147.334 -16 -158.001c0 -23.333 9 -40 27 -50c6.66699 -3.33301 24 -8.33301 52 -15c18 -4.66699 27 -11.667 27 -21c0 -12.667 -7.66699 -19 -23 -19l-49 2
c-32.667 1.33301 -67.334 2 -104.001 2c-28.667 0 -56.5 -0.666992 -83.5 -2s-43.5 -2 -49.5 -2c-16.667 0 -25 5.66699 -25 17s7.33301 18.666 22 21.999c22.667 4.66699 37.334 9 44.001 13c17.333 11.333 28.333 32.333 33 63c14.667 96 22 148.333 22 157z
M303.998 794.001h-32l98 137c19.333 24.667 36.333 37 51 37c25.333 0 38 -11 38 -33c0 -16 -10.667 -32.667 -32 -50z" />
    <glyph glyph-name="Thorn" unicode="&#xde;" 
d="M245 373l-16.999 -152c-6 -53.333 -9 -87 -9 -101c0 -34 9 -57.333 27 -70c8 -6 24.667 -11 50 -15c18 -3.33301 27 -10.333 27 -21c0 -12 -10.333 -18 -31 -18c-8.66699 0 -28.167 0.666992 -58.5 2s-55.166 2 -74.499 2c-10 -0 -31.667 -0.666992 -65 -2
s-56.333 -2 -69 -2c-10.667 0 -16 5.33301 -16 16c0 10 6.33301 16.667 19 20c18 4 30.667 10 38 18c14.667 15.333 24.334 42.666 29.001 81.999l44 393c3.33301 30 5 51 5 63c0 31.333 -8 53 -24 65c-8.66699 6 -24 10.333 -46 13c-16 2 -24 7.33301 -24 16
c0 14.667 15.333 22 46 22c7.33301 0 25.666 -0.666992 54.999 -2s58.333 -2 87 -2c20 0 41.167 0.666992 63.5 2s36.166 2 41.499 2c15.333 0 23 -6 23 -18c0 -13.333 -8.33301 -21.666 -25 -24.999c-24.667 -4.66699 -40 -9.33398 -46 -14.001
c-16.667 -12 -25 -35 -25 -69c0 -16 10.667 -25 32 -27c-10 0.666992 7 1 51 1c104.667 0 179 -24 223 -72c28.667 -31.333 43 -71 43 -119c0 -69.333 -27.667 -122.333 -83 -159c-46 -30 -104 -45 -174 -45c-62.667 0 -94 11 -94 33c0 8.66699 5 13 15 13
c8 0 17.167 -1 27.5 -3s18.833 -3 25.5 -3c100 0 150 48.333 150 145c0 48.667 -13.833 89.334 -41.5 122.001s-64.167 49 -109.5 49c-26.667 0 -47.334 -7.33301 -62.001 -22c-9.33301 -9.33301 -16.333 -27 -21 -53c0 -1.33301 -2.33301 -23 -7 -65z" />
    <glyph glyph-name="germandbls" unicode="&#xdf;" horiz-adv-x="500" 
d="M-5 414h80.0029c22 207.333 93 311 213 311c43.333 0 76.833 -13.167 100.5 -39.5s35.5 -61.166 35.5 -104.499c0 -41.333 -8.66699 -73.5 -26 -96.5s-45.333 -43.5 -84 -61.5c88.667 -30.667 133 -83 133 -157c0 -52.667 -12.333 -105.667 -37 -159
c-36 -78.667 -89 -118 -159 -118c-29.333 0 -51 8.33301 -65 25c-9.33301 12 -14 25 -14 39c0 12 5.33301 23.833 16 35.5s21.667 17.5 33 17.5c13.333 0 20.833 -13.167 22.5 -39.5s11.5 -39.5 29.5 -39.5c13.333 0 26 14.667 38 44c16.667 41.333 25 101.666 25 180.999
c0 40.667 -4.33301 70.667 -13 90c-12 26.667 -34.667 43 -68 49c-12.667 2 -19 9 -19 21c0 8.66699 5.66699 14.334 17 17.001c33.333 7.33301 55.666 26.666 66.999 57.999c8 21.333 12 53.333 12 96c0 26.667 -4 50 -12 70c-10 25.333 -24.333 38 -43 38
c-45.333 0 -73.333 -47 -84 -141l-65 -560c-14 -121.333 -59.333 -182 -136 -182c-10.667 0 -21.334 5.66699 -32.001 17c-14 14.667 -21 34 -21 58c0 8 4.33301 12.667 13 14c15.333 2.66699 25 5 29 7c18.667 10 31.667 29.667 39 59c3.33301 12 7.66602 40.667 12.999 86
l37 314h-75c-13.333 0 -20 8.33301 -20 25c0 10.667 1 17.667 3 21s7.66699 5 17 5z" />
    <glyph glyph-name="agrave" unicode="&#xe0;" horiz-adv-x="500" 
d="M266 400c-46.667 0 -84.333 -30.001 -113 -90.001c-22.667 -48 -34 -98.333 -34 -151c0 -25.333 4.33301 -46.666 13 -63.999c12 -22.667 29.333 -34 52 -34c30.667 0 54.667 11.667 72 35c12 16.667 22.333 42.334 31 77.001c24.667 97.333 37 157.666 37 180.999
c0 30.667 -19.333 46 -58 46zM6.00098 127.999c0 76 23.3301 143.667 69.9971 203c50.667 65.333 113.334 98 188.001 98c20.667 0 41.167 -4.5 61.5 -13.5l30.5 -13.5c15.333 0 30.833 11.333 46.5 34s26.834 34 33.501 34c8.66699 0 13 -5 13 -15
c0 -0.666992 -9.16699 -52.834 -27.5 -156.501s-27.5 -164.5 -27.5 -182.5c0 -31.333 9.66699 -47 29 -47c11.333 0 22.333 8.5 33 25.5s19.334 25.5 26.001 25.5c8 0 12 -3 12 -9c0 -23.333 -13 -48.666 -39 -75.999c-28.667 -30.667 -59.667 -46 -93 -46
c-24.667 0 -43.334 11.333 -56.001 34c-6 10.667 -12 28.667 -18 54c-57.333 -58.667 -110 -88 -158 -88c-37.333 0 -67.666 14 -90.999 42c-22 26 -33 58.333 -33 97zM349.998 509.999h-32l-122 91c-22 17.333 -33 34 -33 50c0 22 12.667 33 38 33
c14.667 0 31.667 -12.333 51 -37z" />
    <glyph glyph-name="aacute" unicode="&#xe1;" horiz-adv-x="500" 
d="M266 400c-46.667 0 -84.333 -30.001 -113 -90.001c-22.667 -48 -34 -98.333 -34 -151c0 -25.333 4.33301 -46.666 13 -63.999c12 -22.667 29.333 -34 52 -34c30.667 0 54.667 11.667 72 35c12 16.667 22.333 42.334 31 77.001c24.667 97.333 37 157.666 37 180.999
c0 30.667 -19.333 46 -58 46zM6.00098 127.999c0 76 23.3301 143.667 69.9971 203c50.667 65.333 113.334 98 188.001 98c20.667 0 41.167 -4.5 61.5 -13.5l30.5 -13.5c15.333 0 30.833 11.333 46.5 34s26.834 34 33.501 34c8.66699 0 13 -5 13 -15
c0 -0.666992 -9.16699 -52.834 -27.5 -156.501s-27.5 -164.5 -27.5 -182.5c0 -31.333 9.66699 -47 29 -47c11.333 0 22.333 8.5 33 25.5s19.334 25.5 26.001 25.5c8 0 12 -3 12 -9c0 -23.333 -13 -48.666 -39 -75.999c-28.667 -30.667 -59.667 -46 -93 -46
c-24.667 0 -43.334 11.333 -56.001 34c-6 10.667 -12 28.667 -18 54c-57.333 -58.667 -110 -88 -158 -88c-37.333 0 -67.666 14 -90.999 42c-22 26 -33 58.333 -33 97zM248.998 509.999h-32l98 137c19.333 24.667 36.333 37 51 37c25.333 0 38 -11 38 -33
c0 -16 -10.667 -32.667 -32 -50z" />
    <glyph glyph-name="acircumflex" unicode="&#xe2;" horiz-adv-x="500" 
d="M266 400c-46.667 0 -84.333 -30.001 -113 -90.001c-22.667 -48 -34 -98.333 -34 -151c0 -25.333 4.33301 -46.666 13 -63.999c12 -22.667 29.333 -34 52 -34c30.667 0 54.667 11.667 72 35c12 16.667 22.333 42.334 31 77.001c24.667 97.333 37 157.666 37 180.999
c0 30.667 -19.333 46 -58 46zM6.00098 127.999c0 76 23.3301 143.667 69.9971 203c50.667 65.333 113.334 98 188.001 98c20.667 0 41.167 -4.5 61.5 -13.5l30.5 -13.5c15.333 0 30.833 11.333 46.5 34s26.834 34 33.501 34c8.66699 0 13 -5 13 -15
c0 -0.666992 -9.16699 -52.834 -27.5 -156.501s-27.5 -164.5 -27.5 -182.5c0 -31.333 9.66699 -47 29 -47c11.333 0 22.333 8.5 33 25.5s19.334 25.5 26.001 25.5c8 0 12 -3 12 -9c0 -23.333 -13 -48.666 -39 -75.999c-28.667 -30.667 -59.667 -46 -93 -46
c-24.667 0 -43.334 11.333 -56.001 34c-6 10.667 -12 28.667 -18 54c-57.333 -58.667 -110 -88 -158 -88c-37.333 0 -67.666 14 -90.999 42c-22 26 -33 58.333 -33 97zM333.998 669.999l86 -170h-40l-85 101l-135 -101h-42l158 170h58z" />
    <glyph glyph-name="atilde" unicode="&#xe3;" horiz-adv-x="500" 
d="M266 400c-46.667 0 -84.333 -30.001 -113 -90.001c-22.667 -48 -34 -98.333 -34 -151c0 -25.333 4.33301 -46.666 13 -63.999c12 -22.667 29.333 -34 52 -34c30.667 0 54.667 11.667 72 35c12 16.667 22.333 42.334 31 77.001c24.667 97.333 37 157.666 37 180.999
c0 30.667 -19.333 46 -58 46zM6.00098 127.999c0 76 23.3301 143.667 69.9971 203c50.667 65.333 113.334 98 188.001 98c20.667 0 41.167 -4.5 61.5 -13.5l30.5 -13.5c15.333 0 30.833 11.333 46.5 34s26.834 34 33.501 34c8.66699 0 13 -5 13 -15
c0 -0.666992 -9.16699 -52.834 -27.5 -156.501s-27.5 -164.5 -27.5 -182.5c0 -31.333 9.66699 -47 29 -47c11.333 0 22.333 8.5 33 25.5s19.334 25.5 26.001 25.5c8 0 12 -3 12 -9c0 -23.333 -13 -48.666 -39 -75.999c-28.667 -30.667 -59.667 -46 -93 -46
c-24.667 0 -43.334 11.333 -56.001 34c-6 10.667 -12 28.667 -18 54c-57.333 -58.667 -110 -88 -158 -88c-37.333 0 -67.666 14 -90.999 42c-22 26 -33 58.333 -33 97zM431.998 639.999h33.001c-13.333 -72.667 -47.333 -109 -102 -109c-14.667 0 -40 7.33301 -76 22
s-59.667 22 -71 22c-26.667 0 -44 -15.333 -52 -46h-33c15.333 74 49.666 111 102.999 111c14 0 40 -7.5 78 -22.5s60 -22.5 66 -22.5c32.667 0 50.667 15 54 45z" />
    <glyph glyph-name="adieresis" unicode="&#xe4;" horiz-adv-x="500" 
d="M266 400c-46.667 0 -84.333 -30.001 -113 -90.001c-22.667 -48 -34 -98.333 -34 -151c0 -25.333 4.33301 -46.666 13 -63.999c12 -22.667 29.333 -34 52 -34c30.667 0 54.667 11.667 72 35c12 16.667 22.333 42.334 31 77.001c24.667 97.333 37 157.666 37 180.999
c0 30.667 -19.333 46 -58 46zM6.00098 127.999c0 76 23.3301 143.667 69.9971 203c50.667 65.333 113.334 98 188.001 98c20.667 0 41.167 -4.5 61.5 -13.5l30.5 -13.5c15.333 0 30.833 11.333 46.5 34s26.834 34 33.501 34c8.66699 0 13 -5 13 -15
c0 -0.666992 -9.16699 -52.834 -27.5 -156.501s-27.5 -164.5 -27.5 -182.5c0 -31.333 9.66699 -47 29 -47c11.333 0 22.333 8.5 33 25.5s19.334 25.5 26.001 25.5c8 0 12 -3 12 -9c0 -23.333 -13 -48.666 -39 -75.999c-28.667 -30.667 -59.667 -46 -93 -46
c-24.667 0 -43.334 11.333 -56.001 34c-6 10.667 -12 28.667 -18 54c-57.333 -58.667 -110 -88 -158 -88c-37.333 0 -67.666 14 -90.999 42c-22 26 -33 58.333 -33 97zM208.998 533.999c-9.33301 0 -20.833 7 -34.5 21s-20.5 24.667 -20.5 32s6.83301 18 20.5 32
s24.167 21 31.5 21c9.33301 0 20.666 -7 33.999 -21s20 -24.667 20 -32s-6.66699 -18 -20 -32s-23.666 -21 -30.999 -21zM399.998 533.999c-9.33301 0 -20.833 7 -34.5 21s-20.5 24.667 -20.5 32s6.83301 18 20.5 32s24.167 21 31.5 21c9.33301 0 20.666 -7 33.999 -21
s20 -24.667 20 -32s-6.66699 -18 -20 -32s-23.666 -21 -30.999 -21z" />
    <glyph glyph-name="aring" unicode="&#xe5;" horiz-adv-x="500" 
d="M266 400c-46.667 0 -84.333 -30.001 -113 -90.001c-22.667 -48 -34 -98.333 -34 -151c0 -25.333 4.33301 -46.666 13 -63.999c12 -22.667 29.333 -34 52 -34c30.667 0 54.667 11.667 72 35c12 16.667 22.333 42.334 31 77.001c24.667 97.333 37 157.666 37 180.999
c0 30.667 -19.333 46 -58 46zM6.00098 127.999c0 76 23.3301 143.667 69.9971 203c50.667 65.333 113.334 98 188.001 98c20.667 0 41.167 -4.5 61.5 -13.5l30.5 -13.5c15.333 0 30.833 11.333 46.5 34s26.834 34 33.501 34c8.66699 0 13 -5 13 -15
c0 -0.666992 -9.16699 -52.834 -27.5 -156.501s-27.5 -164.5 -27.5 -182.5c0 -31.333 9.66699 -47 29 -47c11.333 0 22.333 8.5 33 25.5s19.334 25.5 26.001 25.5c8 0 12 -3 12 -9c0 -23.333 -13 -48.666 -39 -75.999c-28.667 -30.667 -59.667 -46 -93 -46
c-24.667 0 -43.334 11.333 -56.001 34c-6 10.667 -12 28.667 -18 54c-57.333 -58.667 -110 -88 -158 -88c-37.333 0 -67.666 14 -90.999 42c-22 26 -33 58.333 -33 97zM336.998 476.999c-28 0 -52 9.83301 -72 29.5s-30 43.5 -30 71.5s10 52 30 72s44 30 72 30
s51.833 -10 71.5 -30s29.5 -44 29.5 -72c0 -27.333 -10 -51 -30 -71s-43.667 -30 -71 -30zM336.998 634.999c-16 0 -29.499 -5.49902 -40.499 -16.499s-16.5 -24.5 -16.5 -40.5c0 -15.333 5.66699 -28.5 17 -39.5s24.666 -16.5 39.999 -16.5s28.5 5.66699 39.5 17
s16.5 24.333 16.5 39c0 15.333 -5.5 28.666 -16.5 39.999s-24.167 17 -39.5 17z" />
    <glyph glyph-name="ae" unicode="&#xe6;" horiz-adv-x="722" 
d="M266 400c-46.667 0 -84.333 -30.001 -113 -90.001c-22.667 -48 -34 -98.333 -34 -151c0 -25.333 4.33301 -46.666 13 -63.999c12 -22.667 29.333 -34 52 -34c30.667 0 54.667 11.667 72 35c12 16.667 22.333 42.334 31 77.001c24.667 97.333 37 157.666 37 180.999
c0 30.667 -19.333 46 -58 46zM409.001 226.999c36.667 -2 71.668 7.66699 105.001 29c37.333 23.333 56 52.333 56 87c0 32 -13.333 48 -40 48c-34.667 0 -64.334 -19 -89.001 -57c-21.333 -34 -32 -69.667 -32 -107zM563.002 428.999
c26.667 0 50.3311 -6.33203 70.998 -18.999c24.667 -14.667 37 -34.667 37 -60c0 -46.667 -33.333 -85 -100 -115c-49.333 -21.333 -104 -35 -164 -41c-6.66699 -96 33 -144 119 -144c30.667 0 58.5 9.83301 83.5 29.5s39.833 29.5 44.5 29.5c8 0 12 -4.66699 12 -14
c0 -5.33301 -7.33301 -15.666 -22 -30.999c-18.667 -20.667 -41.667 -37.334 -69 -50.001c-36 -16.667 -75.667 -25 -119 -25c-46 0 -82 11 -108 33c-16.667 14 -31.334 35 -44.001 63c-52.667 -64 -110.667 -96 -174 -96c-37.333 0 -67.666 14 -90.999 42
c-22 26 -33 58.333 -33 97c0 76 23.333 143.667 70 203c50.667 65.333 113.334 98 188.001 98c20.667 0 41.167 -4.5 61.5 -13.5l30.5 -13.5c15.333 0 30.833 11.333 46.5 34s26.834 34 33.501 34c8.66699 0 13 -5 13 -15c0 -1.33301 -1 -8 -3 -20
c-2 -14.667 -3.66699 -27.334 -5 -38.001c41.333 21.333 82 32 122 32z" />
    <glyph glyph-name="ccedilla" unicode="&#xe7;" horiz-adv-x="444" 
d="M277 429c30.667 0 58.332 -6.33301 82.999 -19c28.667 -14 43 -32 43 -54c0 -37.333 -16 -56 -48 -56c-18 0 -36.333 15.5 -55 46.5s-41.667 46.5 -69 46.5c-35.333 0 -62.666 -22.667 -81.999 -68c-14.667 -34.667 -22 -72.334 -22 -113.001
c0 -108 40.333 -162 121 -162c24 0 44.333 5 61 15c8 4.66699 18.667 13.334 32 26.001c9.33301 10 17.333 15 24 15c8 0 12 -3.33301 12 -10c0 -18.667 -16.333 -40 -49 -64c-39.333 -28.667 -84 -43 -134 -43c-65.333 0 -113 19 -143 57c-22.667 28 -34 63.333 -34 106
c0 73.333 23.667 137 71 191c50.667 57.333 113.667 86 189 86zM34.998 -192l16.998 28.999c22.667 -12 45.334 -18 68.001 -18c36.667 0 55 15.667 55 47c0 12 -5.16699 21.333 -15.5 28s-21.833 9.66699 -34.5 9c-6 0 -16.333 -2 -31 -6l-10 9l66 97h37l-44 -65l2 -2
c2.66699 2.66699 12.334 4 29.001 4c22.667 0 41.5 -6.5 56.5 -19.5s22.5 -30.833 22.5 -53.5c0 -27.333 -15.333 -48.666 -46 -63.999c-24.667 -12 -52 -18 -82 -18c-32.667 0 -62.667 7.66699 -90 23z" />
    <glyph glyph-name="egrave" unicode="&#xe8;" horiz-adv-x="444" 
d="M132 227c36.667 -2 71.668 7.66699 105.001 29c37.333 23.333 56 52.333 56 87c0 32 -13.333 48 -40 48c-34.667 0 -64.334 -19 -89.001 -57c-21.333 -34 -32 -69.667 -32 -107zM130.001 194c-6.66699 -96 32.999 -144 118.999 -144c30.667 0 58.5 9.83301 83.5 29.5
s39.833 29.5 44.5 29.5c8 0 12 -4.66699 12 -14c0 -5.33301 -7.33301 -15.666 -22 -30.999c-18.667 -20.667 -41.667 -37.334 -69 -50.001c-36 -16.667 -75.667 -25 -119 -25c-47.333 0 -85.666 13.167 -114.999 39.5s-44 62.5 -44 108.5c0 90.667 29.333 163.667 88 219
c51.333 48.667 110.666 73 177.999 73c26.667 0 50.334 -6.33301 71.001 -19c24.667 -14.667 37 -34.667 37 -60c0 -46.667 -33.333 -85 -100 -115c-49.333 -21.333 -104 -35 -164 -41zM322 510h-32l-122 91c-22 17.333 -33 34 -33 50c0 22 12.667 33 38 33
c14.667 0 31.667 -12.333 51 -37z" />
    <glyph glyph-name="eacute" unicode="&#xe9;" horiz-adv-x="444" 
d="M132 227c36.667 -2 71.668 7.66699 105.001 29c37.333 23.333 56 52.333 56 87c0 32 -13.333 48 -40 48c-34.667 0 -64.334 -19 -89.001 -57c-21.333 -34 -32 -69.667 -32 -107zM130.001 194c-6.66699 -96 32.999 -144 118.999 -144c30.667 0 58.5 9.83301 83.5 29.5
s39.833 29.5 44.5 29.5c8 0 12 -4.66699 12 -14c0 -5.33301 -7.33301 -15.666 -22 -30.999c-18.667 -20.667 -41.667 -37.334 -69 -50.001c-36 -16.667 -75.667 -25 -119 -25c-47.333 0 -85.666 13.167 -114.999 39.5s-44 62.5 -44 108.5c0 90.667 29.333 163.667 88 219
c51.333 48.667 110.666 73 177.999 73c26.667 0 50.334 -6.33301 71.001 -19c24.667 -14.667 37 -34.667 37 -60c0 -46.667 -33.333 -85 -100 -115c-49.333 -21.333 -104 -35 -164 -41zM221 510h-32l98 137c19.333 24.667 36.333 37 51 37c25.333 0 38 -11 38 -33
c0 -16 -10.667 -32.667 -32 -50z" />
    <glyph glyph-name="ecircumflex" unicode="&#xea;" horiz-adv-x="444" 
d="M132 227c36.667 -2 71.668 7.66699 105.001 29c37.333 23.333 56 52.333 56 87c0 32 -13.333 48 -40 48c-34.667 0 -64.334 -19 -89.001 -57c-21.333 -34 -32 -69.667 -32 -107zM130.001 194c-6.66699 -96 32.999 -144 118.999 -144c30.667 0 58.5 9.83301 83.5 29.5
s39.833 29.5 44.5 29.5c8 0 12 -4.66699 12 -14c0 -5.33301 -7.33301 -15.666 -22 -30.999c-18.667 -20.667 -41.667 -37.334 -69 -50.001c-36 -16.667 -75.667 -25 -119 -25c-47.333 0 -85.666 13.167 -114.999 39.5s-44 62.5 -44 108.5c0 90.667 29.333 163.667 88 219
c51.333 48.667 110.666 73 177.999 73c26.667 0 50.334 -6.33301 71.001 -19c24.667 -14.667 37 -34.667 37 -60c0 -46.667 -33.333 -85 -100 -115c-49.333 -21.333 -104 -35 -164 -41zM306 670l86 -170h-40l-85 101l-135 -101h-42l158 170h58z" />
    <glyph glyph-name="edieresis" unicode="&#xeb;" horiz-adv-x="444" 
d="M132 227c36.667 -2 71.668 7.66699 105.001 29c37.333 23.333 56 52.333 56 87c0 32 -13.333 48 -40 48c-34.667 0 -64.334 -19 -89.001 -57c-21.333 -34 -32 -69.667 -32 -107zM130.001 194c-6.66699 -96 32.999 -144 118.999 -144c30.667 0 58.5 9.83301 83.5 29.5
s39.833 29.5 44.5 29.5c8 0 12 -4.66699 12 -14c0 -5.33301 -7.33301 -15.666 -22 -30.999c-18.667 -20.667 -41.667 -37.334 -69 -50.001c-36 -16.667 -75.667 -25 -119 -25c-47.333 0 -85.666 13.167 -114.999 39.5s-44 62.5 -44 108.5c0 90.667 29.333 163.667 88 219
c51.333 48.667 110.666 73 177.999 73c26.667 0 50.334 -6.33301 71.001 -19c24.667 -14.667 37 -34.667 37 -60c0 -46.667 -33.333 -85 -100 -115c-49.333 -21.333 -104 -35 -164 -41zM181 534c-9.33301 0 -20.833 7 -34.5 21s-20.5 24.667 -20.5 32s6.83301 18 20.5 32
s24.167 21 31.5 21c9.33301 0 20.666 -7 33.999 -21s20 -24.667 20 -32s-6.66699 -18 -20 -32s-23.666 -21 -30.999 -21zM372 534c-9.33301 0 -20.833 7 -34.5 21s-20.5 24.667 -20.5 32s6.83301 18 20.5 32s24.167 21 31.5 21c9.33301 0 20.666 -7 33.999 -21
s20 -24.667 20 -32s-6.66699 -18 -20 -32s-23.666 -21 -30.999 -21z" />
    <glyph glyph-name="igrave" unicode="&#xec;" 
d="M146 104c0 -20.667 7.33301 -31 22 -31c12 0 25.167 9.66699 39.5 29s24.833 29 31.5 29c8.66699 0 13 -4 13 -12c0 -18.667 -13.333 -43 -40 -73c-33.333 -38 -72 -57 -116 -57c-40 0 -60 29.667 -60 89c0 29.333 7.33301 83.5 22 162.5s22 116.5 22 112.5
c0 12 -11.5 20 -34.5 24s-34.5 10.333 -34.5 19c0 10.667 10 16.667 30 18c38.667 2 74 5 106 9c28 4 42.667 6 44 6c9.33301 0 14 -3 14 -9c0 -0.666992 -9.83301 -45.5 -29.5 -134.5s-29.5 -149.5 -29.5 -181.5zM239 510h-32l-122 91c-22 17.333 -33 34 -33 50
c0 22 12.667 33 38 33c14.667 0 31.667 -12.333 51 -37z" />
    <glyph glyph-name="iacute" unicode="&#xed;" 
d="M146 104c0 -20.667 7.33301 -31 22 -31c12 0 25.167 9.66699 39.5 29s24.833 29 31.5 29c8.66699 0 13 -4 13 -12c0 -18.667 -13.333 -43 -40 -73c-33.333 -38 -72 -57 -116 -57c-40 0 -60 29.667 -60 89c0 29.333 7.33301 83.5 22 162.5s22 116.5 22 112.5
c0 12 -11.5 20 -34.5 24s-34.5 10.333 -34.5 19c0 10.667 10 16.667 30 18c38.667 2 74 5 106 9c28 4 42.667 6 44 6c9.33301 0 14 -3 14 -9c0 -0.666992 -9.83301 -45.5 -29.5 -134.5s-29.5 -149.5 -29.5 -181.5zM138 510h-32l98 137c19.333 24.667 36.333 37 51 37
c25.333 0 38 -11 38 -33c0 -16 -10.667 -32.667 -32 -50z" />
    <glyph glyph-name="icircumflex" unicode="&#xee;" 
d="M146 104c0 -20.667 7.33301 -31 22 -31c12 0 25.167 9.66699 39.5 29s24.833 29 31.5 29c8.66699 0 13 -4 13 -12c0 -18.667 -13.333 -43 -40 -73c-33.333 -38 -72 -57 -116 -57c-40 0 -60 29.667 -60 89c0 29.333 7.33301 83.5 22 162.5s22 116.5 22 112.5
c0 12 -11.5 20 -34.5 24s-34.5 10.333 -34.5 19c0 10.667 10 16.667 30 18c38.667 2 74 5 106 9c28 4 42.667 6 44 6c9.33301 0 14 -3 14 -9c0 -0.666992 -9.83301 -45.5 -29.5 -134.5s-29.5 -149.5 -29.5 -181.5zM223 670l86 -170h-40l-85 101l-135 -101h-42l158 170h58z
" />
    <glyph glyph-name="idieresis" unicode="&#xef;" 
d="M146 104c0 -20.667 7.33301 -31 22 -31c12 0 25.167 9.66699 39.5 29s24.833 29 31.5 29c8.66699 0 13 -4 13 -12c0 -18.667 -13.333 -43 -40 -73c-33.333 -38 -72 -57 -116 -57c-40 0 -60 29.667 -60 89c0 29.333 7.33301 83.5 22 162.5s22 116.5 22 112.5
c0 12 -11.5 20 -34.5 24s-34.5 10.333 -34.5 19c0 10.667 10 16.667 30 18c38.667 2 74 5 106 9c28 4 42.667 6 44 6c9.33301 0 14 -3 14 -9c0 -0.666992 -9.83301 -45.5 -29.5 -134.5s-29.5 -149.5 -29.5 -181.5zM98 534c-9.33301 0 -20.833 7 -34.5 21
s-20.5 24.667 -20.5 32s6.83301 18 20.5 32s24.167 21 31.5 21c9.33301 0 20.666 -7 33.999 -21s20 -24.667 20 -32s-6.66699 -18 -20 -32s-23.666 -21 -30.999 -21zM289 534c-9.33301 0 -20.833 7 -34.5 21s-20.5 24.667 -20.5 32s6.83301 18 20.5 32s24.167 21 31.5 21
c9.33301 0 20.666 -7 33.999 -21s20 -24.667 20 -32s-6.66699 -18 -20 -32s-23.666 -21 -30.999 -21z" />
    <glyph glyph-name="eth" unicode="&#xf0;" 
d="M120 126c0 -68.667 22 -103 66 -103c47.333 0 80 41 98 123c8.66699 42 13 92 13 150c0 32 -3.66699 55.333 -11 70c-10.667 22 -30 33 -58 33c-42 0 -72.333 -37 -91 -111c-11.333 -46.667 -17 -100.667 -17 -162zM248 549l-144.998 -92c-4 -2.66699 -9 -4 -15 -4
c-19.333 0 -29 9.33301 -29 28c0 7.33301 3.66699 13.333 11 18l154 97c-20 36 -40 54 -60 54c-13.333 0 -27 -5 -41 -15s-29.333 -15 -46 -15c-27.333 0 -41 15.333 -41 46c0 39.333 20.667 59 62 59c54 0 108.667 -35 164 -105l141 89c5.33301 2.66699 10.333 4 15 4
c19.333 0 29 -9.33301 29 -28c0 -7.33301 -3.66699 -13.333 -11 -18l-142 -89c19.333 -28 37.333 -57.667 54 -89c40.667 -76 61 -154 61 -234c0 -70 -19.333 -130.667 -58 -182c-42 -56 -97.333 -84 -166 -84c-64.667 0 -112.334 23 -143.001 69
c-24 34.667 -36 76.667 -36 126c0 71.333 24.333 131 73 179c45.333 44 97.666 66 156.999 66c13.333 0 22.5 1.83301 27.5 5.5s7.5 13.167 7.5 28.5c0 20 -7.66699 48.667 -23 86z" />
    <glyph glyph-name="ntilde" unicode="&#xf1;" horiz-adv-x="556" 
d="M144 0l-91.001 -0.000976562c-6 0 -9 4.33301 -9 13l24 121.5c16 81 24 128.167 24 141.5c0 37.333 -11 56 -33 56c-10.667 0 -20.667 -8.16699 -30 -24.5s-17.666 -24.5 -24.999 -24.5c-8 0 -12 5.33301 -12 16c0 24 13.333 51.667 40 83s52.334 47 77.001 47
c46 0 69 -38 69 -114h2c52.667 76 113.667 114 183 114c32.667 0 58 -12 76 -36c16.667 -21.333 25 -48.333 25 -81c0 -24 -3.83301 -59.667 -11.5 -107s-11.5 -82.666 -11.5 -105.999c0 -20 6.33301 -30 19 -30s25.5 7.66699 38.5 23s22.167 23 27.5 23
c8.66699 0 13 -4.33301 13 -13c0 -16 -13 -37.333 -39 -64c-31.333 -32.667 -66.666 -49 -105.999 -49c-41.333 0 -62 26.667 -62 80c0 23.333 4.66699 61.833 14 115.5s14 91.5 14 113.5c0 51.333 -17.667 77 -53 77c-34.667 0 -63.334 -22.333 -86.001 -67
c-16.667 -32.667 -30.667 -79.667 -42 -141l-21 -129c-4.66699 -25.333 -9.33398 -38 -14.001 -38zM459.999 639.999h33.001c-13.333 -72.667 -47.333 -109 -102 -109c-14.667 0 -40 7.33301 -76 22s-59.667 22 -71 22c-26.667 0 -44 -15.333 -52 -46h-33
c15.333 74 49.666 111 102.999 111c14 0 40 -7.5 78 -22.5s60 -22.5 66 -22.5c32.667 0 50.667 15 54 45z" />
    <glyph glyph-name="ograve" unicode="&#xf2;" horiz-adv-x="444" 
d="M236 429c52 0 93.835 -16.168 125.502 -48.501s47.5 -74.166 47.5 -125.499c0 -70 -19.333 -130.667 -58 -182c-42 -56 -97.333 -84 -166 -84c-64.667 0 -112.334 23 -143.001 69c-24 34.667 -36 76.667 -36 126c0 71.333 24.333 131 73 179
c45.333 44 97.666 66 156.999 66zM120.002 125.999c0 -68.667 22 -103 66 -103c47.333 0 80 41 98 123c8.66699 42 13 92 13 150c0 32 -3.66699 55.333 -11 70c-10.667 22 -30 33 -58 33c-42 0 -72.333 -37 -91 -111c-11.333 -46.667 -17 -100.667 -17 -162z
M322.002 509.999h-32l-122 91c-22 17.333 -33 34 -33 50c0 22 12.667 33 38 33c14.667 0 31.667 -12.333 51 -37z" />
    <glyph glyph-name="oacute" unicode="&#xf3;" horiz-adv-x="444" 
d="M236 429c52 0 93.835 -16.168 125.502 -48.501s47.5 -74.166 47.5 -125.499c0 -70 -19.333 -130.667 -58 -182c-42 -56 -97.333 -84 -166 -84c-64.667 0 -112.334 23 -143.001 69c-24 34.667 -36 76.667 -36 126c0 71.333 24.333 131 73 179
c45.333 44 97.666 66 156.999 66zM120.002 125.999c0 -68.667 22 -103 66 -103c47.333 0 80 41 98 123c8.66699 42 13 92 13 150c0 32 -3.66699 55.333 -11 70c-10.667 22 -30 33 -58 33c-42 0 -72.333 -37 -91 -111c-11.333 -46.667 -17 -100.667 -17 -162z
M221.002 509.999h-32l98 137c19.333 24.667 36.333 37 51 37c25.333 0 38 -11 38 -33c0 -16 -10.667 -32.667 -32 -50z" />
    <glyph glyph-name="ocircumflex" unicode="&#xf4;" horiz-adv-x="444" 
d="M236 429c52 0 93.835 -16.168 125.502 -48.501s47.5 -74.166 47.5 -125.499c0 -70 -19.333 -130.667 -58 -182c-42 -56 -97.333 -84 -166 -84c-64.667 0 -112.334 23 -143.001 69c-24 34.667 -36 76.667 -36 126c0 71.333 24.333 131 73 179
c45.333 44 97.666 66 156.999 66zM120.002 125.999c0 -68.667 22 -103 66 -103c47.333 0 80 41 98 123c8.66699 42 13 92 13 150c0 32 -3.66699 55.333 -11 70c-10.667 22 -30 33 -58 33c-42 0 -72.333 -37 -91 -111c-11.333 -46.667 -17 -100.667 -17 -162z
M306.002 669.999l86 -170h-40l-85 101l-135 -101h-42l158 170h58z" />
    <glyph glyph-name="otilde" unicode="&#xf5;" horiz-adv-x="444" 
d="M236 429c52 0 93.835 -16.168 125.502 -48.501s47.5 -74.166 47.5 -125.499c0 -70 -19.333 -130.667 -58 -182c-42 -56 -97.333 -84 -166 -84c-64.667 0 -112.334 23 -143.001 69c-24 34.667 -36 76.667 -36 126c0 71.333 24.333 131 73 179
c45.333 44 97.666 66 156.999 66zM120.002 125.999c0 -68.667 22 -103 66 -103c47.333 0 80 41 98 123c8.66699 42 13 92 13 150c0 32 -3.66699 55.333 -11 70c-10.667 22 -30 33 -58 33c-42 0 -72.333 -37 -91 -111c-11.333 -46.667 -17 -100.667 -17 -162z
M404.002 639.999h33.001c-13.333 -72.667 -47.333 -109 -102 -109c-14.667 0 -40 7.33301 -76 22s-59.667 22 -71 22c-26.667 0 -44 -15.333 -52 -46h-33c15.333 74 49.666 111 102.999 111c14 0 40 -7.5 78 -22.5s60 -22.5 66 -22.5c32.667 0 50.667 15 54 45z" />
    <glyph glyph-name="odieresis" unicode="&#xf6;" horiz-adv-x="444" 
d="M236 429c52 0 93.835 -16.168 125.502 -48.501s47.5 -74.166 47.5 -125.499c0 -70 -19.333 -130.667 -58 -182c-42 -56 -97.333 -84 -166 -84c-64.667 0 -112.334 23 -143.001 69c-24 34.667 -36 76.667 -36 126c0 71.333 24.333 131 73 179
c45.333 44 97.666 66 156.999 66zM120.002 125.999c0 -68.667 22 -103 66 -103c47.333 0 80 41 98 123c8.66699 42 13 92 13 150c0 32 -3.66699 55.333 -11 70c-10.667 22 -30 33 -58 33c-42 0 -72.333 -37 -91 -111c-11.333 -46.667 -17 -100.667 -17 -162z
M181.002 533.999c-9.33301 0 -20.833 7 -34.5 21s-20.5 24.667 -20.5 32s6.83301 18 20.5 32s24.167 21 31.5 21c9.33301 0 20.666 -7 33.999 -21s20 -24.667 20 -32s-6.66699 -18 -20 -32s-23.666 -21 -30.999 -21zM372.002 533.999c-9.33301 0 -20.833 7 -34.5 21
s-20.5 24.667 -20.5 32s6.83301 18 20.5 32s24.167 21 31.5 21c9.33301 0 20.666 -7 33.999 -21s20 -24.667 20 -32s-6.66699 -18 -20 -32s-23.666 -21 -30.999 -21z" />
    <glyph glyph-name="divide" unicode="&#xf7;" horiz-adv-x="606" 
d="M556 209h-506v88h506v-88zM303 -11c-24 0 -44.667 8.5 -62 25.5s-26 37.833 -26 62.5c0 24 8.66699 44.667 26 62s38 26 62 26c24.667 0 45.5 -8.66699 62.5 -26s25.5 -38 25.5 -62c0 -24.667 -8.5 -45.5 -25.5 -62.5s-37.833 -25.5 -62.5 -25.5zM303 341
c-24 0 -44.667 8.5 -62 25.5s-26 37.833 -26 62.5c0 24 8.66699 44.667 26 62s38 26 62 26c24.667 0 45.5 -8.66699 62.5 -26s25.5 -38 25.5 -62c0 -24.667 -8.5 -45.5 -25.5 -62.5s-37.833 -25.5 -62.5 -25.5z" />
    <glyph glyph-name="oslash" unicode="&#xf8;" horiz-adv-x="444" 
d="M123 145l166 214c-9.33301 26.667 -29.666 40 -60.999 40c-39.333 0 -68.333 -32.667 -87 -98c-12.667 -44 -19.334 -95.333 -20.001 -154zM295 296l-170 -216c6.66699 -38 27 -57 61 -57c47.333 0 80 41 98 123c8.66699 42 13 92 13 150h-2zM78 21l-64.999 -82h-55
l89 112c-27.333 32 -41 76.333 -41 133c0 71.333 24.333 131 73 179c45.333 44 97.666 66 156.999 66c34.667 0 65 -8 91 -24l51 65h56l-72 -91c31.333 -30 47 -71.333 47 -124c0 -70 -19.333 -130.667 -58 -182c-42 -56 -97.333 -84 -166 -84c-44 0 -79.667 10.667 -107 32
z" />
    <glyph glyph-name="ugrave" unicode="&#xf9;" horiz-adv-x="556" 
d="M391 414h70.9971c12 0 18 -5.33301 18 -16c0 -4.66699 -8.33301 -46 -25 -124s-25 -131.667 -25 -161c0 -26.667 6.33301 -40 19 -40c12 0 24.833 8.83301 38.5 26.5s22.834 26.5 27.501 26.5c9.33301 0 14 -4.33301 14 -13c0 -18.667 -14 -42.334 -42 -71.001
c-34 -35.333 -72.333 -53 -115 -53c-34.667 0 -52 21.667 -52 65c0 18 3.33301 61.333 10 130l-2 2c-30 -57.333 -55.333 -98.333 -76 -123c-41.333 -49.333 -87.666 -74 -138.999 -74c-40.667 0 -61 21.667 -61 65c0 14 6.5 57.833 19.5 131.5s19.5 115.834 19.5 126.501
c0 18.667 -7.66699 28 -23 28c-12 0 -22.833 -10.667 -32.5 -32s-18.167 -32 -25.5 -32c-9.33301 0 -14 5.33301 -14 16c0 27.333 14 56.333 42 87c31.333 33.333 65.333 50 102 50c40.667 0 61 -29.333 61 -88c0 -18 -5.66699 -58.833 -17 -122.5
s-17 -100.834 -17 -111.501c0 -22.667 8 -34 24 -34c24.667 0 58.334 38 101.001 114c40.667 72.667 68 139.334 82 200.001c4 18 9.66699 27 17 27zM377.997 510h-32l-122 91c-22 17.333 -33 34 -33 50c0 22 12.667 33 38 33c14.667 0 31.667 -12.333 51 -37z" />
    <glyph glyph-name="uacute" unicode="&#xfa;" horiz-adv-x="556" 
d="M391 414h70.9971c12 0 18 -5.33301 18 -16c0 -4.66699 -8.33301 -46 -25 -124s-25 -131.667 -25 -161c0 -26.667 6.33301 -40 19 -40c12 0 24.833 8.83301 38.5 26.5s22.834 26.5 27.501 26.5c9.33301 0 14 -4.33301 14 -13c0 -18.667 -14 -42.334 -42 -71.001
c-34 -35.333 -72.333 -53 -115 -53c-34.667 0 -52 21.667 -52 65c0 18 3.33301 61.333 10 130l-2 2c-30 -57.333 -55.333 -98.333 -76 -123c-41.333 -49.333 -87.666 -74 -138.999 -74c-40.667 0 -61 21.667 -61 65c0 14 6.5 57.833 19.5 131.5s19.5 115.834 19.5 126.501
c0 18.667 -7.66699 28 -23 28c-12 0 -22.833 -10.667 -32.5 -32s-18.167 -32 -25.5 -32c-9.33301 0 -14 5.33301 -14 16c0 27.333 14 56.333 42 87c31.333 33.333 65.333 50 102 50c40.667 0 61 -29.333 61 -88c0 -18 -5.66699 -58.833 -17 -122.5
s-17 -100.834 -17 -111.501c0 -22.667 8 -34 24 -34c24.667 0 58.334 38 101.001 114c40.667 72.667 68 139.334 82 200.001c4 18 9.66699 27 17 27zM276.997 510h-32l98 137c19.333 24.667 36.333 37 51 37c25.333 0 38 -11 38 -33c0 -16 -10.667 -32.667 -32 -50z" />
    <glyph glyph-name="ucircumflex" unicode="&#xfb;" horiz-adv-x="556" 
d="M391 414h70.9971c12 0 18 -5.33301 18 -16c0 -4.66699 -8.33301 -46 -25 -124s-25 -131.667 -25 -161c0 -26.667 6.33301 -40 19 -40c12 0 24.833 8.83301 38.5 26.5s22.834 26.5 27.501 26.5c9.33301 0 14 -4.33301 14 -13c0 -18.667 -14 -42.334 -42 -71.001
c-34 -35.333 -72.333 -53 -115 -53c-34.667 0 -52 21.667 -52 65c0 18 3.33301 61.333 10 130l-2 2c-30 -57.333 -55.333 -98.333 -76 -123c-41.333 -49.333 -87.666 -74 -138.999 -74c-40.667 0 -61 21.667 -61 65c0 14 6.5 57.833 19.5 131.5s19.5 115.834 19.5 126.501
c0 18.667 -7.66699 28 -23 28c-12 0 -22.833 -10.667 -32.5 -32s-18.167 -32 -25.5 -32c-9.33301 0 -14 5.33301 -14 16c0 27.333 14 56.333 42 87c31.333 33.333 65.333 50 102 50c40.667 0 61 -29.333 61 -88c0 -18 -5.66699 -58.833 -17 -122.5
s-17 -100.834 -17 -111.501c0 -22.667 8 -34 24 -34c24.667 0 58.334 38 101.001 114c40.667 72.667 68 139.334 82 200.001c4 18 9.66699 27 17 27zM361.997 670l86 -170h-40l-85 101l-135 -101h-42l158 170h58z" />
    <glyph glyph-name="udieresis" unicode="&#xfc;" horiz-adv-x="556" 
d="M391 414h70.9971c12 0 18 -5.33301 18 -16c0 -4.66699 -8.33301 -46 -25 -124s-25 -131.667 -25 -161c0 -26.667 6.33301 -40 19 -40c12 0 24.833 8.83301 38.5 26.5s22.834 26.5 27.501 26.5c9.33301 0 14 -4.33301 14 -13c0 -18.667 -14 -42.334 -42 -71.001
c-34 -35.333 -72.333 -53 -115 -53c-34.667 0 -52 21.667 -52 65c0 18 3.33301 61.333 10 130l-2 2c-30 -57.333 -55.333 -98.333 -76 -123c-41.333 -49.333 -87.666 -74 -138.999 -74c-40.667 0 -61 21.667 -61 65c0 14 6.5 57.833 19.5 131.5s19.5 115.834 19.5 126.501
c0 18.667 -7.66699 28 -23 28c-12 0 -22.833 -10.667 -32.5 -32s-18.167 -32 -25.5 -32c-9.33301 0 -14 5.33301 -14 16c0 27.333 14 56.333 42 87c31.333 33.333 65.333 50 102 50c40.667 0 61 -29.333 61 -88c0 -18 -5.66699 -58.833 -17 -122.5
s-17 -100.834 -17 -111.501c0 -22.667 8 -34 24 -34c24.667 0 58.334 38 101.001 114c40.667 72.667 68 139.334 82 200.001c4 18 9.66699 27 17 27zM236.997 534c-9.33301 0 -20.833 7 -34.5 21s-20.5 24.667 -20.5 32s6.83301 18 20.5 32s24.167 21 31.5 21
c9.33301 0 20.666 -7 33.999 -21s20 -24.667 20 -32s-6.66699 -18 -20 -32s-23.666 -21 -30.999 -21zM427.997 534c-9.33301 0 -20.833 7 -34.5 21s-20.5 24.667 -20.5 32s6.83301 18 20.5 32s24.167 21 31.5 21c9.33301 0 20.666 -7 33.999 -21s20 -24.667 20 -32
s-6.66699 -18 -20 -32s-23.666 -21 -30.999 -21z" />
    <glyph glyph-name="yacute" unicode="&#xfd;" 
d="M-15 278c0 30.667 10.6699 62.333 32.0029 95c24 37.333 52.667 56 86 56s66.666 -28.333 99.999 -85c7.33301 -12 41 -81.333 101 -208c30.667 52.667 46 104.667 46 156c0 18.667 -5.83301 37.667 -17.5 57s-17.5 32.333 -17.5 39c0 8.66699 5 17.667 15 27
s22 14 36 14c30 0 45 -20.333 45 -61c0 -44 -17.333 -110.333 -52 -199c-38.667 -97.333 -83 -179 -133 -245c-60.667 -79.333 -119.334 -119 -176.001 -119c-41.333 0 -62 19.667 -62 59c0 30.667 13.667 46 41 46c16.667 0 32 -5 46 -15s27.667 -15 41 -15
c21.333 0 46.666 19 75.999 57c27.333 35.333 41 62 41 80c0 23.333 -22.333 81 -67 173c-48 97.333 -83.667 146 -107 146c-17.333 0 -29.833 -13.5 -37.5 -40.5s-14.5 -40.5 -20.5 -40.5c-10.667 0 -16 7.66699 -16 23zM221.003 509.999h-32l98 137
c19.333 24.667 36.333 37 51 37c25.333 0 38 -11 38 -33c0 -16 -10.667 -32.667 -32 -50z" />
    <glyph glyph-name="thorn" unicode="&#xfe;" 
d="M17 -137l61 494.001c-26 -11.333 -42.667 -17 -50 -17c-13.333 0 -20 6 -20 18c0 13.333 21.333 27.666 64 42.999c8 2.66699 12.5 4.66699 13.5 6s1.83301 6 2.5 14l14 117c8 66.667 12 100.667 12 102c0 14.667 -5.66699 23.667 -17 27
c-3.33301 0.666992 -14.666 1 -33.999 1s-29 5.66699 -29 17c0 10 5.66699 15.667 17 17c50 5.33301 90.333 11 121 17c22.667 4 34.667 6 36 6c12.667 0 19 -7 19 -21c0 6 -7.66699 -59.333 -23 -196l-10 -89c25.333 6.66699 49 10 71 10c127.333 0 191 -53 191 -159
c0 -73.333 -27.167 -138.5 -81.5 -195.5s-117.833 -85.5 -190.5 -85.5c-20.667 0 -35.334 1.66699 -44.001 5c-9.33301 -88 -14 -126.333 -14 -115c0 -18 6.33301 -30 19 -36c3.33301 -2 15.333 -4.66699 36 -8c12.667 -2.66699 19 -8 19 -16
c0 -9.33301 -6.66699 -14 -20 -14c-4.66699 0 -19.5 0.666992 -44.5 2s-48.5 2 -70.5 2c-10 0 -25 -0.666992 -45 -2s-35 -2 -45 -2c-12 0 -18 4.33301 -18 13c0 9.33301 9.5 14.833 28.5 16.5s29.5 11.167 31.5 28.5zM341 246.001c0 97.333 -34.333 146 -103 146
c-27.333 0 -44 -4.33301 -50 -13c-3.33301 -5.33301 -7 -24.333 -11 -57c-19.333 -168 -29 -253 -29 -255c0 -28.667 15.333 -43 46 -43c47.333 0 85 26.333 113 79c22.667 43.333 34 91 34 143z" />
    <glyph glyph-name="ydieresis" unicode="&#xff;" horiz-adv-x="444" 
d="M-15 278c0 30.667 10.6699 62.333 32.0029 95c24 37.333 52.667 56 86 56s66.666 -28.333 99.999 -85c7.33301 -12 41 -81.333 101 -208c30.667 52.667 46 104.667 46 156c0 18.667 -5.83301 37.667 -17.5 57s-17.5 32.333 -17.5 39c0 8.66699 5 17.667 15 27
s22 14 36 14c30 0 45 -20.333 45 -61c0 -44 -17.333 -110.333 -52 -199c-38.667 -97.333 -83 -179 -133 -245c-60.667 -79.333 -119.334 -119 -176.001 -119c-41.333 0 -62 19.667 -62 59c0 30.667 13.667 46 41 46c16.667 0 32 -5 46 -15s27.667 -15 41 -15
c21.333 0 46.666 19 75.999 57c27.333 35.333 41 62 41 80c0 23.333 -22.333 81 -67 173c-48 97.333 -83.667 146 -107 146c-17.333 0 -29.833 -13.5 -37.5 -40.5s-14.5 -40.5 -20.5 -40.5c-10.667 0 -16 7.66699 -16 23zM181.003 533.999c-9.33301 0 -20.833 7 -34.5 21
s-20.5 24.667 -20.5 32s6.83301 18 20.5 32s24.167 21 31.5 21c9.33301 0 20.666 -7 33.999 -21s20 -24.667 20 -32s-6.66699 -18 -20 -32s-23.666 -21 -30.999 -21zM372.003 533.999c-9.33301 0 -20.833 7 -34.5 21s-20.5 24.667 -20.5 32s6.83301 18 20.5 32
s24.167 21 31.5 21c9.33301 0 20.666 -7 33.999 -21s20 -24.667 20 -32s-6.66699 -18 -20 -32s-23.666 -21 -30.999 -21z" />
    <glyph glyph-name="dotlessi" unicode="&#x131;" 
d="M146 104c0 -20.667 7.33301 -31 22 -31c12 0 25.167 9.66699 39.5 29s24.833 29 31.5 29c8.66699 0 13 -4 13 -12c0 -18.667 -13.333 -43 -40 -73c-33.333 -38 -72 -57 -116 -57c-40 0 -60 29.667 -60 89c0 29.333 7.33301 83.5 22 162.5s22 116.5 22 112.5
c0 12 -11.5 20 -34.5 24s-34.5 10.333 -34.5 19c0 10.667 10 16.667 30 18c38.667 2 74 5 106 9c28 4 42.667 6 44 6c9.33301 0 14 -3 14 -9c0 -0.666992 -9.83301 -45.5 -29.5 -134.5s-29.5 -149.5 -29.5 -181.5z" />
    <glyph glyph-name="Lslash" unicode="&#x141;" 
d="M351 479l-7.99902 -76.998l-102 -59l-17 -155c-4 -36.667 -6 -60.667 -6 -72c0 -43.333 28.333 -65 85 -65c63.333 0 117 12.333 161 37c28 15.333 54.333 37.666 79 66.999c20 24.667 33.333 37 40 37c8.66699 0 13 -8.66699 13 -26c0 -39.333 -11 -75.333 -33 -108
c-20 -30 -41 -48.667 -63 -56c-12.667 -4 -41.334 -6 -86.001 -6c-25.333 0 -69.5 0.666992 -132.5 2s-105.5 2 -127.5 2c-26 0 -52 -0.666992 -78 -2s-42.333 -2 -49 -2c-18.667 0 -28 8 -28 24c0 8.66699 6.33301 15 19 19c18 5.33301 30.667 11.333 38 18
c14.667 13.333 24 35.333 28 66l19 140l-104 -59l8 77l102 59l20 156c7.33301 57.333 11 91.333 11 102c0 25.333 -8 43 -24 53c-5.33301 3.33301 -20 8 -44 14c-16 4 -24 11 -24 21c0 12 10.333 18 31 18c18 0 42 -0.666992 72 -2s51.667 -2 65 -2
c10.667 0 26.334 0.666992 47.001 2s36 2 46 2c23.333 0 35 -5.66699 35 -17c0 -8 -6.33301 -14.667 -19 -20c-17.333 -6.66699 -29.333 -13.334 -36 -20.001c-14.667 -14 -23.334 -36 -26.001 -66l-16 -161z" />
    <glyph glyph-name="lslash" unicode="&#x142;" 
d="M-48 242l10 83.001l103 54c0 -2.66699 6.66699 50.333 20 159l6 45c4 34 6 53 6 57c0 14.667 -5.66699 23.667 -17 27c-3.33301 0.666992 -14.666 1 -33.999 1s-29 5.66699 -29 17c0 10 5.66699 15.667 17 17c50 5.33301 90.333 11 121 17c22.667 4 34.667 6 36 6
c12.667 0 19 -7 19 -21c0 -18 -9.33301 -105.667 -28 -263l101 53l-8 -82l-103 -54c-19.333 -152.667 -29 -233.334 -29 -242.001c0 -28.667 9.33301 -43 28 -43c14 0 28.5 10.667 43.5 32s26.167 32 33.5 32s11 -3.66699 11 -11c0 -23.333 -13.667 -50.333 -41 -81
c-32.667 -37.333 -70 -56 -112 -56c-24.667 0 -43.834 9 -57.501 27s-20.5 39.667 -20.5 65c0 11.333 8.66699 83 26 215z" />
    <glyph glyph-name="OE" unicode="&#x152;" horiz-adv-x="944" 
d="M628 385l42.999 -0.00195312c36 0 64 8 84 24c11.333 8.66699 22.666 23.334 33.999 44.001c8 16 16 24 24 24c8.66699 0 13 -6.33301 13 -19c0 12 -7.66699 -58.667 -23 -212c-0.666992 -7.33301 -5 -11 -13 -11c-7.33301 0 -13.666 9.33301 -18.999 28
c-6.66699 24.667 -15 42.334 -25 53.001c-18 18.667 -46.333 28 -85 28h-15c-13.333 0 -26.333 -3.66699 -39 -11c-8.66699 -5.33301 -16.334 -39 -23.001 -101c-5.33301 -48 -8 -83.667 -8 -107c0 -34.667 5.66699 -57.167 17 -67.5s33 -15.5 65 -15.5
c54 0 100.333 11.667 139 35c24.667 14.667 48.667 36 72 64c18.667 23.333 30.667 35 36 35c8 0 12 -7.66699 12 -23c0 -25.333 -11.667 -56 -35 -92c-27.333 -43.333 -57.666 -65 -90.999 -65c-13.333 0 -48.666 0.666992 -105.999 2s-102 2 -134 2
c-65.333 0 -120.333 -1.83301 -165 -5.5s-67.334 -5.5 -68.001 -5.5c-94.667 0 -167.667 26.167 -219 78.5s-77 125.833 -77 220.5c0 126.667 30.333 227.667 91 303c65.333 81.333 159.333 122 282 122c48.667 0 97.5 -2.16699 146.5 -6.5s76.5 -6.5 82.5 -6.5
c71.333 0 138.5 0.666992 201.5 2s91.833 2 86.5 2c14 0 21 -3.66699 21 -11v-125c0 -17.333 -4.33301 -26 -13 -26c-10.667 0 -18.667 11 -24 33c-6 26.667 -12.333 43 -19 49c-13.333 12 -25.666 19.667 -36.999 23c-26 8.66699 -68.667 13 -128 13
c-36.667 0 -58.667 -3.33301 -66 -10c-10 -9.33301 -19 -45.333 -27 -108c-6.66699 -50 -10 -87 -10 -111c0 -30.667 6.33301 -46 19 -46zM452.999 157.998l25.999 205.001c16.667 131.333 25 204.666 25 219.999c0 22 -7.33301 41.333 -22 58
c-19.333 22.667 -48.333 34 -87 34c-67.333 0 -122 -31.667 -164 -95c-46 -70 -69 -169 -69 -297c0 -166 51.333 -249 154 -249c80.667 0 126.334 41.333 137.001 124z" />
    <glyph glyph-name="oe" unicode="&#x153;" horiz-adv-x="722" 
d="M129 126c0 -68.667 22 -103 66 -103c47.333 0 80 41 98 123c8.66699 42 13 92 13 150c0 32 -3.66699 55.333 -11 70c-10.667 22 -30 33 -58 33c-42 0 -72.333 -37 -91 -111c-11.333 -46.667 -17 -100.667 -17 -162zM409 227c36.667 -2 71.668 7.66699 105.001 29
c37.333 23.333 56 52.333 56 87c0 32 -13.333 48 -40 48c-34.667 0 -64.334 -19 -89.001 -57c-21.333 -34 -32 -69.667 -32 -107zM15.001 184c0 71.333 24.3359 131 73.0029 179c45.333 44 97.666 66 156.999 66c65.333 0 112.666 -23.333 141.999 -70
c30.667 24 55 40.333 73 49c30 14 64.333 21 103 21c26.667 0 50.334 -6.33301 71.001 -19c24.667 -14.667 37 -34.667 37 -60c0 -46.667 -33.333 -85 -100 -115c-49.333 -21.333 -104 -35 -164 -41c-6.66699 -96 33 -144 119 -144c30.667 0 58.5 9.83301 83.5 29.5
s39.833 29.5 44.5 29.5c8 0 12 -4.66699 12 -14c0 -5.33301 -7.33301 -15.666 -22 -30.999c-18.667 -20.667 -41.667 -37.334 -69 -50.001c-36 -16.667 -75.667 -25 -119 -25c-46.667 0 -89.334 17 -128.001 51c-14.667 -15.333 -36 -28 -64 -38
c-24.667 -8.66699 -48 -13 -70 -13c-64.667 0 -112.334 23 -143.001 69c-24 34.667 -36 76.667 -36 126z" />
    <glyph glyph-name="Scaron" unicode="&#x160;" 
d="M459 664l-0.00488281 -79.998c0 -11.333 0.5 -21.5 1.5 -30.5s1.5 -18.5 1.5 -28.5c0 -10.667 -4.66699 -16 -14 -16c-10 0 -18.333 9.66699 -25 29c-10 28.667 -20.333 50.334 -31 65.001c-33.333 46 -76 69 -128 69c-61.333 0 -92 -29.667 -92 -89
c0 -22.667 13 -48.334 39 -77.001l187 -194c32.667 -34.667 49 -80.334 49 -137.001c0 -64 -26 -112.333 -78 -145c-44 -27.333 -99.667 -41 -167 -41c-35.333 0 -72.333 3.66699 -111 11c-44 8.66699 -67 18 -69 28c-14.667 69.333 -22 117.333 -22 144
c0 16 6.66699 24 20 24c2.66699 0 12 -14 28 -42c18.667 -34 38.334 -60 59.001 -78c31.333 -28 67.333 -42 108 -42c34.667 0 63.167 8.16699 85.5 24.5s33.5 41.166 33.5 74.499c0 24.667 -13 53 -39 85c-20 26 -73.667 83.333 -161 172
c-44.667 45.333 -67 97.333 -67 156c0 52.667 18 94 54 124c33.333 28.667 77 43 131 43c26.667 0 57.334 -6 92.001 -18s55.334 -18 62.001 -18c2.66699 0 8.33398 2 17.001 6s14.334 6 17.001 6c12.667 0 19 -8.33301 19 -25zM426.995 964.002h42l-160 -170h-57l-95 170
h40l92 -104z" />
    <glyph glyph-name="scaron" unicode="&#x161;" 
d="M223 85c0 24.667 -14.333 49.335 -43 74.002l-79 64c-28.667 27.333 -43 56.666 -43 87.999c0 38 17.667 68 53 90c30 18.667 65 28 105 28c29.333 0 55 -6 77 -18c24.667 -13.333 37 -30 37 -50c0 -28 -15.333 -42 -46 -42c-14.667 0 -28.834 13.167 -42.501 39.5
s-31.167 39.5 -52.5 39.5c-30 0 -45 -15.667 -45 -47c0 -16.667 14.333 -36.334 43 -59.001c46 -36.667 72.667 -59 80 -67c28.667 -30.667 43 -63.667 43 -99c0 -43.333 -17.667 -77.666 -53 -102.999c-31.333 -22.667 -69.666 -34 -114.999 -34c-48 0 -85 10.333 -111 31
c-20 16 -30 33.667 -30 53c0 30 17 45 51 45c18 0 30 -8.33301 36 -25s11.667 -33.334 17 -50.001c9.33301 -17.333 26 -26 50 -26c20.667 0 37.167 6.16699 49.5 18.5s18.5 28.833 18.5 49.5zM371 680.001h42l-160 -170h-57l-95 170h40l92 -104z" />
    <glyph glyph-name="Ydieresis" unicode="&#x178;" horiz-adv-x="611" 
d="M223 268c0 34.667 -50.335 142.001 -151.002 322.001c-15.333 27.333 -32.666 48 -51.999 62c-9.33301 6 -23 12 -41 18c-10.667 4 -16 9.33301 -16 16c0 12 8.66699 18 26 18c1.33301 0 20.5 -0.666992 57.5 -2s63.833 -2 80.5 -2c37.333 0 69.333 0.666992 96 2
s39.334 2 38.001 2c16 0 24 -6 24 -18c0 -11.333 -13 -20.666 -39 -27.999s-39 -18.333 -39 -33c0 -15.333 11.333 -47 34 -95l63 -126c10.667 -22.667 18.667 -34 24 -34s11 3.33301 17 10l21 30l81 109c29.333 40.667 44 68.667 44 84c0 20.667 -8.33301 36 -25 46
c-5.33301 3.33301 -21 8.33301 -47 15c-16.667 4.66699 -25 11.667 -25 21c0 12.667 7.33301 19 22 19c10.667 0 29.167 -0.666992 55.5 -2s47.5 -2 63.5 -2c10.667 0 27 0.666992 49 2s38.333 2 49 2c14 0 21 -6 21 -18c0 -8.66699 -4.66699 -15.667 -14 -21l-38 -22
c-20 -15.333 -39.333 -36.333 -58 -63l-159 -224c-22.667 -34 -35.667 -66.333 -39 -97c-10.667 -94.667 -16 -147.334 -16 -158.001c0 -23.333 9 -40 27 -50c6.66699 -3.33301 24 -8.33301 52 -15c18 -4.66699 27 -11.667 27 -21c0 -12.667 -7.66699 -19 -23 -19l-49 2
c-32.667 1.33301 -67.334 2 -104.001 2c-28.667 0 -56.5 -0.666992 -83.5 -2s-43.5 -2 -49.5 -2c-16.667 0 -25 5.66699 -25 17s7.33301 18.666 22 21.999c22.667 4.66699 37.334 9 44.001 13c17.333 11.333 28.333 32.333 33 63c14.667 96 22 148.333 22 157z
M263.998 818.001c-9.33301 0 -20.833 7 -34.5 21s-20.5 24.667 -20.5 32s6.83301 18 20.5 32s24.167 21 31.5 21c9.33301 0 20.666 -7 33.999 -21s20 -24.667 20 -32s-6.66699 -18 -20 -32s-23.666 -21 -30.999 -21zM454.998 818.001c-9.33301 0 -20.833 7 -34.5 21
s-20.5 24.667 -20.5 32s6.83301 18 20.5 32s24.167 21 31.5 21c9.33301 0 20.666 -7 33.999 -21s20 -24.667 20 -32s-6.66699 -18 -20 -32s-23.666 -21 -30.999 -21z" />
    <glyph glyph-name="Zcaron" unicode="&#x17d;" 
d="M547 624l-317.001 -492c-24.667 -38 -37 -60 -37 -66c0 -17.333 25.667 -26 77 -26c68 0 124.333 11.667 169 35c30 16 55.667 38 77 66c18 23.333 28.333 35 31 35c8 0 12 -8 12 -24c0 -28.667 -7.33301 -56.667 -22 -84c-12 -21.333 -25.667 -37.666 -41 -48.999
c-20.667 -15.333 -53.334 -23 -98.001 -23c-20 0 -53 0.666992 -99 2s-82.333 2 -109 2c-19.333 0 -47.666 -0.666992 -84.999 -2s-64.333 -2 -81 -2c-7.33301 0 -11 4.66699 -11 14c0 6 4.33301 15.667 13 29l350 531c15.333 23.333 23 40.666 23 51.999
c0 10 -5.33301 17 -16 21c-18.667 6.66699 -56.334 10 -113.001 10c-42.667 0 -75.334 -6.33301 -98.001 -19c-29.333 -16 -52.666 -46.667 -69.999 -92c-3.33301 -8.66699 -8 -13 -14 -13c-8.66699 0 -13 5 -13 15s3.66699 30.333 11 61c8 36 13 60.667 15 74
c2 16.667 10.333 25 25 25c24.667 0 61.834 -0.666992 111.501 -2s86.834 -2 111.501 -2c23.333 0 58 0.666992 104 2s80.333 2 103 2c15.333 0 23 -7 23 -21c0 -6 -10.667 -25.667 -32 -59zM481.999 964h42l-160 -170h-57l-95 170h40l92 -104z" />
    <glyph glyph-name="zcaron" unicode="&#x17e;" 
d="M-6 25l247 265.998c-36.667 -1.33301 -71.834 7.16699 -105.501 25.5s-53.167 27.5 -58.5 27.5c-14 0 -21 -7.33301 -21 -22c0 -12 3.66699 -23 11 -33s11 -15.667 11 -17c0 -8.66699 -5 -13 -15 -13c-8 0 -16.667 6 -26 18c-13.333 15.333 -20 35.666 -20 60.999
c0 23.333 9.83301 44.333 29.5 63s41.5 28 65.5 28c19.333 0 53.833 -10.167 103.5 -30.5s79.834 -30.5 90.501 -30.5c15.333 0 25.833 10.167 31.5 30.5s14.5 30.5 26.5 30.5c13.333 0 20 -7.66699 20 -23c0 -10.667 -14.667 -33 -44 -67l-210 -223
c30 -10.667 56.333 -32.667 79 -66c4 -5.33301 19 -32.666 45 -81.999c14 -27.333 27.333 -41 40 -41c12 0 18 4 18 12c0 2 -0.333008 5.66699 -1 11s-1 11.333 -1 18c0 20 9.66699 30 29 30c25.333 0 38 -10.667 38 -32c0 -17.333 -9.5 -33.333 -28.5 -48
s-39.833 -22 -62.5 -22c-35.333 0 -69 11.667 -101 35c-14.667 10.667 -37.667 32.334 -69 65.001c-22 23.333 -39 35 -51 35c-11.333 0 -22 -7 -32 -21s-21 -21 -33 -21s-18 4.33301 -18 13c0 6.66699 4 14.334 12 23.001zM371 679.998h42l-160 -170h-57l-95 170h40
l92 -104z" />
    <glyph glyph-name="florin" unicode="&#x192;" horiz-adv-x="556" 
d="M400 363l-76.0029 -0.000976562c-4.66699 0 -8 -6.66699 -10 -20l-38 -301c-10 -81.333 -39 -144.333 -87 -189c-35.333 -33.333 -70.333 -50 -105 -50c-40 0 -60 15.667 -60 47c0 14 2.33301 29 7 45c6 20.667 13.667 31 23 31c8.66699 0 18.667 -11.833 30 -35.5
s23.666 -35.5 36.999 -35.5c18.667 0 31.334 29.667 38.001 89l48 407c0.666992 8 -3.66602 12 -12.999 12h-66c-13.333 0 -20 8.33301 -20 25c0 10.667 1 17.667 3 21s7.66699 5 17 5h75c4.66699 0 8.33398 6.33301 11.001 19c4.66699 26.667 10.334 50 17.001 70
c16 50 42 92 78 126c39.333 36.667 81.333 55 126 55c39.333 0 64.666 -5.33301 75.999 -16c5.33301 -4.66699 8 -14 8 -28c0 -49.333 -8 -74 -24 -74c-4 0 -14.667 12.167 -32 36.5s-35.333 36.5 -54 36.5c-25.333 0 -47.666 -31.333 -66.999 -94
c-15.333 -49.333 -23 -87.666 -23 -114.999c0 -10.667 4.66699 -16 14 -16h67c9.33301 0 15 -1.66699 17 -5s3 -10.333 3 -21c0 -16.667 -6.66699 -25 -20 -25z" />
    <glyph glyph-name="circumflex" unicode="&#x2c6;" horiz-adv-x="333" 
d="M250 670l86 -170h-40l-85 101l-135 -101h-42l158 170h58z" />
    <glyph glyph-name="caron" unicode="&#x2c7;" horiz-adv-x="333" 
d="M343 680h42l-160 -170h-57l-95 170h40l92 -104z" />
    <glyph glyph-name="breve" unicode="&#x2d8;" horiz-adv-x="333" 
d="M68 670l32.999 -0.000976562c0.666992 -30.667 10.834 -54.5 30.501 -71.5s45.167 -25.5 76.5 -25.5c36 0 68 13.667 96 41c20 20 32.333 38.667 37 56h32c-4 -39.333 -20.667 -74.666 -50 -105.999c-33.333 -36 -73.333 -54 -120 -54
c-94.667 0 -139.667 53.333 -135 160z" />
    <glyph glyph-name="dotaccent" unicode="&#x2d9;" horiz-adv-x="333" 
d="M118 534c-9.33301 0 -20.833 7 -34.5 21s-20.5 24.667 -20.5 32s6.83301 18 20.5 32s24.167 21 31.5 21c9.33301 0 20.666 -7 33.999 -21s20 -24.667 20 -32s-6.66699 -18 -20 -32s-23.666 -21 -30.999 -21z" />
    <glyph glyph-name="ring" unicode="&#x2da;" horiz-adv-x="333" 
d="M253 477c-28 0 -52 9.83301 -72 29.5s-30 43.5 -30 71.5s10 52 30 72s44 30 72 30s51.833 -10 71.5 -30s29.5 -44 29.5 -72c0 -27.333 -10 -51 -30 -71s-43.667 -30 -71 -30zM253 635c-16 0 -29.499 -5.49902 -40.499 -16.499s-16.5 -24.5 -16.5 -40.5
c0 -15.333 5.66699 -28.5 17 -39.5s24.666 -16.5 39.999 -16.5s28.5 5.66699 39.5 17s16.5 24.333 16.5 39c0 15.333 -5.5 28.666 -16.5 39.999s-24.167 17 -39.5 17z" />
    <glyph glyph-name="ogonek" unicode="&#x2db;" horiz-adv-x="333" 
d="M125 0h45v-2c-58 -39.333 -87 -79.333 -87 -120c0 -14.667 3.66699 -28 11 -40c10 -16 23.333 -24 40 -24c13.333 0 37.666 4.66699 72.999 14v-26c-26.667 -20.667 -64 -31 -112 -31c-63.333 0 -95 28.333 -95 85c0 32 17 64.667 51 98
c30.667 30.667 55.334 46 74.001 46z" />
    <glyph glyph-name="tilde" unicode="&#x2dc;" horiz-adv-x="333" 
d="M348 640h33.001c-13.333 -72.667 -47.333 -109 -102 -109c-14.667 0 -40 7.33301 -76 22s-59.667 22 -71 22c-26.667 0 -44 -15.333 -52 -46h-33c15.333 74 49.666 111 102.999 111c14 0 40 -7.5 78 -22.5s60 -22.5 66 -22.5c32.667 0 50.667 15 54 45z" />
    <glyph glyph-name="hungarumlaut" unicode="&#x2dd;" horiz-adv-x="500" 
d="M170 510h-32l98 137c19.333 24.667 36.333 37 51 37c25.333 0 38 -11 38 -33c0 -16 -10.667 -32.667 -32 -50zM411 510h-32l98 137c19.333 24.667 36.333 37 51 37c25.333 0 38 -11 38 -33c0 -16 -10.667 -32.667 -32 -50z" />
    <glyph glyph-name="Delta" unicode="&#x394;" horiz-adv-x="612" 
 />
    <glyph glyph-name="Delta" unicode="&#x2206;" horiz-adv-x="612" 
 />
    <glyph glyph-name="Omega" unicode="&#x3a9;" horiz-adv-x="768" 
 />
    <glyph glyph-name="Omega" unicode="&#x2126;" horiz-adv-x="768" 
 />
    <glyph glyph-name="pi" unicode="&#x3c0;" horiz-adv-x="549" 
 />
    <glyph glyph-name="endash" unicode="&#x2013;" horiz-adv-x="500" 
d="M494 183h-500l6 72h500z" />
    <glyph glyph-name="emdash" unicode="&#x2014;" horiz-adv-x="1000" 
d="M0 255h1000l-6 -72h-1000z" />
    <glyph glyph-name="quoteleft" unicode="&#x2018;" 
d="M213 468c0 -7.33301 -14.168 -21.332 -42.501 -41.999s-47.166 -31 -56.499 -31s-22 10 -38 30c-20 24.667 -30 52 -30 82c0 49.333 26.333 97.666 79 144.999c45.333 40.667 80 61 104 61c8.66699 0 13 -5 13 -15c0 -5.33301 -7.66699 -13.666 -23 -24.999
c-20 -14 -34.333 -26.333 -43 -37c-15.333 -18.667 -23 -40.334 -23 -65.001c0 -22 10 -43.667 30 -65s30 -34 30 -38z" />
    <glyph glyph-name="quoteright" unicode="&#x2019;" 
d="M83 640c0 7.33301 14.168 21.332 42.501 41.999s47.166 31 56.499 31s22 -10 38 -30c20 -24.667 30 -52 30 -82c0 -49.333 -26.333 -97.666 -79 -144.999c-45.333 -40.667 -80 -61 -104 -61c-8.66699 0 -13 5 -13 15c0 5.33301 7.66699 13.666 23 24.999
c20 14 34.333 26.333 43 37c15.333 18.667 23 40.334 23 65.001c0 22 -10 43.667 -30 65s-30 34 -30 38z" />
    <glyph glyph-name="quotesinglbase" unicode="&#x201a;" 
d="M29 95c0 7.33301 14.168 21.332 42.501 41.999s47.166 31 56.499 31s22 -10 38 -30c20 -24.667 30 -52 30 -82c0 -49.333 -26.333 -97.666 -79 -144.999c-45.333 -40.667 -80 -61 -104 -61c-8.66699 0 -13 5 -13 15c0 5.33301 7.66699 13.666 23 24.999
c20 14 34.333 26.333 43 37c15.333 18.667 23 40.334 23 65.001c0 22 -10 43.667 -30 65s-30 34 -30 38z" />
    <glyph glyph-name="quotedblleft" unicode="&#x201c;" horiz-adv-x="500" 
d="M421 468c0 -7.33301 -14.168 -21.332 -42.501 -41.999s-47.166 -31 -56.499 -31s-22 10 -38 30c-20 24.667 -30 52 -30 82c0 49.333 26.333 97.666 79 144.999c45.333 40.667 80 61 104 61c8.66699 0 13 -5 13 -15c0 -5.33301 -7.66699 -13.666 -23 -24.999
c-20 -14 -34.333 -26.333 -43 -37c-15.333 -18.667 -23 -40.334 -23 -65.001c0 -22 10 -43.667 30 -65s30 -34 30 -38zM189.999 468.001c0 -7.33301 -14.168 -21.332 -42.501 -41.999s-47.166 -31 -56.499 -31s-22 10 -38 30c-20 24.667 -30 52 -30 82
c0 49.333 26.333 97.666 79 144.999c45.333 40.667 80 61 104 61c8.66699 0 13 -5 13 -15c0 -5.33301 -7.66699 -13.666 -23 -24.999c-20 -14 -34.333 -26.333 -43 -37c-15.333 -18.667 -23 -40.334 -23 -65.001c0 -22 10 -43.667 30 -65s30 -34 30 -38z" />
    <glyph glyph-name="quotedblright" unicode="&#x201d;" horiz-adv-x="500" 
d="M80 640c0 7.33301 14.168 21.332 42.501 41.999s47.166 31 56.499 31s22 -10 38 -30c20 -24.667 30 -52 30 -82c0 -49.333 -26.333 -97.666 -79 -144.999c-45.333 -40.667 -80 -61 -104 -61c-8.66699 0 -13 5 -13 15c0 5.33301 7.66699 13.666 23 24.999
c20 14 34.333 26.333 43 37c15.333 18.667 23 40.334 23 65.001c0 22 -10 43.667 -30 65s-30 34 -30 38zM312.001 639.999c0 7.33301 14.168 21.332 42.501 41.999s47.166 31 56.499 31s22 -10 38 -30c20 -24.667 30 -52 30 -82c0 -49.333 -26.333 -97.666 -79 -144.999
c-45.333 -40.667 -80 -61 -104 -61c-8.66699 0 -13 5 -13 15c0 5.33301 7.66699 13.666 23 24.999c20 14 34.333 26.333 43 37c15.333 18.667 23 40.334 23 65.001c0 22 -10 43.667 -30 65s-30 34 -30 38z" />
    <glyph glyph-name="quotedblbase" unicode="&#x201e;" horiz-adv-x="500" 
d="M29 95c0 7.33301 14.168 21.332 42.501 41.999s47.166 31 56.499 31s22 -10 38 -30c20 -24.667 30 -52 30 -82c0 -49.333 -26.333 -97.666 -79 -144.999c-45.333 -40.667 -80 -61 -104 -61c-8.66699 0 -13 5 -13 15c0 5.33301 7.66699 13.666 23 24.999
c20 14 34.333 26.333 43 37c15.333 18.667 23 40.334 23 65.001c0 22 -10 43.667 -30 65s-30 34 -30 38zM260.001 94.999c0 7.33301 14.168 21.332 42.501 41.999s47.166 31 56.499 31s22 -10 38 -30c20 -24.667 30 -52 30 -82c0 -49.333 -26.333 -97.666 -79 -144.999
c-45.333 -40.667 -80 -61 -104 -61c-8.66699 0 -13 5 -13 15c0 5.33301 7.66699 13.666 23 24.999c20 14 34.333 26.333 43 37c15.333 18.667 23 40.334 23 65.001c0 22 -10 43.667 -30 65s-30 34 -30 38z" />
    <glyph glyph-name="dagger" unicode="&#x2020;" horiz-adv-x="500" 
d="M196 -124h-24c20 145.333 30 245.333 30 300c0 57.333 -4 98 -12 122c39.333 36.667 64.666 94 75.999 172c-20.667 0 -44.167 -6.83301 -70.5 -20.5s-44.166 -20.5 -53.499 -20.5c-14 0 -26.167 4.5 -36.5 13.5s-15.5 20.5 -15.5 34.5c0 17.333 6 31.166 18 41.499
s27.667 15.5 47 15.5c7.33301 0 23 -6.83301 47 -20.5s46.333 -20.5 67 -20.5c6 12.667 9 31 9 55c0 16 -4.66699 36.167 -14 60.5s-14 41.5 -14 51.5c0 13.333 5 25 15 35c12.667 12 30.334 18 53.001 18c32.667 0 49 -11 49 -33c0 -25.333 -9.66699 -53 -29 -83
c-22 -32.667 -35.333 -67.334 -40 -104.001c29.333 0 58.666 6.83301 87.999 20.5s48 20.5 56 20.5c14 0 26.167 -4.5 36.5 -13.5s15.5 -20.5 15.5 -34.5c0 -17.333 -6 -31.166 -18 -41.499s-27.667 -15.5 -47 -15.5c-6 0 -22.667 6.83301 -50 20.5s-55.333 20.5 -84 20.5
c-3.33301 -11.333 -5 -22.666 -5 -33.999c0 -41.333 10 -87.333 30 -138c-28.667 -44 -56.667 -123 -84 -237z" />
    <glyph glyph-name="daggerdbl" unicode="&#x2021;" horiz-adv-x="500" 
d="M363 167c14 0 26.167 -4.5 36.5 -13.5s15.5 -20.5 15.5 -34.5c0 -17.333 -6 -31.166 -18 -41.499s-27.667 -15.5 -47 -15.5c-7.33301 0 -23 6.83301 -47 20.5s-46.333 20.5 -67 20.5c-6 -12.667 -9 -31 -9 -55c0 -16 4.66699 -36.167 14 -60.5s14 -41.5 14 -51.5
c0 -13.333 -5 -25 -15 -35c-12.667 -12 -30.334 -18 -53.001 -18c-32.667 0 -49 11 -49 33c0 25.333 9.66699 53 29 83c22 32.667 35.333 67.334 40 104.001c-29.333 0 -58.666 -6.83301 -87.999 -20.5s-48 -20.5 -56 -20.5c-14 0 -26.167 4.5 -36.5 13.5
s-15.5 20.5 -15.5 34.5c0 17.333 6 31.166 18 41.499s27.667 15.5 47 15.5c6 0 22.667 -6.83301 50 -20.5s55.333 -20.5 84 -20.5c3.33301 11.333 5 22.666 5 33.999c0 41.333 -10 87.333 -30 138c39.333 36.667 64.666 94 75.999 172
c-20.667 0 -44.167 -6.83301 -70.5 -20.5s-44.166 -20.5 -53.499 -20.5c-14 0 -26.167 4.5 -36.5 13.5s-15.5 20.5 -15.5 34.5c0 17.333 6 31.166 18 41.499s27.667 15.5 47 15.5c7.33301 0 23 -6.83301 47 -20.5s46.333 -20.5 67 -20.5c6 12.667 9 31 9 55
c0 16 -4.66699 36.167 -14 60.5s-14 41.5 -14 51.5c0 13.333 5 25 15 35c12.667 12 30.334 18 53.001 18c32.667 0 49 -11 49 -33c0 -25.333 -9.66699 -53 -29 -83c-22 -32.667 -35.333 -67.334 -40 -104.001c29.333 0 58.666 6.83301 87.999 20.5s48 20.5 56 20.5
c14 0 26.167 -4.5 36.5 -13.5s15.5 -20.5 15.5 -34.5c0 -17.333 -6 -31.166 -18 -41.499s-27.667 -15.5 -47 -15.5c-6 0 -22.667 6.83301 -50 20.5s-55.333 20.5 -84 20.5c-3.33301 -11.333 -5 -22.666 -5 -33.999c0 -41.333 10 -87.333 30 -138
c-39.333 -36.667 -64.666 -94 -75.999 -172c20.667 0 44.167 6.83301 70.5 20.5s44.166 20.5 53.499 20.5z" />
    <glyph glyph-name="bullet" unicode="&#x2022;" horiz-adv-x="606" 
d="M478 351c0 -48.667 -17.167 -90.167 -51.5 -124.5s-75.833 -51.5 -124.5 -51.5s-89.834 17.167 -123.501 51.5s-50.5 75.833 -50.5 124.5c0 48 16.833 89 50.5 123s74.834 51 123.501 51s90.167 -17 124.5 -51s51.5 -75 51.5 -123z" />
    <glyph glyph-name="ellipsis" unicode="&#x2026;" horiz-adv-x="1000" 
d="M162 -11c-4.66699 0 -11.334 4.33301 -20.001 13l-55 57c-10 10 -15 16.333 -15 19c0 3.33301 5.66699 10.333 17 21c24.667 22 44.334 40.333 59.001 55c9.33301 9.33301 17.333 14 24 14c4.66699 0 11.334 -4.33301 20.001 -13l55 -57c10 -10 15 -16.333 15 -19
c0 -3.33301 -5.66699 -10.333 -17 -21c-24.667 -22 -44.334 -40.333 -59.001 -55c-9.33301 -9.33301 -17.333 -14 -24 -14zM495 -11c-4.66699 0 -11.334 4.33301 -20.001 13l-55 57c-10 10 -15 16.333 -15 19c0 3.33301 5.66699 10.333 17 21
c24.667 22 44.334 40.333 59.001 55c9.33301 9.33301 17.333 14 24 14c4.66699 0 11.334 -4.33301 20.001 -13l55 -57c10 -10 15 -16.333 15 -19c0 -3.33301 -5.66699 -10.333 -17 -21c-24.667 -22 -44.334 -40.333 -59.001 -55c-9.33301 -9.33301 -17.333 -14 -24 -14z
M828 -11c-4.66699 0 -11.334 4.33301 -20.001 13l-55 57c-10 10 -15 16.333 -15 19c0 3.33301 5.66699 10.333 17 21c24.667 22 44.334 40.333 59.001 55c9.33301 9.33301 17.333 14 24 14c4.66699 0 11.334 -4.33301 20.001 -13l55 -57c10 -10 15 -16.333 15 -19
c0 -3.33301 -5.66699 -10.333 -17 -21c-24.667 -22 -44.334 -40.333 -59.001 -55c-9.33301 -9.33301 -17.333 -14 -24 -14z" />
    <glyph glyph-name="perthousand" unicode="&#x2030;" horiz-adv-x="1000" 
d="M707 141c0 38 14 74.667 42 110c33.333 42.667 76.333 64 129 64c40 0 72.5 -12.667 97.5 -38s37.5 -58 37.5 -98c0 -48.667 -15.667 -91 -47 -127c-33.333 -37.333 -74 -56 -122 -56c-42.667 0 -76.167 13.5 -100.5 40.5s-36.5 61.833 -36.5 104.5zM788 169
c0 -94 26.334 -141 79.001 -141c46.667 0 70 42.333 70 127c0 87.333 -26.333 131 -79 131c-24.667 0 -43.334 -14.333 -56.001 -43c-9.33301 -21.333 -14 -46 -14 -74zM178.001 -11h-51l379 674h50zM25.001 478c0 38 14 74.667 42 110c33.333 42.667 76.333 64 129 64
c40 0 72.5 -12.667 97.5 -38s37.5 -58 37.5 -98c0 -48.667 -15.667 -91 -47 -127c-33.333 -37.333 -74 -56 -122 -56c-42.667 0 -76.167 13.5 -100.5 40.5s-36.5 61.833 -36.5 104.5zM106.001 506c0 -94 26.334 -141 79.001 -141c46.667 0 70 42.333 70 127
c0 87.333 -26.333 131 -79 131c-24.667 0 -43.334 -14.333 -56.001 -43c-9.33301 -21.333 -14 -46 -14 -74zM354.002 141c0 38 14 74.667 42 110c33.333 42.667 76.333 64 129 64c40 0 72.5 -12.667 97.5 -38s37.5 -58 37.5 -98c0 -48.667 -15.667 -91 -47 -127
c-33.333 -37.333 -74 -56 -122 -56c-42.667 0 -76.167 13.5 -100.5 40.5s-36.5 61.833 -36.5 104.5zM435.002 169c0 -94 26.334 -141 79.001 -141c46.667 0 70 42.333 70 127c0 87.333 -26.333 131 -79 131c-24.667 0 -43.334 -14.333 -56.001 -43
c-9.33301 -21.333 -14 -46 -14 -74z" />
    <glyph glyph-name="guilsinglleft" unicode="&#x2039;" horiz-adv-x="333" 
d="M59 219c2 1.33301 49.333 39.335 142 114.002c32 26 51.667 39 59 39c5.33301 0 8 -3.33301 8 -10c0.666992 -4.66699 -7 -16.334 -23 -35.001l-96 -114c14 -30 30.333 -62.333 49 -97c9.33301 -18.667 14 -30.334 14 -35.001c0 -7.33301 -3.33301 -11 -10 -11
s-17 8 -31 24z" />
    <glyph glyph-name="guilsinglright" unicode="&#x203a;" horiz-adv-x="333" 
d="M268 219c-2 -1.33301 -49.333 -39.333 -142 -114c-32 -26 -51.667 -39 -59 -39c-5.33301 0 -8 3.33301 -8 10c-0.666992 4.66699 7 16.667 23 36l96 113c-14 30 -30.333 62.667 -49 98c-9.33301 18 -14 29.333 -14 34c0 7.33301 3.33301 11 10 11s17 -8 31 -24z" />
    <glyph glyph-name="fraction" unicode="&#x2044;" horiz-adv-x="167" 
d="M-109 0h-58l444 666h57z" />
    <glyph glyph-name="trademark" unicode="&#x2122;" horiz-adv-x="1000" 
d="M308 296h-197.002v26c42.667 0 64 15 64 45v301h-44c-27.333 0 -46.166 -5 -56.499 -15s-15.833 -28.333 -16.5 -55h-30v102h367v-102h-30c-0.666992 26.667 -6.16699 45 -16.5 55s-29.166 15 -56.499 15h-44v-310c0 -24 20 -36 60 -36v-26zM581.998 700l118 -279.001
l118 279h133v-24h-19c-14 0 -22.5 -2.33301 -25.5 -7s-4.5 -14.334 -4.5 -29.001v-269c0 -20.667 2.5 -33.667 7.5 -39s18.833 -8.66602 41.5 -9.99902v-26h-173v26c22.667 0.666992 36.834 3.5 42.501 8.5s8.5 18.167 8.5 39.5v278h-2l-143 -352h-10l-149 352h-2v-294
c0 -14 4.33301 -23 13 -27c5.33301 -2.66699 17.666 -4.33398 36.999 -5.00098v-26h-131v26c20.667 0.666992 34.167 2.83398 40.5 6.50098s9.5 12.834 9.5 27.501v284c0 16 -0.666992 25.333 -2 28c-2.66699 5.33301 -11 8 -25 8h-15v24h132z" />
    <glyph glyph-name="partialdiff" unicode="&#x2202;" horiz-adv-x="494" 
 />
    <glyph glyph-name="product" unicode="&#x220f;" horiz-adv-x="823" 
 />
    <glyph glyph-name="summation" unicode="&#x2211;" horiz-adv-x="713" 
 />
    <glyph glyph-name="radical" unicode="&#x221a;" horiz-adv-x="549" 
 />
    <glyph glyph-name="infinity" unicode="&#x221e;" horiz-adv-x="713" 
 />
    <glyph glyph-name="integral" unicode="&#x222b;" horiz-adv-x="274" 
 />
    <glyph glyph-name="approxequal" unicode="&#x2248;" horiz-adv-x="549" 
 />
    <glyph glyph-name="approxequal" unicode="&#x22f2;" horiz-adv-x="549" 
 />
    <glyph glyph-name="notequal" unicode="&#x2260;" horiz-adv-x="549" 
 />
    <glyph glyph-name="lessequal" unicode="&#x2264;" horiz-adv-x="549" 
 />
    <glyph glyph-name="greaterequal" unicode="&#x2265;" horiz-adv-x="549" 
 />
    <glyph glyph-name="lozenge" unicode="&#x25ca;" horiz-adv-x="494" 
 />
    <glyph glyph-name="apple" unicode="&#xf000;" horiz-adv-x="790" 
 />
    <glyph glyph-name="fi" unicode="&#xf001;" horiz-adv-x="556" 
d="M30 414l80.001 0.000976562c2.66699 89.333 29.667 163.666 81 222.999c49.333 58.667 109 88 179 88c74 0 111 -17.667 111 -53c0 -16.667 -5.33301 -31.5 -16 -44.5s-21 -19.5 -31 -19.5c-14.667 0 -30 13 -46 39s-34 39 -54 39
c-44.667 0 -76.334 -33.667 -95.001 -101c-7.33301 -24.667 -15.666 -81.667 -24.999 -171h101c28.667 0 60.834 2.5 96.501 7.5l53.5 7.5c9.33301 0 14 -3 14 -9c0 -0.666992 -9.83301 -45.5 -29.5 -134.5s-29.5 -149.5 -29.5 -181.5c0 -20.667 7.33301 -31 22 -31
c12 0 25.167 9.66699 39.5 29s24.833 29 31.5 29c8.66699 0 13 -4 13 -12c0 -18.667 -13.333 -43 -40 -73c-33.333 -38 -72 -57 -116 -57c-40 0 -60 29.667 -60 89c0 29.333 7.33301 83.5 22 162.5s22 116.5 22 112.5c0 6.66699 -5.66699 10 -17 10h-129l-45 -373
c-14.667 -121.333 -60 -182 -136 -182c-10.667 0 -21.334 5.66699 -32.001 17c-14 14.667 -21 34 -21 58c0 8 4.33301 12.667 13 14c15.333 2.66699 25 5 29 7c18.667 10 31.667 29.667 39 59c3.33301 12 7.66602 40.667 12.999 86l37 314h-75c-13.333 0 -20 8.33301 -20 25
c0 10.667 1 17.667 3 21s7.66699 5 17 5z" />
    </font>
</defs>
</svg>
